<svg xmlns="http://www.w3.org/2000/svg" xml:space="preserve" id="Layer_1" x="0" y="0" version="1.1" viewBox="202 58.27 366.92 437.26"><style>.st1{fill:#d4d3d4}.st3{fill:#efedf7}.st4{fill:#992562}.st5{fill:#fced67}.st6{fill:#16120f}.st7{fill:#fefefe}.st8{fill:#fdfdfd}.st9{fill:#f8ea68}.st10{fill:#fcfcfc}.st11{fill:#972662}.st12{fill:#fae5cf}.st14{fill:#0a8b39}.st15{fill:#f0eff0}.st16{fill:#e2161c}.st17{fill:#f8e500}.st18{fill:#f4f5f7}.st19{fill:#322b28}.st21{fill:#2f2726}.st22{fill:#3c2e2a}.st24{fill:#dd1e1e}.st25{fill:#da231f}</style><path fill="#302927" d="M202 409.68c.3.07.43-.11.46-.35.12-.95.22-1.91.32-2.87.82-7.92 2.65-15.6 5.52-23.03 3.45-8.94 8.36-16.98 14.63-24.21 3.91-4.51 8.14-8.7 12.88-12.36 6.82-5.26 14.33-9.14 22.7-11.29 2.79-.72 5.62-1.24 8.5-1.55 2.05-.22 4.08-.54 6.13-.78.84-.1 1.46-.51 1.91-1.19.2-.3.36-.64.52-.97.95-2.03 1.9-4.06 2.86-6.09.25-.54.51-1.08.82-1.58.95-1.57 2.32-2.56 4.16-2.85.63-.1 1.27-.18 1.9-.27.32-.04.64-.07.95-.13 1.08-.2 1.69-.85 1.85-1.93.87-5.86 2.59-11.51 4.45-17.11.35-1.05.64-2.12.69-3.21.11-2.59.75-5.06 1.44-7.53 1.06-3.79 2.06-7.59 3.1-11.39.35-1.28.7-2.55 1.57-3.56-.17-.42-.49-.27-.73-.27-3.3.09-6.6.18-9.89.31-4.26.16-8.52.35-12.78.52-5.72.23-11.45.44-17.18.66-3.71.15-7.42.32-11.13.47-2.94.12-5.3 2.2-5.78 5.1-.24 1.41-.37 2.81-.04 4.23.29 1.24.85 2.31 1.72 3.23.93.98 2 1.76 3.24 2.27 2.67 1.1 5.45 1.83 8.31 2.27 1.5.23 3.01.24 4.52.28 1.88.05 3.75.13 5.67.2.14.35.3.62.37.92.28 1.16.53 2.32.79 3.48.17.75-.01 1.04-.75 1.12-4.2.47-8.41.72-12.63.49-1.83-.1-3.64-.38-5.46-.58-1.23-.14-2.46-.26-3.68-.43-2.3-.32-4.43-1.12-6.4-2.34-.98-.6-1.88-1.32-2.62-2.2-1.64-1.94-2.94-4.08-3.78-6.49-.82-2.34-.68-4.69-.1-7.04.77-3.11 2.49-5.58 5.06-7.46 2.28-1.67 4.83-2.79 7.53-3.56 2.15-.62 4.33-1.17 6.52-1.61 1.2-.24 2.46-.28 3.69-.29 7.15-.03 14.3-.01 21.46-.03 4.03-.01 8.07-.08 12.1-.13h.28c2.29-.08 2.29-.07 4.14-1.43 1.49-1.09 3.1-1.94 4.88-2.44 1.14-.32 2.29-.65 3.45-.89 2.56-.53 4.95.64 5.93 3.07.45 1.12 1.11 1.38 2.2 1.35 6.14-.18 12.28-.28 18.42-.47 3.48-.11 6.96-.33 10.44-.49.5-.02 1.01-.01 1.51-.04 1.11-.07 1.37-.29 1.52-1.36.27-1.86.51-3.72.77-5.58l1.26-8.84.93-6.53c.1-.68.22-1.36.32-2.03.11-.72-.18-1.25-.81-1.6-.76-.43-1.52-.85-2.27-1.28-2.38-1.37-4.77-2.72-7.14-4.11a45.553 45.553 0 0 1-8.82-6.75c-2.09-2.05-4.18-4.12-6.16-6.28-2.98-3.25-5.6-6.79-7.87-10.57-1.48-2.47-2.83-5.02-4.23-7.54-.78-1.41-1.39-2.89-1.82-4.44-.36-1.31-.93-2.48-2.01-3.36-.72-.58-1.07-1.34-1.19-2.24-.12-.91-.26-1.81-.38-2.72-.04-.32-.06-.64-.11-.96-.09-.54-.36-.91-.92-1.07-.53-.14-1.06-.31-1.56-.51-.85-.35-1.69-.69-2.5-1.11-1.7-.89-3.07-2.15-4.05-3.81-1.45-2.44-2.87-4.9-4.33-7.33-.51-.86-1.09-1.69-1.63-2.54-.22-.35-.43-.71-.61-1.07-.74-1.52-1.46-3.05-2.22-4.57-.57-1.15-1.23-2.25-1.75-3.42-1.01-2.32-1.67-4.74-1.83-7.29-.07-1.1-.28-2.18-.36-3.28a56.14 56.14 0 0 1-.12-3.43c0-.4.12-.81.2-1.21.22-1.07.85-1.82 1.86-2.21 1.45-.56 2.91-1.08 4.38-1.59.52-.18 1.06-.28 1.59-.44.72-.23 1.41-.28 2.14.04.5.22.78.07.98-.41.12-.29.21-.6.31-.91.5-1.5 1.43-2.6 2.9-3.3 1.67-.8 3.41-1.3 5.24-1.56.66-.09 1.29-.01 1.87.28.73.35 1.43.76 2.2 1.18-.02-.39-.03-.74-.05-1.1-.09-1.32-.19-2.65-.29-3.97-.07-.91-.07-1.84-.26-2.73-.37-1.7-.21-3.37.07-5.05.16-.95.32-1.9.51-2.84.27-1.36.77-2.63 1.64-3.74.81-1.03 1.81-1.65 3.17-1.64.41.01.83 0 1.23-.1 1.4-.33 2.66.05 3.75.88.83.63 1.63 1.35 2.31 2.14 1.47 1.72 2.53 3.7 3.24 5.85.29.87.41 1.78.37 2.71-.05 1.1-.05 2.2-.08 3.3-.01.32.01.65-.07.95-.77 2.86-.71 5.81-.92 8.73-.11 1.56.11 3.1.4 4.64.18.98.24 2 .26 3.01.02 1.15.15 2.28.45 3.39.31 1.14.88 2.13 1.77 2.88.66.56 1.39 1.05 2.1 1.54.6.41 1.23.79 1.85 1.18 1.53.97 2.27 2.34 2.09 4.18-.06.59-.07 1.19-.08 1.78-.02.92-.06 1.83-.02 2.75.14 3.41-1.02 6.31-3.46 8.65-1.45 1.39-3.07 2.61-4.61 3.92-.45.38-.99.67-1.34 1.26.09.19.14.41.27.58 1.27 1.64 1.92 3.51 2.12 5.56.07.72.01 1.39-.5 1.93-.73.77-.61 1.57-.17 2.4.33.6.68 1.19 1 1.8 1.02 1.89 2.05 3.78 3.05 5.69 1.3 2.47 2.75 4.86 4.3 7.18 1.58 2.36 3.1 4.76 4.59 7.17 1.83 2.95 4.09 5.52 6.77 7.72 1.99 1.62 4.05 3.14 6.09 4.71.44.33.88.69 1.56.45.29-1.87.58-3.76.87-5.66.42-2.81.85-5.61 1.27-8.42.41-2.72.81-5.43 1.21-8.15l1.86-12.64c.5-3.4.98-6.8 1.48-10.19.5-3.4 1.02-6.79 1.52-10.19.31-2.08.58-4.17.89-6.26.31-2.08.65-4.16.96-6.24.43-2.81.85-5.61 1.26-8.42a2365.627 2365.627 0 0 0 2.49-17.13c.51-3.58 1.02-7.16 1.54-10.74.4-2.76.8-5.53 1.21-8.29.51-3.4 1.04-6.79 1.54-10.19.42-2.81.81-5.62 1.22-8.43.07-.5.17-.99.28-1.48.09-.4.37-.63.79-.62.59.02 1.19.04 1.78.12 2.99.41 5.98.87 8.98 1.23 2.18.27 4.38.4 6.57.63 1.87.2 3.73.44 5.59.69 2.41.31 4.81.64 7.22.96 2.63.34 5.27.68 7.9 1.01 2.54.32 5.09.61 7.64.92 1.82.22 3.63.46 5.45.68 1.91.23 3.82.46 5.73.68 2.23.25 4.46.48 6.69.75 1.6.19 1.83.02 1.84-1.64.03-2.55.41-5.01 1.47-7.35.65-1.43 1.46-2.77 2.58-3.86 2.81-2.72 5.83-5.15 9.5-6.67 2.94-1.22 5.97-2.03 9.12-2.4 1.38-.16 2.67-.49 3.89-1.2 4.07-2.37 8.17-4.69 12.26-7.04 2.1-1.2 3.85-2.82 5.31-4.72 1.53-2 2.98-4.06 4.46-6.1.65-.89 1.27-1.8 1.91-2.69.27-.37.51-.77.83-1.09.3-.31.68-.54 1.02-.81h.83c.06.1.11.21.18.31.81 1.13.72 2.24-.28 3.15-.92.84-1.64 1.84-2.37 2.84a807.76 807.76 0 0 1-5.53 7.53c-.38.51-.83.98-1.32 1.39-1.72 1.45-3.47 2.85-5.37 4.05-1.47.93-2.95 1.84-4.42 2.77-.25.16-.61.25-.64.71.37.1.75.24 1.14.31 1.62.3 3.25.55 4.86.87 2.74.54 5.45 1.15 8.11 2.01 2.15.7 4.38.92 6.63 1 4.49.16 8.98-.08 13.46-.34.83-.05 1.65.01 2.46.17 1.27.26 2.54.24 3.82-.01 1.37-.27 2.64-.76 3.84-1.44 1.16-.65 2.39-1.15 3.64-1.59 1.59-.56 3.19-1.11 4.79-1.66.3-.1.61-.22.92-.28.74-.14 1.37.25 1.62.94.35.97-.09 1.89-1.08 2.17-.44.13-.9.14-1.35.22-2.13.41-4.1 1.27-6.05 2.18-.99.46-1.98.95-2.98 1.41-2.14.97-4.39 1.3-6.71.9-2.04-.35-4.08-.57-6.15-.24-.81.13-1.63.26-2.44.37-.68.08-1.36.19-2.04.17-2.06-.06-4.12-.11-6.18-.27-1.82-.15-3.66-.32-5.45-.69-3.14-.64-6.24-1.41-9.36-2.15-3.12-.74-6.25-1.38-9.49-1.31-.89.02-1.68.16-2.48.61-5.44 3.05-10.62 6.5-15.74 10.05-3.36 2.33-4.37 5.72-4.34 9.57 0 .4.21.71.64.78.49.09.99.17 1.49.23 1.09.13 2.18.24 3.27.38 1.95.24 3.91.5 5.86.74 1.73.22 3.45.44 5.18.65 2.05.25 4.09.49 6.14.72 2 .23 4.01.43 6.01.67 1.91.22 3.81.48 5.72.72 1.77.21 3.55.41 5.32.62 2.09.24 4.18.5 6.28.74 1.96.22 3.92.42 5.87.65 2.59.31 5.18.66 7.77.97 2.68.32 5.37.6 8.05.92 2.82.33 5.63.69 8.45 1.01 2.73.32 5.46.61 8.19.92.59.07 1.18.17 1.77.23.77.09 1.26.48 1.09 1.38-.08.4-.11.82-.18 1.22-.79 4.69-1.59 9.39-2.38 14.08-.77 4.6-1.53 9.21-2.31 13.81-.77 4.51-1.57 9.02-2.35 13.53-.96 5.5-1.92 11-2.86 16.51-.81 4.78-1.58 9.57-2.39 14.36-.77 4.6-1.56 9.21-2.35 13.81-.49 2.89-1 5.77-1.48 8.66-.71 4.24-1.41 8.49-2.12 12.73-.63 3.75-1.29 7.49-1.93 11.23-.19 1.15.02 1.54 1.1 2.07.82.4 1.66.78 2.5 1.13 1.72.72 3.21 1.74 4.38 3.21.51.64 1.06 1.26 1.6 1.88.18.2.37.41.6.56 1.76 1.14 3.09 2.72 4.37 4.34.71.9 1.43 1.79 2.16 2.67 1.46 1.77 2.92 3.52 4.38 5.29.47.57.87 1.19 1.37 1.72.8.84 1.39 1.81 1.98 2.8 1.38 2.32 2.8 4.62 4.2 6.92.5.82 1.05 1.62 1.46 2.48.78 1.67 2.09 2.62 3.84 3.03 2.22.51 4.41 1.17 6.72 1.35 1.69.13 3.36.44 5.03.67 2.41.33 4.76.85 7.01 1.81 3.4 1.43 5.78 3.78 6.92 7.33.53 1.65 1.11 3.29 1.66 4.94 1.03 3.08 2.02 6.17 2.49 9.4.01.06.14.1.21.14v5.23c-.08.03-.19.04-.22.09-.47.89-.96 1.77-1.38 2.68-.35.78-.91 1.23-1.73 1.38-.08.01-.14.11-.17.13-.32.42-.17.82-.08 1.22.11.49.24.98.33 1.47.27 1.47 0 2.92-.17 4.37-.08.63-.22 1.26-.38 1.88-.38 1.51-1.34 2.49-2.87 2.81-1.17.24-2.28.66-3.38 1.1-1.13.45-2.3.63-3.5.34-1.3-.31-2.21.14-2.89 1.26-.74 1.21-1.52 2.4-2.31 3.57-.86 1.26-1.87 2.38-3.12 3.26-3.01 2.11-6.2 2.54-9.62 1.07-1.09-.47-1.96-1.16-2.53-2.21-1.16-2.13-2.34-4.25-3.47-6.4-.77-1.47-1.26-3.05-1.36-4.72-.08-1.23-.13-2.47-.2-3.7-.06-1.06-.28-1.32-1.3-1.35-2.22-.06-3.81-1.12-4.95-2.96-1-1.62-1.62-3.38-1.98-5.23-.58-3.02-.85-6.07-.98-9.14a4.73 4.73 0 0 1 .82-2.86 4.28 4.28 0 0 1 1.99-1.62c.35-.14.83-.15.99-.74-.31-.34-.67-.68-.98-1.07-.28-.35-.61-.73-.72-1.14-.26-1.06-.42-2.15-.58-3.24-.05-.36-.02-.74.05-1.09.32-1.48.6-2.96 1.02-4.41.46-1.58.37-3.05-.36-4.52-1.28-2.58-2.5-5.19-3.77-7.78-.74-1.52-1.47-3.06-2.49-4.42-1.98-2.64-3.97-5.27-5.99-7.88-.56-.72-1.2-1.39-1.84-2.03-.62-.62-1.36-1.11-2.2-1.36-1.35-.41-2.72-.77-4.15-1.17-.13.58-.26 1.11-.35 1.65-.23 1.35-.43 2.71-.66 4.07-.69 4.11-1.38 8.22-2.07 12.32-.82 4.87-1.52 9.77-2.48 14.62-.86 4.35-1.47 8.76-2.22 13.13-.68 3.97-1.35 7.94-2.1 11.9-.69 3.65-1.25 7.31-1.78 10.98-.37 2.58-.83 5.15-1.27 7.72-.37 2.17-.85 4.31-1.14 6.49-.43 3.18-.85 6.35-1.62 9.47-.06.24-.01.5-.01.82.51-.2.94-.34 1.36-.53.86-.38 1.74-.55 2.68-.44.31.03.64 0 .95-.05.86-.15 1.71-.33 2.56-.49 2.78-.54 5.55-1.14 8.4-1.28 6.32-.29 12.4.69 18.29 2.99 6.79 2.65 12.73 6.63 18.03 11.59 5.54 5.18 9.96 11.23 13.67 17.81.31.56.58 1.15.79 1.75 1.92 5.6 3.33 11.32 4.21 17.17.43 2.9.71 5.82.91 8.74.25 3.57.27 7.15.11 10.71-.25 5.45-.96 10.85-2.08 16.2-2.08 9.89-5.6 19.22-10.68 27.96-6.11 10.5-14.06 19.29-24.22 26.02-3.59 2.38-7.32 4.52-11.34 6.12-2.56 1.02-5.21 1.77-7.95 2.02-3.61.33-7.23.26-10.83-.2-3.56-.46-7.01-1.32-10.33-2.67-5.84-2.38-10.97-5.86-15.51-10.22-4.73-4.54-8.56-9.78-11.82-15.45-4-6.95-6.83-14.37-8.77-22.13-.19-.76-.31-1.51-.36-2.3-.09-1.46-.26-2.92-.73-4.32-.32-.95-.58-1.92-.87-2.88-.12-.41-.44-.58-.85-.42-.38.15-.75.34-1.13.5-.12.05-.26.06-.43.09l-.92-.66c-1.46.33-2.72.96-3.98 1.63-1.09.58-2.19 1.14-3.28 1.72-1.15.61-2.35.68-3.57.33-.4-.52-.54-1.1-.62-1.69-.21-1.59-.42-3.18-.55-4.77-.06-.8-.37-1.24-1.14-1.48-.87-.27-1.72-.63-2.54-1.02-1.62-.78-2.84-1.99-3.56-3.67-.27-.63-.51-1.27-.77-1.91-.12-.3-.23-.6-.4-.87-.52-.82-1.39-.97-2.09-.31-.43.4-.79.89-1.14 1.37-.38.51-.71 1.07-1.08 1.59-1.7 2.42-3.84 4.28-6.69 5.25-1.81.62-3.62.99-5.51.47-1.28-.35-2.56-.69-3.84-1.04-3.75-1.04-6.75-3.21-9.17-6.21-1.86-2.31-2.92-4.95-3.13-7.92-.02-.32-.04-.64-.07-.96-.07-.65-.35-1.13-1.05-1.27-.22-.05-.44-.13-.66-.19-1.15-.31-2.3-.59-3.44-.92-1.29-.38-1.6-.26-2.15.92-.04.08-.06.17-.09.26-.6 1.3-1.54 2.27-2.9 2.76-.94.35-1.89.7-2.85.98-2.31.69-4.69.93-7.07.53-2.08-.35-4.17-.56-6.28-.69-1.74-.11-3.46-.37-5.16-.75-4.16-.94-8.14-2.42-12.11-3.96-1.26-.48-1.9-1.38-2.01-2.68-.11-1.32-.21-2.65-.34-3.97-.19-1.96-.34-3.93-.64-5.87-.76-4.94-1.93-9.78-3.51-14.53-1.74-5.22-3.62-10.37-6.72-14.98.58.09.68-.43.91-.75 1-.19 1.95-.02 2.89.18 1.67.36 3.26.95 4.58 2.08 3.26 2.76 6.29 5.75 8.95 9.1 2.17 2.74 4.06 5.65 5.62 8.78.7 1.41 1.6 2.67 2.8 3.7.94.82 2.01 1.44 3.11 2 4.94 2.51 9.87 5.03 14.8 7.56.77.4 1.49.89 2.23 1.34.27.17.53.37.81.52.39.21.76 0 .8-.42.07-.69-.18-1.23-.72-1.68-1.58-1.34-3.19-2.62-5.12-3.42-.72-.3-1.4-.67-2.11-1-2.54-1.17-5.07-2.34-7.61-3.49-3.72-1.7-6.57-4.29-8.35-8.01-.14-.29-.27-.58-.43-.86-1.35-2.39-2.69-4.79-4.06-7.17-.6-1.04-1.38-1.94-2.3-2.72-1.05-.89-2.1-1.78-3.19-2.62-2.03-1.57-4.17-3-6.51-4.07-.7-.32-1.45-.57-2.19-.77-1.44-.4-2.9-.31-4.37-.13-.26.03-.59.1-.79-.02-.58-.34-1.14-.72-1.62-1.31.95-.55 1.9-.88 2.9-.95 4.61-.33 8.81.81 12.52 3.59 1.14.85 2.23 1.76 3.37 2.61 1.71 1.27 3.16 2.78 4.41 4.5 1.21 1.68 2.19 3.49 3.05 5.37.91 2 1.86 3.98 2.95 5.89 1.08 1.89 2.57 3.32 4.42 4.42.63.37 1.28.72 1.94 1.03 2.98 1.41 5.96 2.8 8.94 4.21 1.53.73 3.02 1.54 4.33 2.64.63.53 1.19 1.14 1.79 1.71.52.5.94.47 1.35-.13.88-1.28 1.74-2.58 2.6-3.88.15-.22.24-.47.38-.75-.4-.32-.75-.61-1.11-.88-4.22-3.23-8.48-6.41-12.67-9.69-7.43-5.82-14.86-11.65-22-17.83-3.22-2.79-6.41-5.62-9.61-8.44-.21-.18-.45-.35-.59-.57-.16-.25-.22-.56-.33-.87-.28-.04-.55-.07-.82-.11-.83-.73-1.66-1.47-2.49-2.2-.16-.16-.31-.33-.48-.48-4.51-3.96-8.99-7.95-13.53-11.87-6.93-5.99-13.9-11.94-20.85-17.91-.16-.14-.36-.25-.59-.41-.81 1.52-.81 2.96.08 4.34.39.61.92 1.14 1.44 1.65.49.48 1.02.92 1.56 1.34 2.3 1.83 2.9 4.36 2.84 7.11-.03 1.16-.47 2.21-1.06 3.22-.72 1.23-.63 1.47.52 2.21.11.07.23.14.35.22 3.3 2.1 6.33 4.52 9.17 7.2 4.11 3.88 7.7 8.22 11.12 12.7 2.57 3.37 4.69 6.99 6.39 10.86.5 1.13 1.02 2.25 1.55 3.37 2.56 5.5 4.4 11.23 5.62 17.17.83 4.08 1.64 8.16 2.14 12.3.28 2.32.63 4.62.65 6.97.03 3.8-.12 7.6-.37 11.4-.07 1.14-.21 2.28-.38 3.41-.39 2.53-.81 5.06-1.24 7.59-.63 3.75-1.49 7.44-2.71 11.05-3.83 11.32-9.74 21.37-18.14 29.91-4.98 5.06-10.53 9.38-16.82 12.69-6.16 3.25-12.67 5.45-19.58 6.44-.95.14-1.89.32-2.84.51-.15.03-.27.18-.4.28H266.4c-.53-.25-1.08-.33-1.66-.26h-.01c-.45-.08-.91-.16-1.36-.23-3.58-.52-7.1-1.31-10.54-2.43-1.22-.4-2.45-.74-3.71-.96-.94-.17-1.87-.4-2.75-.82-7.82-3.8-14.77-8.8-20.76-15.1-10.16-10.68-16.95-23.21-20.54-37.48-1.06-4.22-1.84-8.49-2.25-12.83-.09-.91-.2-1.82-.3-2.73-.03-.28-.13-.53-.48-.57-.04-4.19-.04-8.32-.04-12.44zm236.63-52.18c-.75-.86-2.15-1.97-3.06-2.42-.03-.49-.47-.65-.76-.92-1.72-1.64-2.35-3.65-2.15-5.97.25-2.97.67-5.91 1.14-8.85.09-.59.13-1.18.14-1.78.01-.56-.29-1-.79-1.18-.55-.2-1.14-.31-1.73-.36-.49-.05-.88.25-1.1.69-.12.24-.21.51-.27.78-.86 3.84-1.72 7.68-2.57 11.52-.05.22-.16.48-.09.66.26.68.06 1.37.14 2.04.1.86.14 1.74.35 2.58.48 1.89 1.33 3.6 2.8 4.94.88.88 1.76 1.76 2.63 2.64.77.85 1.54 1.7 2.31 2.56l1.49 1.61c.51.55 1.16.68 1.87.59.23-.03.46-.05.68-.1 1.98-.46 3.47-1.58 4.49-3.32.48-.81.35-1.79-.3-2.23-.86-.58-1.7-1.22-2.69-1.59-.73-.77-1.53-1.47-2.53-1.89zm-41.04-21.53c-.2-.42-.47-.77-.98-.81-.14.18-.27.34-.43.53-1.67-.44-3.29-.87-4.91-1.29-.17-.04-.36 0-.54 0-.31-.09-.61-.2-.92-.27-7.31-1.68-14.61-3.37-21.92-5.03-5.57-1.27-11.15-2.52-16.72-3.77-2.14-.48-4.27-1.03-6.43-1.41-3.78-.67-7.56-1.35-11.3-2.24-3.16-.75-6.34-1.39-9.51-2.1-3.7-.83-7.4-1.68-11.1-2.51-1.16-.26-2.33-.48-3.5-.7-.3-.06-.63-.1-.9.3.16.24.3.52.52.73.42.42.88.8 1.33 1.19l15.59 13.49c4.75 4.11 9.5 8.21 14.24 12.32 1.56 1.35 3.13 2.68 4.63 4.1 7.43 7.01 14.84 14.05 22.27 21.07 1.46 1.38 2.96 2.73 4.44 4.09.07.16.1.37.22.47.42.34.89.62 1.32.95.79.62 1.55 1.27 2.34 1.89 3.48 2.73 6.97 5.46 10.46 8.19.36.28.73.53.93.98.04.1.3.11.46.16.54.42 1.09.84 1.62 1.27 2.18 1.74 4.37 3.48 6.53 5.25.74.6 1.49.76 2.42.56 1.38-.31 2.78-.52 4.18-.76.72-.13 1.45-.23 2-.8.43-.45.64-.99.8-1.57.38-1.41.75-2.83 1.13-4.24.63-2.34 1.31-4.66 2.24-6.91 1.39-3.39 2.51-6.86 3.35-10.43.64-2.71 1.27-5.43 2.04-8.11 1.4-4.88 2.89-9.73 4.34-14.59.29-.96.55-1.92.81-2.8-.51-1.01-1.27-1.52-2.18-1.94-2.76-1.26-5.65-2.07-8.6-2.76-3.44-.83-6.86-1.67-10.27-2.5zm-96.82-53.61c-.42.3-.42.8-.54 1.22-.99 3.48-1.95 6.96-2.94 10.44-.77 2.69-1.21 5.44-1.44 8.23-.11 1.3.19 2.55.36 3.82.27 2.05.36 4.11-.18 6.14-.48 1.8-1.43 3.36-2.49 4.87-1.06 1.5-2.16 2.96-3.14 4.51-.61.96-1.4 1.39-2.47 1.44-.64.03-1.28.03-1.92.08-1.35.11-2.62.44-3.54 1.56-1.07 1.32-2.11 2.66-2.87 4.18-.39.77-.63 1.62-.85 2.46-.15.58.17 1.01.74 1.1.68.11 1.36.2 2.04.26 1.92.16 3.83.29 5.75.44.62.05.62.05 1.36-.47-.57-.84-2.01-.53-2.32-1.68.05-.11.07-.2.12-.27.05-.08.11-.15.18-.2 1.06-.78 2.17-.93 3.32-.22 2.45 1.5 3.69 3.63 3.34 6.55-.18 1.5-.4 2.99-.6 4.49-.23 1.72-.48 3.44-.71 5.16-.23 1.72-.42 3.45-.65 5.17-.32 2.36-.67 4.71-1 7.06-.31 2.22-.6 4.44-.93 6.66-.33 2.26-.69 4.52-1.04 6.78-.3 1.94-.62 3.88-.93 5.83l-1.26 7.86c-.32 2.03-.61 4.07-.93 6.1-.42 2.71-.85 5.42-1.27 8.13-.35 2.26-.72 4.52-1.01 6.78-.19 1.5-.25 3.01-.36 4.51-.01.15.08.3.14.53.2-.14.33-.19.41-.28.44-.49.62-1.11.81-1.72 1.55-4.99 2.71-10.07 3.84-15.16.6-2.68 1.09-5.38 1.66-8.06.44-2.1.96-4.19 1.39-6.3.7-3.45 1.36-6.91 2.01-10.37.81-4.28 1.92-8.48 3.01-12.68.8-3.1 1.59-6.2 2.18-9.35.5-2.65 1.06-5.29 1.61-7.93.19-.9.43-1.78.6-2.68.52-2.67-.15-4.99-2.11-6.9-.75-.74-1.54-1.44-2.3-2.17-.9-.88-1.54-1.93-1.98-3.1-.44-1.17-.46-2.32.04-3.48.34-.8.66-1.61.99-2.42.33-.8.63-1.62 1-2.41.17-.36.44-.69.71-1 .23-.26.61-.25.86-.01.16.16.3.35.45.52.55.61 1.05 1.27 1.65 1.83 1.04.97 2.12 1.89 3.2 2.82 2.33 2 4.66 4 7 5.99 2.06 1.75 4.12 3.5 6.21 5.21 2.55 2.1 5.13 4.15 7.68 6.24 2.94 2.41 5.88 4.82 8.77 7.29 3.45 2.94 6.85 5.94 10.26 8.93 1.24 1.09 2.44 2.22 3.66 3.33 3.6 3.26 7.2 6.51 10.8 9.77 1.63 1.47 3.24 2.97 4.89 4.42 2.2 1.94 4.46 3.81 6.64 5.77 2.82 2.55 5.57 5.17 8.38 7.74 2.53 2.32 5.09 4.61 7.65 6.9 1.88 1.68 3.77 3.35 5.66 5.01.3.26.65.47 1.01.72.98-.85 1.91-1.65 2.91-2.51-.34-.41-.59-.8-.93-1.09-1.54-1.37-3.1-2.72-4.66-4.07-2.25-1.95-4.51-3.89-6.77-5.83-2.15-1.85-4.31-3.7-6.47-5.55-2.76-2.35-5.52-4.68-8.28-7.02-2.73-2.31-5.46-4.61-8.19-6.91-2.52-2.13-5.05-4.24-7.57-6.37-2.69-2.28-5.35-4.6-8.06-6.86-3.56-2.96-7.01-6.03-10.42-9.16-3.31-3.04-6.62-6.06-9.91-9.12-4.1-3.8-8.46-7.31-12.73-10.91-3.68-3.1-7.35-6.21-11.02-9.31a2 2 0 0 1-.37-.4.6.6 0 0 1 .25-.92c.97-.44 1.98-.76 3.05-.68 1.09.09 2.18.27 3.27.4 2.95.36 5.87.95 8.78 1.54 2.82.57 5.64 1.19 8.46 1.76 4.21.85 8.44 1.65 12.65 2.51 5.83 1.18 11.59 2.64 17.33 4.22 4.5 1.23 9.03 2.35 13.54 3.54 4.16 1.09 8.38 1.94 12.5 3.19 1.79.54 3.64.91 5.47 1.31 1.38.3 2.81.44 4.18.78 6.44 1.6 12.87 3.23 19.29 4.88 2.7.69 5.39 1.46 8.02 2.38 2.35.82 4.48 2.06 6.64 3.31-.06.32-.08.59-.16.84-.63 2.11-1.26 4.21-1.89 6.31-1.51 5-3.02 9.99-4.52 14.99-1.8 6-3.6 12.01-5.4 18.02-1.01 3.38-2.02 6.75-3.02 10.13-.07.25-.09.51-.14.78.23.12.38.23.55.29.56.19 1.13.38 1.7.54.56.16.86.02 1.1-.52.19-.42.33-.85.46-1.29l2.79-8.91c1.1-3.49 2.19-6.99 3.31-10.47.98-3.05 1.99-6.09 2.99-9.14 1.07-3.26 2.2-6.51 3.19-9.79.53-1.75.89-3.55 1.2-5.35.31-1.8.58-3.61 1.03-5.39.31-1.2.59-2.4.84-3.61.17-.79-.07-1.44-.84-1.84-.37-.19-.71-.43-1.06-.63-1.68-.95-3.41-1.77-5.32-2.17-2.01-.42-4.01-.91-6.02-1.38l-18.98-4.41c-6.33-1.47-12.65-2.93-18.98-4.41-5.88-1.37-11.76-2.75-17.64-4.12-4.9-1.15-9.79-2.31-14.69-3.45-5.92-1.38-11.85-2.76-17.78-4.13-3.88-.89-7.76-1.76-11.65-2.62-3.22-.71-6.44-1.37-9.66-2.05-.58-.12-1.17-.24-1.76-.3-.61-.05-.86.1-.97.71-.18.97-.81 1.5-1.62 1.91-.28.14-.58.25-.85.36-.75-.3-.97-.92-1.09-1.54-.43-2.25-.17-4.37 1.32-6.22.32-.4.55-.83.57-1.36.08-1.78.24-3.57.25-5.35.01-2.02.15-4.03.38-6.03.21-1.91.5-3.81.72-5.72.07-.59.02-1.19.02-1.78.25-.16.33-.35.06-.65.03.25.01.45 0 .65zm66.3-181.85c-.29.09-.44.31-.49.6-.07.45-.13.91-.19 1.36-.6 4.45-1.21 8.89-1.8 13.34-.34 2.54-.6 5.09-.95 7.63-.39 2.77-.84 5.52-1.27 8.28-.51 3.3-1.04 6.6-1.55 9.91-.4 2.62-.79 5.25-1.18 7.88-.5 3.4-1 6.8-1.51 10.19-.51 3.4-1.03 6.79-1.54 10.19l-1.26 8.42c-.5 3.35-1.01 6.7-1.5 10.05-.41 2.76-.81 5.53-1.21 8.29-.5 3.44-1.01 6.89-1.52 10.33-.41 2.81-.82 5.62-1.24 8.42-.41 2.76-.83 5.52-1.25 8.29-.43 2.81-.85 5.61-1.28 8.42-.5 3.26-1.01 6.52-1.49 9.78-.41 2.81-.76 5.63-1.19 8.43-.66 4.35-1.36 8.69-2.04 13.03-.14.9-.28 1.81-.37 2.72-.08.81.04.94.78 1.21.3.11.61.2.9.33.9.43 1.39 1.14 1.47 2.15.1 1.37-.47 2.4-1.58 3.15-.45.31-.96.53-1.45.79-.85.46-1.47 1.09-1.55 2.11-.01.18-.09.36-.11.54-.39 2.72-.77 5.44-1.17 8.16-.5 3.4-1.03 6.79-1.53 10.19-.27 1.81-.55 3.62-.73 5.44-.19 1.95.11 2.41 1.95 3.09 3.8 1.41 7.73 2.23 11.78 2.5 2.8.19 5.59.11 8.38-.03.41-.02.82-.02 1.24-.01.36.01.65.18.73.52.22.89.45 1.78.55 2.68.08.73-.4 1.3-1.1 1.57-.17.07-.35.12-.53.15-1.13.19-2.25.43-3.39.53-.86.08-1.75.07-2.6-.05-1.99-.28-3.99-.59-5.96-.98-3.77-.75-7.59-1.28-11.21-2.66-.27-.1-.6-.08-.98-.12-.27 1.61-.54 3.13-.7 4.7.3.12.54.24.8.31 2.04.51 4.09 1.01 6.13 1.5 7.61 1.8 15.22 3.63 22.85 5.38 7.62 1.75 15.26 3.44 22.9 5.14 5.49 1.22 10.99 2.46 16.5 3.6 7.21 1.5 14.44 2.93 21.66 4.39 5.74 1.16 11.49 2.3 17.23 3.46 5.7 1.15 11.39 2.32 17.08 3.48 4.35.89 8.7 1.78 13.05 2.66 1.7.34 3.42.65 5.12 1.01.31.07.53-.01.75-.17.19.11.36.29.57.33.85.17 1.7.31 2.55.45.36.06.72.11 1.08.11.44-.01.69-.23.76-.64.21-1.16.39-2.33.59-3.5.24-1.39.48-2.78.71-4.17.31-1.84.62-3.68.94-5.51.24-1.39.49-2.77.73-4.16.22-1.3.43-2.6.65-3.9.23-1.34.48-2.68.71-4.03.23-1.3.44-2.6.66-3.9.24-1.39.5-2.77.74-4.16.21-1.16.47-2.32.6-3.49.12-1.09.3-2.16.52-3.23.14-.67.22-1.35.33-2.02.21-1.3.43-2.6.64-3.9.24-1.43.49-2.87.73-4.3.22-1.3.4-2.61.63-3.9.32-1.79.74-3.56.98-5.36.18-1.36.64-2.65.7-4.03.04-.9.28-1.79.44-2.69.24-1.39.49-2.77.73-4.16.21-1.16.48-2.32.61-3.49.19-1.63.47-3.24.79-4.84.14-.71.22-1.44.34-2.16.23-1.34.48-2.68.71-4.03.32-1.84.62-3.67.94-5.51.24-1.39.48-2.77.73-4.16.21-1.16.53-2.32.61-3.49.09-1.42.54-2.77.68-4.18.15-1.49.48-2.96.74-4.43.24-1.39.5-2.77.74-4.16.31-1.75.61-3.49.9-5.24.22-1.35.4-2.7.63-4.04.32-1.79.7-3.57 1-5.36.33-1.93.48-3.89.92-5.79.56-2.44.84-4.93 1.25-7.39.32-1.92.73-3.84.95-5.79.2-1.8.66-3.57 1-5.36.1-.54.26-1.07.29-1.61.08-1.51.52-2.95.74-4.44.19-1.21.44-2.41.64-3.63.22-1.35.38-2.7.62-4.04.32-1.79.78-3.56 1-5.36.3-2.49.92-4.91 1.21-7.4.19-1.66.58-3.31.82-4.98.22-1.57.62-3.12.83-4.7.35-2.56.86-5.11 1.31-7.66.25-1.39.52-2.77.76-4.16.22-1.3.41-2.61.63-3.91.21-1.26.41-2.51.64-3.76.22-1.21.5-2.4.7-3.61.31-1.84.57-3.68.85-5.52.18-1.17.37-2.34.57-3.5.24-1.34.51-2.68.75-4.02.11-.58.24-1.16.28-1.75.05-.63.13-1.27-.09-1.92-.26-.12-.49-.32-.74-.35-1.13-.13-2.27-.22-3.4-.33-1.13-.11-2.28-.13-3.39-.35-.64-.12-1.26-.19-1.9-.21-.27-.01-.54-.06-.81-.1-.36-.05-.72-.13-1.08-.16-1.13-.12-2.27-.2-3.4-.33-1.17-.14-2.34-.35-3.51-.49-1.13-.13-2.27-.2-3.4-.3-.14-.01-.27-.06-.4-.08-1.03-.15-2.06-.34-3.1-.45-1.22-.13-2.45-.2-3.68-.3-.14-.01-.27-.07-.4-.09-1.08-.15-2.16-.31-3.24-.44-1.04-.12-2.1-.12-3.12-.35-.73-.17-1.48-.05-2.16-.26-1.25-.39-2.55-.06-3.8-.46-.77-.24-1.62-.25-2.43-.3-1.37-.08-2.71-.3-4.06-.5-.99-.15-1.99-.23-2.99-.33-1.18-.11-2.37-.15-3.54-.33-1.44-.21-2.87-.5-4.33-.51-.14 0-.27-.02-.41-.04-1.34-.25-2.69-.45-4.06-.51-.27-.01-.54-.06-.81-.1-.4-.05-.81-.12-1.21-.17-1.09-.11-2.2-.1-3.25-.36-.78-.19-1.55-.12-2.31-.26-1.03-.18-2.06-.42-3.1-.46-1.23-.06-2.43-.46-3.68-.32-.13.02-.27-.04-.4-.06-.49-.07-.99-.14-1.48-.19-.32-.04-.66.02-.95-.08-.94-.34-1.91-.17-2.86-.18-.67-.01-.81.19-.91.93-.02.14 0 .27 0 .41-.08.2-.22.4-.22.61-.01 1.01.02 2.01.02 3.02 0 .87.33 1.59.92 2.22.63.68 1.31 1.22 2.3 1.37.87.13 1.56.7 1.62 1.62.06 1.03.54 1.49 1.52 1.55.09 0 .18.04.26.08.41.17.65.53.56.98-.27 1.4-.7 2.75-1.58 3.9-.47.61-1.06 1.02-1.88.91-.48-.06-.9.11-1.3.33-.48.27-.94.56-1.43.81-.45.23-.91.43-1.37.6-.58.22-1.16.14-1.74-.07-.98-.35-1.59-1.07-1.99-1.97-.43-.96-.8-1.94-1.17-2.93-.67-1.8-.42-2.61 1.24-3.51.99-.54 1.35-1.26 1.26-2.34-.21-2.59-1-5-2.23-7.28-.19-.36-.51-.5-.85-.64.02-.72-.58-1.1-.91-1.71-1.48-.19-2.96-.4-4.44-.57-1.13-.13-2.29-.09-3.39-.36-1.26-.31-2.54-.12-3.79-.43-1.09-.27-2.26-.23-3.39-.33-.14-.01-.27-.05-.4-.07-1.08-.16-2.15-.33-3.23-.47-1.04-.13-2.11-.08-3.11-.34-1.25-.33-2.54-.14-3.79-.45-1.09-.27-2.26-.23-3.39-.33-.18-.02-.36-.06-.54-.08-1.03-.15-2.06-.33-3.1-.45s-2.1-.11-3.11-.33c-.86-.18-1.72-.2-2.57-.31-1.3-.17-2.61-.33-3.92-.47-1.13-.12-2.26-.21-3.39-.33-.45-.05-.89-.18-1.34-.21-.55-.04-1.08-.1-1.62-.2-1.11-.2-2.26-.25-3.39-.37-.5-.05-.99-.13-1.48-.18-1.08-.12-2.17-.25-3.25-.36-1.08-.12-2.2-.11-3.25-.36-1.19-.29-2.36-.14-3.55-.17-.52-.01-.7.2-.81.75-.01.18.02.37.02.55zM261.69 408.3c.87-.69 1.28-1.43 1.52-2.29.78-2.82 1.61-5.63 2.38-8.45 1.91-7.02 3.8-14.04 5.67-21.08 1.37-5.17 2.69-10.36 4.03-15.55.87-3.37 1.75-6.73 2.63-10.1.1-.4.23-.8.41-1.16.29-.6.82-.86 1.47-.8.2.02.47.15.56.31.17.31.32.67.33 1.02.01.45-.11.91-.23 1.34-1.42 5.16-2.87 10.31-4.28 15.48-.43 1.59-.79 3.2-1.1 4.81-.3 1.53-.48 3.07-.92 4.57-1.41 4.83-2.81 9.66-4.17 14.51-1.49 5.29-2.93 10.58-4.39 15.88-.11.4-.21.8-.26 1.21-.05.38.17.73.54.85.35.12.7.21 1.06.27 3.42.65 6.83 1.29 10.25 1.94.49.09.99.21 1.48.26.64.06.94-.17 1.09-.78.04-.18.05-.36.08-.54.3-2.13.59-4.26.92-6.39.7-4.43 1.42-8.86 2.13-13.29.43-2.71.84-5.43 1.27-8.14.4-2.49.86-4.96 1.21-7.46.6-4.36 1.36-8.68 2.07-13.02.47-2.85.8-5.71 1.24-8.56.3-1.94.39-3.92.99-5.81.15-.46.12-1 .07-1.5-.1-.96-.53-1.74-1.47-2.16-1.09-.48-2.16-1.01-3.26-1.44-1.85-.72-3.81-.99-5.75-1.26-4.01-.55-8.03-.56-12.06-.11-4.16.47-8.2 1.46-12.11 2.91-6.61 2.45-12.48 6.13-17.69 10.85-8.65 7.85-14.87 17.34-19.08 28.19-2.07 5.34-3.63 10.84-4.62 16.5-.81 4.66-1.27 9.34-1.37 14.07-.1 4.63.14 9.25.44 13.87.07 1.14.24 2.28.47 3.4.43 2.06.94 4.1 1.42 6.15 1.2 5.17 2.5 10.32 4.4 15.29 1.23 3.21 2.52 6.38 4.34 9.32 3.52 5.71 8.01 10.59 12.96 15.05 3.07 2.76 6.51 5.06 9.94 7.34 1.68 1.12 3.42 2.14 5.35 2.78 1.78.6 3.57 1.16 5.37 1.67.74.21 1.53.26 2.3.37l3.12.45c1.9.28 3.79.67 5.7.84 2.6.22 5.2.31 7.82.13 2.85-.2 5.66-.58 8.41-1.27 9.15-2.29 17.19-6.67 24.17-13.01 4.78-4.35 8.79-9.33 12.22-14.79 6.43-10.25 10.14-21.48 11.84-33.4.71-4.99.96-10.02.73-15.08-.21-4.77-.68-9.5-1.56-14.19-1.36-7.28-3.59-14.28-6.81-20.96-3.8-7.86-8.6-15.01-14.92-21.08-2.75-2.64-5.69-5.04-8.94-7.06-.22-.14-.47-.24-.77-.39-.38.98-.51 1.93-.69 2.86-.95 4.99-2.01 9.96-3.22 14.9-1.67 6.85-3.3 13.7-4.71 20.61-1.23 6.05-2.64 12.07-4.16 18.06-.7 2.75-1.33 5.52-2.07 8.25-.29 1.07-.06 1.88.74 2.59.27.24.54.5.79.76.22.23.46.46.64.72.48.69.42 1.36-.16 1.99-.6.66-1.13.73-1.94.21-.38-.24-.71-.58-1.28-.58-.19.49-.4.99-.57 1.5-.13.39-.2.8-.34 1.19-.23.62-.64 1.1-1.26 1.39-.36.17-.7.2-1.03-.06-.75-.6-1.51-1.19-1.91-2.12-.56-1.33-1.66-1.89-3.03-2.02-.36-.04-.73-.02-1.1-.04-1.46-.08-2.93-.13-4.39-.27a11.34 11.34 0 0 1-4.55-1.44c-.36-.2-.71-.42-1.08-.59-1.24-.57-2.39-.49-3.43.47-.2.18-.4.39-.65.49-.18.08-.49.08-.63-.02-.72-.56-1.4-1.15-1.49-2.19-.22-2.38-.37-4.77.02-7.13.56-3.48 1.25-6.94 1.93-10.39.73-3.73 1.54-7.44 2.27-11.17.63-3.23 1.17-6.49 1.82-9.72 1.4-7 2.85-13.99 4.29-20.99.32-1.57.7-3.13 1.05-4.69.1-.46.21-.9.81-1.07.8.73 1.27 1.61 1.04 2.76-.14.67-.33 1.33-.46 2.01-.63 3.19-1.23 6.38-1.86 9.57-.48 2.42-1.01 4.84-1.48 7.26-.52 2.65-1 5.31-1.51 7.96-.67 3.51-1.37 7.01-2.04 10.51-.52 2.74-1.02 5.49-1.53 8.24-.56 3.02-1.11 6.03-1.65 9.05-.03.15.08.32.18.63zm188.79 20.79c.64.58.69 1.26.76 1.96.27 2.69.55 5.37 1.05 8.03 1.42 7.5 4.03 14.54 8 21.06 1.02 1.68 2.19 3.28 3.18 4.98 1.76 3.02 4.06 5.54 6.87 7.59 3.49 2.53 7.13 4.82 10.94 6.84 1.78.95 3.68 1.6 5.66 2.03 1.99.43 3.99.5 6.01.42 1.28-.05 2.56.02 3.84.19 1.92.26 3.85.2 5.73-.33 3.56-1.01 7.12-2.04 10.67-3.09 4.43-1.3 8.28-3.59 11.63-6.78 1.79-1.71 3.66-3.33 5.53-4.95 4.32-3.74 8.2-7.87 11.35-12.65 7.49-11.36 11.3-23.93 12.13-37.45.2-3.2.31-6.4.13-9.61-.14-2.52-.21-5.04-.61-7.53-.39-2.44-.78-4.88-1.25-7.31-.49-2.51-1.12-5-1.99-7.42-1.23-3.41-2.84-6.64-4.58-9.82-2.34-4.27-4.97-8.34-8.16-12.03-4.56-5.26-9.9-9.52-16.14-12.6-7.62-3.77-15.64-5.02-24.04-3.58-6.55 1.12-12.54 3.64-17.94 7.54-4.5 3.25-8.3 7.19-11.66 11.59-.14.18-.27.37-.4.56-.28.45-.35.94-.18 1.45.57 1.78 1.69 3.13 3.28 4.08.31.19.66.32 1.05.21 1.16-.35 2.06.16 2.85.92 1.08 1.06 2.14 2.13 3.19 3.23 1.09 1.14 1.9 2.46 2.41 3.96.43 1.26.83 2.52 1.22 3.79.22.71.5 1.37.96 1.96.36.47.7.96 1.07 1.43 2.54 3.3 5.08 6.61 7.64 9.9 3.27 4.19 6.55 8.37 9.84 12.55 1.62 2.06 3.44 3.93 5.52 5.54.18.14.36.28.53.44.98.86 1.32 1.95 1.14 3.22-.35 2.45-3.04 4.07-5.36 3.22-.55-.2-1.07-.5-1.61-.76-1.19-.56-2.39-.77-3.73-.5-.92.19-1.93.19-2.86.03-1.85-.3-3.67-.77-5.5-1.18-1.2-.27-2.38-.64-3.63-.69-3.11-.12-6.22-.27-9.33-.42-1.83-.09-3.66-.2-5.49-.28-.82-.04-1.65-.08-2.47-.04-1.28.07-2.4.53-3.29 1.5-.28.3-.56.62-.89.85-.94.65-1.89 1.29-2.87 1.88-1.3.79-2.72 1.3-4.23 1.53-1.7.25-3.12 1.05-4.23 2.34-.61.64-1.1 1.36-1.74 2.2zm-4.72-54.53c.77 1.02 1.47 1.88 2.09 2.78 1.44 2.1 2.21 4.38 2.04 6.98-.11 1.69-.02 3.39-.02 5.08 0 1.16.53 2.01 1.57 2.54.24.12.49.24.74.36 1.42.74 2.84 1.47 4.26 2.23.36.19.71.42 1.02.68a.6.6 0 0 1-.15 1.02c-.78.33-1.56.45-2.37.02-1.45-.77-2.92-1.52-4.39-2.27-.86-.44-1.7-.92-2.59-1.27-3.55-1.39-7.06-1.31-10.5.41-1.97.98-3.89 2.05-5.7 3.3-2.08 1.44-3.99 3.08-5.67 4.98-1.2 1.36-1.83 2.91-1.8 4.76.02 1.37-.12 2.74-.17 4.12-.02.46-.01.92.04 1.37.18 1.48.91 2.67 2 3.65 1.17 1.06 2.55 1.77 4.01 2.35 3.22 1.28 6.56 1.94 10.04 1.97 2.71.02 5.39-.22 8.08-.55 4.15-.5 7.72-2.17 10.71-5.1.95-.93 1.86-1.9 2.81-2.83 2.31-2.26 4.23-4.8 5.73-7.68.78-1.5 1.74-2.9 2.58-4.38.54-.95 1.06-1.92 1.5-2.93 1.23-2.83 1.9-5.83 2.39-8.86.21-1.32.18-2.67-.31-3.94-.67-1.75-1.44-3.47-2.49-5.04a8.351 8.351 0 0 0-3.37-2.95c-.66-.32-1.34-.59-2.02-.87-1.1-.45-2.22-.86-3.31-1.34-3.1-1.37-6.18-2.76-9.27-4.15-.38-.17-.76-.33-1.14-.47-.3-.11-.54.03-.72.26-.08.11-.15.23-.2.36-.95 2.02-2.53 3.46-4.34 4.67-.35.23-.68.47-1.08.74zm92.64-60.99c-.55.52-1.09.46-1.68.19-.4-.19-.86-.29-1.31-.34-.5-.06-.81.21-.83.7-.02.5-.02 1.01.06 1.51.61 3.82 1.78 7.47 3.5 10.94.24.48.57.8 1.05 1.02 1.37.65 2.74.67 4.12.09 1.29-.54 2.34-1.42 3.19-2.54 1.1-1.43 1.88-3.03 2.54-4.69.22-.55.34-1.14.46-1.72.4-2.03.37-4.1.49-6.15a8.97 8.97 0 0 0-.63-3.91c-.77-1.95-1.36-3.99-2.49-5.79-.38-.61-.49-1.28-.42-1.98.06-.57.29-.84.86-.89.45-.04.92-.04 1.37-.02.91.05 1.53.5 1.88 1.36.86 2.17 1.75 4.32 2.6 6.49.4 1.03.64 2.1.73 3.2.16 1.82.32 3.65.52 5.47.07.68.19 1.36.37 2.02.19.69.65 1 1.33.92 1.32-.15 2.62-.43 3.88-.86.45-.15.78-.46.98-.9.75-1.65 1.02-3.34.35-5.06-.84-2.18-1.46-4.43-2.11-6.67-.53-1.84-1.3-3.61-1.97-5.41-.42-1.11-.9-2.2-1.31-3.32-.26-.71-.1-1.12.5-1.54.11-.08.24-.14.36-.2.84-.43 1.33-.34 1.92.39.29.36.54.74.79 1.13.94 1.52 1.88 3.03 2.8 4.56.66 1.1 1.21 2.26 1.5 3.52.1.44.21.89.68 1.19 1.11-.79 1.54-1.87 1.39-3.2a8.23 8.23 0 0 0-.21-1.08c-1.33-5.23-2.7-10.45-4.7-15.48-.99-2.49-2.59-4.4-5.01-5.58-.62-.3-1.24-.6-1.9-.78-2.29-.64-4.59-1.24-6.9-1.81-.47-.12-1.01-.12-1.49-.03-1.28.24-2.57.23-3.83.08-1.65-.19-3.29-.2-4.94-.23-1.48-.03-2.93.17-4.33.63-.71.23-1.41.36-2.16.28-.89-.1-1.5.28-1.87 1.08l-2.31 4.98c-.28.61-.21 1.14.36 1.69.44-.06.93-.13 1.42-.2.36-.05.72-.13 1.08-.18.44-.06.79.11 1.09.44 1.29 1.39 1.49 3.55.43 5.22-.37.58-.86 1.08-1.22 1.66-.41.65-.98 1.04-1.65 1.37-1.07.51-2.11 1.1-3.17 1.64-.5.25-.73.64-.81 1.19-.2 1.53-.05 3.03.45 4.47.48 1.38 1.06 2.73 1.68 4.06.4.87.93 1.68 1.45 2.48.54.82 1.27 1.43 2.22 1.76.39.13.76.3 1.15.46 1.1-.6 2.15-1.22 3.13-1.91-.46-1.51-.76-2.11-1.62-3.05-.62-.68-1.26-1.33-1.91-1.98-.4-.4-.74-.81-.86-1.37.38-.81.59-1.03 1.18-1.21.6-.19 1.17-.09 1.72.21 1.28.71 2.59 1.37 3.83 2.13 2.3 1.4 4.36 3.04 5.38 5.67.18.47.49.88.68 1.35.19.46.47.91.3 1.54-.89.65-1.78 1.42-2.85 1.94-.41-.3-.78-.57-1.28-.95zM291.37 160.98c.51-.19.69-.58.89-.93.5-.87 1-1.74 1.82-2.38.54-.43.68-1.1.52-1.76-.15-.62-.36-1.23-.61-1.81-.54-1.28-1.43-2.34-2.32-3.39-1.58-1.88-3.62-2.38-5.95-1.95-1.2.22-2.24.8-3.01 1.78-.74.94-.77 2.02-.62 3.14.25 1.81.43 3.64.79 5.43.59 2.97 1.44 5.86 2.86 8.56 1 1.9 1.92 3.85 2.93 5.75 1.72 3.23 3.47 6.45 5.22 9.66.46.85.99 1.65 1.71 2.31.91.84 1.94 1.38 3.21 1.31.73-.04 1.46-.1 2.18-.2.59-.08 1.17-.23 1.75-.32.85-.14 1.8.3 2.04 1.04.14.42.12.9.1 1.34-.03.5-.52.58-.87.79-.39.23-.58.56-.58 1.02 0 1.03.28 1.99.77 2.89.3.56.78.91 1.45.85.5-.05 1.01-.06 1.49-.19 2.38-.66 4.74-1.36 7.11-2.05.35-.1.7-.22 1.02-.39.75-.39 1.21-1 1.12-1.88-.06-.63-.16-1.27-.34-1.88-.23-.81-.61-1.01-1.45-.84-.45.09-.87.28-1.32.37-.4.09-.73-.08-.9-.46-.21-.46-.38-.93-.55-1.41-.24-.68-.07-1.26.47-1.73.42-.36.84-.71 1.27-1.05 1.87-1.48 3.76-2.93 5.59-4.45 1.46-1.2 2.38-2.76 2.71-4.65.05-.27.12-.54.16-.81.4-2.59.82-3.43.69-6.61-.04-1.07-.4-1.97-1.17-2.69-.47-.43-.98-.84-1.53-1.16-1.51-.86-3.03-1.72-4.59-2.48-2.41-1.18-4.93-1.95-7.67-1.73-.45.04-.91-.04-1.37-.1a23.71 23.71 0 0 0-5.89-.13c-1.24.12-2.41.53-3.49 1.16-.65.38-1.19.87-1.43 1.61-.34 1.06-.47 2.14-.23 3.25.52 2.41 2.01 4.06 4.11 5.22.27.15.6.26.9.29 2.05.18 4.02-.05 5.84-1.11.39-.23.8-.45 1.22-.62.76-.31 1.52-.27 2.26.08.44.21.72.53.7 1.07-.02.58-.13 1.1-.75 1.33-.3.11-.61.2-.9.32-.94.36-1.88.71-2.8 1.11-.9.39-1.38 1.08-1.16 2.08.2.93-.19 1.6-.78 2.21-.76.79-1.57.72-2.14-.21-.16-.27-.25-.59-.33-.89-.06-.22-.04-.46-.08-.68-.25-1.64-.99-2.42-2.6-2.77-.45-.1-.9-.17-1.34-.3-1.38-.42-2.7-1.02-3.52-2.26-.77-1.17-1.78-2.08-2.76-3.03-2.38-2.29-4.13-5-5.25-8.12-.26-.71-.23-1.33.2-1.95.53-.77 1.5-.8 2.05-.04.16.22.24.49.33.75.14.39.2.81.39 1.17.57 1.05 1.17 2.07 1.79 3.09.19.2.47.31.64.43zm132.42 201.83c-.57.54-.63 1.31-.84 1.99-2.17 7.08-4.33 14.16-6.48 21.24-.74 2.45-1.47 4.9-2.23 7.35-.61 1.99-.4 3.79 1.06 5.36.59.64 1.05 1.38 1.42 2.18.12.25.26.48.4.72.63 1.07 1.62 1.35 2.79 1.41 1.14.05 1.79-.54 2.27-1.44.04-.08.1-.15.14-.23.42-.78 1-1.41 1.67-1.99 2.08-1.79 4.14-3.62 6.24-5.39 2.99-2.52 6.41-4.18 10.23-5.05a6 6 0 0 1 2.31-.07c1.18.18 2.33.47 3.46.85.33.11.69.14 1.11.23 0-2.68.02-5.24-.02-7.8-.01-.43-.16-.93-.41-1.28-1.08-1.59-2.22-3.13-3.34-4.7-.27-.38-.65-.48-1.09-.41-.22.04-.45.11-.66.17-3.29 1.01-6.24.1-8.97-1.71-1.97-1.31-2.81-4-1.82-6.21.3-.66.48-1.38.74-2.06.14-.38.11-.73-.09-1.05-.36-.58-.71-1.19-1.16-1.69-1.28-1.44-2.6-2.84-3.91-4.24-.16-.18-.4-.29-.66-.48-.56 1.61-1.09 3.1-1.63 4.64-.23-.15-.37-.24-.53-.34zm-121.51-59.35c.01.65.24.99.82 1.16.39.12.8.2 1.21.27 1.22.21 2.45.37 3.65.63 6.98 1.49 13.95 3 20.92 4.52 1.25.27 2.49.6 3.74.87.78.17 1.09-.07 1.19-.88.12-.91.18-1.82.33-2.73.11-.65-.12-1.05-.69-1.32-.7-.34-1.4-.69-2.08-1.05-2.86-1.52-5.42-3.42-7.5-5.93-1.85-2.23-3.11-4.72-3.38-7.67-.15-1.58.05-3.11.37-4.63.88-4.12 2.96-7.45 6.53-9.79.5-.32.98-.68 1.44-1.05.24-.2.47-.45.63-.72.49-.86.11-1.54-.88-1.63-.14-.01-.28-.01-.41 0-1.47.05-2.93.08-4.4.15-2.61.13-5.21.29-7.82.42l-7.14.36c-.37.02-.73.07-1.09.11-.47.05-.88.22-1.23.55-.27.25-.52.52-.8.75-.47.38-.6.86-.62 1.44-.03 1.05-.04 2.12-.23 3.15-.87 4.6-1.22 9.26-1.58 13.92-.2 2.65-.32 5.3-.81 7.92-.09.41-.13.82-.17 1.18zm112.75 112.38c-.3-.19-.44-.3-.6-.37-1.24-.59-2.49-1.16-3.73-1.75-2.15-1.02-4.34-1.93-6.7-2.38-.27-.05-.53-.14-.77-.27-.82-.41-1.12-1.03-.96-1.92.26-1.47 1.4-2.19 2.81-1.68 1.29.46 2.57.96 3.81 1.53 3.19 1.48 6.36 3.02 9.54 4.52.41.19.83.4 1.26.52.75.19 1.37-.24 1.52-1 .04-.18.05-.37.04-.55-.06-1.05-.13-2.1-.2-3.15-.02-.23-.07-.45-.14-.67-.1-.32-.46-.46-.78-.35-.38.13-.62.39-.74.75-.14.44-.23.89-.37 1.32-.17.51-.26 1.07-.71 1.48-.89.07-1.5-.29-1.8-1.14-.27-.78-.53-1.56-.76-2.35-.3-1.06-.52-2.13-.83-3.19-.51-1.77-1.21-3.46-2.27-4.97-2.09-3-5.01-4.52-8.65-4.48-2.53.03-4.86.82-6.89 2.38-1.72 1.32-3.25 2.83-4.53 4.58-2.22 3.03-2.79 6.41-1.89 10.04.45 1.81 1.36 3.39 2.58 4.79 1.83 2.1 3.91 3.87 6.66 4.65 1.95.56 3.95.81 5.98.67 2.69-.2 4.96-1.24 6.6-3.44.84-1.12 1.63-2.3 2.52-3.57zm25.09-78.5c.18.39.27.63.4.83.86 1.35 1.75 2.68 2.6 4.03.53.85 1.01 1.74 1.54 2.6.91 1.49 1.96 2.86 3.2 4.1.94.94 1.84 1.91 2.71 2.91 3.52 4.04 7.2 7.92 11.17 11.53.1.09.2.19.31.27.34.23.69.21.99-.1.25-.26.48-.55.71-.84a67.79 67.79 0 0 1 6.08-6.71c2.72-2.61 5.74-4.82 8.91-6.84 1-.64 2-1.29 2.99-1.95.29-.2.66-.37.62-.91-.18-.12-.38-.29-.62-.4a16.3 16.3 0 0 0-3.81-1.1c-4.02-.64-8.03-1.31-12.01-2.15-7.47-1.57-14.94-3.1-22.41-4.65-1.07-.2-2.14-.39-3.38-.62zM314.24 156.55c0-.71.03-1.21 0-1.71-.1-1.69-.19-3.38-.35-5.07-.3-3.15-.3-6.31-.2-9.47.02-.73.12-1.46.19-2.19.19-1.96.39-3.92.57-5.88.23-2.57-.62-4.78-2.35-6.66-.49-.54-1.02-1.05-1.58-1.52-1.09-.91-2.65-.75-3.55.33-.88 1.05-1.35 2.29-1.47 3.64-.13 1.41-.21 2.83-.26 4.25-.02.63.09 1.27.12 1.91.03.5.14 1.03.02 1.5-.27 1.07-.07 2.09.17 3.12.15.62.27 1.25.39 1.88.17.9.31 1.8.48 2.7.22 1.12.55 2.23.66 3.36.17 1.7.54 3.34 1.24 4.9.43.96.9 1.9 1.3 2.88.37.89 1.02 1.4 1.93 1.59.84.16 1.7.28 2.69.44zm166.47 231.92c-.17.73-.28 1.31-.44 1.88-.36 1.25-.1 2.35.71 3.34.58.71 1.17 1.41 1.74 2.12.74.93 1.44 1.9 2.22 2.8 2.79 3.22 5.61 6.41 8.4 9.62.81.93 1.61 1.88 2.35 2.87.77 1.03 1.43 2.13 1.87 3.34.24.67.32 1.35.15 2.02-.23.92-.75 1.32-1.54 1.23-.5-.06-1.01-.05-1.51-.11-1.04-.13-2.08-.32-3.12-.43-2.32-.24-4.65-.37-6.96-.68-2.41-.32-4.84-.21-7.26-.39-2.37-.17-4.76-.08-7.14-.09-.37 0-.73.01-1.1.05a.98.98 0 0 0-.49.21c-.07.05-.08.29-.03.34.13.11.31.18.48.24.93.32 1.91.21 2.85.34 2.5.36 5.02.23 7.53.4 2.37.16 4.76.09 7.14.13 1.93.03 3.83.15 5.65.91.67.28 1.4.42 2.11.58 1.1.25 2.19.09 3.25-.23.45-.13.77-.43 1-.87.46-.89.95-1.77 1.48-2.63.66-1.08.67-1.29-.12-2.32-.06-.07-.12-.14-.17-.21-2.38-3.19-4.78-6.37-7.14-9.57-3.51-4.75-7.11-9.43-10.94-13.92-.28-.32-.58-.58-.97-.97zM338.68 276c-1.15.46-2.07 1.05-2.92 1.74-3.02 2.47-4.82 5.71-5.8 9.42-.39 1.47-.43 2.98-.16 4.49.59 3.45 2.37 6.19 4.99 8.44.06.05.17.05.41.13 1.17-8.04 2.34-16.06 3.48-24.22zm-32.46-120.57c0-.26.03-.36 0-.43-1.04-2.63-2.08-5.26-3.14-7.89-.2-.51-.45-1.01-.73-1.47-.83-1.37-1.95-2.48-3.49-2.95-2.35-.72-5.28.56-6.39 2.61-.11.2-.2.41-.27.63-.37 1.05-.23 1.54.63 2.29.14.12.27.24.42.35 2.12 1.57 3.64 3.55 4.4 6.12.37 1.24.85 1.53 2.13 1.46 1.19-.06 2.37-.21 3.55-.34.93-.11 1.88-.25 2.89-.38zm169.39 250.3c.31.16.54.3.78.41 1.08.49 2.17.98 3.25 1.47 2.94 1.33 6 2.22 9.25 2.38.32.02.63.1.94.16.53.11.91.41 1.1.93.06.17.12.35.19.52.38.9.7 1.01 1.78.63-.51-.83-11.45-14.39-13.02-16.12-.08-.09-.22-.13-.4-.24-.13.28-.25.51-.34.75-1.18 3.01-2.34 6.03-3.53 9.11zm-10.1-34.88c-.17-.21-.27-.36-.4-.47-.64-.58-1.33-1.12-1.94-1.74-1.35-1.37-2.66-2.78-3.97-4.18-1.56-1.67-3.11-3.36-4.66-5.05-2.57-2.8-5.12-5.62-7.71-8.4-.97-1.04-1.88-2.13-2.66-3.32-1.7-2.61-3.37-5.23-5.07-7.84-.47-.72-.86-1.49-1.53-2.16-.13.21-.26.35-.31.51-.39 1.17-.77 2.35-1.15 3.52-.24.74-.47 1.48-.67 2.23-.14.53.04.87.55 1.1.25.11.52.19.77.29 1.62.63 3.24 1.27 4.87 1.88.41.15.71.39.98.72 1.78 2.15 3.59 4.28 5.36 6.44 2.44 2.98 4.98 5.86 7.62 8.66 1.25 1.33 2.43 2.74 3.63 4.12.66.76 1.25 1.58 1.92 2.33.98 1.12 2.17 1.82 3.73 1.64.19-.02.38-.16.64-.28zm-20.29-12.3c.19.23.32.4.47.57.39.45.8.88 1.16 1.36.56.76.67 1.58.25 2.46-.55 1.16-1.19 2.27-2.04 3.25-1.33 1.54-3 2.55-4.98 2.98-2.02.44-3.84.13-5.12-1.72-.12-.17-.3-.29-.49-.47-.99 1.07-1.12 2.18-.53 3.36.57 1.15 1.48 1.95 2.74 2.33.86.26 1.73.25 2.59.11 3.07-.5 5.61-1.94 7.42-4.51.84-1.2 1.59-2.46 2.36-3.71.52-.85.7-1.8.5-2.78a5.145 5.145 0 0 0-1.82-2.99c-.73-.6-1.56-.7-2.51-.24zm-63.3 45.26c.25.2.44.47.66.51 1.39.26 2.78.48 4.17.7.61.09 1.07-.19 1.35-.72.33-.6.65-1.2.92-1.83.32-.74.23-1.41-.43-1.96-1.05-.87-2.08-1.77-3.13-2.65-.1-.08-.25-.1-.4-.15-1.07 2.01-2.17 3.99-3.14 6.1zm52.81-299.69c.5-.25.57-.64.61-1.07.06-.78.15-1.55.25-2.32.37-2.79 1.63-5.13 3.62-7.08.69-.67 1.42-1.31 2.18-1.88.87-.66 1.8-1.26 2.72-1.86 1.53-1 3.08-1.98 4.61-2.98.22-.14.39-.34.67-.58-.27-.02-.42-.08-.53-.03-2.7 1.03-5.31 2.24-7.69 3.91-1.97 1.39-3.64 3.06-4.92 5.11-1.45 2.32-2.14 4.84-2.08 7.57.02.45.01.91.56 1.21zm37.46 309.59c.25.05.38.1.52.1l8.92.33c.55.02 1.1.06 1.65.05.32-.01.64-.07.8-.42.17-.38.1-.71-.18-.95-1.36-.12-2.68-.24-4-.37-1.28-.12-2.55-.23-3.83-.38-1.29-.15-2.52-.63-3.88-.72v2.36zm-194.26 1.28c-1.23-.62-2.21-1.09-3.34-1.11-1.48-.02-2.9-.35-4.3-.81-.91-.3-1.83-.58-2.76-.83-.76-.2-1.54-.32-2.3-.03-.27.1-.63.2-.59.63 2.72 1.81 9.32 2.93 13.29 2.15zm162.76-63.07c.04.22.03.37.1.48.83 1.37 1.67 2.74 2.51 4.1.1.16.21.3.34.43.27.3.59.4.99.28.35-.1.66-.24.91-.64-1.49-1.58-2.97-3.14-4.45-4.69-.05-.03-.18.02-.4.04zm11.78 11.99c-.15 1.29.06 2.01.89 2.98.94 1.1 2.06 1.89 3.61 2.05-.58-.91-3.49-4.17-4.5-5.03zm-16.52-241.16c.36.6.72 1.14 1.37 1.56.23-.27.55-.47.58-.72.06-.51-.19-.98-.67-1.21-.44-.21-.88-.2-1.28.37zM303.62 275.46c-.49-.26-.74-.47-1.02-.53-.35-.07-.73-.03-1.09-.01-.29.01-.6-.02-.89.11.51.47.96.89 1.43 1.32.45-.25.88-.5 1.57-.89zm130.36 151.58c-.97-.21-1.77-.44-2.61-.28-.23.53-.28.94.3 1.28.72-.24 1.53-.35 2.31-1zm6.08-306.56c.26-1.49.19-1.61-.97-1.66.14.59.45 1.04.97 1.66zm3.7 307.79c.48-.2.8-.33 1.11-.48.05-.03.08-.12.12-.18-1.09-.18-1.1-.17-1.23.66z"/><path d="M264.72 495.48c-.01-.09-.01-.17-.01-.26.58-.07 1.13.01 1.66.26h-1.65z" class="st1"/><path fill="#bc498c" d="M432.24 108.08c.34.14.65.28.85.64 1.23 2.28 2.01 4.69 2.23 7.28.09 1.08-.27 1.8-1.26 2.34-1.66.9-1.91 1.71-1.24 3.51.36.98.74 1.97 1.17 2.93.4.9 1.01 1.62 1.99 1.97.58.21 1.16.29 1.74.07.47-.18.93-.38 1.37-.6.49-.25.95-.54 1.43-.81.4-.22.82-.39 1.3-.33.82.11 1.41-.3 1.88-.91.88-1.16 1.31-2.5 1.58-3.9.09-.45-.16-.81-.56-.98-.08-.03-.17-.07-.26-.08-.98-.05-1.45-.52-1.52-1.55-.06-.93-.74-1.49-1.62-1.62-.99-.15-1.66-.69-2.3-1.37-.58-.63-.92-1.35-.92-2.22 0-1.01-.03-2.01-.02-3.02 0-.2.15-.4.22-.61.73.1 1.45.21 2.18.3 1.05.13 2.09.24 3.14.36 2.05.24 4.09.49 6.14.73l5.73.66 6.14.72c1.86.22 3.73.42 5.59.64 2.05.24 4.09.49 6.14.73 1.86.22 3.73.43 5.59.64 2.09.24 4.18.49 6.27.74 1.95.23 3.91.47 5.86.7 1.96.23 3.91.45 5.87.67l5.73.66c1.95.23 3.91.47 5.86.7 1.91.22 3.82.42 5.73.65.77.09 1.53.21 2.33.32.02.23.06.41.03.57-.57 3.48-1.15 6.95-1.73 10.43l-1.77 10.7c-.6 3.61-1.19 7.23-1.78 10.84-.6 3.61-1.2 7.22-1.8 10.84-.6 3.61-1.18 7.23-1.78 10.84-.68 4.11-1.37 8.22-2.05 12.32-.6 3.61-1.18 7.23-1.78 10.84-.6 3.61-1.21 7.22-1.81 10.84-.6 3.61-1.18 7.23-1.77 10.84-.7 4.25-1.41 8.49-2.11 12.73l-1.74 10.57c-.6 3.61-1.21 7.22-1.81 10.83-.6 3.61-1.18 7.23-1.78 10.84-.6 3.61-1.2 7.22-1.8 10.84-.61 3.66-1.21 7.32-1.81 10.97-.58 3.52-1.17 7.04-1.75 10.57-.59 3.61-1.17 7.23-1.77 10.84-.6 3.61-1.21 7.22-1.81 10.83-.6 3.61-1.17 7.23-1.77 10.84-.61 3.7-1.22 7.41-1.85 11.11-.27 1.58-.57 3.15-.86 4.72-.23.16-.44.24-.75.17-1.7-.36-3.41-.67-5.12-1.01-4.35-.88-8.7-1.77-13.05-2.66-5.69-1.16-11.39-2.33-17.08-3.48-5.74-1.16-11.49-2.3-17.23-3.46-7.22-1.46-14.45-2.89-21.66-4.39-5.51-1.15-11-2.38-16.5-3.6-7.64-1.7-15.28-3.39-22.9-5.14-7.63-1.75-15.23-3.58-22.85-5.38-2.05-.48-4.09-.99-6.13-1.5-.26-.06-.5-.19-.8-.31.17-1.58.43-3.1.7-4.7.38.04.7.02.98.12 3.62 1.38 7.44 1.92 11.21 2.66 1.97.39 3.97.71 5.96.98.85.12 1.74.13 2.6.05 1.14-.1 2.26-.34 3.39-.53.18-.03.36-.09.53-.15.7-.27 1.18-.84 1.1-1.57-.1-.9-.33-1.79-.55-2.68-.08-.33-.38-.51-.73-.52-.41-.01-.83-.01-1.24.01-2.79.14-5.59.22-8.38.03-4.05-.27-7.98-1.09-11.78-2.5-1.84-.68-2.14-1.14-1.95-3.09.18-1.82.46-3.63.73-5.44.5-3.4 1.03-6.79 1.53-10.19.4-2.72.78-5.44 1.17-8.16.03-.18.1-.36.11-.54.08-1.02.7-1.66 1.55-2.11.48-.26.99-.48 1.45-.79 1.1-.75 1.68-1.78 1.58-3.15-.07-1.01-.57-1.72-1.47-2.15-.29-.14-.6-.22-.9-.33-.74-.27-.86-.41-.78-1.21.09-.91.23-1.82.37-2.72.68-4.34 1.38-8.68 2.04-13.03.43-2.81.78-5.62 1.19-8.43.48-3.26.99-6.52 1.49-9.78.43-2.81.85-5.61 1.28-8.42.42-2.76.84-5.52 1.25-8.29.42-2.81.83-5.62 1.24-8.42.51-3.44 1.01-6.89 1.52-10.33.4-2.76.8-5.53 1.21-8.29l1.5-10.05 1.26-8.42c.51-3.4 1.03-6.79 1.54-10.19.51-3.4 1-6.79 1.51-10.19.39-2.63.77-5.25 1.18-7.88.51-3.3 1.03-6.6 1.55-9.91.43-2.76.88-5.52 1.27-8.28.35-2.54.62-5.09.95-7.63.59-4.45 1.2-8.89 1.8-13.34.06-.45.13-.91.19-1.36.04-.29.19-.51.49-.6 2.32.29 4.63.59 6.95.86 1.95.23 3.91.44 5.87.66 2.05.24 4.09.49 6.13.73 1.91.22 3.82.43 5.73.65 2.05.24 4.09.49 6.13.73 1.91.22 3.82.43 5.73.65 2.05.24 4.09.49 6.13.73 1.86.22 3.73.43 5.59.65a1225.295 1225.295 0 0 0 11.73 1.36c1.73.19 3.45.37 5.18.55zm-71.62 147.43c.05 1.27.06 2.97.18 4.66.09 1.32.28 2.64.46 3.95.73 5.34 2.16 10.49 4.33 15.42 5.62 12.78 14.6 22.5 26.86 29.18 8.47 4.61 17.58 6.96 27.2 7.36 2.06.09 4.12.06 6.18-.15 2-.2 4.02-.34 6-.68 5.86-.99 11.46-2.81 16.78-5.46 8.08-4.03 14.94-9.57 20.6-16.61 4.29-5.33 7.57-11.23 9.88-17.67 2-5.56 3.13-11.29 3.45-17.17.16-2.93.1-5.86-.17-8.79-.38-4.03-1.11-7.98-2.27-11.85-2.87-9.51-7.75-17.85-14.68-24.99-6.55-6.76-14.26-11.73-23.08-14.99-5.58-2.06-11.36-3.21-17.28-3.57-2.79-.17-5.58-.11-8.38.12-3.2.27-6.37.73-9.48 1.52-15.42 3.94-27.74 12.39-36.58 25.66-6.78 10.18-9.96 21.45-10 34.06zm68.5-71.83c.2-.48.13-.99-.07-1.45-.39-.92-.38-1.87-.32-2.83.03-.64.08-1.28.11-1.92.13-2.79.22-5.58.38-8.37.1-1.69.31-3.37.45-5.06.21-2.46.7-4.88.66-7.37-.03-1.86-.46-3.56-1.55-5.03-2.22-3-5.19-4.7-8.97-4.86-1.38-.06-2.73.2-4.08.48-2.06.42-3.75 1.45-5.09 3.04-.56.66-1.07 1.38-1.53 2.11-1.58 2.52-2.44 5.31-3 8.2-.79 4.05-1.14 8.16-1.29 12.28-.1 2.51-.02 5.04-.01 7.55 0 1.16-.11 1.32-1.17 1.71-.09.03-.18.05-.26.07-.8.19-1.22.74-1.46 1.48.39.82 1.03 1.16 1.9 1.09 1.05-.09 2.1-.2 3.15-.28 1.87-.13 3.74-.32 5.62-.35 3.48-.06 6.96-.04 10.45-.05 1.51 0 3.02-.01 4.54-.01.53.02 1.08 0 1.54-.43zm29.17-32.52c-2.91.06-5.46 1.04-7.59 3.04-.98.91-1.78 1.97-2.49 3.1-2.27 3.58-3.98 7.42-5.21 11.47-1.16 3.82-1.9 7.73-2.24 11.72-.04.5-.14 1-.25 1.49-.15.65-.6 1.02-1.25 1.1-.5.06-1.01.02-1.51.09-.49.07-.99.16-1.45.34-.44.17-.75.55-.76 1.06-.01.58.33.98.83 1.15.56.19 1.15.3 1.74.36 1.37.14 2.74.2 4.11.36 1.46.16 2.91.35 4.35.62 3.25.6 6.41 1.55 9.47 2.77 1.79.71 3.55 1.47 5.33 2.2.38.16.77.31 1.16.39.44.09.83-.16.97-.58.06-.17.09-.36.1-.54.06-.86-.17-1.63-.76-2.28-.55-.6-.67-1.28-.42-2.04.09-.26.16-.53.24-.79.92-2.83 1.87-5.65 2.75-8.49 1.21-3.89 2.5-7.75 3.06-11.82.26-1.92.51-3.82-.01-5.72-.92-3.37-2.84-6.02-5.84-7.84-1.32-.8-2.78-1.18-4.33-1.16z"/><path d="M261.69 408.3c-.1-.31-.21-.48-.19-.62.54-3.02 1.1-6.04 1.65-9.05.51-2.75 1.01-5.49 1.53-8.24.67-3.51 1.36-7.01 2.04-10.51.51-2.65.99-5.31 1.51-7.96.48-2.42 1-4.84 1.48-7.26.63-3.19 1.24-6.38 1.86-9.57.13-.67.32-1.33.46-2.01.24-1.15-.23-2.02-1.04-2.76-.6.17-.71.61-.81 1.07-.35 1.56-.73 3.12-1.05 4.69-1.44 6.99-2.88 13.99-4.29 20.99-.65 3.23-1.18 6.48-1.82 9.72-.73 3.73-1.54 7.44-2.27 11.17-.68 3.46-1.37 6.92-1.93 10.39-.38 2.36-.24 4.75-.02 7.13.09 1.03.77 1.62 1.49 2.19.14.11.45.1.63.02.24-.1.45-.31.65-.49 1.03-.96 2.19-1.04 3.43-.47.37.17.73.39 1.08.59 1.41.81 2.93 1.29 4.55 1.44 1.46.14 2.92.19 4.39.27.37.02.73 0 1.1.04 1.37.14 2.46.69 3.03 2.02.39.93 1.15 1.52 1.91 2.12.33.26.67.23 1.03.06.62-.29 1.03-.76 1.26-1.39.14-.39.21-.8.34-1.19.18-.51.39-1.02.57-1.5.57.01.9.34 1.28.58.81.51 1.34.45 1.94-.21.58-.63.64-1.3.16-1.99-.18-.26-.41-.49-.64-.72-.26-.26-.52-.52-.79-.76-.8-.71-1.03-1.52-.74-2.59.74-2.74 1.37-5.51 2.07-8.25 1.52-5.99 2.93-12.01 4.16-18.06 1.41-6.91 3.03-13.76 4.71-20.61 1.21-4.94 2.26-9.9 3.22-14.9.18-.93.31-1.88.69-2.86.3.15.54.26.77.39 3.25 2.01 6.19 4.42 8.94 7.06 6.33 6.07 11.13 13.22 14.92 21.08 3.23 6.68 5.45 13.68 6.81 20.96.88 4.69 1.35 9.42 1.56 14.19.22 5.05-.02 10.09-.73 15.08-1.7 11.92-5.41 23.15-11.84 33.4-3.43 5.46-7.44 10.44-12.22 14.79-6.97 6.34-15.01 10.73-24.17 13.01-2.75.69-5.56 1.07-8.41 1.27-2.62.18-5.22.09-7.82-.13-1.91-.16-3.8-.55-5.7-.84-1.04-.16-2.08-.3-3.12-.45-.77-.11-1.56-.16-2.3-.37-1.8-.51-3.59-1.07-5.37-1.67-1.92-.65-3.67-1.67-5.35-2.78-3.43-2.29-6.87-4.59-9.94-7.34-4.96-4.46-9.44-9.34-12.96-15.05-1.81-2.94-3.11-6.11-4.34-9.32-1.9-4.97-3.2-10.12-4.4-15.29-.48-2.05-.99-4.09-1.42-6.15-.23-1.12-.4-2.26-.47-3.4-.3-4.62-.54-9.24-.44-13.87.1-4.73.56-9.41 1.37-14.07.98-5.66 2.55-11.15 4.62-16.5 4.2-10.85 10.43-20.34 19.08-28.19 5.21-4.73 11.08-8.41 17.69-10.85 3.92-1.45 7.95-2.45 12.11-2.91 4.03-.45 8.05-.44 12.06.11 1.94.26 3.91.54 5.75 1.26 1.11.43 2.17.96 3.26 1.44.94.41 1.37 1.19 1.47 2.16.05.49.08 1.04-.07 1.5-.61 1.9-.69 3.87-.99 5.81-.44 2.85-.77 5.72-1.24 8.56-.71 4.34-1.48 8.66-2.07 13.02-.34 2.49-.81 4.97-1.21 7.46-.43 2.71-.84 5.43-1.27 8.14-.71 4.43-1.43 8.86-2.13 13.29-.33 2.13-.61 4.26-.92 6.39-.03.18-.04.37-.08.54-.15.61-.45.84-1.09.78-.5-.05-.99-.17-1.48-.26-3.42-.64-6.83-1.29-10.25-1.94-.36-.07-.72-.16-1.06-.27a.767.767 0 0 1-.54-.85c.06-.41.16-.81.26-1.21 1.46-5.29 2.9-10.59 4.39-15.88 1.36-4.84 2.76-9.68 4.17-14.51.44-1.5.62-3.05.92-4.57.31-1.61.67-3.23 1.1-4.81 1.4-5.17 2.85-10.32 4.28-15.48.12-.44.23-.9.23-1.34 0-.34-.15-.71-.33-1.02-.09-.16-.36-.29-.56-.31-.65-.06-1.18.2-1.47.8-.18.37-.3.77-.41 1.16-.88 3.36-1.76 6.73-2.63 10.1-1.34 5.18-2.66 10.37-4.03 15.55-1.87 7.03-3.77 14.05-5.67 21.08-.77 2.83-1.6 5.63-2.38 8.45-.23.85-.64 1.59-1.51 2.28zM450.48 429.09c.64-.84 1.13-1.56 1.7-2.21 1.12-1.29 2.54-2.09 4.23-2.34 1.52-.23 2.93-.74 4.23-1.53.98-.59 1.93-1.23 2.87-1.88.33-.23.62-.54.89-.85.89-.97 2.01-1.43 3.29-1.5.82-.04 1.65 0 2.47.04 1.83.08 3.66.2 5.49.28 3.11.15 6.22.3 9.33.42 1.25.05 2.43.43 3.63.69 1.83.41 3.65.87 5.5 1.18.93.15 1.94.16 2.86-.03 1.34-.27 2.54-.06 3.73.5.54.25 1.06.55 1.61.76 2.32.85 5.01-.77 5.36-3.22.18-1.27-.16-2.36-1.14-3.22-.17-.15-.35-.29-.53-.44-2.08-1.61-3.89-3.48-5.52-5.54-3.28-4.18-6.57-8.36-9.84-12.55-2.56-3.29-5.1-6.6-7.64-9.9-.36-.47-.7-.96-1.07-1.43-.45-.59-.74-1.25-.96-1.96-.39-1.27-.79-2.53-1.22-3.79-.51-1.5-1.32-2.82-2.41-3.96-1.04-1.09-2.11-2.17-3.19-3.23-.79-.77-1.69-1.27-2.85-.92-.39.12-.74-.02-1.05-.21-1.6-.95-2.71-2.3-3.28-4.08-.16-.51-.1-1 .18-1.45.12-.19.26-.38.4-.56 3.36-4.39 7.16-8.34 11.66-11.59 5.4-3.9 11.39-6.41 17.94-7.54 8.39-1.44 16.41-.19 24.04 3.58 6.24 3.09 11.59 7.34 16.14 12.6 3.2 3.69 5.82 7.76 8.16 12.03 1.74 3.17 3.35 6.41 4.58 9.82.88 2.42 1.5 4.9 1.99 7.42.48 2.42.87 4.87 1.25 7.31.39 2.49.47 5.01.61 7.53.18 3.21.07 6.41-.13 9.61-.83 13.52-4.64 26.08-12.13 37.45-3.15 4.78-7.02 8.91-11.35 12.65-1.87 1.62-3.74 3.24-5.53 4.95-3.34 3.19-7.2 5.47-11.63 6.78-3.55 1.04-7.11 2.08-10.67 3.09-1.88.53-3.81.59-5.73.33-1.28-.17-2.55-.24-3.84-.19-2.02.08-4.02.01-6.01-.42-1.98-.43-3.88-1.08-5.66-2.03-3.8-2.02-7.45-4.31-10.94-6.84a24.483 24.483 0 0 1-6.87-7.59c-.99-1.7-2.16-3.3-3.18-4.98-3.97-6.52-6.58-13.56-8-21.06-.51-2.66-.78-5.34-1.05-8.03-.03-.69-.08-1.37-.72-1.95zm60.72 47.24c-.61-.13-1.14-.03-1.66.03-1.32.14-2.64.3-3.96.4-4.19.3-8.31-.09-12.36-1.24-1.8-.51-3.58-1.1-5.36-1.66-.66-.2-1.31-.44-2.01-.35-.31.04-.63.13-.89.28-.45.26-.56.77-.26 1.18.32.44.68.86 1.06 1.26.75.78 1.63 1.3 2.74 1.42.82.09 1.62.29 2.43.4 2.49.33 4.99.71 7.51.65 1.6-.04 3.2-.16 4.8-.22 2.69-.1 5.19-1.02 7.72-1.77.08-.03.13-.2.24-.38zm-31.69-103.25c-.53-.09-.98-.17-1.49.08.8.6.8.6 1.49-.08z" class="st3"/><path d="M300.75 282.35c0 .59.04 1.19-.02 1.78-.22 1.91-.5 3.81-.72 5.72-.22 2-.36 4.01-.38 6.03-.01 1.78-.17 3.57-.25 5.35-.02.54-.25.96-.57 1.36-1.48 1.85-1.75 3.97-1.32 6.22.12.63.33 1.25 1.09 1.54.27-.11.56-.22.85-.36.81-.4 1.44-.94 1.62-1.91.11-.61.37-.77.97-.71.59.05 1.17.18 1.76.3 3.22.68 6.45 1.34 9.66 2.05 3.89.85 7.77 1.73 11.65 2.62 5.93 1.36 11.85 2.74 17.78 4.13 4.9 1.14 9.79 2.3 14.69 3.45 5.88 1.38 11.76 2.75 17.64 4.12 6.32 1.47 12.65 2.94 18.98 4.41l18.98 4.41c2 .46 4.01.95 6.02 1.38 1.91.4 3.64 1.22 5.32 2.17.36.2.7.44 1.06.63.77.4 1.01 1.05.84 1.84-.25 1.21-.53 2.41-.84 3.61-.45 1.78-.71 3.59-1.03 5.39-.31 1.8-.68 3.6-1.2 5.35-.99 3.29-2.12 6.53-3.19 9.79-1 3.04-2.01 6.08-2.99 9.14-1.12 3.49-2.21 6.98-3.31 10.47l-2.79 8.91c-.14.44-.28.87-.46 1.29-.24.54-.54.68-1.1.52-.57-.16-1.14-.35-1.7-.54-.17-.06-.32-.16-.55-.29.05-.27.07-.53.14-.78 1-3.38 2.01-6.75 3.02-10.13 1.8-6.01 3.59-12.01 5.4-18.02 1.5-5 3.01-9.99 4.52-14.99.63-2.1 1.27-4.21 1.89-6.31.08-.26.1-.53.16-.84-2.16-1.26-4.29-2.49-6.64-3.31-2.64-.93-5.32-1.69-8.02-2.38-6.43-1.64-12.86-3.28-19.29-4.88-1.37-.34-2.79-.48-4.18-.78-1.83-.4-3.68-.77-5.47-1.31-4.12-1.24-8.34-2.09-12.5-3.19-4.51-1.19-9.04-2.3-13.54-3.54-5.74-1.57-11.5-3.03-17.33-4.22-4.21-.85-8.44-1.66-12.65-2.51-2.82-.57-5.64-1.19-8.46-1.76-2.91-.59-5.83-1.18-8.78-1.54-1.09-.13-2.17-.32-3.27-.4-1.07-.09-2.08.24-3.05.68a.6.6 0 0 0-.25.92c.11.15.23.28.37.4 3.67 3.11 7.34 6.21 11.02 9.31 4.27 3.6 8.63 7.1 12.73 10.91 3.29 3.05 6.61 6.08 9.91 9.12 3.41 3.13 6.87 6.2 10.42 9.16 2.71 2.26 5.37 4.58 8.06 6.86 2.52 2.13 5.05 4.25 7.57 6.37 2.73 2.3 5.47 4.6 8.19 6.91 2.76 2.34 5.53 4.67 8.28 7.02 2.16 1.84 4.31 3.7 6.47 5.55 2.26 1.94 4.52 3.88 6.77 5.83 1.56 1.35 3.12 2.7 4.66 4.07.33.3.58.68.93 1.09-1 .86-1.93 1.66-2.91 2.51-.36-.25-.71-.46-1.01-.72-1.89-1.66-3.79-3.33-5.66-5.01a834.97 834.97 0 0 1-7.65-6.9c-2.81-2.57-5.56-5.19-8.38-7.74-2.18-1.96-4.44-3.83-6.64-5.77-1.65-1.45-3.26-2.95-4.89-4.42-3.6-3.26-7.2-6.51-10.8-9.77-1.22-1.11-2.42-2.24-3.66-3.33-3.41-2.99-6.81-5.99-10.26-8.93-2.89-2.47-5.83-4.88-8.77-7.29-2.55-2.09-5.13-4.15-7.68-6.24-2.09-1.72-4.15-3.46-6.21-5.21-2.34-1.99-4.67-3.99-7-5.99-1.08-.93-2.16-1.85-3.2-2.82-.6-.56-1.1-1.22-1.65-1.83-.15-.17-.28-.36-.45-.52-.25-.24-.63-.25-.86.01-.27.31-.54.63-.71 1-.37.79-.67 1.6-1 2.41-.33.81-.65 1.62-.99 2.42-.5 1.16-.48 2.31-.04 3.48s1.08 2.22 1.98 3.1c.75.74 1.54 1.44 2.3 2.17 1.96 1.91 2.63 4.23 2.11 6.9-.17.9-.42 1.78-.6 2.68-.55 2.64-1.11 5.28-1.61 7.93-.59 3.15-1.38 6.25-2.18 9.35-1.08 4.21-2.2 8.41-3.01 12.68-.65 3.46-1.31 6.92-2.01 10.37-.43 2.11-.95 4.19-1.39 6.3-.57 2.68-1.06 5.38-1.66 8.06-1.14 5.09-2.3 10.18-3.84 15.16-.19.61-.38 1.23-.81 1.72-.08.09-.21.14-.41.28-.06-.22-.15-.38-.14-.53.11-1.51.17-3.02.36-4.51.29-2.27.66-4.52 1.01-6.78.42-2.71.85-5.42 1.27-8.13.31-2.03.61-4.07.93-6.1.41-2.62.84-5.24 1.26-7.86.31-1.94.62-3.88.93-5.83.35-2.26.71-4.52 1.04-6.78.33-2.22.62-4.44.93-6.66.33-2.35.68-4.71 1-7.06.23-1.72.42-3.45.65-5.17.23-1.72.47-3.44.71-5.16.2-1.5.42-2.99.6-4.49.36-2.93-.88-5.06-3.34-6.55-1.15-.7-2.27-.56-3.32.22a.86.86 0 0 0-.18.2c-.05.08-.07.16-.12.27.3 1.15 1.74.84 2.32 1.68-.74.52-.74.52-1.36.47-1.92-.14-3.83-.28-5.75-.44-.68-.06-1.37-.15-2.04-.26-.57-.09-.89-.52-.74-1.1.22-.84.47-1.69.85-2.46.76-1.52 1.8-2.87 2.87-4.18.92-1.12 2.18-1.45 3.54-1.56.64-.05 1.28-.05 1.92-.08 1.07-.05 1.87-.49 2.47-1.44.98-1.55 2.09-3.01 3.14-4.51 1.06-1.51 2.01-3.07 2.49-4.87.54-2.03.46-4.09.18-6.14-.17-1.27-.47-2.52-.36-3.82.23-2.79.67-5.53 1.44-8.23.99-3.48 1.95-6.96 2.94-10.44.12-.42.11-.92.54-1.22h-.06z" class="st4"/><path d="M445.76 374.56c.4-.28.73-.51 1.07-.74 1.82-1.21 3.39-2.65 4.34-4.67.06-.12.12-.25.2-.36.18-.23.42-.37.72-.26.39.14.77.31 1.14.47 3.09 1.38 6.18 2.78 9.27 4.15 1.09.48 2.21.89 3.31 1.34.68.28 1.36.55 2.02.87 1.39.67 2.51 1.67 3.37 2.95 1.05 1.57 1.82 3.28 2.49 5.04.48 1.27.52 2.62.31 3.94-.49 3.03-1.16 6.03-2.39 8.86-.44 1-.96 1.98-1.5 2.93-.84 1.47-1.8 2.88-2.58 4.38-1.5 2.87-3.42 5.41-5.73 7.68-.95.93-1.86 1.9-2.81 2.83-2.98 2.92-6.56 4.59-10.71 5.1-2.69.33-5.37.57-8.08.55-3.48-.02-6.82-.68-10.04-1.97-1.45-.58-2.83-1.29-4.01-2.35-1.09-.99-1.82-2.18-2-3.65-.06-.45-.06-.91-.04-1.37.05-1.37.19-2.74.17-4.12-.03-1.85.59-3.4 1.8-4.76 1.68-1.9 3.58-3.54 5.67-4.98 1.81-1.25 3.73-2.32 5.7-3.3 3.44-1.72 6.95-1.8 10.5-.41.89.35 1.73.83 2.59 1.27 1.47.75 2.94 1.49 4.39 2.27.81.43 1.59.31 2.37-.02.43-.18.51-.72.15-1.02-.31-.26-.66-.49-1.02-.68-1.41-.75-2.84-1.49-4.26-2.23-.24-.13-.49-.24-.74-.36-1.04-.53-1.57-1.37-1.57-2.54 0-1.7-.09-3.4.02-5.08.17-2.6-.59-4.88-2.04-6.98-.62-.9-1.31-1.76-2.08-2.78z" class="st5"/><path d="M479.52 342.78c.29-1.57.59-3.15.86-4.72.63-3.7 1.24-7.4 1.85-11.11.59-3.61 1.17-7.23 1.77-10.84.6-3.61 1.21-7.22 1.81-10.83.6-3.61 1.17-7.23 1.77-10.84.58-3.52 1.17-7.04 1.75-10.57.61-3.66 1.21-7.32 1.81-10.97.6-3.61 1.21-7.22 1.8-10.84.6-3.61 1.18-7.23 1.78-10.84.6-3.61 1.21-7.22 1.81-10.83l1.74-10.57c.7-4.24 1.41-8.49 2.11-12.73.6-3.61 1.17-7.23 1.77-10.84.6-3.61 1.21-7.22 1.81-10.84.6-3.61 1.18-7.23 1.78-10.84.68-4.11 1.37-8.22 2.05-12.32.6-3.61 1.18-7.23 1.78-10.84.6-3.61 1.2-7.22 1.8-10.84.6-3.61 1.19-7.23 1.78-10.84l1.77-10.7c.58-3.48 1.16-6.95 1.73-10.43.03-.17-.02-.35-.03-.57-.8-.11-1.57-.23-2.33-.32-1.91-.22-3.82-.43-5.73-.65-1.96-.23-3.91-.47-5.86-.7l-5.73-.66c-1.96-.22-3.91-.45-5.87-.67-1.96-.23-3.91-.47-5.86-.7-2.09-.25-4.18-.5-6.27-.74-1.86-.22-3.73-.43-5.59-.64-2.05-.24-4.09-.49-6.14-.73-1.86-.22-3.73-.42-5.59-.64l-6.14-.72-5.73-.66c-2.05-.24-4.09-.49-6.14-.73-1.05-.12-2.09-.23-3.14-.36-.73-.09-1.45-.2-2.18-.3 0-.14-.02-.28 0-.41.1-.74.25-.94.91-.93.95.01 1.92-.16 2.86.18.29.1.63.04.95.08.5.06.99.13 1.48.19.14.02.27.08.4.06 1.25-.15 2.44.26 3.68.32 1.04.05 2.07.28 3.1.46.76.14 1.53.07 2.31.26 1.05.26 2.17.25 3.25.36.41.04.81.11 1.21.17.27.04.54.09.81.1 1.37.06 2.71.26 4.06.51.13.02.27.04.41.04 1.46.01 2.89.29 4.33.51 1.17.17 2.36.21 3.54.33 1 .1 2 .18 2.99.33 1.35.21 2.69.43 4.06.5.82.05 1.67.06 2.43.3 1.25.39 2.55.07 3.8.46.68.21 1.44.1 2.16.26 1.01.23 2.08.23 3.12.35 1.08.13 2.16.29 3.24.44.14.02.27.08.4.09 1.23.1 2.45.17 3.68.3 1.04.11 2.07.29 3.1.45.14.02.27.07.4.08 1.13.1 2.27.17 3.4.3 1.17.13 2.34.35 3.51.49 1.13.13 2.27.22 3.4.33.36.04.72.11 1.08.16.27.04.54.09.81.1.64.02 1.26.09 1.9.21 1.11.21 2.26.24 3.39.35 1.13.11 2.27.19 3.4.33.25.03.49.22.74.35.22.65.14 1.29.09 1.92-.04.59-.17 1.17-.28 1.75-.25 1.34-.52 2.68-.75 4.02-.21 1.16-.39 2.33-.57 3.5-.29 1.84-.55 3.69-.85 5.52-.2 1.21-.48 2.41-.7 3.61-.23 1.25-.44 2.51-.64 3.76-.21 1.3-.4 2.61-.63 3.91-.24 1.39-.51 2.77-.76 4.16-.45 2.55-.97 5.09-1.31 7.66-.21 1.58-.61 3.13-.83 4.7-.23 1.67-.63 3.31-.82 4.98-.28 2.49-.91 4.92-1.21 7.4-.22 1.8-.68 3.57-1 5.36-.24 1.34-.4 2.7-.62 4.04-.2 1.21-.46 2.41-.64 3.63-.23 1.48-.66 2.93-.74 4.44-.03.54-.18 1.08-.29 1.61-.34 1.79-.8 3.56-1 5.36-.21 1.95-.62 3.86-.95 5.79-.41 2.46-.7 4.95-1.25 7.39-.43 1.9-.59 3.86-.92 5.79-.3 1.79-.69 3.57-1 5.36-.24 1.34-.41 2.7-.63 4.04-.29 1.75-.59 3.5-.9 5.24-.24 1.39-.5 2.77-.74 4.16-.26 1.48-.59 2.95-.74 4.43-.14 1.41-.59 2.76-.68 4.18-.08 1.17-.4 2.33-.61 3.49-.25 1.39-.49 2.77-.73 4.16-.32 1.84-.62 3.67-.94 5.51-.23 1.34-.48 2.68-.71 4.03-.12.72-.2 1.44-.34 2.16-.32 1.61-.6 3.21-.79 4.84-.13 1.17-.41 2.33-.61 3.49-.25 1.39-.49 2.77-.73 4.16-.16.89-.4 1.79-.44 2.69-.06 1.38-.52 2.68-.7 4.03-.24 1.8-.66 3.57-.98 5.36-.23 1.3-.42 2.6-.63 3.9-.24 1.43-.49 2.87-.73 4.3-.22 1.3-.43 2.6-.64 3.9-.11.67-.19 1.35-.33 2.02-.22 1.07-.4 2.14-.52 3.23-.13 1.17-.4 2.33-.6 3.49-.25 1.39-.5 2.77-.74 4.16-.23 1.3-.44 2.6-.66 3.9-.23 1.34-.48 2.68-.71 4.03-.22 1.3-.43 2.6-.65 3.9-.24 1.39-.49 2.77-.73 4.16-.32 1.84-.62 3.67-.94 5.51-.24 1.39-.48 2.78-.71 4.17-.2 1.17-.38 2.33-.59 3.5-.07.42-.32.64-.76.64-.36.01-.73-.05-1.08-.11-.85-.14-1.71-.27-2.55-.45-.23-.03-.41-.21-.6-.32z" class="st6"/><path d="M538.4 313.57c.5.37.86.64 1.27.95 1.07-.53 1.96-1.3 2.85-1.94.17-.63-.12-1.08-.3-1.54-.19-.46-.5-.88-.68-1.35-1.01-2.63-3.08-4.27-5.38-5.67-1.25-.76-2.56-1.42-3.83-2.13-.55-.3-1.12-.4-1.72-.21-.58.18-.79.4-1.18 1.21.11.56.46.98.86 1.37.65.65 1.29 1.3 1.91 1.98.86.94 1.17 1.54 1.62 3.05-.98.7-2.03 1.32-3.13 1.91-.39-.16-.76-.33-1.15-.46-.95-.32-1.68-.94-2.22-1.76-.53-.8-1.05-1.62-1.45-2.48-.62-1.32-1.2-2.68-1.68-4.06-.5-1.44-.65-2.94-.45-4.47.07-.54.31-.93.81-1.19 1.06-.54 2.1-1.12 3.17-1.64.68-.32 1.24-.72 1.65-1.37.37-.58.86-1.08 1.22-1.66 1.06-1.67.85-3.83-.43-5.22-.3-.33-.65-.5-1.09-.44-.36.05-.72.12-1.08.18-.49.07-.98.14-1.42.2-.58-.55-.65-1.08-.36-1.69l2.31-4.98c.37-.8.98-1.18 1.87-1.08.74.08 1.44-.05 2.16-.28 1.4-.46 2.85-.66 4.33-.63 1.65.03 3.29.03 4.94.23 1.27.15 2.55.16 3.83-.08.48-.09 1.02-.09 1.49.03 2.31.57 4.61 1.17 6.9 1.81.65.18 1.28.48 1.9.78 2.43 1.18 4.02 3.09 5.01 5.58 1.99 5.03 3.37 10.25 4.7 15.48.09.35.17.72.21 1.08.16 1.33-.28 2.41-1.39 3.2-.47-.29-.58-.74-.68-1.19-.29-1.26-.84-2.42-1.5-3.52-.92-1.53-1.86-3.05-2.8-4.56-.24-.39-.5-.77-.79-1.13-.59-.73-1.08-.82-1.92-.39-.12.06-.25.12-.36.2-.6.42-.76.83-.5 1.54.41 1.12.89 2.21 1.31 3.32.68 1.79 1.44 3.57 1.97 5.41.65 2.24 1.27 4.48 2.11 6.67.66 1.72.4 3.42-.35 5.06-.2.44-.53.75-.98.9-1.26.43-2.55.71-3.88.86-.69.08-1.14-.23-1.33-.92-.18-.66-.29-1.34-.37-2.02-.19-1.82-.36-3.64-.52-5.47-.1-1.1-.33-2.18-.73-3.2-.85-2.17-1.74-4.32-2.6-6.49-.34-.86-.96-1.31-1.88-1.36-.46-.02-.92-.02-1.37.02-.56.05-.8.32-.86.89-.07.7.04 1.37.42 1.98 1.13 1.8 1.71 3.84 2.49 5.79.49 1.24.71 2.56.63 3.91-.12 2.05-.09 4.12-.49 6.15-.11.58-.24 1.17-.46 1.72-.66 1.66-1.44 3.26-2.54 4.69-.85 1.11-1.9 1.99-3.19 2.54-1.37.58-2.75.56-4.12-.09-.48-.23-.81-.55-1.05-1.02a38.314 38.314 0 0 1-3.5-10.94c-.08-.49-.08-1.01-.06-1.51.02-.48.33-.75.83-.7.45.05.91.16 1.31.34.6.28 1.14.33 1.69-.19z" class="st7"/><path d="M291.37 160.98c-.17-.13-.45-.24-.58-.44-.62-1.01-1.22-2.04-1.79-3.09-.19-.35-.25-.78-.39-1.17-.09-.26-.17-.53-.33-.75-.55-.77-1.52-.73-2.05.04-.43.62-.46 1.24-.2 1.95a21.32 21.32 0 0 0 5.25 8.12c.99.95 1.99 1.86 2.76 3.03.81 1.24 2.13 1.83 3.52 2.26.44.13.89.2 1.34.3 1.61.35 2.34 1.13 2.6 2.77.03.23.02.46.08.68.08.31.17.63.33.89.57.93 1.39 1 2.14.21.59-.62.98-1.29.78-2.21-.22-1 .26-1.69 1.16-2.08.92-.4 1.87-.74 2.8-1.11.3-.12.6-.21.9-.32.62-.23.73-.75.75-1.33.02-.54-.25-.86-.7-1.07-.74-.36-1.5-.39-2.26-.08-.42.17-.83.39-1.22.62-1.82 1.06-3.79 1.3-5.84 1.11-.31-.03-.63-.13-.9-.29-2.09-1.17-3.58-2.81-4.11-5.22-.24-1.11-.11-2.19.23-3.25.24-.74.78-1.23 1.43-1.61 1.08-.63 2.25-1.04 3.49-1.16 1.96-.2 3.93-.16 5.89.13.45.07.92.14 1.37.1 2.74-.22 5.26.55 7.67 1.73 1.56.76 3.08 1.62 4.59 2.48.55.31 1.06.72 1.53 1.16.77.72 1.13 1.62 1.17 2.69.13 3.17-.29 4.02-.69 6.61-.04.27-.11.54-.16.81-.33 1.88-1.25 3.44-2.71 4.65-1.84 1.52-3.73 2.97-5.59 4.45-.43.34-.86.69-1.27 1.05-.55.47-.71 1.05-.47 1.73.17.47.34.95.55 1.41.17.38.5.55.9.46.45-.1.87-.28 1.32-.37.83-.17 1.22.03 1.45.84.18.61.28 1.25.34 1.88.09.88-.38 1.49-1.12 1.88-.32.17-.67.29-1.02.39-2.37.69-4.74 1.39-7.11 2.05-.48.13-.99.15-1.49.19-.68.06-1.15-.29-1.45-.85-.48-.9-.77-1.86-.77-2.89 0-.45.18-.78.58-1.02.34-.2.84-.28.87-.79.02-.45.04-.93-.1-1.34-.24-.74-1.19-1.18-2.04-1.04-.59.1-1.16.25-1.75.32-.72.09-1.45.16-2.18.2-1.27.07-2.31-.47-3.21-1.31-.72-.66-1.24-1.47-1.71-2.31-1.75-3.22-3.51-6.43-5.22-9.66-1.01-1.9-1.93-3.85-2.93-5.75-1.43-2.7-2.27-5.59-2.86-8.56-.36-1.79-.54-3.62-.79-5.43-.15-1.11-.12-2.2.62-3.14.78-.98 1.81-1.56 3.01-1.78 2.32-.43 4.36.07 5.95 1.95.89 1.05 1.77 2.11 2.32 3.39.25.59.46 1.2.61 1.81.16.66.02 1.33-.52 1.76-.82.65-1.31 1.51-1.82 2.38-.25.36-.43.75-.95.94z" class="st8"/><path d="M302.28 303.46c.05-.36.08-.77.16-1.17.49-2.62.61-5.27.81-7.92.36-4.66.71-9.31 1.58-13.92.19-1.03.2-2.1.23-3.15.02-.58.15-1.07.62-1.44.28-.23.54-.5.8-.75.35-.33.76-.5 1.23-.55.36-.04.73-.09 1.09-.11l7.14-.36c2.61-.14 5.21-.29 7.82-.42 1.46-.07 2.93-.1 4.4-.15.14 0 .28-.01.41 0 1 .08 1.37.76.88 1.63-.16.27-.38.52-.63.72-.46.37-.94.73-1.44 1.05-3.57 2.33-5.65 5.67-6.53 9.79-.33 1.52-.52 3.06-.37 4.63.27 2.95 1.53 5.43 3.38 7.67 2.08 2.51 4.64 4.41 7.5 5.93.69.36 1.38.71 2.08 1.05.57.27.79.68.69 1.32-.15.9-.22 1.82-.33 2.73-.1.81-.42 1.05-1.19.88-1.25-.28-2.49-.6-3.74-.87-6.97-1.51-13.94-3.03-20.92-4.52-1.21-.26-2.44-.42-3.65-.63-.41-.07-.81-.15-1.21-.27-.57-.18-.81-.52-.81-1.17z" class="st7"/><path d="M329.78 365.72c-.19-.83-.7-1.46-1.39-1.92-.8-.54-1.45-1.23-2.1-1.92-.34-.37-.65-.75-1.24-.68-.09.01-.22-.25-.34-.39-.04-.29.13-.44.36-.48.26-.04.53-.01.87-.01 1.35-1.76 3.24-2.78 5.37-3.43 1.15-.35 2.29-.75 3.4-1.26-.26-.6.15-.78.49-1.01.17-.08.33-.15.5-.23.27.04.54.07.82.11.11.32.18.62.33.87.14.22.38.39.59.57 3.2 2.81 6.39 5.65 9.61 8.44 7.14 6.18 14.57 12.01 22 17.83 4.19 3.28 8.44 6.46 12.67 9.69.36.28.71.57 1.11.88-.14.28-.23.53-.38.75-.86 1.3-1.72 2.6-2.6 3.88-.42.6-.83.63-1.35.13-.6-.57-1.16-1.18-1.79-1.71-1.3-1.1-2.79-1.92-4.33-2.64-2.98-1.41-5.96-2.8-8.94-4.21-.66-.31-1.31-.66-1.94-1.03-1.85-1.1-3.34-2.53-4.42-4.42-1.09-1.91-2.04-3.89-2.95-5.89-.86-1.88-1.84-3.69-3.05-5.37a20.46 20.46 0 0 0-4.41-4.5c-1.14-.85-2.24-1.75-3.37-2.61-3.72-2.79-7.92-3.92-12.52-3.59-1 .07-1.94.39-2.9.95.48.59 1.04.97 1.62 1.31.2.12.53.05.79.02 1.46-.17 2.93-.26 4.37.13.75.21 1.49.45 2.19.77 2.34 1.07 4.48 2.5 6.51 4.07 1.09.84 2.13 1.73 3.19 2.62.92.77 1.7 1.68 2.3 2.72 1.37 2.38 2.71 4.78 4.06 7.17.16.28.29.57.43.86 1.78 3.72 4.63 6.31 8.35 8.01 2.54 1.16 5.08 2.33 7.61 3.49.71.33 1.39.7 2.11 1 1.94.8 3.55 2.08 5.12 3.42.54.46.79.99.72 1.68-.04.42-.41.63-.8.42-.28-.15-.54-.35-.81-.52-.74-.45-1.46-.95-2.23-1.34-4.93-2.53-9.86-5.04-14.8-7.56-1.11-.56-2.17-1.19-3.11-2-1.2-1.04-2.09-2.29-2.8-3.7-1.56-3.13-3.45-6.04-5.62-8.78-2.66-3.35-5.69-6.34-8.95-9.1-1.33-1.12-2.91-1.72-4.58-2.08-.94-.2-1.89-.37-2.89-.18-.2.34-.3.86-.88.77z" class="st9"/><path d="M415.03 415.84c-.89 1.27-1.68 2.45-2.53 3.59-1.64 2.2-3.91 3.24-6.6 3.44-2.03.15-4.02-.11-5.98-.67-2.75-.79-4.83-2.55-6.66-4.65-1.22-1.4-2.13-2.98-2.58-4.79-.89-3.63-.33-7.01 1.89-10.04 1.28-1.74 2.81-3.26 4.53-4.58 2.03-1.56 4.36-2.35 6.89-2.38 3.64-.04 6.55 1.48 8.65 4.48 1.06 1.51 1.76 3.21 2.27 4.97.3 1.05.53 2.13.83 3.19.22.79.48 1.57.76 2.35.3.85.91 1.21 1.8 1.14.45-.41.54-.96.71-1.48.14-.43.23-.89.37-1.32.12-.37.36-.63.74-.75.33-.11.68.03.78.35.07.22.12.44.14.67.08 1.05.14 2.1.2 3.15.01.18 0 .37-.04.55-.15.75-.77 1.19-1.52 1-.44-.11-.85-.32-1.26-.52-3.18-1.51-6.35-3.04-9.54-4.52-1.24-.58-2.53-1.07-3.81-1.53-1.41-.51-2.55.21-2.81 1.68-.16.89.14 1.51.96 1.92.24.12.51.22.77.27 2.36.45 4.55 1.36 6.7 2.38 1.24.59 2.49 1.16 3.73 1.75.17.05.32.16.61.35zM440.12 337.34c1.24.23 2.31.42 3.38.64 7.47 1.54 14.95 3.07 22.41 4.65 3.98.84 7.99 1.51 12.01 2.15 1.31.21 2.59.58 3.81 1.1.24.1.44.28.62.4.04.54-.33.71-.62.91-.99.66-1.98 1.31-2.99 1.95-3.17 2.02-6.2 4.23-8.91 6.84a67.79 67.79 0 0 0-6.08 6.71c-.23.29-.45.58-.71.84-.3.31-.65.33-.99.1-.11-.08-.21-.17-.31-.27-3.97-3.61-7.65-7.49-11.17-11.53-.87-1-1.78-1.97-2.71-2.91-1.24-1.24-2.29-2.62-3.2-4.1-.52-.86-1-1.75-1.54-2.6-.85-1.35-1.74-2.69-2.6-4.03-.14-.23-.22-.47-.4-.85z" class="st8"/><path d="M314.24 156.55c-.99-.17-1.85-.28-2.7-.46-.9-.19-1.56-.7-1.93-1.59-.4-.97-.87-1.92-1.3-2.88-.7-1.56-1.07-3.19-1.24-4.9-.11-1.13-.44-2.24-.66-3.36-.17-.9-.31-1.8-.48-2.7-.12-.63-.25-1.26-.39-1.88-.24-1.03-.43-2.05-.17-3.12.12-.47.01-1-.02-1.5-.03-.64-.14-1.28-.12-1.91.05-1.42.13-2.84.26-4.25.12-1.35.58-2.58 1.47-3.64.91-1.08 2.46-1.24 3.55-.33.56.47 1.09.98 1.58 1.52 1.72 1.88 2.58 4.09 2.35 6.66-.18 1.96-.38 3.92-.57 5.88-.07.73-.17 1.46-.19 2.19-.09 3.16-.09 6.32.2 9.47.16 1.69.25 3.38.35 5.07.04.52.01 1.02.01 1.73z" class="st10"/><path d="M387.73 384.39c-.63.5-.64 1.19-.55 1.9-.16-.05-.42-.06-.46-.16-.2-.45-.58-.7-.93-.98-3.48-2.73-6.97-5.46-10.46-8.19-.79-.62-1.55-1.27-2.34-1.89-.43-.33-.89-.61-1.32-.95-.12-.1-.15-.31-.23-.47.25-.47.5-.95.75-1.42.44-.46.66.31 1.14.17.59-.78 1.24-1.61 1.86-2.46.99-1.36 2.32-2.22 3.96-2.5 1.56-.27 3.1-.1 4.61.37 3.09.95 5.14 3.22 4.67 7.08-.25 2.05-.46 4.1-.68 6.14-.06.55-.01 1.13-.18 1.63-.21.63.25 1.14.16 1.73z" class="st5"/><path d="M480.71 388.47c.39.39.69.65.95.96 3.83 4.49 7.44 9.17 10.94 13.92 2.36 3.2 4.76 6.38 7.14 9.57.05.07.12.14.17.21.78 1.03.77 1.25.12 2.32-.52.86-1.02 1.73-1.48 2.63-.23.44-.55.74-1 .87-1.06.31-2.15.48-3.25.23-.71-.16-1.45-.3-2.11-.58-1.82-.77-3.72-.88-5.65-.91-2.38-.04-4.77.03-7.14-.13-2.51-.17-5.03-.04-7.53-.4-.95-.14-1.92-.03-2.85-.34-.17-.06-.35-.12-.48-.24-.05-.05-.03-.29.03-.34.14-.11.32-.19.49-.21.36-.04.73-.05 1.1-.05 2.38.02 4.77-.08 7.14.09 2.42.18 4.84.07 7.26.39 2.31.31 4.64.44 6.96.68 1.04.11 2.08.3 3.12.43.5.06 1.01.06 1.51.11.8.09 1.32-.31 1.54-1.23.17-.68.09-1.36-.15-2.02-.44-1.22-1.1-2.32-1.87-3.34-.74-.99-1.54-1.94-2.35-2.87-2.79-3.21-5.61-6.4-8.4-9.62-.78-.9-1.48-1.87-2.22-2.8-.57-.71-1.16-1.41-1.74-2.12-.8-.99-1.07-2.09-.71-3.34.18-.56.29-1.14.46-1.87z" class="st11"/><path d="M338.68 276c-1.14 8.15-2.31 16.18-3.48 24.23-.24-.07-.35-.08-.41-.13-2.62-2.25-4.4-4.98-4.99-8.44-.26-1.52-.22-3.03.16-4.49.98-3.71 2.78-6.95 5.8-9.42.85-.7 1.77-1.28 2.92-1.75zM306.22 155.43c-1.01.13-1.95.27-2.9.38-1.18.13-2.36.28-3.55.34-1.28.07-1.76-.22-2.13-1.46-.75-2.57-2.28-4.55-4.4-6.12-.15-.11-.28-.23-.42-.35-.86-.75-1-1.24-.63-2.29.07-.21.16-.43.27-.63 1.11-2.05 4.04-3.33 6.39-2.61 1.54.47 2.66 1.58 3.49 2.95.28.47.52.97.73 1.47 1.06 2.62 2.1 5.26 3.14 7.89.03.07.01.17.01.43z" class="st10"/><path d="M432.24 108.08c-1.73-.18-3.46-.36-5.18-.55a1225.295 1225.295 0 0 1-11.73-1.36c-1.86-.22-3.73-.43-5.59-.65-2.04-.24-4.09-.49-6.13-.73-1.91-.22-3.82-.43-5.73-.65-2.05-.24-4.09-.49-6.13-.73-1.91-.22-3.82-.43-5.73-.65-2.05-.24-4.09-.49-6.13-.73-1.95-.23-3.91-.43-5.87-.66-2.32-.28-4.63-.57-6.95-.86 0-.18-.02-.37.01-.55.1-.55.28-.76.81-.75 1.18.03 2.36-.12 3.55.17 1.05.25 2.16.25 3.25.36l3.25.36c.5.06.99.13 1.48.18 1.13.12 2.27.17 3.39.37.54.1 1.08.16 1.62.2.45.03.89.16 1.34.21 1.13.12 2.26.21 3.39.33 1.31.14 2.61.3 3.92.47.86.11 1.71.12 2.57.31 1.01.22 2.08.2 3.11.33 1.04.12 2.06.3 3.1.45.18.03.36.07.54.08 1.13.1 2.3.06 3.39.33 1.26.31 2.54.12 3.79.45 1 .26 2.07.21 3.11.34 1.08.13 2.16.31 3.23.47.14.02.27.05.4.07 1.13.1 2.3.06 3.39.33 1.26.31 2.54.12 3.79.43 1.09.27 2.26.23 3.39.36 1.49.17 2.97.38 4.44.57.33.61.94.98.91 1.7z" class="st6"/><path d="M430.69 359.22c-1.47-1.34-2.32-3.05-2.8-4.94-.21-.83-.25-1.72-.35-2.58-.08-.68.13-1.37-.14-2.04-.07-.18.04-.44.09-.66.85-3.84 1.71-7.68 2.57-11.52.06-.27.15-.53.27-.78.22-.44.6-.74 1.1-.69.58.05 1.18.17 1.73.36.5.18.8.62.79 1.18-.01.59-.05 1.19-.14 1.78-.47 2.94-.89 5.88-1.14 8.85-.2 2.32.43 4.34 2.15 5.97.29.27.73.44.76.92-.57.71-1.13 1.43-1.72 2.12-.32.38-.66.78-1.07 1.03-.67.4-1.4.68-2.1 1z" class="st12"/><path fill="#ebe9f4" d="M475.61 405.73c1.19-3.08 2.36-6.1 3.53-9.12.09-.24.21-.47.34-.75.18.11.32.15.4.24 1.57 1.73 12.51 15.29 13.02 16.12-1.08.38-1.4.26-1.78-.63-.07-.17-.12-.34-.19-.52-.19-.51-.57-.82-1.1-.93-.31-.06-.63-.15-.94-.16-3.25-.16-6.3-1.05-9.25-2.38-1.08-.49-2.17-.98-3.25-1.47-.25-.09-.48-.23-.78-.4z"/><path d="m397.59 335.97.03.89c-.07.21-.09.49-.24.6-.13.1-.4.02-.6.02-1.02 1.9-1.85 4.14-2.5 6.68-.45 1.77-.93 3.54-1.39 5.3-.13-.03-.27-.06-.4-.1l-6.4-1.92c.78-1.9 1.54-3.81 2.34-5.7.63-1.47 1.32-2.92 1.99-4.37.28-.6.46-1.19.07-1.89-.2.02-.42.03-.64.05-.5.04-.5.04-.52-.64.51-.02 1.07.07 1.4-.49.18 0 .37-.04.54 0 1.62.42 3.24.85 4.91 1.29.15-.19.28-.35.43-.53.51.04.77.39.98.81z" class="st12"/><path d="M465.51 370.85c-.26.12-.45.27-.65.29-1.56.18-2.75-.53-3.73-1.64-.67-.76-1.26-1.57-1.92-2.33-1.2-1.39-2.38-2.79-3.63-4.12-2.63-2.81-5.18-5.69-7.62-8.66-1.77-2.16-3.58-4.29-5.36-6.44-.27-.33-.57-.57-.98-.72-1.63-.61-3.24-1.25-4.87-1.88-.26-.1-.52-.17-.77-.29-.5-.23-.69-.57-.55-1.1.2-.75.44-1.49.67-2.23.37-1.18.76-2.35 1.15-3.52.05-.16.18-.3.31-.51.67.66 1.06 1.44 1.53 2.16 1.7 2.61 3.37 5.24 5.07 7.84.78 1.19 1.69 2.28 2.66 3.32 2.59 2.78 5.14 5.6 7.71 8.4 1.55 1.69 3.1 3.37 4.66 5.05 1.31 1.41 2.63 2.81 3.97 4.18.61.62 1.29 1.16 1.94 1.74.14.1.24.25.41.46z" class="st11"/><path d="M445.22 358.55c.95-.46 1.78-.36 2.5.23.95.77 1.58 1.79 1.82 2.99.2.98.03 1.92-.5 2.78-.77 1.25-1.51 2.51-2.36 3.71-1.81 2.57-4.35 4.01-7.42 4.51-.86.14-1.73.15-2.59-.11-1.26-.38-2.17-1.18-2.74-2.33-.58-1.17-.46-2.29.53-3.36.19.18.38.3.49.47 1.28 1.85 3.09 2.16 5.12 1.72 1.98-.43 3.65-1.44 4.98-2.98.85-.98 1.48-2.08 2.04-3.25.42-.88.31-1.7-.25-2.46-.35-.48-.77-.9-1.16-1.36-.13-.16-.27-.33-.46-.56z" class="st9"/><path d="M381.92 403.81c.97-2.11 2.07-4.09 3.14-6.11.16.06.31.07.4.15 1.05.88 2.08 1.77 3.13 2.65.66.55.76 1.22.43 1.96-.27.62-.59 1.23-.92 1.83-.29.53-.74.81-1.35.72-1.39-.21-2.79-.43-4.17-.7-.23-.04-.41-.3-.66-.5z" class="st10"/><path d="M441.18 359.38c.99.37 1.83 1.01 2.69 1.59.65.44.78 1.42.3 2.23-1.02 1.74-2.52 2.86-4.49 3.32-.22.05-.45.07-.68.1-.71.09-1.36-.04-1.87-.59-.5-.53-.99-1.07-1.49-1.61 1.44-.46 2.72-1.22 3.86-2.19.87-.75 1.53-1.66 1.68-2.85z" class="st14"/><path d="M434.73 104.12c-.55-.3-.54-.76-.55-1.22-.06-2.73.63-5.25 2.08-7.57 1.28-2.05 2.95-3.73 4.92-5.11 2.37-1.67 4.99-2.88 7.69-3.91.11-.04.26.01.53.03-.28.25-.46.44-.67.58-1.53 1-3.08 1.98-4.61 2.98-.92.6-1.84 1.2-2.72 1.86-.76.58-1.49 1.21-2.18 1.88-1.99 1.95-3.25 4.29-3.62 7.08-.1.77-.19 1.54-.25 2.32-.05.44-.12.83-.62 1.08z" class="st15"/><path d="M430.69 359.22c.7-.32 1.43-.6 2.09-.99.42-.25.75-.65 1.07-1.03.59-.69 1.15-1.41 1.72-2.12.91.45 2.31 1.56 3.06 2.42-.21.34-.39.72-.65 1.02-.32.39-.76.68-1.05 1.08-.9 1.25-2.14 1.93-3.61 2.25l-2.63-2.63z" class="st16"/><path d="M433.32 361.86c1.47-.32 2.71-1 3.61-2.25.29-.4.73-.7 1.05-1.08.26-.31.44-.68.65-1.02 1 .42 1.79 1.12 2.55 1.87-.15 1.2-.81 2.1-1.69 2.85-1.14.98-2.42 1.74-3.86 2.19-.77-.85-1.54-1.71-2.31-2.56z" class="st17"/><path d="M472.19 413.71v-2.36c1.36.08 2.59.56 3.88.72 1.27.15 2.55.26 3.83.38 1.32.13 2.64.24 4 .37.28.24.35.57.18.95-.16.35-.48.42-.8.42-.55.01-1.1-.03-1.65-.05-2.97-.11-5.95-.21-8.92-.33-.14 0-.27-.05-.52-.1zM277.93 414.99c-3.97.79-10.57-.33-13.29-2.15-.04-.43.32-.53.59-.63.76-.29 1.54-.17 2.3.03.93.25 1.84.53 2.76.83 1.4.46 2.82.79 4.3.81 1.13.02 2.1.49 3.34 1.11z" class="st18"/><path d="M440.69 351.92c.22-.02.35-.07.39-.03 1.48 1.55 2.95 3.11 4.45 4.69-.25.4-.56.53-.91.64-.4.12-.72.02-.99-.28-.12-.14-.24-.28-.34-.43-.84-1.36-1.68-2.73-2.51-4.1-.06-.12-.05-.27-.09-.49zM452.47 363.91c1.01.85 3.92 4.11 4.5 5.03-1.55-.16-2.67-.95-3.61-2.05-.83-.96-1.04-1.68-.89-2.98zM435.95 122.75c.4-.57.84-.58 1.28-.37.49.24.73.7.67 1.21-.03.24-.36.45-.58.72-.65-.43-1.02-.96-1.37-1.56zM303.62 275.46c-.69.39-1.12.63-1.57.89-.47-.43-.92-.85-1.43-1.32.29-.13.6-.1.89-.11.37-.02.74-.06 1.09.01.28.06.53.27 1.02.53z" class="st15"/><path d="M433.98 427.04c-.79.65-1.6.76-2.31 1-.58-.33-.53-.74-.3-1.28.84-.16 1.64.07 2.61.28zM335.71 354.4c-.17.08-.33.15-.5.23-.35-.33-.7-.66-1.06-.98-.42-.38-.84-.76-1.26-1.13.11-.11.22-.21.33-.32.83.74 1.66 1.47 2.49 2.2zM440.06 120.48c-.52-.61-.83-1.07-.97-1.66 1.16.05 1.23.16.97 1.66z" class="st1"/><path d="M443.76 428.27c.14-.83.14-.84 1.23-.66-.04.07-.06.16-.12.18-.31.15-.64.28-1.11.48z" class="st15"/><path d="M264.71 495.22c-.48.06-.96.13-1.36-.23.45.07.9.15 1.36.23z" class="st1"/><path d="M300.77 282.36c.01-.2.03-.4.04-.66.27.3.19.49-.06.65l.02.01z" class="st4"/><path d="M332.89 352.52c.42.38.85.75 1.26 1.13.36.32.7.66 1.06.98-.34.22-.75.41-.49 1.01-1.1.51-2.25.9-3.4 1.26-2.14.65-4.02 1.68-5.37 3.43-.34 0-.61-.03-.87.01-.23.04-.41.19-.36.48l-1.92-2.1c.86-1.49 2-2.59 3.33-3.5 1.74-1.19 3.66-2.01 5.6-2.81.45-.2.78-.03 1.16.11z" class="st19"/><path fill="#312826" d="M360.62 255.51c.03-12.61 3.22-23.88 9.98-34.03 8.85-13.27 21.16-21.72 36.58-25.66 3.11-.79 6.28-1.25 9.48-1.52 2.79-.23 5.59-.29 8.38-.12 5.93.36 11.7 1.51 17.28 3.57 8.82 3.25 16.53 8.23 23.08 14.99 6.93 7.14 11.81 15.48 14.68 24.99 1.17 3.87 1.9 7.82 2.27 11.85.27 2.93.33 5.86.17 8.79a60.378 60.378 0 0 1-3.45 17.17c-2.31 6.44-5.59 12.33-9.88 17.67-5.66 7.03-12.52 12.57-20.6 16.61a59.57 59.57 0 0 1-16.78 5.46c-1.98.34-4 .48-6 .68-2.05.21-4.11.24-6.18.15-9.62-.4-18.73-2.75-27.2-7.36-12.25-6.67-21.24-16.4-26.86-29.18-2.17-4.93-3.6-10.08-4.33-15.42-.18-1.32-.37-2.63-.46-3.95-.09-1.72-.11-3.42-.16-4.69zm115.23-.49c.02-3.14-.16-6.06-.62-8.96-1.11-7.01-3.5-13.54-7.19-19.59-8.65-14.18-23.6-24.2-41.66-25.72-4.2-.35-8.42-.22-12.61.41-5.2.78-10.18 2.22-14.94 4.45-11.41 5.34-19.94 13.66-25.59 24.91-3.1 6.17-4.83 12.72-5.41 19.6-.5 5.9-.09 11.73 1.29 17.46 2.61 10.86 8.04 20.09 16.36 27.57 8.68 7.81 18.89 12.25 30.47 13.57 3.46.39 6.94.43 10.43.12 3.57-.31 7.07-.92 10.52-1.9 8.35-2.37 15.67-6.55 21.99-12.49 6.22-5.84 10.8-12.78 13.74-20.78 2.21-6.09 3.31-12.37 3.22-18.65zm-94.7-42.1c.54 1.31 1.18 1.22 1.92.55.24-.21.51-.39.76-.58 1.6-1.23 3.19-2.46 4.79-3.68 1.06-.8 2.14-1.58 3.19-2.39.38-.3.88-.52.98-1.08-.29-.64-.3-.64-.86-1.07-3.87 2.34-7.57 4.93-10.78 8.25zm-16.93 42.48c-.4.03-.66.25-.66.72-.01 1.51-.07 3.02.04 4.52.17 2.37.58 4.71 1.19 7.01.09.35.16.71.28 1.06.06.16.18.35.32.42.35.17.72.11 1.04-.1.3-.2.36-.5.28-.85-.14-.58-.33-1.15-.41-1.73-.32-2.44-.61-4.89-.91-7.34-.12-1-.21-2-.35-2.99-.06-.53-.35-.75-.82-.72zm53.29-58.56c-1.54.09-3.32.1-5.09.32-1.44.18-2.85.59-4.27.91-.13.03-.26.09-.38.15-.37.19-.54.53-.44.9.13.5.41.78.83.75.27-.01.54-.08.81-.14.67-.13 1.34-.3 2.01-.38 2.81-.32 5.62-.6 8.43-.93.53-.06 1.05-.26 1.56-.45.13-.05.26-.27.26-.42 0-.15-.13-.38-.25-.42-.38-.13-.78-.25-1.18-.27-.68-.05-1.37-.02-2.29-.02zm-36.28 97.74c-.25-.35-.5-.73-.78-1.09-2.17-2.82-4.34-5.64-6.52-8.46-.22-.29-.44-.58-.69-.85-.34-.37-.69-.39-1.09-.1-.39.28-.53.67-.33 1.07.19.36.4.72.65 1.04 2.21 2.85 4.43 5.69 6.64 8.54.26.34.55.61 1.01.6.52-.02.89-.22 1.11-.75zm68.87-90.23c-.05-.08-.09-.29-.22-.38-.41-.29-.82-.6-1.27-.79-3.34-1.39-6.68-2.75-10.03-4.12a3.08 3.08 0 0 0-.65-.21.62.62 0 0 0-.39.1c-.59.37-.61 1.25-.04 1.6.27.16.57.28.87.41 3.25 1.36 6.5 2.71 9.75 4.06.29.12.6.24.91.3.48.07.99-.37 1.07-.97zm-55.94 99.96c-1.3 1.04-.85 1.68.14 2.08.13.05.25.12.37.17 3.51 1.67 7.15 3.01 10.8 4.31.2.07.43.06.62.08.37-.75.36-.75.28-1.53-.25-.12-.52-.29-.81-.4-3.82-1.5-7.71-2.82-11.4-4.71zm42.01 6.96c0-.36.02-.55 0-.72-.11-.77-.31-.92-1.09-.82-1.22.16-2.44.33-3.66.5-2.44.33-4.88.66-7.32 1-.32.04-.64.08-.94.16-.41.11-.59.42-.53.83.05.35.27.58.64.6.36.02.73.01 1.09 0 1.09-.05 2.19-.15 3.28-.17 1.83-.03 3.64-.27 5.43-.64 1.01-.22 2.02-.48 3.1-.74zm40.42-70.63c0 .55-.04.92.01 1.28.36 2.76.74 5.51 1.12 8.27.14.99.3 1.98.41 2.98.07.66.53.87.89.8.39-.07.57-.32.57-.94.01-4.03-.3-8.02-1.28-11.94-.06-.25-.18-.49-.3-.81-.51.12-.93.23-1.42.36zm-25.73 62.82c.22.58.34 1.02.9 1.23 3.85-2.51 7.64-5.09 10.76-8.5-.37-.69-.37-.68-.94-1.07-3.54 2.75-7.1 5.52-10.72 8.34zm-79.75-77.22c-.7.26-.8.74-.97 1.15-1.38 3.38-2.75 6.77-4.12 10.16-.12.3-.24.6-.31.9a.81.81 0 0 0 .06.53c.24.45 1.14.55 1.42.14.23-.33.39-.72.54-1.1 1.1-2.66 2.19-5.32 3.28-7.98.41-1.01.83-2.01 1.26-3.08-.43-.27-.81-.5-1.16-.72zm106.76 44.25c-.28-.32-.67-.43-1.08-.5-.35-.06-.64.08-.8.4-.14.28-.25.59-.35.89-.3.86-.58 1.73-.88 2.59-.91 2.64-2.17 5.13-3.31 7.67-.12.28-.21.57-.33.89.51.32.93.65 1.46.74.68-1.11 5.01-11.54 5.29-12.68zm-6.2-45.5c-.38-.6-.67-1.12-1.02-1.58-2.12-2.75-4.25-5.48-6.39-8.21-.22-.29-.46-.58-.74-.79-.14-.11-.45-.12-.63-.04-.67.31-.82.88-.41 1.44.19.26.42.48.62.73.86 1 1.78 1.97 2.58 3.02 1.21 1.6 2.35 3.26 3.52 4.89.24.33.47.68.74.98.31.34.69.38 1.11.12.18-.11.33-.29.62-.56z"/><path d="M429.12 183.68c-.46.43-1 .45-1.56.45-1.51 0-3.02.01-4.54.01-3.48.01-6.96-.02-10.45.05-1.87.03-3.75.22-5.62.35-1.05.07-2.1.19-3.15.28-.87.07-1.5-.27-1.9-1.09.25-.73.67-1.28 1.46-1.48.09-.02.18-.04.26-.07 1.06-.39 1.17-.56 1.17-1.71 0-2.52-.08-5.04.01-7.55.16-4.12.5-8.22 1.29-12.28.56-2.89 1.42-5.68 3-8.2.46-.73.97-1.45 1.53-2.11 1.34-1.58 3.03-2.62 5.09-3.04 1.35-.27 2.7-.54 4.08-.48 3.78.16 6.75 1.85 8.97 4.86 1.08 1.47 1.52 3.17 1.55 5.03.04 2.49-.45 4.91-.66 7.37-.15 1.69-.36 3.37-.45 5.06-.16 2.79-.26 5.58-.38 8.37-.03.64-.08 1.28-.11 1.92-.05.96-.07 1.91.32 2.83.21.44.29.95.09 1.43zm-3.99-31.4c-.11-.27-.12-.4-.18-.43-1.07-.52-2.11-1.1-3.22-1.53-3.52-1.34-6.43-.44-8.69 2.14-.18.21-.35.42-.52.64-1.12 1.47-1.96 3.09-2.58 4.82-1.52 4.22-2.22 8.6-2.41 13.05-.13 3.06-.05 6.14-.06 9.21 0 .27 0 .56.09.81.07.18.3.44.46.43 1.55-.01 3.11-.06 4.66-.11.04 0 .08-.04.13-.05.28-.11.45-.31.47-.61.01-.18.02-.37.02-.55l-.21-5.63c-.01-.27-.02-.55-.02-.82-.01-.97.41-1.67 1.3-2.08.5-.23 1.01-.42 1.51-.64.87-.39 1.75-.79 2.61-1.21.18-.09.44-.19.29-.57-1.44-.46-2.92-.92-4.39-1.4-1.06-.35-1.27-.63-1.19-1.68.09-1.23.21-2.46.35-3.69.19-1.67.74-3.2 1.72-4.58.53-.75 1.03-1.52 1.58-2.25.41-.55.86-1.07 1.34-1.56 1.68-1.68 3.71-2.26 6.04-1.85.25.05.52.08.9.14zM458.29 151.16c1.55-.01 3.01.36 4.33 1.16 3 1.82 4.92 4.47 5.84 7.84.52 1.9.27 3.8.01 5.72-.56 4.06-1.85 7.93-3.06 11.82-.88 2.84-1.83 5.66-2.75 8.49-.08.26-.15.53-.24.79-.26.76-.13 1.44.42 2.04.59.65.82 1.42.76 2.28-.01.18-.04.37-.1.54-.15.41-.54.67-.97.58-.4-.09-.79-.24-1.16-.39-1.78-.73-3.54-1.49-5.33-2.2-3.07-1.22-6.23-2.17-9.47-2.77-1.44-.27-2.9-.45-4.35-.62-1.36-.15-2.74-.21-4.11-.36-.59-.06-1.18-.17-1.74-.36-.5-.17-.84-.57-.83-1.15.01-.51.32-.88.76-1.06.46-.18.96-.27 1.45-.34.5-.07 1.01-.03 1.51-.09.66-.08 1.1-.45 1.25-1.1.12-.49.21-.99.25-1.49a57.09 57.09 0 0 1 2.24-11.72c1.23-4.05 2.94-7.89 5.21-11.47.71-1.13 1.52-2.18 2.49-3.1 2.13-2 4.67-2.98 7.59-3.04zm5.49 6.67c.09-.12.14-.16.13-.18-.95-1.94-2.48-3.16-4.62-3.46-2.56-.35-4.79.45-6.65 2.23-.77.73-1.42 1.56-1.93 2.49-1.08 1.96-2.18 3.92-3.19 5.92-1.21 2.42-2.08 4.98-2.53 7.66-.45 2.66-.8 5.34-1.19 8.01-.12.81-.25 1.63-.33 2.45-.06.68.12.93.8 1.05 1.08.2 2.17.35 3.25.49.16.02.34-.08.59-.14.12-.58.25-1.16.36-1.73.32-1.66.62-3.33.96-4.98.37-1.77.62-1.95 2.37-1.95h2.75c.21 0 .42-.03.86-.06-.31-.29-.46-.44-.62-.57-.78-.64-1.57-1.27-2.35-1.9-.8-.64-1.1-1.42-.73-2.43.24-.64.42-1.31.65-1.95 1.11-3.15 2.36-6.25 4.21-9.06.38-.57.78-1.14 1.25-1.63 1.2-1.24 2.64-1.57 4.27-.96.43.16.83.38 1.25.56.15.05.32.1.44.14z" class="st21"/><path d="M511.2 476.33c-.11.18-.15.35-.24.38-2.54.75-5.04 1.67-7.72 1.77-1.6.06-3.2.18-4.8.22-2.52.06-5.02-.32-7.51-.65-.82-.11-1.62-.31-2.43-.4-1.11-.12-1.99-.64-2.74-1.42-.38-.4-.74-.81-1.06-1.26-.3-.41-.19-.92.26-1.18.26-.16.59-.24.89-.28.7-.09 1.35.14 2.01.35 1.79.56 3.56 1.15 5.36 1.66 4.04 1.15 8.17 1.54 12.36 1.24 1.32-.1 2.64-.26 3.96-.4.52-.06 1.05-.17 1.66-.03zM479.51 373.08c-.69.68-.69.68-1.49.08.51-.24.96-.17 1.49-.08z" class="st22"/><path d="M392.89 349.47c.47-1.77.94-3.53 1.39-5.3.65-2.54 1.48-4.78 2.5-6.68.19 0 .47.08.6-.02.15-.11.16-.39.24-.6.23.02.47-.02.67.06.87.32 1.13.78.97 1.7-.04.22-.11.44-.2.65-1.06 2.54-1.64 5.23-2.28 7.89-1 4.13-1.94 8.28-2.92 12.41-.36 1.51-.2 2.91.67 4.2.61.91 1.31 1.76 1.93 2.66 1.54 2.2 1.77 4.57.76 7.04-.54 1.32-1.42 2.35-2.86 2.75-.82.22-1.13.74-1.24 1.58-.32 2.41-.89 4.76-1.85 7.01-.23.54-.39 1.12-.88 1.63-1.01-.54-1.79-1.37-2.67-2.05.1-.58-.37-1.1-.16-1.73.17-.51.12-1.09.18-1.63.22-2.05.44-4.1.68-6.14.47-3.86-1.58-6.13-4.67-7.08-1.51-.47-3.06-.64-4.61-.37-1.65.29-2.97 1.14-3.96 2.5-.62.85-1.27 1.68-1.86 2.46-.47.14-.7-.63-1.14-.17-.33-.31-.66-.63-1-.93-.4-.36-.46-.79-.24-1.24.2-.41.42-.82.69-1.18.5-.68.49-1.34.07-2.04-.14-.23-.26-.48-.36-.74-.34-.9-.34-1.79.19-2.63.9-1.43 1.8-2.86 2.72-4.28.58-.89 1.39-1.43 2.47-1.53.5-.04 1-.13 1.5-.12.81.01 1.26-.37 1.52-1.11.31-.91.66-1.8.99-2.7 1.61-4.37 3.21-8.74 4.82-13.11.62-1.68 1.51-3.23 2.39-4.77.3-.53.68-.98 1.38-.97.02.68.02.68.52.64.22-.02.43-.03.64-.05.4.7.21 1.3-.07 1.89-.67 1.45-1.36 2.9-1.99 4.37-.81 1.89-1.56 3.8-2.34 5.7-.41 1.04-.82 2.09-1.24 3.13-.41.92-.83 1.84-1.23 2.76-.05.11 0 .26.01.39-.69 1.08-.98 2.32-1.42 3.38.22.59.66.67 1.04.78 2.08.65 4.17 1.28 6.26 1.9.23.07.51.01.84.01.31-1.32.6-2.6.9-3.87.27-1.05.55-2.1.82-3.14.3-1.1.56-2.21.83-3.31zm-16.97 14.57c.61.07 1.19.19 1.78.2 1.75.03 3.46.34 5.16.65 2.58.47 4.88 1.53 6.78 3.35.79.76 1.54 1.56 2.29 2.37.41.44.81.87 1.49 1.01.9-1.13.91-2.37.19-3.55-1.02-1.68-2.2-3.26-3.72-4.54a12.461 12.461 0 0 0-4.56-2.45c-1.86-.55-3.77-.71-5.7-.6-1.78.1-3.34 1.47-3.79 3.25 0 .03.02.08.08.31z" class="st19"/><path d="m392.89 349.47-.81 3.31c-1.47-.43-2.94-.85-4.41-1.29-.94-.29-1.88-.61-2.82-.92.41-1.04.82-2.09 1.24-3.13l6.4 1.92c.14.04.27.07.4.11z" class="st16"/><path fill="#fee8d1" d="M475.85 255.02c.1 6.28-1 12.56-3.24 18.64-2.95 8-7.52 14.94-13.74 20.78-6.32 5.94-13.65 10.11-21.99 12.49-3.44.98-6.94 1.59-10.52 1.9-3.49.3-6.97.27-10.43-.12-11.58-1.31-21.79-5.76-30.47-13.57-8.31-7.48-13.75-16.71-16.36-27.57-1.38-5.74-1.79-11.57-1.29-17.46.58-6.88 2.32-13.43 5.41-19.6 5.65-11.25 14.18-19.56 25.59-24.91 4.76-2.23 9.74-3.67 14.94-4.45 4.2-.63 8.41-.77 12.61-.41 18.06 1.52 33.01 11.55 41.66 25.72a53.069 53.069 0 0 1 7.19 19.59c.47 2.91.66 5.83.64 8.97zm-7.09-21.15c-.35.08-.7.16-1.05.26-7.52 1.96-15.04 3.94-22.56 5.9-8.18 2.13-16.37 4.26-24.56 6.38-1.56.4-3.03 1-4.43 1.79-12.42 7.04-24.86 14.05-37.29 21.08-1.79 1.01-3.58 2.03-5.38 3.04-.4.23-.82.42-.97.91-.13.44-.35.89-.03 1.31.37.48.85.37 1.37.25 5.39-1.27 10.78-2.52 16.17-3.79 10.06-2.37 20.12-4.75 30.18-7.12 2.2-.52 4.3-1.25 6.22-2.46 1.28-.8 2.61-1.52 3.91-2.29 11.22-6.67 22.43-13.34 33.65-20 1.81-1.08 3.6-2.18 5.44-3.22 1-.57.69-1.29-.01-1.81-.17-.13-.42-.15-.66-.23z"/><path d="M381.15 212.92c3.21-3.32 6.92-5.91 10.79-8.25.56.43.56.43.86 1.07-.1.56-.59.78-.98 1.08-1.05.81-2.13 1.59-3.19 2.39-1.6 1.22-3.2 2.46-4.79 3.68-.25.2-.53.37-.76.58-.75.67-1.4.76-1.93-.55zM364.22 255.4c.47-.03.76.19.83.71.13 1 .23 2 .35 2.99.3 2.45.59 4.89.91 7.34.08.58.27 1.16.41 1.73.08.34.02.65-.28.85-.32.21-.69.28-1.04.1-.14-.07-.26-.26-.32-.42-.12-.34-.19-.7-.28-1.06-.61-2.3-1.03-4.64-1.19-7.01-.1-1.5-.05-3.01-.04-4.52-.01-.46.25-.68.65-.71zM417.51 196.84c.93 0 1.61-.03 2.29.01.4.02.8.14 1.18.27.12.04.25.28.25.42 0 .15-.14.37-.26.42-.51.18-1.03.38-1.56.45-2.81.33-5.62.61-8.43.93-.68.08-1.34.25-2.01.38-.27.05-.54.12-.81.14-.42.02-.7-.25-.83-.75-.09-.37.07-.71.44-.9.12-.06.25-.12.38-.15 1.42-.32 2.83-.73 4.27-.91 1.76-.21 3.55-.22 5.09-.31zM381.23 294.58c-.22.54-.59.74-1.09.75-.46.01-.75-.26-1.01-.6-2.21-2.85-4.44-5.69-6.64-8.54a6.97 6.97 0 0 1-.65-1.04c-.21-.4-.07-.79.33-1.07.41-.29.76-.27 1.09.1.25.27.46.56.69.85 2.17 2.82 4.35 5.64 6.52 8.46.26.35.51.73.76 1.09zM450.1 204.35c-.08.6-.59 1.05-1.07.96-.31-.05-.61-.18-.91-.3-3.25-1.35-6.5-2.71-9.75-4.06-.29-.12-.6-.24-.87-.41-.58-.35-.55-1.23.04-1.6a.62.62 0 0 1 .39-.1c.22.04.44.13.65.21 3.34 1.37 6.69 2.73 10.03 4.12.46.19.87.5 1.27.79.12.1.17.3.22.39zM394.16 304.31c3.69 1.9 7.59 3.22 11.41 4.7.29.11.56.28.81.4.08.78.08.78-.28 1.53-.19-.02-.42-.01-.62-.08-3.66-1.3-7.29-2.64-10.8-4.31-.12-.06-.24-.12-.37-.17-1-.4-1.45-1.03-.15-2.07zM436.17 311.27c-1.07.26-2.08.52-3.11.73-1.79.37-3.6.61-5.43.64-1.09.02-2.19.12-3.28.17-.36.02-.73.03-1.09 0-.37-.02-.58-.25-.64-.6-.06-.41.11-.72.53-.83.31-.08.63-.12.94-.16 2.44-.33 4.88-.66 7.32-1 1.22-.17 2.44-.34 3.66-.5.78-.1.98.05 1.09.82.03.19.01.37.01.73zM476.59 240.64c.49-.13.92-.24 1.41-.37.12.32.24.56.3.81.98 3.92 1.3 7.92 1.28 11.94 0 .62-.18.87-.57.94-.36.07-.82-.14-.89-.8-.11-1-.27-1.99-.41-2.98-.38-2.76-.76-5.51-1.12-8.27-.04-.35 0-.72 0-1.27zM450.86 303.46c3.62-2.82 7.17-5.59 10.72-8.35.57.39.57.38.94 1.07-3.12 3.41-6.91 5.99-10.76 8.5-.56-.2-.67-.64-.9-1.22zM371.11 226.24c.35.22.73.45 1.17.72-.44 1.07-.85 2.07-1.26 3.08-1.09 2.66-2.18 5.32-3.28 7.98-.16.38-.31.77-.54 1.1-.28.41-1.19.31-1.42-.14a.803.803 0 0 1-.06-.53c.07-.31.19-.61.31-.9 1.37-3.39 2.74-6.77 4.12-10.16.16-.41.26-.89.96-1.15zM477.87 270.49c-.28 1.14-4.62 11.57-5.28 12.68-.53-.09-.95-.42-1.46-.74.12-.32.2-.61.33-.89 1.14-2.54 2.39-5.03 3.31-7.67.3-.86.58-1.73.88-2.59.1-.3.21-.6.35-.89.16-.32.44-.46.8-.4.4.07.79.18 1.07.5zM471.67 224.99c-.29.26-.43.45-.62.56-.43.25-.8.22-1.11-.12-.27-.3-.5-.65-.74-.98-1.17-1.63-2.31-3.29-3.52-4.89-.8-1.05-1.71-2.02-2.58-3.02-.21-.24-.44-.47-.62-.73-.41-.57-.26-1.14.41-1.44.17-.08.48-.07.63.04.29.21.52.51.74.79 2.14 2.73 4.27 5.47 6.39 8.21.35.46.63.98 1.02 1.58z" class="st24"/><path d="M425.13 152.28c-.38-.06-.65-.09-.91-.13-2.33-.41-4.36.17-6.04 1.85a14.3 14.3 0 0 0-1.34 1.56c-.55.73-1.05 1.5-1.58 2.25-.98 1.38-1.53 2.91-1.72 4.58-.14 1.23-.26 2.46-.35 3.69-.08 1.06.13 1.34 1.19 1.68 1.47.48 2.96.94 4.39 1.4.15.37-.11.48-.29.57-.86.42-1.74.82-2.61 1.21-.5.23-1.01.42-1.51.64-.89.4-1.31 1.11-1.3 2.08 0 .27.01.55.02.82l.21 5.63c.01.18 0 .37-.02.55-.02.3-.2.5-.47.61-.04.02-.08.05-.13.05-1.55.04-3.11.1-4.66.11-.16 0-.39-.25-.46-.43-.1-.25-.09-.54-.09-.81.01-3.07-.07-6.14.06-9.21.19-4.45.9-8.83 2.41-13.05.62-1.74 1.47-3.35 2.58-4.82.17-.22.34-.43.52-.64 2.26-2.58 5.17-3.48 8.69-2.14 1.11.42 2.15 1.01 3.22 1.53.07.02.08.14.19.42zM463.78 157.83c-.13-.04-.29-.09-.44-.15-.42-.18-.82-.4-1.25-.56-1.63-.61-3.07-.28-4.27.96-.47.49-.88 1.06-1.25 1.63-1.85 2.81-3.09 5.91-4.21 9.06-.23.65-.4 1.31-.65 1.95-.38 1-.08 1.78.73 2.43.79.63 1.57 1.26 2.35 1.9.16.13.31.28.62.57-.44.03-.65.06-.86.06h-2.75c-1.75 0-2 .19-2.37 1.95-.34 1.66-.64 3.32-.96 4.98-.11.58-.24 1.15-.36 1.73-.25.06-.43.16-.59.14-1.09-.15-2.17-.3-3.25-.49-.68-.12-.86-.36-.8-1.05.07-.82.21-1.63.33-2.45.39-2.67.75-5.35 1.19-8.01.45-2.68 1.32-5.24 2.53-7.66 1-2 2.1-3.96 3.19-5.92.51-.93 1.16-1.76 1.93-2.49 1.87-1.79 4.1-2.58 6.65-2.23 2.14.29 3.67 1.52 4.62 3.46.01.03-.04.07-.13.19z" class="st12"/><path d="M375.92 364.04c-.06-.23-.09-.28-.08-.32.45-1.78 2-3.15 3.79-3.25 1.93-.11 3.84.06 5.7.6 1.69.5 3.21 1.31 4.56 2.45 1.52 1.28 2.7 2.86 3.72 4.54.72 1.18.71 2.42-.19 3.55-.68-.13-1.08-.57-1.49-1.01-.75-.8-1.49-1.61-2.29-2.37-1.91-1.83-4.21-2.88-6.78-3.35-1.71-.31-3.42-.61-5.16-.65-.59 0-1.17-.12-1.78-.19z" class="st9"/><path d="M391.26 355.92c-.3 1.27-.59 2.55-.9 3.87-.34 0-.61.06-.84-.01-2.09-.62-4.18-1.25-6.26-1.9-.38-.12-.82-.19-1.04-.78.44-1.06.73-2.3 1.42-3.38.44.11.89.21 1.32.34l6.3 1.86z" class="st14"/><path d="M391.26 355.92c-2.1-.62-4.2-1.24-6.3-1.85-.44-.13-.88-.23-1.32-.34 0-.13-.05-.29-.01-.4.4-.93.82-1.84 1.23-2.76.94.31 1.87.63 2.82.92 1.46.44 2.94.86 4.41 1.29-.28 1.05-.55 2.1-.83 3.14z" class="st17"/><path d="M468.76 233.87c.24.08.49.1.66.23.7.52 1.01 1.25.01 1.81-1.83 1.04-3.63 2.14-5.44 3.22-11.22 6.67-22.43 13.34-33.65 20-1.3.77-2.63 1.48-3.91 2.29-1.93 1.21-4.03 1.94-6.22 2.46-10.06 2.37-20.12 4.75-30.18 7.12-5.39 1.27-10.78 2.51-16.17 3.79-.52.12-1.01.24-1.37-.25-.32-.42-.1-.87.03-1.31.15-.49.56-.69.97-.91 1.8-1.01 3.59-2.02 5.38-3.04 12.43-7.02 24.87-14.04 37.29-21.08 1.41-.8 2.88-1.39 4.43-1.79 8.19-2.13 16.37-4.25 24.56-6.38 7.52-1.96 15.04-3.93 22.56-5.9.35-.09.7-.17 1.05-.26zm-50.17 15.24c-.26.11-.47.18-.66.28-13.57 7.5-27.15 14.99-40.72 22.5-.02.01-.01.09-.01.19.38.18.76.07 1.15-.02 2.66-.66 5.33-1.3 7.99-1.96 11.45-2.8 22.91-5.61 34.36-8.41.58-.14 1.15-.29 1.72-.47.47-.16.65-.48.56-.95-.05-.27-.15-.53-.25-.78-1.19-3.02-2.37-6.04-3.57-9.06-.17-.44-.36-.84-.57-1.32zm1-.08c1.47 3.7 2.92 7.34 4.37 10.98.05.12.13.23.17.31 1.01-.49 1.07-.59.82-1.35-.1-.3-.23-.6-.35-.89-.82-2.08-1.65-4.15-2.47-6.23-.35-.89-.65-1.8-1.04-2.68-.3-.7-.62-.73-1.5-.14zm2.27-.59c.01.09-.01.19.02.27 1.31 3.36 2.63 6.71 3.96 10.06.06.15.2.27.29.39.97-.42 1.02-.51.77-1.3-.07-.22-.15-.43-.24-.64-1.02-2.59-2.03-5.18-3.05-7.77-.12-.3-.23-.6-.38-.88-.36-.68-.63-.7-1.37-.13zm2.11-.53c1.35 3.42 2.67 6.77 3.99 10.11 1.02-.34 1.16-.57.9-1.35-.06-.17-.13-.34-.2-.51-.97-2.47-1.93-4.93-2.9-7.4-.1-.25-.19-.52-.31-.76-.35-.66-.64-.69-1.48-.09zm6.41 8.76c.5-.33.55-.75.33-1.29-1.01-2.55-2-5.12-3-7.68a1.15 1.15 0 0 0-.12-.25c-.36-.68-.66-.7-1.4-.09.11.32.21.67.34 1.01.59 1.49 1.18 2.98 1.78 4.47.41 1.02.81 2.04 1.21 3.06.16.39.36.74.86.77zm2.06-1.18c.48-.43.4-.85.22-1.3-.58-1.48-1.15-2.97-1.73-4.46-.35-.89-.71-1.78-1.06-2.66-.17-.43-.4-.8-.87-.94-.52.82-.55.83-.29 1.51.59 1.58 1.21 3.14 1.82 4.71.32.81.64 1.61.97 2.41.15.4.41.71.94.73zm1.41-.97c.81-.21 1.01-.4.93-.93-.04-.27-.14-.53-.24-.78-.79-2.05-1.59-4.09-2.4-6.13-.1-.25-.24-.49-.4-.71-.18-.24-.57-.29-.88-.13-.3.16-.31.42-.22.71.06.17.13.34.2.51.89 2.25 1.78 4.51 2.67 6.76.1.24.23.47.34.7zm1.96-1.07c1.1-.43 1.18-.56.85-1.39-.72-1.83-1.44-3.66-2.17-5.49-.12-.3-.23-.6-.39-.88-.2-.36-.63-.53-.92-.42-.3.12-.4.48-.24.94.06.17.13.34.2.51.74 1.92 1.48 3.84 2.23 5.75.12.32.26.6.44.98zm2.05-1.13c.95-.46 1-.55.75-1.34-.07-.22-.16-.43-.24-.64-.6-1.53-1.2-3.07-1.8-4.6-.08-.21-.14-.45-.27-.63-.15-.21-.34-.45-.57-.55-.32-.14-.61.04-.82.32.31 1.29 2.35 6.46 2.95 7.44zm1.82-1.14c1.16-.48 1.18-.52.85-1.42-.11-.3-.22-.6-.34-.9-.54-1.41-1.07-2.82-1.65-4.22-.11-.27-.39-.56-.65-.63-.24-.07-.57.13-.95.24.93 2.34 1.81 4.58 2.74 6.93zm-.52-7.41c.74 1.89 1.46 3.72 2.18 5.55.05.13.11.25.18.37.15.24.44.31.72.16.41-.22.54-.53.34-1.04-.6-1.58-1.23-3.15-1.85-4.72-.03-.08-.08-.16-.13-.24-.33-.58-.59-.61-1.44-.08zm2.19-.56c.26.69.53 1.41.81 2.13.32.81.63 1.62.99 2.41.15.32.4.6.66.84.09.09.36.1.49.03.14-.07.23-.26.29-.42.04-.12.02-.28-.03-.4-.58-1.49-1.14-2.99-1.76-4.47-.28-.67-.65-.69-1.45-.12zm4.22 4.45c.93-.18 1.16-.46.91-1.15a88.26 88.26 0 0 0-1.44-3.7c-.32-.77-.69-.81-1.5-.16.67 1.67 1.23 3.39 2.03 5.01zm2.04-1.11c.86-.25 1.07-.53.83-1.19-.38-1.03-.8-2.04-1.21-3.06-.03-.08-.08-.17-.13-.24-.32-.5-.73-.51-1.33-.03.41 1.42 1.31 3.65 1.84 4.52zm2.38-1.37c.34-.3.49-.67.33-1.1-.32-.85-.65-1.71-1.02-2.54-.27-.59-.58-.61-1.34-.1.28 1.08.73 2.12 1.18 3.16.14.34.42.59.85.58zm.09-4.44c.26 1.11.72 2.05 1.12 3.02.03.08.1.15.16.22.17.2.55.19.73-.01.28-.31.32-.66.18-1.02-.24-.64-.48-1.29-.77-1.91-.28-.64-.48-.68-1.42-.3zm3.48 2.58c.71-.67.76-.7.75-.95-.03-.85-.39-1.58-.88-2.24a.513.513 0 0 0-.74-.07c-.15.13-.32.41-.27.57.24.91.54 1.8 1.14 2.69zm.8-3.71c.29.74.54 1.41.82 2.07.13.3.57.37.79.11.16-.19.33-.49.29-.69-.1-.48-.28-.95-.51-1.38-.25-.49-.52-.5-1.39-.11zm3.07 1.31c.31-.27.61-.43.74-.67.22-.4-.02-.79-.21-1.15a.888.888 0 0 0-.5-.41c-.32-.1-.61.04-.87.39.17.54.33 1.14.84 1.84zm3.04-1.94c-.17-.2-.3-.38-.45-.53-.09-.09-.21-.17-.33-.23-.3-.16-.77.15-.77.51.01.62.59.95 1.11.63.14-.1.26-.23.44-.38zm1.96-1.01c-.21-.18-.32-.31-.47-.38-.11-.05-.27-.04-.39-.01-.12.04-.25.13-.32.23-.06.1-.11.27-.06.36.04.1.23.22.31.19.29-.08.56-.22.93-.39z" class="st22"/><path d="M418.59 249.11c.21.48.4.88.57 1.3l3.57 9.06c.1.25.2.52.25.78.09.48-.08.8-.56.95-.56.19-1.14.33-1.72.47-11.45 2.81-22.91 5.61-34.36 8.41-2.66.65-5.33 1.3-7.99 1.96-.39.1-.77.2-1.15.02.01-.1-.01-.17.01-.19 13.57-7.5 27.14-15 40.72-22.5.19-.09.4-.15.66-.26z" class="st16"/><path d="M419.59 249.03c.89-.59 1.21-.56 1.51.13.38.88.69 1.79 1.04 2.68.82 2.08 1.64 4.15 2.47 6.23.12.3.24.59.35.89.25.76.2.86-.82 1.35-.04-.07-.12-.19-.17-.31-1.46-3.63-2.91-7.27-4.38-10.97zM421.86 248.44c.74-.57 1-.55 1.37.13.15.28.26.58.38.88 1.02 2.59 2.04 5.18 3.05 7.77.08.21.17.43.24.64.26.78.2.88-.77 1.3-.09-.12-.23-.24-.29-.39-1.33-3.35-2.64-6.71-3.96-10.06-.02-.08-.01-.18-.02-.27zM423.97 247.91c.84-.6 1.13-.57 1.48.1.13.24.21.5.31.76.97 2.47 1.93 4.93 2.9 7.4.07.17.14.34.2.51.26.79.11 1.01-.9 1.35-1.32-3.35-2.64-6.7-3.99-10.12zM430.38 256.67c-.5-.02-.7-.37-.85-.77-.4-1.02-.81-2.04-1.21-3.06-.59-1.49-1.19-2.98-1.78-4.47-.13-.34-.23-.68-.34-1.01.74-.61 1.05-.59 1.4.09.04.08.08.16.12.25 1 2.56 1.98 5.12 3 7.68.2.54.16.95-.34 1.29zM432.44 255.49c-.53-.03-.79-.33-.95-.73-.33-.8-.66-1.6-.97-2.41-.61-1.57-1.23-3.14-1.82-4.71-.25-.68-.23-.69.29-1.51.48.14.7.51.87.94.36.89.72 1.77 1.06 2.66.58 1.48 1.15 2.97 1.73 4.46.18.45.26.88-.21 1.3z" class="st25"/><path d="M433.85 254.52c-.11-.23-.24-.46-.33-.71-.89-2.25-1.78-4.51-2.67-6.76-.07-.17-.14-.34-.2-.51-.09-.28-.08-.55.22-.71.31-.16.7-.12.88.13.16.22.3.46.4.71.81 2.04 1.6 4.08 2.4 6.13.1.25.2.51.24.78.07.54-.13.74-.94.94z" class="st24"/><path d="M435.81 253.45c-.17-.38-.32-.66-.43-.95-.75-1.92-1.49-3.84-2.23-5.75-.07-.17-.14-.34-.2-.51-.16-.47-.07-.83.24-.94.29-.12.72.06.92.42.16.28.27.58.39.88.72 1.83 1.45 3.65 2.17 5.49.32.81.24.94-.86 1.36zM437.86 252.32c-.6-.98-2.64-6.15-2.95-7.44.21-.28.5-.46.82-.32.23.1.42.34.57.55.13.18.19.41.27.63.6 1.53 1.2 3.07 1.8 4.6.08.21.17.42.24.64.25.79.21.88-.75 1.34zM439.68 251.18c-.93-2.35-1.81-4.59-2.74-6.94.38-.11.7-.31.95-.24.26.08.54.37.65.63.58 1.39 1.1 2.81 1.65 4.22.12.3.23.6.34.9.33.91.31.95-.85 1.43zM439.16 243.77c.85-.53 1.11-.5 1.44.07.05.08.09.16.13.24.62 1.57 1.24 3.14 1.85 4.72.2.51.07.82-.34 1.04-.27.14-.57.08-.72-.16-.07-.12-.13-.24-.18-.37-.72-1.82-1.44-3.65-2.18-5.54zM441.35 243.21c.79-.57 1.17-.55 1.46.12.62 1.47 1.18 2.97 1.76 4.47.05.12.07.28.03.4-.06.16-.15.35-.29.42-.13.07-.4.06-.49-.03-.26-.25-.51-.53-.66-.84-.36-.79-.67-1.6-.99-2.41-.28-.72-.55-1.44-.82-2.13zM445.57 247.66c-.8-1.62-1.36-3.34-2.03-5 .81-.65 1.19-.61 1.5.16.5 1.22.98 2.46 1.44 3.7.24.68.01.96-.91 1.14zM447.61 246.55c-.53-.87-1.44-3.1-1.84-4.53.6-.48 1.01-.47 1.33.03.05.08.09.16.13.24.41 1.02.84 2.03 1.21 3.06.24.67.03.94-.83 1.2zM449.99 245.18c-.43.01-.7-.24-.85-.58-.46-1.03-.91-2.07-1.18-3.16.76-.5 1.07-.49 1.34.1.37.83.7 1.68 1.02 2.54.15.43 0 .8-.33 1.1zM450.08 240.74c.94-.37 1.14-.34 1.43.29.29.62.53 1.27.77 1.91.13.36.09.72-.18 1.02-.18.2-.56.22-.73.01-.06-.07-.12-.14-.16-.22-.41-.96-.87-1.9-1.13-3.01zM453.56 243.32c-.6-.88-.9-1.78-1.15-2.69-.04-.16.12-.44.27-.57.23-.2.57-.15.74.07.5.66.85 1.39.88 2.24.02.25-.03.28-.74.95zM454.36 239.61c.86-.4 1.14-.39 1.4.1.23.43.41.9.51 1.38.04.21-.13.51-.29.69-.22.26-.66.2-.79-.11-.29-.65-.54-1.32-.83-2.06zM457.43 240.92c-.51-.7-.67-1.29-.83-1.84.26-.35.55-.49.87-.39.19.06.4.23.5.41.18.35.43.75.21 1.15-.14.24-.44.39-.75.67zM460.47 238.98c-.18.15-.3.29-.45.38-.52.32-1.09-.02-1.11-.63-.01-.36.46-.67.77-.51.12.06.24.14.33.23.16.15.29.33.46.53zM462.43 237.97c-.37.17-.64.31-.92.4-.08.03-.27-.09-.31-.19-.04-.09 0-.26.06-.36.07-.1.2-.19.32-.23.12-.04.28-.05.39.01.13.06.25.19.46.37z" class="st25"/></svg>