<svg xmlns="http://www.w3.org/2000/svg" xml:space="preserve" id="Layer_1" x="0" y="0" version="1.1" viewBox="200.64 190.41 497.05 240.62"><style>.st3{fill:#dc8c26}.st6{fill:#da8b27}.st9{fill:#b17837}.st10{fill:#322925}.st18{fill:#56413a}.st19{fill:#302824}.st20{fill:#312925}</style><path fill="#322b27" d="M417.73 430.68c-1.94-.31-3.7-1.08-5.4-2.02-1.45-.8-2.84-1.71-4.27-2.55-1.28-.76-2.18-1.85-2.83-3.16-1.47-2.97-2.95-5.93-4.42-8.9-.78-1.58-1.53-3.19-2.3-4.78-.19-.39-.41-.76-.58-1.08-.47-.08-.58.22-.7.44-.27.48-.49.99-.72 1.49-.69 1.54-1.67 2.87-2.96 3.95-.89.74-1.81 1.46-2.78 2.09-.43.28-.77.57-1.03 1.02-.61 1.03-1.51 1.77-2.61 2.22-2.3.94-4.6 1.86-6.91 2.78-.46.18-.94.32-1.42.45-2.07.54-4.05.39-5.9-.77-.7-.44-1.47-.77-2.17-1.21-.75-.47-1.47-.98-2.17-1.52-1.15-.9-2.02-2-2.52-3.41-.5-1.4-1.13-2.76-1.72-4.13-.97-2.25-1.5-4.62-2.03-6.99-1.1-4.91-2.36-9.78-4.38-14.4-1.64-3.73-3.4-7.43-5.7-10.83-.53-.78-1.1-1.09-2.05-1.04-2.37.14-4.75.19-7.12.22-2.6.04-5.19-.17-7.76-.59-.76-.12-1.51-.32-2.25-.52-.96-.26-1.9-.59-2.86-.84-2.38-.64-4.54-1.7-6.49-3.21-2.36-1.83-4.72-3.66-7.08-5.48-4.18-3.24-8.78-5.7-13.73-7.56-2.96-1.11-6.01-1.83-9.07-2.57-.32-.08-.66-.11-.99-.11-1.52 0-2.94-.39-4.35-.92-1.86-.71-3.73-1.37-5.6-2.04-.85-.3-1.58-.78-2.24-1.38-2.78-2.54-2.31-1.86-3.17-5.2-.23-.91-.36-1.84-.48-2.77-.1-.78 0-1.58.44-2.24 1.64-2.46 3.69-4.4 6.73-4.97.71-.13 1.42-.25 2.13-.3.68-.05 1.13-.34 1.4-.97.76-1.78 2.2-2.73 4.02-3.12 1.24-.26 2.49-.52 3.75-.61 2.15-.15 4.31-.09 6.45.28.32.06.66.06 1.04.1 1.88-3.61 5.01-5.07 8.97-5.11-.02-1.09-.47-1.98-.85-2.89-.16-.38-.55-.55-.96-.52-.55.04-1.11.08-1.64.2-1.78.39-3.26-.3-4.63-1.3-.7-.51-1.05-1.28-1.23-2.11-.19-.86-.08-1.65.67-2.24 1.55.01 3.11-.05 4.56-.66 4.27-1.81 8.61-3.51 11.8-7.12.22-.25.49-.44.74-.66 1.41-1.2 2.52-2.62 3.31-4.3.59-1.25 1.17-2.52 1.9-3.68.78-1.24 1.33-2.53 1.61-3.96.12-.65.33-1.28.49-1.93.71-2.91 1.27-5.83 1.08-8.85-.06-.94-.2-1.87-.24-2.81-.1-2.08-.72-4.01-1.54-5.9-.13-.3-.28-.6-.45-.89-.29-.49-.52-.59-1.1-.46-.32.08-.63.21-.95.29-1.63.41-3.26.58-4.92.18-1.07-.26-2.15-.5-3.2-.83-1.32-.41-2.61-.89-3.91-1.37-.98-.37-1.95-.77-2.9-1.22-1.32-.61-2.45-1.47-3.42-2.57-.73-.82-1.56-1.57-2.35-2.34-.24-.23-.51-.43-.73-.67-.55-.6-.35-1.58.41-1.93.18-.08.46-.09.63 0 .28.15.54.38.75.63.61.71 1.2 1.44 1.8 2.17.82 1 1.75 1.83 2.99 2.29 1.6.6 3.2 1.21 4.8 1.83 2.51.97 5.11 1.34 7.79 1.3 1.33-.02 2.5-.38 3.54-1.18 1.1-.84 2.19-1.68 3.27-2.54 2.83-2.24 4.9-5.05 6.33-8.38 1-2.33 2.18-4.59 3.25-6.9.86-1.85 2.14-3.34 3.76-4.55.75-.56 1.52-1.11 2.25-1.7 1.45-1.16 3.1-1.89 4.89-2.35 1.71-.45 3.41-.94 5.09-1.46 2.6-.79 4.97-2.12 7.4-3.31 1.86-.91 3.48-2.13 4.87-3.67.33-.36.6-.78.85-1.21.21-.37.15-.79-.13-1.09-.29-.32-.63-.63-1.02-.8-.93-.41-1.93-.55-2.92-.27-.9.25-1.79.57-2.63.97-2.41 1.11-4.76 2.34-7.19 3.41-2.68 1.18-5.43 2.19-8.04 3.51-.2.1-.4.18-.61.25-3.01 1.07-5.96 2.3-9.09 3.07-3.64.9-7.25 1.89-10.94 2.62-6.39 1.27-12.21 3.8-16.97 8.42-.93.9-1.72 1.85-2.07 3.13-.14.53-.38 1.04-.66 1.51-.36.59-1.09.61-1.53.04-.19-.25-.33-.58-.37-.89-.05-.38.03-.77.06-1.15 2.68-5.59 7.26-9.05 12.84-11.35 1.32-.54 2.71-.94 4.07-1.37 5.27-1.67 10.67-2.81 16.05-4.02.86-.19 1.72-.42 2.54-.74 5.65-2.22 11.28-4.49 16.81-6.99 1.2-.54 2.39-1.16 3.49-1.89 1.8-1.19 3.81-1.47 5.86-1.42 3.34.08 5.72 4.21 4.18 7.19-1 1.92-2.55 3.31-4.45 4.33-.73.39-1.49.72-2.22 1.11-2.3 1.19-4.6 2.41-7.08 3.21-.31.1-.59.28-.88.45-.08.05-.12.17-.22.31.12.53.25 1.11.38 1.67-.5.45-1.01.79-1.36 1.26-.35.48-.56 1.08-.81 1.63-.39.85-.77 1.7-1.14 2.53.38.49.74.27 1.06.1 1.79-.97 3.59-1.94 5.37-2.95.72-.41 1.38-.92 2.11-1.32 1.87-1.03 3.42-2.42 4.81-4.02 1.09-1.25 2.12-2.55 3.23-3.78 1.15-1.27 2.34-2.5 3.56-3.7 2.05-2.01 4.16-3.97 6.2-5.99 1.69-1.68 3.59-3.11 5.44-4.6 3.87-3.1 8.31-5.22 12.71-7.4.69-.34 1.43-.59 2.17-.81 6.44-1.97 12.98-3.57 19.46-5.38 2.19-.61 4.42-.93 6.67-1.2 2.96-.35 5.9-.83 8.85-1.27 1.8-.27 3.6-.61 5.41-.8 1.64-.17 3.31-.19 4.96-.27 2.37-.12 4.75-.2 7.12-.37 3.39-.25 6.73.12 10.05.73 1.36.25 2.73.41 4.1.56 1.49.17 2.93.53 4.31 1.13 1.92.83 3.84 1.69 5.74 2.57.55.25 1.06.59 1.56.93 1.37.93 2.71 1.91 4.08 2.84 1.29.87 2.4 1.94 3.43 3.1 2.92 3.27 5.47 6.8 7.56 10.65.4.73.83 1.43 1.24 2.15.46.79 1.13 1.18 2.05 1.14.61-.02 1.22 0 1.82-.03 1.82-.1 3.64-.2 5.46-.34 2.54-.2 5.01-.83 7.43-1.59 2.95-.92 5.78-2.18 8.55-3.56.15-.07.31-.13.44-.23 1.4-1.2 3.12-1.87 4.66-2.82 1.85-1.13 3.47-2.55 5.04-4.03.8-.76 1.65-1.47 2.5-2.17 2.13-1.76 4.27-3.49 6.4-5.25 3.06-2.54 6.09-5.11 9.16-7.65 1.45-1.2 3.01-2.24 4.73-3.03.5-.23.95-.56 1.4-.88 1.08-.79 2.24-1.41 3.49-1.87.26-.09.54-.16.77-.3 1.78-1.05 3.73-1.64 5.71-2.15 1.12-.29 2.21-.7 3.3-1.07 1.89-.64 3.84-1.04 5.83-1.16 3.09-.18 6.18-.33 9.27-.48.44-.02.88.02 1.32.06 3.03.26 6.06.51 9.08.8.59.06 1.2.21 1.75.44 1.29.53 2.62.88 3.98 1.11 3.81.63 7.62 1.28 11.44 1.84 4.26.63 8.53 1.2 12.82 1.62 3.21.32 6.4.14 9.6.07.93-.02 1.86-.25 2.78-.38 1.75-.25 3.5-.49 5.24-.76.71-.11 1.45-.19 2.09-.47 1.78-.78 3.65-1.3 5.52-1.74 3.19-.76 6.16-2.08 9.19-3.26 1.93-.75 3.67-1.76 5.25-3.09 1.1-.93 2.35-1.63 3.7-2.17 2.46-.97 4.92-1.96 7.38-2.95 2.02-.81 4.1-1.27 6.28-1.31 2.32-.05 4.64-.19 6.96-.31.85-.04 1.64.09 2.42.41 2.15.88 4.23 1.91 6.17 3.18 1.12.73 2.1 1.6 2.88 2.71.38.53.37 1.24.86 1.7v7.63c-.53.6-.33 1.32-.31 2.01-.02.86-.43 1.59-.82 2.32a15.697 15.697 0 0 1-4.36 5.15c-1.58 1.2-3.2 2.37-4.91 3.38-3.52 2.08-7.17 3.88-11.02 5.31-3.19 1.19-6.42 1.98-9.82 2.13-3.2.14-6.4.4-9.6.54-2.71.12-5.4-.12-8.09-.53-1.8-.28-3.63-.34-5.45-.41-1-.04-1.96-.19-2.93-.43-2.15-.54-4.19-1.36-6.2-2.27-1.45-.65-3.01-1.07-4.51-1.62-1.04-.38-2.06-.78-3.08-1.2-2.56-1.04-5.07-2.18-7.75-2.89-5.1-1.35-10.3-2.03-15.57-1.95-1.48.02-2.96.31-4.44.5-1.15.15-2.29.42-3.44.49-1.9.11-3.7.6-5.47 1.24-1.3.47-2.57 1-3.85 1.52-2.77 1.11-5.53 2.23-8.29 3.34-1.43.58-2.87 1.15-4.29 1.76-4.35 1.86-8.89 2.96-13.58 3.53-1.37.17-2.74.33-4.12.45-.77.07-1.55.13-2.31.05-1.84-.18-3.65-.02-5.43.43-4.03 1.02-7.93 2.36-11.59 4.36-1.9 1.04-3.64 2.29-5.28 3.71-2.09 1.8-4.24 3.54-6.36 5.31-1.95 1.63-3.81 3.36-5.54 5.24-.89.98-1.9 1.85-2.85 2.77-2.22 2.16-4.44 4.32-6.66 6.47-.63.61-1.28 1.2-2.1 1.59-1.44.69-2.11 1.87-2.12 3.46-.02 4.04.1 8.07.59 12.08.55 4.45.65 8.93.47 13.41-.03.71-.16 1.43-.28 2.14-.48 2.94-.67 5.93-1.33 8.85-1.11 4.96-2.36 9.88-3.87 14.73-.65 2.07-1.62 3.98-2.8 5.8-1.23 1.9-2.33 3.88-3.48 5.83-.17.29-.29.6-.49.86-1.23 1.63-2.47 3.25-3.71 4.86-.1.13-.25.22-.35.36-.66.95-1.31 1.9-1.97 2.85 0 1.03.5 1.92.85 2.83 1.29 3.3 2.19 6.72 3.13 10.12.27 1 .39 2.07.41 3.11.04 1.99.1 3.99-.1 5.97-.43 4.29-2.3 7.77-6.05 10.14-2.64 1.67-5.44 2.92-8.46 3.69-.86.22-1.7.49-2.55.72-.82.23-1.63.25-2.44-.06-1.7-.64-3.42-1.25-5.12-1.9-.46-.18-.89-.45-1.3-.72-1.62-1.06-3.22-2.14-4.83-3.21a51.463 51.463 0 0 1-5.51-4.25c-3.65-3.24-7.62-6.03-11.8-8.54-1.83-1.1-3.8-1.73-5.95-1.84-1.32-.07-2.65-.19-3.95-.42-1.99-.35-3.76-1.31-5.41-2.42-1.77-1.18-3.71-1.94-5.67-2.69-.4-.15-.87-.26-1.29-.22-1.65.15-3.3.34-4.94.57-.54.08-1.06.3-1.57.51-3.85 1.52-7.64 3.17-11.34 5.05-2.16 1.1-4.41 2.02-6.62 3.04-.6.28-1.21.55-1.75.93-1.26.89-2.48 1.83-3.78 2.8.14 2.23.29 4.48.41 6.74.1 1.93.25 3.86.63 5.76.58 2.83 1.55 5.52 2.75 8.14 1.63 3.58 3.67 6.93 5.86 10.19 1.95 2.9 3.6 5.94 4.92 9.18.87 2.15 1.9 4.23 2.87 6.34.18.4.39.8.65 1.15.43.59 1.12.75 1.76.42.29-.15.54-.38.81-.57 1.88-1.39 4.05-1.98 6.31-2.3.77-.11 1.53-.02 2.29.23 1.54.51 3.12.7 4.74.43 1.24-.21 2.41.01 3.51.65.57.33 1.15.67 1.77.91 1.2.46 1.99 1.35 2.67 2.38 1.34 2.03 2.05 4.27 2.27 6.67.04.43-.03.88-.1 1.32-.43 2.7-1.34 5.25-2.63 7.64-1.03 1.91-2.47 3.54-4.17 4.9-1.94 1.56-3.97 3-6.36 3.81-.09.03-.14.15-.21.23h-2.65c-.75-.44-1.65-.37-2.55-.33zm23.64-117.88c-.1-.12-.21-.24-.31-.36-2.19-4.47-4.06-9.07-5.43-13.86-.74-2.59-.63-5.25-.87-7.89-.02-.22.02-.44.04-.66.29-3.08 1.23-5.96 2.92-8.54 1.24-1.89 2.57-3.73 3.96-5.52.56-.73 1.33-1.32 2.06-1.9.65-.52 1.39-.91 2.05-1.4 1.93-1.43 4.01-2.53 6.41-2.97.22-.04.42-.13.63-.21 3.8-1.37 7.73-2.29 11.63-3.28 1.07-.27 2.17-.42 3.26-.59.26-.04.54.03.81.09.09.02.21.15.21.22-.01.15-.07.3-.15.43-.05.08-.18.12-.28.16-2.78 1.08-5.53 2.23-8.35 3.22-2.5.88-5.06 1.57-7.59 2.35-2.24.69-4.26 1.78-6.07 3.31a24.82 24.82 0 0 0-3.55 3.7c-2.38 3.04-4.29 6.27-4.66 10.26-.3 3.29-.2 6.5.87 9.66.48 1.41.87 2.85 1.31 4.27.28.9.52 1.81.85 2.68.54 1.39 1.15 2.75 1.72 4.13.21.51.47 1 .34 1.59-.28 1.25.11 2.29 1.17 2.99 1.26.84 2.24 1.96 3.23 3.07 3.04 3.42 5.52 7.18 7.15 11.47.69 1.82 1.68 3.48 2.89 5.01.48.6.91 1.25 1.39 1.86.75.95 1.47 1.95 2.32 2.81 1.12 1.14 2.37 2.15 3.55 3.23.74.68 1.59 1.18 2.49 1.63 2.28 1.12 4.55 2.27 6.81 3.42.44.22.86.49 1.24.8.33.27.37.67.13 1.05-.17.26-.45.45-.73.73-.52-.29-1.01-.54-1.47-.83-2.3-1.44-4.72-2.67-7.2-3.75-1.95-.84-3.72-1.92-5.36-3.25-.95-.77-1.92-1.49-2.37-2.69-.11-.3-.36-.55-.58-.8-.84-.97-1.49-2.06-2.09-3.18-1.66-3.12-3.29-6.26-5.02-9.35-1-1.78-2.07-3.53-3.28-5.17-2.07-2.81-4.57-5.11-8.15-5.87-1.77-.85-3.43-.53-5.04.46-.42.26-.86.5-1.28.76-2.23 1.39-2.7 4.94-1.35 6.6.73.89 1.29 1.93 1.9 2.91.26.42.49.87.67 1.32.06.16-.05.39-.11.69-.85-.36-1.6-.67-2.39-1-.36-.74-.67-1.52-1.11-2.21-.94-1.48-1.51-3.06-1.56-4.82-.02-.52-.22-.99-.62-1.32-1.53-1.27-3-2.64-4.93-3.31-1.3-.45-2.63-.84-3.95-1.23-.31-.09-.66-.11-.98-.07-1.5.17-2.9.67-4.19 1.47-.71.44-1.05 1.08-1.04 1.94.01 1.12.15 2.19.67 3.21.55 1.08 1.04 2.2 1.54 3.3.49 1.06.82 2.17.97 3.33.03.21.07.45-.33.55-.14-.16-.34-.34-.49-.55-1.05-1.57-1.97-3.2-2.63-4.97-.46-1.24-.89-2.5-1.32-3.75-.18-.53-.41-1.05-.9-1.35-1.81-1.09-3.66-2.04-5.87-2.01-2.89.05-5.47 2-6.22 4.81-.63 2.35-.25 4.61.71 6.79.67 1.53 1.8 2.63 3.33 3.32.5.23 1.02.44 1.49.73 3.07 1.86 6.19 3.65 9.1 5.77 1.6 1.17 3.26 2.26 4.95 3.12 1.72-.7 3.35-1.36 4.98-2.03.1-.04.2-.1.3-.14 2.01-.94 4.1-1.64 6.24-2.21 3.9-1.04 7.84-1.18 11.83-.6 2.48.36 4.85 1.09 7.17 1.96 3.66 1.38 6.64 3.7 8.93 6.88.84 1.17 1.62 2.38 2.44 3.55 2.09 2.99 4.08 6.05 5.94 9.19 1.66 2.8 3.5 5.5 5.3 8.22 1.1 1.66 2.69 2.75 4.52 3.5.48.2.93.23 1.44.08 2.5-.75 4.88-1.77 7.06-3.22 2.32-1.54 3.82-3.67 4.49-6.35.6-2.43.73-4.93.61-7.41-.15-3.04-.83-6.01-1.83-8.9-1.19-3.45-2.31-6.92-3.45-10.38-.43-1.31-.82-2.63-.98-4.02-.23-1.98-.58-3.94-.77-5.92-.28-3.02.09-5.95 1.47-8.71.48-.95 1.36-1.43 2.45-1.26.63.09.96.59.76 1.2-.17.52-.4 1.03-.6 1.54-.52 1.35-.9 2.72-.95 4.18-.09 3.22.28 6.4.74 9.58.07.47.28.91.42 1.35.66.05 1.08-.2 1.44-.56.31-.31.6-.65.86-1 1.36-1.81 2.72-3.62 3.72-5.67.17-.34.4-.66.63-.97 2.29-3.12 3.79-6.6 4.84-10.3.81-2.87 1.55-5.76 2.35-8.63.82-2.93 1.47-5.9 1.87-8.91.36-2.68.64-5.38.88-8.07.12-1.43.17-2.87.09-4.3-.1-2.04-.35-4.07-.54-6.11-.08-.88-.24-1.76-.27-2.64-.14-4.26-.28-8.52.3-12.75.42-3.11.48-3.16 2.87-4.64 2.22-1.38 4.21-3.02 6.07-4.86 3.3-3.26 6.6-6.53 10.01-9.69 2.3-2.14 4.78-4.09 7.19-6.12.46-.39.99-.71 1.49-1.05 1.56-1.04 3.14-2.07 4.69-3.12.69-.47 1.42-.83 2.22-1.1 3.3-1.08 6.59-2.2 9.91-3.26 1.42-.46 2.91-.64 4.41-.65 2.04-.02 4.09 0 6.12-.35 2.01-.35 4.03-.69 6.05-.94 1.89-.23 3.65-.85 5.37-1.63.86-.39 1.71-.78 2.57-1.14.46-.19.92-.41 1.4-.5 1.8-.37 3.46-1.11 5.12-1.87.8-.37 1.6-.75 2.42-1.07 2.62-1.03 5.24-2.07 7.88-3.04.98-.36 2-.68 3.03-.8 1.92-.22 3.82-.53 5.72-.91 1.83-.36 3.72-.69 5.57-.67 3.81.05 7.61.35 11.38.98.98.17 1.98.27 2.92.58 3.78 1.22 7.57 2.44 11.22 4.05 2.02.89 4.1 1.63 6.13 2.52 2.97 1.3 6.19 1.61 9.3 2.33.9.21 1.87.12 2.81.2 3.36.27 6.71.55 10.07.81.6.05 1.21-.01 1.82-.06 2.26-.17 4.51-.38 6.77-.53 1.71-.12 3.39-.4 5.05-.86 3.3-.92 6.53-2.05 9.72-3.32 1.64-.65 3.27-1.35 4.84-2.15 1.94-.99 3.59-2.39 5.07-3.97 1.87-2 2.84-4.44 3.32-7.11.6-3.35-.11-6.37-2.29-9.01-1.07-1.3-2.33-2.39-4.03-2.76-.91-.2-1.85-.34-2.79-.38-1.43-.06-2.87.01-4.31-.02-1.45-.03-2.85.18-4.22.67-1.98.71-3.98 1.33-5.97 1.99-2.06.68-3.99 1.64-5.81 2.79-1.31.82-2.56 1.74-3.85 2.58-.5.33-1.04.63-1.58.88-.95.44-1.92.83-2.88 1.24-.81.35-1.6.77-2.44 1.02-2.59.79-5.19 1.52-7.79 2.28-.42.12-.86.24-1.24.46-1.57.91-3.29 1.26-5.08 1.35-1.5.08-2.99.28-4.37.85-1.31.54-2.66.71-4.04.75-3.81.09-7.62-.28-11.43-.36-.11 0-.22-.03-.33-.04-3.19-.29-6.38-.6-9.57-.88-3.42-.29-6.81-.66-10.12-1.61-2.07-.6-4.18-1.06-6.23-1.71-2.82-.88-5.73-1.16-8.65-1.32-1.05-.05-2.11 0-3.15-.12-2.66-.31-5.3.04-7.94.23-1.76.13-3.53.36-5.24.76-2.84.67-5.66 1.4-8.34 2.65-1.65.77-3.33 1.46-4.92 2.35-2.27 1.27-4.55 2.53-6.58 4.15-3.07 2.45-6.09 4.95-9.08 7.49-2.1 1.79-4.07 3.73-6.3 5.38-1.42 1.05-2.71 2.26-4.02 3.45-.94.86-1.92 1.67-3.02 2.31-1.72 1.01-3.43 2.02-5.12 3.06-3.08 1.89-6.34 3.34-9.88 4.15-.65.15-1.28.35-1.92.53-3.21.88-6.45 1.53-9.8 1.48-1.99-.03-3.98-.01-5.97 0-.58 0-1.11-.08-1.44-.63-.65-1.09-1.39-2.14-1.94-3.28-2.45-5.12-5.87-9.46-10.21-13.11-2.49-2.09-5.25-3.63-8.36-4.6-3.44-1.08-6.96-1.71-10.5-2.31-2.23-.38-4.46-.74-6.73-.88-1.05-.06-2.11-.06-3.14-.26-2.15-.42-4.29-.3-6.43-.03-1.31.16-2.62.48-3.94.5-2.62.03-5.15.52-7.68 1.14-.85.21-1.73.43-2.6.48-2.77.15-5.47.66-8.18 1.25-1.94.42-3.81 1.15-5.84 1.12-.27 0-.54.12-.8.19-3.94 1.1-7.88 2.17-11.8 3.3-1.96.57-3.94 1.12-5.82 1.91-6.17 2.57-11.82 6.02-16.79 10.51-3.4 3.07-6.64 6.33-9.93 9.53-.67.65-1.23 1.42-1.84 2.13-.72.84-1.4 1.71-2.15 2.52-2.05 2.2-4.42 4.02-6.99 5.55-2.61 1.56-5.33 2.93-8.42 3.31-.43.05-.85.2-1.27.3-.86 1.87-1.9 3.58-3.38 4.93-2.81 2.58-5.64 5.14-8.58 7.56-1.63 1.34-3.09 2.84-4.62 4.27-.5.48-.64 1.03-.39 1.66.8 2.08 1.05 4.29 1.49 6.45.27 1.34.59 2.73.36 4.11-.26 1.54-.25 3.09-.2 4.63.13 4.35-1.09 8.41-2.6 12.41-.15.41-.38.8-.6 1.18-.62 1.11-1.27 2.2-1.87 3.32-.57 1.09-1.27 2.07-2.15 2.92-.71.69-1.45 1.37-2.1 2.12-.69.81-1.48 1.49-2.34 2.09-2.19 1.5-4.39 2.97-6.84 4.04-.96.42-1.9.88-2.85 1.34-.34.16-.65.38-1.05.62.41 1.39.93 2.65 1.79 3.74.73.92 1.27 1.92 1.75 2.99.8 1.77 1.79 3.45 3.08 4.89 1.19 1.32 2.3 2.68 3.33 4.13.17.24.43.43.76.75.23-.9.41-1.65.62-2.39.82-2.91 2.55-4.92 5.53-5.86 3.24-1.02 6.58-1.41 9.91-1.86.22-.03.44-.02.66 0 2.62.26 5.07 1.11 7.42 2.22 1.5.71 2.92 1.57 4.4 2.31.92.45 1.63 1.1 2.26 1.9 5.42 6.92 10.85 13.83 16.29 20.74.89 1.13 1.84 2.2 2.93 3.15.95.83 1.83 1.77 2.66 2.73 2.02 2.34 4 4.72 5.99 7.1.6.72 1.17 1.47 1.72 2.23 2.72 3.78 4.88 7.89 7.04 12 1.36 2.6 2.55 5.27 3.68 7.98 1.32 3.16 2.67 6.31 4.12 9.41 2.44 5.2 4.98 10.36 7.48 15.53.51 1.04 1.02 2.08 1.56 3.11.71 1.37 1.74 2.4 3.11 3.11.73.38 1.47.77 2.15 1.24 2.04 1.39 4.34 2.16 6.69 2.8 1.3.36 2.52.17 3.66-.53 1.08-.66 2.19-1.29 3.23-2.03 3.95-2.81 6.45-6.56 7.52-11.32.63-2.8-.44-5.08-1.79-7.34-.14-.23-.36-.42-.56-.6-2.43-2.24-6.24-2.4-8.84-.34-.38.3-.72.69-1.02 1.08-.28.37-.36.8-.07 1.25.14.04.3.13.45.13 2.16-.1 3.81.98 5.32 2.33.44.39.74.95 1.02 1.48.18.33.2.76-.13 1.08-.23.22-.68.19-1.07-.1-.58-.43-1.12-.9-1.71-1.31-.49-.35-1.02-.65-1.55-.93-.23-.12-.51-.23-.76.16.19.52.4 1.08.61 1.65.11.31.25.62.31.94.2 1.09-.34 1.83-1.43 2-.63.1-1.26.19-1.97.3-.06-.36-.14-.67-.15-.98-.02-.5.02-.99.02-1.49-.02-1.84-.87-3.24-2.53-3.95-1.82-.79-3.73-1.36-5.61-2.02-1.19.03-2.22-.65-3.37-.81-.49-.07-.78-.38-.94-.83-.23-.62-.42-1.26-.69-1.87-2.31-5.33-5.04-10.45-8.12-15.38-2.11-3.38-4.16-6.79-5.93-10.35-1.26-2.53-2.16-5.2-2.74-7.97-.64-3.04-.98-6.11-.99-9.21-.01-1.5-.21-2.97-.5-4.44-.19-.97-.38-1.96-.45-2.95-.23-3.43-.9-6.78-1.81-10.09-.85-3.09-1.68-6.18-2.54-9.27-.24-.85-.54-1.68-.86-2.51-.35-.93-.74-1.85-1.14-2.76-.59-1.37-1.2-2.73-1.81-4.09-.16-.35-.36-.69-.48-1.05-.12-.34.01-.64.33-.85.62-.4 1.16-.4 1.62.19.6.78 1.15 1.62 1.63 2.49 1.48 2.73 2.42 5.69 3.39 8.63.17.52.35 1.03.54 1.61 1.19.16 2.35.03 3.5.09 1.23.06 2.41-.17 3.57-.57 2.61-.89 5.24-1.75 7.97-2.23.49-.09.97-.23 1.44-.39.19-.06.34-.23.61-.42-.28-.23-.47-.43-.69-.56-.77-.44-1.53-.9-2.33-1.26-2.39-1.08-3.78-3.01-4.6-5.39-.66-1.92-.6-3.92-.39-5.91.05-.48.24-.97.45-1.41 1.45-3.05 3.9-4.88 7.13-5.69.52-.13 1.11-.15 1.64-.06 1.79.33 3.6.64 5.11 1.78.29.22.68.33 1.04.49.55-.36 1.06-.69 1.57-1.02.74-.49 1.46-1 2.22-1.46 1.17-.7 2.46-1.1 3.81-.78 2.47.58 4.93 1.22 7 2.84.82.64 1.72 1.17 2.61 1.76.28-.26.51-.42.68-.63 1.36-1.6 3.13-2.59 4.99-3.48 1.4-.67 2.76-.65 4.15-.02.5.23 1.01.44 1.52.65.13.08.25.16.38.23.12.12.26.24.38.02.06.01-.06-.11-.12-.2zm-109.51-38.33c.21-.12.42-.25.64-.37.69-.45 1.4-.87 2.06-1.36 2-1.47 3.99-2.96 5.97-4.45a35.79 35.79 0 0 0 4.65-4.22c1.4-1.5 2.63-3.11 3.39-5.05.93-2.36 1.94-4.68 2.91-7.03.1-.23.13-.49.21-.81-.72-.15-1.29.01-1.87.19-2.51.82-4.68 2.21-6.55 4.06-.66.65-1.21 1.42-1.77 2.17-.17.23-.2.57-.3.9.46.19.82.33 1.16.49.93.44 1.44 1.18.53 2.05-.1.1-.12.29-.18.44.29.56.59 1.08.84 1.63.11.24.15.52.18.79.01.09-.06.25-.13.28-.14.05-.35.09-.44.02-.25-.21-.45-.47-.67-.71-.44-.5-.83-1.04-1.31-1.49-.86-.8-1.51-.67-2.13.36-.17.28-.29.59-.42.9-.27.6-.54 1.21-.79 1.82-1.28 3.1-3.09 5.84-5.47 8.2-.12.11-.21.25-.31.38-.15.18-.29.37-.44.55-.05.03-.1.04-.14.08-.07.08-.12.17-.18.25.1.03.2.1.28.08.11.01.19-.09.28-.15zm11.54 86.44c.96 1.94 1.97 3.45 3.04 4.93 1.19 1.66 2.4 3.31 3.51 5.03 1.86 2.88 3.67 5.78 5.46 8.7.86 1.41 1.62 2.89 2.39 4.35.53 1.03.96 2.11 1.49 3.14 1.37 2.66 2.56 5.39 3.32 8.29.8 3.04 1.63 6.08 2.35 9.14.65 2.81 1.6 5.51 2.78 8.13.41.91.81 1.82 1.2 2.73.15.35.34.72.37 1.09.05.78.52 1.19 1.13 1.51 1.08.55 2.19 1.06 3.25 1.65 1.14.63 2.31.66 3.53.35.69-.18 1.39-.35 2.08-.53 2.42-.63 4.73-1.52 6.85-2.85.8-.5 1.62-.92 2.53-1.2.5-.15.98-.5 1.37-.87.89-.83 1.71-1.72 2.56-2.6 2.39-2.48 2.39-2.48 3.55-5.66.04-.1.07-.21.11-.31.25-.53.27-1.05.01-1.6-.4-.84-.6-1.81-1.44-2.37-.22-.15-.51-.2-.78-.25-2.15-.45-4.04.1-5.7 1.52-.46.39-.86.86-1.3 1.28-.35.33-.74.63-1.07.91-.98-.48-1.29-.74-1.37-1.22-.12-.67.23-1.17.7-1.59.29-.26.59-.5.88-.76.62-.55 1.25-1.09 1.86-1.65.14-.13.24-.32.34-.45-.08-.13-.11-.21-.14-.21-.33-.03-.66-.08-.99-.07-3.01.08-5.49 1.12-6.98 3.91-.22.41-.54.69-1.01.78-.25.05-.57.03-.61.41.69 1.31 1.92 2.26 2.44 3.64-.33.67-.83.96-1.5.92-.62-.04-.98-.45-1.31-.91-.1-.13-.17-.29-.26-.42-.61-.92-1.2-1.86-1.85-2.75-1.44-1.96-2.9-3.9-4.36-5.84-2.07-2.75-3.73-5.74-5.12-8.89-.7-1.58-1.05-3.3-.91-5.01.1-1.32.24-2.63.22-3.96-.01-.38.09-.76.14-1.15.05-.38.16-.77.14-1.14-.06-1.33.06-2.64.31-3.95.15-.76.21-1.53.31-2.3l.87-6.39c.04-.31.07-.63.1-.89-.56-.52-1.17-.58-1.77-.62-.93-.07-1.87-.15-2.81-.21-3.08-.2-6.18-.2-9.14-1.26-.1-.04-.22-.05-.32-.06-2.31-.28-4.54-.9-6.78-1.51-1.12-.3-2.23-.58-3.67-.96zm5.77 14.22c-.12-.4-.15-.68-.28-.9-.29-.53-.61-1.05-.95-1.55-3.15-4.6-6.34-9.18-9.45-13.82-1-1.5-2.23-2.72-3.65-3.79-3.63-2.74-6.85-5.92-9.7-9.47-.52-.65-.98-1.35-1.58-1.91a26.73 26.73 0 0 1-3.78-4.38c-.12-.18-.28-.34-.44-.5-1.46-1.45-2.67-3.1-3.67-4.89-.34-.61-.77-1.06-1.39-1.37-.69-.34-1.36-.74-2.08-1.03-.5-.21-1.05-.35-1.59-.4-2.26-.23-3.92.87-5.31 2.5-.2.24-.37.6-.36.9.07 1.8-.34 3.66.52 5.39.1.2.01.48.01.74-1.19-.08-1.76-.76-2.08-1.72-.09-.26-.18-.52-.24-.79-.21-.89-.73-1.44-1.64-1.66-.96-.24-1.92-.5-2.87-.79-.87-.27-1.76-.29-2.63-.16-1.87.27-3.68.78-5.38 1.6-.48.23-.91.61-1.29 1-.33.33-.38.79-.16 1.23.15.3.3.59.47.87.56.96 1.26 1.82 2.09 2.56.43.39.7.87.74 1.44.03.4-.17.75-.55.95-.36.19-.63.01-.89-.21-.17-.14-.32-.3-.48-.46-1.03-1-2.07-2-2.8-3.26-.49-.85-1.25-1.29-2.22-1.06-1.18.27-2.37.56-3.5 1-1.38.55-2.18 1.65-2.34 3.16-.05.49-.04 1-.11 1.49-.42 3.1 1.77 5.88 3.77 6.8 2.41 1.1 4.83 2.17 7.41 2.84.36.09.77.16 1.12.07.72-.18 1.42-.14 2.13-.01.99.19 2 .26 2.95-.07 1.68-.57 3.42-.81 5.14-1.17.32-.07.64-.18.95-.29 1.66-.59 3.33-1.19 4.99-1.79 2.02-.73 4.03-1.53 6.07-2.19 2.12-.68 4.24-.63 6.28.41.54.28 1.1.53 1.62.83 3.1 1.77 5.8 4.02 8.14 6.72.58.67 1.2 1.3 1.74 2 1.79 2.31 3.83 4.44 5.27 7.01.16.29.37.55.59.79 1.55 1.65 3.11 3.3 4.67 4.93.73.77 1.56 1.42 2.53 1.85 1.28.58 2.58.98 4.21.56zm28.25 27.58c.81-1.69 2.14-2.63 3.26-3.75.27-.27.62-.47.96-.64 2.5-1.25 5.15-1.54 7.89-1.19.75.1 1.35.45 1.84 1.02.21.25.41.51.61.77.58.04 1.11.08 1.72.13-.02-.76-.34-1.27-.58-1.8-.72-1.55-1.5-3.07-2.14-4.66-2.38-5.97-5.48-11.56-8.97-16.93-.81-1.25-1.74-2.42-2.67-3.58-1.44-1.82-2.92-3.61-4.38-5.41-.28-.34-.53-.72-.84-1.02-.22-.22-.52-.46-.81-.5-.75-.1-1.52-.3-2.31.03-.12.36-.29.72-.36 1.09-.2 1.08-.39 2.17-.54 3.26-.3 2.19-.58 4.38-.85 6.57-.4 3.24-.28 6.51-.38 9.76-.08 2.34.53 4.48 1.73 6.46 1.4 2.31 2.82 4.61 4.29 6.89.75 1.14 1.61 2.23 2.53 3.5zm37.69 2.94c1.29.93 2.53 1.42 4.02 1.43.43-.84.84-1.65 1.32-2.6-1.97-.3-3.58.27-5.34 1.17z"/><path fill="#8d8786" d="M417.73 430.68c.9-.05 1.8-.11 2.64.35h-2.65c.03-.08.07-.15.08-.23 0-.03-.05-.08-.07-.12z"/><path fill="#a09a9a" d="M697.38 208.05c-.02-.69-.22-1.4.31-2.01v1.99c-.1.01-.2.01-.31.02z"/><path d="M303.66 261.59c-.02.38-.1.78-.06 1.15.04.31.17.64.37.89.44.57 1.17.55 1.53-.04.28-.47.52-.98.66-1.51.34-1.28 1.13-2.23 2.07-3.13 4.77-4.62 10.58-7.16 16.97-8.42 3.69-.73 7.3-1.72 10.94-2.62 3.13-.77 6.08-2 9.09-3.07.21-.07.42-.15.61-.25 2.61-1.33 5.36-2.33 8.04-3.51 2.42-1.07 4.78-2.29 7.19-3.41.85-.39 1.74-.71 2.63-.97.99-.28 1.99-.14 2.92.27.38.17.73.48 1.02.8.27.3.34.72.13 1.09-.25.43-.52.85-.85 1.21a16.078 16.078 0 0 1-4.87 3.67c-2.43 1.18-4.8 2.51-7.4 3.31-1.69.52-3.39 1.01-5.09 1.46-1.79.47-3.44 1.19-4.89 2.35-.73.59-1.5 1.14-2.25 1.7-1.62 1.21-2.9 2.7-3.76 4.55-1.07 2.31-2.24 4.56-3.25 6.9-1.43 3.32-3.49 6.13-6.33 8.38-1.08.86-2.18 1.7-3.27 2.54-1.04.8-2.21 1.16-3.54 1.18-2.68.03-5.28-.34-7.79-1.3-1.6-.62-3.2-1.23-4.8-1.83-1.23-.46-2.17-1.29-2.99-2.29-.59-.73-1.18-1.46-1.8-2.17-.21-.25-.47-.47-.75-.63-.16-.09-.45-.08-.63 0-.75.35-.95 1.33-.41 1.93.22.24.5.44.73.67.79.77 1.61 1.52 2.35 2.34.97 1.09 2.11 1.95 3.42 2.57.95.44 1.92.85 2.9 1.22 1.29.49 2.59.96 3.91 1.37 1.05.33 2.13.57 3.2.83 1.65.41 3.29.23 4.92-.18.32-.08.63-.21.95-.29.57-.13.81-.03 1.1.46.17.29.31.58.45.89.82 1.89 1.44 3.82 1.54 5.9.04.94.18 1.87.24 2.81.19 3.02-.38 5.94-1.08 8.85-.16.64-.37 1.28-.49 1.93-.27 1.43-.83 2.72-1.61 3.96-.73 1.16-1.31 2.43-1.9 3.68-.79 1.68-1.9 3.1-3.31 4.3-.25.21-.53.41-.74.66-3.19 3.61-7.52 5.32-11.8 7.12-1.45.61-3 .67-4.56.66-.12-.34-.24-.67-.36-1.01.17-.2.3-.49.51-.59.39-.18.84-.22 1.25-.37.93-.34 1.85-.72 2.78-1.06 1.45-.53 2.91-1.05 4.36-1.58 1.1-.4 2.12-.97 3.01-1.72.71-.6 1.51-1.21 1.95-2 .86-1.54 1.53-3.18 2.2-4.82.36-.89.37-1.86-.02-2.76-.91-2.09-2.49-3.39-4.77-3.61-1.09-.11-2.21.01-3.3.14-1.65.19-3.22.77-4.77 1.36-1.08.41-2.18.74-3.37.79-3.15.13-6.3.15-9.42-.38-1.79-.31-3.65-.35-5.32-1.16-1.68-.82-3.5-1.07-5.3-1.15-2.42-.1-4.86-.08-7.28.23-1.14.15-2.31.15-3.14.2-.8-.7-1.36-1.23-1.96-1.72-.64-.52-1.31-1.01-1.97-1.52-.59-.45-1.39-.62-1.97-1.39.77-.2 1.4-.34 2.02-.53.16-.05.27-.26.53-.52-.57 0-.96-.07-1.32.01-1.07.27-2.12.6-3.18.91-1.65.48-5.86 2.58-7.21 3.63-.44.34-.86.7-1.25 1.08-1.07 1.04-2.12 2.1-3.17 3.16-.31.31-.64.62-.89.98-1.61 2.4-3.65 4.43-5.5 6.63-.58.69-1.27 1.21-2.1 1.57-.86.37-1.7.8-2.52 1.26-1.12.63-2.29 1.09-3.52 1.43-.9.25-1.8.53-2.71.77-1.89.5-3.84.72-5.75.31-3.32-.72-6.46-1.93-9.14-4.11-.73-.59-1.42-1.23-2.11-1.87-.46-.43-.99-.7-1.62-.73-.31-.02-.64.29-.68.6-.07.53.08 1.01.42 1.38.33.36.71.69 1.11.98 1.66 1.19 3.34 2.36 5 3.55.25.18.46.4.72.64-1.13.64-1.13.66-1.91.7-1.38.07-2.75.04-4.11-.29-2.58-.62-5.18-1.13-7.76-1.71-2.12-.48-3.71-1.68-4.67-3.64-.51-1.04-1.04-2.09-1.36-3.2-.96-3.33-.52-6.56.89-9.69.5-1.12 1.15-2.14 2.03-3 .22-.21.53-.34.86-.54.44.52.85.96 1.22 1.44 1.48 1.93 2.93 3.88 4.41 5.81.4.52.73 1.1 1.29 1.52.33-.02.67 0 .99-.05.88-.15 1.1-.34 1.22-1.28.12-.91.46-1.7.99-2.43.55-.76 1.07-1.54 1.67-2.27 1.91-2.34 5.1-3.38 8.22-2.7-.08.37-.21.74-.25 1.11-.08.76.07 1.48.79 1.86.69.37 1.29-.05 1.8-.49.81-.7 1.35-1.59 1.77-2.57.35-.81.75-1.6 1.14-2.39 1.22-2.49 2.17-5.07 2.87-7.76.18-.67.06-1.18-.37-1.68-.21-.24-.38-.52-.55-.76.34-.7.91-.88 1.54-.88.79 0 1.54-.14 2.24-.5 1.25-.66 2.58-.61 3.88-.33.97.2 1.9.57 2.83.91.61.22 1.21.46 1.85.4.13-.42-.05-.62-.31-.75-.7-.33-1.4-.66-2.1-.97-.5-.23-1.12-.41-1.09-1.08.03-.56.6-.74 1.04-.94.25-.12.51-.23.78-.28 1.36-.24 2.71-.57 4.08-.65 2.28-.13 4.53.18 6.69.94 2.02.71 4.13.66 6.21.89.3.03.66-.14.59-.68-.2-.1-.42-.26-.67-.35-1.6-.6-3.19-1.24-4.83-1.75-1.1-.34-2.25-.51-3.39-.71-.44-.08-.91-.04-1.17-.48-.37-.63-1.01-1.2-.61-2.18 1.05 0 2.09-.02 3.14.01.69.02 1.17-.19 1.37-.91.05-.19.23-.34.41-.59.54.26 1.04.49 1.52.73.34.17.67.39 1.02.56.51.24.93.18 1.22-.15.35-.4.54-.88.24-1.37-.22-.36-.51-.72-.85-.97-.35-.26-.8-.36-1.19-.57-.63-.34-1.33-.61-1.84-1.09-1.64-1.56-3.22-3.19-4.81-4.81-.54-.55-.67-1.23-.51-1.99.46-2.27 2.49-3.77 4.84-3.52.11.01.22.04.33.05.56.09 1.04-.09 1.17-.65.21-.89 1.28-1.25 1.28-2.24 0-.07.15-.15.24-.22 1.58-1.24 3.23-2.31 5.27-2.64.93-.15 1.85-.32 2.76-.55 1.24-.33 2.49-.46 3.77-.4.54.03 1.11-.02 1.64-.12.88-.17 1.75-.19 2.63.03 2.14.53 4.28 1.06 6.42 1.6.06.01.08.17.14.31-.68.49-1.52.58-2.29.85-.36.13-.74.23-1.09.39-.38.18-.54.58-.44.97.1.38.43.68.85.64.49-.05.98-.16 1.45-.29 1.28-.34 2.54-.75 3.83-1.05 2.71-.62 5.47-.65 8.24-.66 1.19 0 2.29.25 3.36.76.8.38 1.57.84 2.4 1.11 1.04.34 1.71 1.02 2.07 1.99.25.66.33 1.38.49 2.08.1.46.45.4.78.38.63.01 1.13.25 1.5.74zm-14.24 7.56c.43-.88.22-1.5-.1-2.09-.33-.6-.8-1.06-1.48-1.25-.96-.26-1.92-.49-2.89-.73-.6-.16-1.2-.14-1.8.03-3.28.93-6.68 1.52-9.75 3.13-.88.46-1.84.75-2.73 1.2-1.5.76-3.05.9-4.67.5-.37-.09-.76-.12-1.15-.12-.32-.01-.62.36-.58.68.13.94.52 1.71 1.53 1.94.64.15 1.3.27 1.95.31.71.04 1.44-.03 2.15-.02.3 0 .61.09 1 .16-.19 1.06-.37 2.03-.56 3.07.49.05.86.12 1.24.13 1.22.02 2.43 0 3.65.01.25 0 .56-.1.74.33-1.13 1.5-2.73 2.63-3.88 4.13.28.58.74.74 1.25.79.27.03.56.03.83 0 1.63-.21 3.19.06 4.73.56.52.17 1.05.33 1.59.45.3.07.62.06 1.01.1.6-2.09 1.07-4.11 1.2-6.21.07-1.12-.16-2.2-.48-3.26-.41-1.32-1.15-2.37-2.42-3.01-.27-.13-.66-.19-.67-.75 1.16-.36 2.36-.71 3.54-1.12 1.65-.58 3.25-.5 4.82.26.6.26 1.22.48 1.93.78zm12.19-7.17c-.13-.05-.25-.13-.37-.14-.05 0-.16.21-.14.23.09.1.22.16.33.24.04-.09.09-.18.18-.33z" class="st3"/><path fill="#342c29" d="M302.19 260.79c-.33.02-.68.08-.78-.38-.15-.7-.24-1.42-.49-2.08-.36-.97-1.03-1.65-2.07-1.99-.83-.27-1.61-.73-2.4-1.11a7.586 7.586 0 0 0-3.36-.76c-2.77.01-5.53.04-8.24.66-1.29.29-2.55.71-3.83 1.05-.48.13-.96.24-1.45.29-.42.04-.75-.26-.85-.64-.1-.39.06-.79.44-.97.35-.16.72-.26 1.09-.39.76-.28 1.6-.37 2.29-.85-.06-.13-.08-.29-.14-.31-2.14-.54-4.28-1.07-6.42-1.6-.87-.22-1.74-.2-2.63-.03-.54.1-1.1.15-1.64.12-1.28-.07-2.53.07-3.77.4-.91.24-1.83.4-2.76.55-2.04.33-3.7 1.4-5.27 2.64-.09.07-.24.15-.24.22 0 .99-1.07 1.35-1.28 2.24-.13.56-.61.74-1.17.65-.11-.02-.22-.04-.33-.05-2.34-.24-4.37 1.25-4.84 3.52-.16.77-.03 1.44.51 1.99 1.58 1.62 3.16 3.25 4.81 4.81.5.48 1.21.75 1.84 1.09.39.21.84.31 1.19.57.34.25.63.61.85.97.3.49.11.96-.24 1.37-.29.33-.71.39-1.22.15-.35-.16-.67-.38-1.02-.56-.48-.24-.98-.47-1.52-.73-.18.25-.36.4-.41.59-.19.72-.67.93-1.37.91-1.04-.03-2.09-.01-3.14-.01-.4.99.24 1.55.61 2.18.26.44.73.4 1.17.48 1.14.19 2.29.37 3.39.71 1.63.51 3.22 1.15 4.83 1.75.25.09.47.25.67.35.07.54-.29.71-.59.68-2.08-.23-4.19-.18-6.21-.89-2.16-.76-4.41-1.07-6.69-.94-1.37.08-2.72.41-4.08.65-.27.05-.53.16-.78.28-.45.21-1.01.38-1.04.94-.03.67.58.86 1.09 1.08.7.32 1.41.64 2.1.97.26.13.44.33.31.75-.64.06-1.24-.18-1.85-.4-.93-.33-1.87-.71-2.83-.91-1.31-.27-2.63-.32-3.88.33-.7.37-1.45.5-2.24.5-.64 0-1.2.19-1.54.88.17.24.35.52.55.76.42.5.54 1.01.37 1.68-.71 2.68-1.65 5.27-2.87 7.76-.39.79-.79 1.58-1.14 2.39-.42.98-.96 1.87-1.77 2.57-.51.44-1.1.86-1.8.49-.72-.38-.87-1.11-.79-1.86.04-.37.16-.74.25-1.11-3.11-.69-6.31.36-8.22 2.7-.59.73-1.12 1.51-1.67 2.27-.52.73-.87 1.52-.99 2.43-.13.95-.35 1.14-1.22 1.28-.32.05-.66.04-.99.05-.56-.42-.9-1-1.29-1.52-1.48-1.93-2.93-3.88-4.41-5.81-.37-.48-.78-.92-1.22-1.44-.33.21-.64.33-.86.54-.88.86-1.53 1.89-2.03 3-1.41 3.13-1.85 6.36-.89 9.69.32 1.1.85 2.16 1.36 3.2.95 1.97 2.55 3.16 4.67 3.64 2.58.59 5.18 1.09 7.76 1.71 1.37.33 2.73.36 4.11.29.78-.04.77-.06 1.91-.7-.26-.23-.47-.46-.72-.64-1.66-1.19-3.34-2.36-5-3.55-.4-.29-.78-.62-1.11-.98a1.65 1.65 0 0 1-.42-1.38c.04-.31.37-.62.68-.6.63.04 1.16.3 1.62.73.69.64 1.38 1.27 2.11 1.87 2.68 2.18 5.81 3.39 9.14 4.11 1.91.41 3.85.19 5.75-.31.91-.24 1.8-.51 2.71-.77 1.23-.34 2.4-.8 3.52-1.43.82-.46 1.66-.89 2.52-1.26a5.72 5.72 0 0 0 2.1-1.57c1.85-2.2 3.89-4.23 5.5-6.63.24-.36.57-.67.89-.98 1.05-1.06 2.1-2.12 3.17-3.16.39-.39.82-.75 1.25-1.08 1.36-1.04 5.56-3.15 7.21-3.63 1.06-.31 2.11-.64 3.18-.91.35-.09.74-.01 1.32-.01-.26.26-.37.47-.53.52-.62.19-1.25.33-2.02.53.57.77 1.37.94 1.97 1.39.66.5 1.33.99 1.97 1.52.6.49 1.16 1.01 1.96 1.72.83-.05 1.99-.05 3.14-.2 2.42-.31 4.86-.33 7.28-.23 1.81.08 3.62.33 5.3 1.15 1.67.81 3.53.86 5.32 1.16 3.12.54 6.27.51 9.42.38 1.19-.05 2.28-.38 3.37-.79 1.55-.59 3.11-1.16 4.77-1.36 1.09-.13 2.21-.24 3.3-.14 2.28.22 3.87 1.52 4.77 3.61.39.89.38 1.87.02 2.76-.67 1.63-1.34 3.28-2.2 4.82-.44.79-1.24 1.4-1.95 2-.89.75-1.91 1.32-3.01 1.72-1.45.53-2.91 1.05-4.36 1.58-.93.34-1.85.72-2.78 1.06-.41.15-.86.19-1.25.37-.22.1-.34.38-.51.59-2.67 1.06-5.37 2-8.14 2.77-.37.1-.74.24-1.09.39-1.77.79-3.63.98-5.52.73-2.51-.33-5.04-.66-7.44-1.56-.36-.13-.74-.25-1.12-.27-1.9-.1-3.77.2-5.5.95-2.32 1.01-4.59 2.17-6.85 3.32-1.72.87-3.43 1.78-5.11 2.73a37.473 37.473 0 0 0-5.56 3.89c-.72.6-1.47 1.18-2.26 1.68-1.91 1.21-3.85 2.38-5.8 3.53-.61.37-1.26.68-1.92.97-1.85.8-3.76.95-5.63.12-.99-.44-1.87-.37-2.87-.02-2.55.88-5.13 1.7-7.72 2.47-2.91.87-5.44.01-7.68-1.9-.49-.42-.81-.91-.78-1.57.06-1.32.14-2.65.21-3.97.05-.86.48-1.44 1.26-1.79.3-.13.56-.34.9-.56 0-.6-.01-1.2 0-1.8.02-1.43.48-2.62 1.9-3.2 1.51-.62 3.01-.76 4.38.35.56.45 1.06.98 1.55 1.5.72.76 1.51 1.03 2.53.63.66-.26 1.37-.41 2.07-.58.69-.17 1.04-.57 1.05-1.28.01-1.26.73-2.01 1.77-2.59.73-.4 1.47-.46 2.24-.23 1.77.52 1.57.54 2.86-1.04.8-.98 1.61-1.97 2.39-2.97.76-.99.69-1.4-.32-2.19-.9-.69-1.93-1.07-3.04-1.21-.98-.13-1.59.22-1.99 1.12-.16.35-.24.73-.37 1.1-.55 1.64-1.62 2.86-3 3.86-.76.56-1.51.59-2.3.08-1.11-.72-2.26-1.38-3.34-2.14-.97-.68-1.96-1.19-3.18-1.27-.59-.04-1.17-.28-1.74-.49-.62-.23-1.18-.19-1.72.2-.31.23-.66.4-.97.63-1.06.77-2.3 1.03-3.59 1.25-.5.74-.99 1.47-1.48 2.2-.22.32-.42.65-.65.96-.86 1.12-1.75 1.3-2.83.45-1.47-1.17-2.94-2.35-4.07-3.88-.26-.35-.55-.69-.84-1.02-.6-.68-1.3-1.1-2.21-1.36-1.21-.35-2.35-.94-3.49-1.48-.82-.38-1.42-1.05-1.89-1.82-.75-1.23-1.51-2.45-2.18-3.71-1.34-2.55-1.5-5.28-1.02-8.07.08-.44.18-.87.25-1.3.45-2.69 1.59-5.04 3.39-7.08.36-.41.68-.84 1.07-1.33-.75-1.11-1.46-2.15-2.13-3.14a4.895 4.895 0 0 1 3.6-3.18c.64-.14 1.32-.2 1.97-.16 1.14.07 2.22-.11 3.22-.59 1.24-.59 2.45-1.26 3.65-1.94 1.25-.71 2.45-1.51 3.71-2.18.82-.44 1.71-.76 2.6-1.07 1.35-.47 2.75-.83 4.08-1.35 1.07-.42 2.02-.34 3 .21.77.43 1.61.73 2.39 1.14.92.47 1.89.61 2.89.45 1.91-.29 3.79-.7 5.58-1.47 1.93-.83 3.85-1.66 5.75-2.69.35-2 .76-4 1.67-5.85.9-1.82 2.23-3.27 3.91-4.54-.38-.53-.68-.98-1.01-1.4-2.8-3.54-.37-7.86 2.71-8.75.42-.12.85-.26 1.26-.4.8-.28 1.49-.71 2.02-1.38 1.3-1.64 3.13-2.62 4.89-3.62.84-.48 1.87-.62 2.83-.86 1.49-.38 2.99-.71 4.55-1.08v-1.78c.44-.06.8-.15 1.17-.15.66-.01 1.32.07 1.98.06 1.3-.03 2.38-.61 3.09-1.67 1.36-2.01 2.68-4.06 3.95-6.13.61-.99.86-2.14 1.1-3.28l.84-4.05c.47-2.28 1.55-4.26 3.17-5.91 1.04-1.06 2.17-2.06 3.35-2.96 2.64-2.01 5.48-3.73 8.36-5.37.71-.4 1.51-.66 2.27-.99.61-.26 1.23-.49 1.82-.76 1.7-.79 3.05-.12 3.44 1.73.79 3.68 1.34 7.39 1.52 11.15.09 1.84-.06 3.65-.54 5.42a259.3 259.3 0 0 1-1.76 6.21c-.17.58-.41 1.15-.73 1.66-1.36 2.15-2.69 4.31-4.37 6.23-.99 1.13-1.71 2.43-2.37 3.89.32.13.6.33.89.35 1.57.13 3 .74 4.43 1.29 1.42.55 2.09 1.76 2.21 3.24.06.71-.05 1.43-.13 2.14-.03.53-.15 1.08-.24 1.62zm-51.96 66.39c-.29-.03-.58-.07-.72-.39a7.639 7.639 0 0 0 2.9-3.09c.33-.63.79-1.2 1.18-1.8 1.03-1.56 2.42-2.72 4.04-3.6 2.2-1.2 4.56-1.97 7.03-2.37 1.3-.21 2.64-.27 3.96-.22 2.95.12 5.77.87 8.49 2.03 1.17.5 2.35.98 3.56 1.33 3.68 1.09 7.4 1.8 11.25.86.21-.05.44-.05.66-.08 2.13-.35 4.22-.83 6.22-1.65 3.27-1.34 6.55-2.65 9.82-3.98 1.22-.5 2.45-1.02 3.64-1.6 2.32-1.14 3.75-3.04 4.43-5.5.35-1.25.31-2.51-.06-3.76-.21-.71-.63-1.13-1.38-1.23-1.83-.24-3.62-.27-5.39.39-1.08.41-2.2.72-3.3 1.08-2.94.94-5.95 1.1-9 .71-1.2-.15-2.41-.31-3.61-.46-2.36-.29-4.68-.75-6.91-1.63-.81-.32-1.69-.54-2.56-.63-1.48-.15-2.98-.24-4.46-.23-2.32.02-4.63.17-6.95.24-1.01.03-1.98.19-2.92.54-1.03.39-2.08.74-3.08 1.21-2.17 1.01-4.11 2.38-5.75 4.14-.24.26-.61.49-.43 1 .84-.01 1.58-.41 2.34-.68 2.1-.75 4.28-1.08 6.49-1.21.54-.03 1.11.04 1.63.17.19.05.43.39.44.6.01.22-.19.54-.38.65-.27.16-.62.2-.95.24-2.25.26-4.48.61-6.64 1.31-.73.24-1.46.51-2.16.81-1.22.52-2.39 1.16-3.64 1.59-2.83.98-4.79 2.88-6.14 5.49-.58 1.13-1.07 2.31-1.67 3.42-.57 1.07-1.15 2.15-1.87 3.12-.66.88-1.36 1.71-1.68 2.8-1.18.18-2.11.77-2.98 1.45-.26.2-.55.36-.83.53-.26.02-.53.09-.51.41.01.25.22.3.44.2l.77-.21v.61c-3.47.87-6.83 2.21-10.46 2.37-1.85.51-3.73.36-5.6.31-.44-.01-.89-.03-1.32.04-.68.11-1.28.4-1.59 1.06-.4.87-.51 1.8-.34 2.74.05.29.29.62.53.8 1.4.98 2.93 1.56 4.67 1.16.86-.2 1.73-.38 2.56-.68 1.97-.72 3.95-1.43 5.87-2.27 3.59-1.57 7.27-2.96 10.66-4.97.33-.2.69-.38 1.06-.44.28-.05.59.09.97.17-.25 1-.8 1.69-1.31 2.4-.12.17-.34.27-.53.38-1.07.67-2.16 1.33-3.22 2.02-.1.06-.12.24-.28.58 1.12-.38 2.03-.7 2.86-1.25 1.48-.97 2.97-1.92 4.43-2.92 3.51-2.41 6.79-5.13 10.49-7.27 1.44-.83 2.87-1.65 4.43-2.24 2.07-.78 4.13-1.57 6.18-2.39.37-.15.9-.15.99-.8-.46-.16-.91-.38-1.39-.49-2-.43-4.04-.73-6.08-.51-1.87.2-3.73.63-5.32 1.71-1.64 1.11-3.19 2.37-4.79 3.54-.62.46-1.22 1-1.92 1.27-1.21.47-2.23 1.19-3.21 2.01-.5.44-.96.95-1.66 1.06zm37.29-86.96c-.17.24-.33.4-.42.59-.73 1.67-1.46 3.34-2.17 5.02-.15.35-.2.74-.31 1.11-.33 1.04-.03 2.09.01 3.13.06 1.6 1.01 2.48 2.64 2.5.77.01 1.56-.09 2.32.01 1.36.17 2.23-.38 2.77-1.58.14-.3.3-.59.48-.87.73-1.17 1.44-2.35 2.23-3.49.63-.91 1.39-1.72 2.03-2.62.51-.72 1-1.47 1.36-2.26 1.47-3.29 2.63-6.68 3.33-10.22.31-1.57.58-3.17.39-4.77-.26-2.19-.61-4.37-.95-6.56-.09-.59-.22-1.2-.83-1.61-.24.06-.51.12-.76.21-2.21.76-4.16 2.02-6.17 3.19-2.45 1.43-4.6 3.24-6.69 5.14a9.285 9.285 0 0 0-2.78 4.62c-.24.91-.45 1.82-.66 2.74-1.09 4.82-3.02 9.23-6.5 12.84-.19.2-.37.42-.53.64-.18.24-.33.51-.56.88 1.77.54 3.41 1.03 5.04 1.52.26.08.54.08.81.1.09 0 .19-.08.34-.15.04-.73-.01-1.51.15-2.25.51-2.32 1.09-4.62 2.23-6.74.94-1.75 1.86-3.52 2.75-5.29.81-1.62 1.97-2.95 3.42-3.99 1.03-.73 2.17-1.3 3.29-1.91.26-.14.54-.04.66.29-.04.1-.06.24-.13.28-1.32.59-2.11 1.66-2.82 2.86-.5.85-1.19 1.59-1.78 2.39-.36.48-.74.96-.77 1.66.25.22.47.46.73.65 1.03.74 2.08 1.46 3.12 2.2.31.22.65.44.89.73.16.19.27.53.21.75-.14.52-.36 1.04-1.02 1.3-.19-.2-.35-.4-.54-.58-.31-.31-.58-.71-.96-.88-1.25-.6-2.54-1.07-3.85-1.58zm-53.8 89.48c-.33-.13-.48-.25-.6-.23-1.11.15-1.9-.33-2.58-1.16-.35-.42-.83-.72-1.24-1.1-.78-.73-2.16-.58-2.88.48-.52.77-.63 1.6-.25 2.45 2.52.25 4.97.51 7.55-.44zm10.42-3.51c-.88-.86-1.98-1.17-3.11-1.37-.48-.08-.86.17-1.14.53-.91 1.16-1.13 2.44-.57 3.92 1.12-.5 2.17-.95 3.2-1.44.69-.34 1.26-.83 1.62-1.64zm-24.64-6.27c-1.73-.43-3.38-.83-5.17-1.02.8 1.59 1.97 2.6 3.65 3.22.53-.66 1.09-1.32 1.52-2.2zm15.05-.97c.82.69 1.55 1.11 2.39 1.11.4 0 .83-.25 1.18-.5.69-.5.94-.98 1.21-2.01-1.57.42-3.14.64-4.78 1.4z"/><path d="M440.77 312.8c-.51-.22-1.02-.43-1.52-.65-1.39-.63-2.75-.65-4.15.02-1.86.89-3.64 1.87-4.99 3.48-.17.21-.4.37-.68.63-.89-.59-1.79-1.12-2.61-1.76-2.07-1.62-4.53-2.26-7-2.84-1.35-.32-2.64.08-3.81.78-.76.45-1.48.97-2.22 1.46-.51.33-1.01.66-1.57 1.02-.36-.17-.74-.27-1.04-.49-1.52-1.15-3.33-1.45-5.11-1.78-.53-.1-1.12-.08-1.64.06-3.23.81-5.68 2.64-7.13 5.69-.21.44-.4.93-.45 1.41-.21 1.99-.27 3.99.39 5.91.82 2.38 2.21 4.31 4.6 5.39.8.36 1.56.82 2.33 1.26.22.13.41.33.69.56-.27.19-.43.35-.61.42-.47.16-.95.3-1.44.39-2.73.48-5.36 1.34-7.97 2.23-1.17.4-2.34.63-3.57.57-1.15-.05-2.31.07-3.5-.09-.19-.58-.37-1.09-.54-1.61-.97-2.94-1.9-5.89-3.39-8.63a17.77 17.77 0 0 0-1.63-2.49c-.45-.59-.99-.59-1.62-.19-.32.21-.45.51-.33.85.12.36.32.7.48 1.05.61 1.36 1.22 2.72 1.81 4.09.39.91.78 1.83 1.14 2.76.31.82.62 1.66.86 2.51.86 3.08 1.69 6.18 2.54 9.27.91 3.31 1.58 6.66 1.81 10.09.07.99.25 1.97.45 2.95.29 1.47.49 2.94.5 4.44.02 3.1.36 6.17.99 9.21.58 2.77 1.48 5.44 2.74 7.97 1.78 3.56 3.82 6.98 5.93 10.35 3.08 4.92 5.81 10.04 8.12 15.38.26.61.46 1.24.69 1.87.16.45.44.76.94.83 1.15.16 2.17.83 3.37.81 1.87.66 3.79 1.23 5.61 2.02 1.65.72 2.51 2.11 2.53 3.95 0 .5-.04 1-.02 1.49.01.32.1.63.15.98.71-.11 1.34-.2 1.97-.3 1.1-.18 1.64-.92 1.43-2-.06-.32-.2-.63-.31-.94-.2-.57-.42-1.13-.61-1.65.24-.4.53-.29.76-.16.53.29 1.06.59 1.55.93.59.41 1.13.89 1.71 1.31.39.29.84.32 1.07.1.33-.32.31-.74.13-1.08-.28-.53-.59-1.09-1.02-1.48-1.51-1.35-3.16-2.43-5.32-2.33-.15.01-.31-.09-.45-.13-.29-.45-.21-.88.07-1.25.3-.39.63-.78 1.02-1.08 2.6-2.05 6.41-1.9 8.84.34.2.19.43.37.56.6 1.35 2.26 2.42 4.54 1.79 7.34-1.08 4.76-3.58 8.51-7.52 11.32-1.03.74-2.14 1.36-3.23 2.03-1.14.7-2.36.88-3.66.53-2.35-.64-4.65-1.41-6.69-2.8-.68-.47-1.42-.86-2.15-1.24a7.083 7.083 0 0 1-3.11-3.11c-.53-1.03-1.05-2.07-1.56-3.11-2.5-5.17-5.04-10.33-7.48-15.53-1.46-3.1-2.8-6.25-4.12-9.41-1.13-2.71-2.31-5.38-3.68-7.98-2.16-4.11-4.32-8.22-7.04-12-.55-.76-1.12-1.51-1.72-2.23-1.98-2.38-3.96-4.76-5.99-7.1-.83-.96-1.71-1.89-2.66-2.73-1.09-.95-2.04-2.02-2.93-3.15-5.43-6.91-10.87-13.82-16.29-20.74-.63-.8-1.34-1.44-2.26-1.9-1.49-.73-2.91-1.6-4.4-2.31-2.35-1.12-4.8-1.96-7.42-2.22-.22-.02-.45-.03-.66 0-3.34.45-6.68.84-9.91 1.86-2.98.94-4.71 2.95-5.53 5.86-.21.74-.39 1.49-.62 2.39-.33-.32-.58-.5-.76-.75a46.976 46.976 0 0 0-3.33-4.13c-1.3-1.44-2.28-3.12-3.08-4.89-.48-1.07-1.03-2.07-1.75-2.99-.86-1.09-1.38-2.35-1.79-3.74.41-.24.72-.46 1.05-.62.94-.46 1.89-.92 2.85-1.34 2.45-1.07 4.65-2.55 6.84-4.04.87-.59 1.65-1.28 2.34-2.09.64-.75 1.38-1.43 2.1-2.12.88-.86 1.58-1.84 2.15-2.92.59-1.12 1.25-2.21 1.87-3.32.22-.39.45-.77.6-1.18 1.5-4 2.73-8.05 2.6-12.41-.05-1.54-.06-3.09.2-4.63.23-1.38-.08-2.77-.36-4.11-.44-2.16-.69-4.37-1.49-6.45-.24-.63-.11-1.18.39-1.66 1.53-1.44 2.99-2.93 4.62-4.27 2.94-2.42 5.77-4.98 8.58-7.56 1.48-1.36 2.52-3.07 3.38-4.93.42-.1.84-.24 1.27-.3 3.09-.38 5.81-1.75 8.42-3.31 2.57-1.53 4.94-3.35 6.99-5.55.75-.81 1.43-1.68 2.15-2.52.61-.71 1.17-1.48 1.84-2.13 3.29-3.2 6.52-6.46 9.93-9.53 4.96-4.48 10.62-7.94 16.79-10.51 1.88-.78 3.86-1.34 5.82-1.91 3.92-1.13 7.87-2.21 11.8-3.3.27-.07.54-.19.8-.19 2.03.04 3.91-.69 5.84-1.12 2.7-.59 5.41-1.09 8.18-1.25.87-.05 1.74-.27 2.6-.48 2.52-.63 5.06-1.11 7.68-1.14 1.31-.01 2.62-.33 3.94-.5 2.14-.27 4.28-.38 6.43.03 1.02.2 2.09.19 3.14.26 2.26.14 4.49.5 6.73.88 3.54.6 7.07 1.23 10.5 2.31 3.11.97 5.87 2.51 8.36 4.6 4.34 3.65 7.76 7.99 10.21 13.11.55 1.14 1.29 2.19 1.94 3.28.33.55.86.63 1.44.63 1.99-.01 3.98-.03 5.97 0 3.35.05 6.59-.6 9.8-1.48.64-.18 1.27-.38 1.92-.53 3.53-.81 6.79-2.26 9.88-4.15 1.7-1.04 3.41-2.05 5.12-3.06 1.1-.65 2.08-1.45 3.02-2.31 1.31-1.19 2.6-2.41 4.02-3.45 2.23-1.65 4.2-3.59 6.3-5.38 2.99-2.55 6.02-5.04 9.08-7.49 2.03-1.62 4.32-2.88 6.58-4.15 1.59-.89 3.27-1.59 4.92-2.35 2.68-1.25 5.5-1.98 8.34-2.65 1.71-.4 3.48-.63 5.24-.76 2.64-.2 5.28-.54 7.94-.23 1.04.12 2.1.07 3.15.12 2.93.15 5.83.43 8.65 1.32 2.05.64 4.16 1.11 6.23 1.71 3.31.95 6.71 1.32 10.12 1.61 3.19.27 6.38.58 9.57.88.11.01.22.04.33.04 3.81.08 7.61.45 11.43.36 1.38-.03 2.73-.21 4.04-.75 1.39-.57 2.87-.77 4.37-.85 1.79-.09 3.5-.44 5.08-1.35.38-.22.81-.34 1.24-.46 2.6-.76 5.2-1.49 7.79-2.28.84-.26 1.63-.68 2.44-1.02.96-.41 1.93-.8 2.88-1.24.55-.25 1.08-.55 1.58-.88 1.29-.85 2.55-1.76 3.85-2.58 1.83-1.15 3.76-2.11 5.81-2.79 1.99-.66 4-1.29 5.97-1.99 1.37-.49 2.77-.7 4.22-.67 1.44.03 2.88-.04 4.31.02.93.04 1.87.17 2.79.38 1.7.37 2.96 1.47 4.03 2.76 2.17 2.63 2.89 5.65 2.29 9.01-.48 2.67-1.45 5.11-3.32 7.11-1.48 1.58-3.13 2.98-5.07 3.97-1.57.8-3.2 1.5-4.84 2.15-3.18 1.27-6.41 2.4-9.72 3.32-1.66.46-3.34.74-5.05.86-2.26.16-4.51.36-6.77.53-.61.05-1.22.1-1.82.06-3.36-.25-6.72-.54-10.07-.81-.94-.07-1.9.01-2.81-.2-3.11-.72-6.33-1.03-9.3-2.33-2.02-.88-4.11-1.63-6.13-2.52-3.65-1.61-7.43-2.83-11.22-4.05-.94-.3-1.94-.41-2.92-.58-3.77-.64-7.57-.93-11.38-.98-1.86-.03-3.74.31-5.57.67-1.9.37-3.8.69-5.72.91-1.03.12-2.05.44-3.03.8-2.64.98-5.26 2.01-7.88 3.04-.82.32-1.62.7-2.42 1.07-1.66.76-3.32 1.5-5.12 1.87-.48.1-.94.31-1.4.5-.86.37-1.72.76-2.57 1.14-1.72.77-3.47 1.4-5.37 1.63-2.03.25-4.04.6-6.05.94-2.03.35-4.07.33-6.12.35-1.5.01-2.98.2-4.41.65-3.31 1.06-6.6 2.18-9.91 3.26-.8.26-1.53.63-2.22 1.1-1.56 1.05-3.13 2.08-4.69 3.12-.51.34-1.03.66-1.49 1.05-2.41 2.02-4.88 3.98-7.19 6.12-3.4 3.16-6.7 6.43-10.01 9.69-1.86 1.84-3.85 3.48-6.07 4.86-2.39 1.48-2.44 1.52-2.87 4.64-.58 4.24-.44 8.5-.3 12.75.03.88.18 1.76.27 2.64.19 2.03.43 4.07.54 6.11.07 1.43.03 2.87-.09 4.3-.24 2.7-.52 5.39-.88 8.07-.4 3.01-1.05 5.98-1.87 8.91-.81 2.87-1.54 5.76-2.35 8.63-1.05 3.69-2.55 7.18-4.84 10.3-.23.31-.46.63-.63.97-1 2.05-2.36 3.86-3.72 5.67-.26.35-.55.69-.86 1-.36.35-.78.61-1.44.56-.14-.44-.35-.89-.42-1.35-.46-3.17-.83-6.36-.74-9.58.04-1.46.43-2.83.95-4.18.2-.52.43-1.02.6-1.54.2-.61-.13-1.11-.76-1.2-1.09-.16-1.97.31-2.45 1.26-1.38 2.75-1.75 5.69-1.47 8.71.19 1.98.54 3.94.77 5.92.16 1.38.55 2.7.98 4.02 1.14 3.46 2.26 6.93 3.45 10.38.99 2.89 1.68 5.86 1.83 8.9.12 2.47-.01 4.98-.61 7.41-.66 2.68-2.17 4.81-4.49 6.35-2.18 1.45-4.56 2.46-7.06 3.22-.52.16-.96.12-1.44-.08-1.83-.75-3.42-1.84-4.52-3.5-1.8-2.72-3.64-5.42-5.3-8.22-1.86-3.14-3.85-6.2-5.94-9.19-.82-1.18-1.6-2.39-2.44-3.55-2.29-3.18-5.26-5.5-8.93-6.88-2.32-.87-4.7-1.61-7.17-1.96-3.99-.58-7.93-.44-11.83.6-2.14.57-4.23 1.27-6.24 2.21-.1.05-.2.1-.3.14-1.63.66-3.26 1.33-4.98 2.03-1.69-.86-3.35-1.96-4.95-3.12-2.91-2.12-6.03-3.91-9.1-5.77-.47-.28-.99-.5-1.49-.73-1.52-.69-2.66-1.79-3.33-3.32-.96-2.18-1.33-4.44-.71-6.79.75-2.81 3.33-4.76 6.22-4.81 2.21-.04 4.06.92 5.87 2.01.5.3.72.81.9 1.35.43 1.25.86 2.51 1.32 3.75.66 1.77 1.59 3.4 2.63 4.97.14.21.34.39.49.55.39-.1.35-.34.33-.55-.15-1.16-.48-2.27-.97-3.33-.51-1.11-.99-2.22-1.54-3.3-.52-1.02-.66-2.09-.67-3.21-.01-.86.33-1.5 1.04-1.94 1.29-.8 2.68-1.3 4.19-1.47.32-.04.67-.02.98.07 1.32.39 2.65.78 3.95 1.23 1.92.67 3.4 2.03 4.93 3.31.39.33.6.79.62 1.32.05 1.76.62 3.34 1.56 4.82.44.7.75 1.48 1.11 2.21.78.33 1.53.64 2.39 1 .05-.3.17-.53.11-.69-.18-.46-.41-.9-.67-1.32-.61-.99-1.17-2.02-1.9-2.91-1.36-1.66-.88-5.21 1.35-6.6.42-.26.86-.5 1.28-.76 1.6-.99 3.26-1.31 5.04-.46 3.58.76 6.08 3.06 8.15 5.87 1.21 1.64 2.29 3.39 3.28 5.17 1.73 3.08 3.36 6.23 5.02 9.35.6 1.13 1.25 2.21 2.09 3.18.22.25.47.51.58.8.45 1.21 1.42 1.92 2.37 2.69 1.64 1.33 3.42 2.41 5.36 3.25 2.48 1.08 4.9 2.3 7.2 3.75.46.29.95.54 1.47.83.29-.28.56-.47.73-.73.25-.38.21-.78-.13-1.05-.38-.31-.8-.58-1.24-.8-2.26-1.15-4.54-2.3-6.81-3.42-.9-.44-1.74-.95-2.49-1.63-1.18-1.08-2.43-2.1-3.55-3.23-.85-.86-1.56-1.86-2.32-2.81-.48-.61-.91-1.25-1.39-1.86-1.21-1.53-2.2-3.19-2.89-5.01-1.64-4.3-4.11-8.06-7.15-11.47-.99-1.12-1.97-2.23-3.23-3.07-1.06-.7-1.45-1.74-1.17-2.99.13-.59-.13-1.08-.34-1.59-.58-1.38-1.18-2.74-1.72-4.13-.34-.87-.58-1.79-.85-2.68-.44-1.42-.83-2.86-1.31-4.27-1.07-3.15-1.17-6.37-.87-9.66.37-3.98 2.28-7.22 4.66-10.26a24.84 24.84 0 0 1 3.55-3.7c1.81-1.53 3.83-2.61 6.07-3.31 2.53-.78 5.1-1.48 7.59-2.35 2.81-.99 5.57-2.14 8.35-3.22.1-.04.23-.08.28-.16.08-.12.15-.28.15-.43 0-.07-.12-.2-.21-.22-.26-.05-.55-.13-.81-.09-1.09.17-2.19.32-3.26.59-3.91.99-7.84 1.91-11.63 3.28-.21.08-.41.17-.63.21-2.39.43-4.48 1.53-6.41 2.97-.66.49-1.41.89-2.05 1.4-.73.58-1.5 1.17-2.06 1.9a89.45 89.45 0 0 0-3.96 5.52c-1.69 2.59-2.63 5.46-2.92 8.54-.02.22-.06.44-.04.66.24 2.63.13 5.3.87 7.89 1.37 4.8 3.24 9.39 5.43 13.86-.14.07-.24.19-.33.31zm-16.96 17.91c.68-.1 1.4-.14 2.09-.32 2.24-.59 3.5-2.8 2.85-5-.25-.84-.56-1.68-.96-2.46-1.33-2.6-3.34-4.49-6.08-5.57-1.06-.42-2.04-.29-3 .29-1.64.99-2.58 2.89-2.24 4.8.17.97.45 1.94.81 2.85.68 1.72 1.74 3.18 3.25 4.3.98.7 2.08.99 3.28 1.11zm-8.67-1.16c0-.11.01-.22 0-.33-.01-.17-.02-.33-.06-.49-.98-4.08-3.58-6.76-7.35-8.38-.87-.38-1.74-.18-2.5.39a8.719 8.719 0 0 0-2.45 2.88c-.27.51-.34 1.05-.22 1.61.28 1.27.81 2.4 1.78 3.3 1.79 1.67 3.77 3.06 6.02 4.06.45.2.93.38 1.41.48 1.13.23 2.23-.29 2.83-1.28.41-.7.55-1.45.54-2.24zm22.38-11.63c-.16 0-.5-.04-.82.01-1.25.16-2.19.72-2.48 2.06-.14.65-.33 1.28-.46 1.93-.31 1.56.22 2.84 1.38 3.86 1.32 1.17 2.71 2.26 4.05 3.41.97.83 2.09 1.23 3.34 1.25 2.35.03 3.94-2.02 3.23-4.25-.33-1.04-.83-2.05-1.33-3.02-.89-1.7-2.32-2.92-3.74-4.16-.89-.78-1.82-1.25-3.17-1.09z" class="st3"/><path fill="#db8b26" d="M343.4 360.91c1.44.38 2.55.66 3.66.96 2.24.6 4.47 1.23 6.78 1.51.11.01.22.03.32.06 2.96 1.07 6.07 1.06 9.14 1.26.94.06 1.87.14 2.81.21.61.05 1.21.11 1.77.62-.03.26-.06.58-.1.89l-.87 6.39c-.1.77-.16 1.54-.31 2.3-.26 1.31-.37 2.62-.31 3.95.02.38-.09.76-.14 1.14-.05.38-.15.76-.14 1.15.02 1.33-.11 2.64-.22 3.96-.14 1.7.21 3.42.91 5.01 1.39 3.14 3.05 6.13 5.12 8.89 1.46 1.94 2.93 3.88 4.36 5.84.65.89 1.24 1.83 1.85 2.75.09.14.16.29.26.42.33.46.69.87 1.31.91.68.04 1.17-.24 1.5-.92-.52-1.38-1.75-2.34-2.44-3.64.04-.39.36-.36.61-.41.47-.09.79-.37 1.01-.78 1.49-2.79 3.97-3.83 6.98-3.91.33-.01.66.04.99.07.03 0 .06.08.14.21-.1.13-.19.32-.34.45-.61.56-1.24 1.1-1.86 1.65-.29.26-.59.5-.88.76-.47.42-.82.91-.7 1.59.08.48.39.74 1.37 1.22.33-.28.71-.58 1.07-.91.44-.41.84-.88 1.3-1.28 1.65-1.41 3.54-1.97 5.7-1.52.27.06.56.11.78.25.84.56 1.04 1.53 1.44 2.37.26.54.24 1.06-.01 1.6-.05.1-.08.21-.11.31-1.15 3.18-1.15 3.18-3.55 5.66-.84.87-1.67 1.77-2.56 2.6-.39.37-.87.71-1.37.87-.91.28-1.73.7-2.53 1.2-2.13 1.33-4.44 2.22-6.85 2.85-.69.18-1.39.35-2.08.53-1.22.31-2.39.28-3.53-.35-1.06-.59-2.17-1.1-3.25-1.65-.62-.31-1.08-.73-1.13-1.51-.03-.37-.22-.74-.37-1.09-.39-.91-.79-1.82-1.2-2.73-1.18-2.62-2.13-5.32-2.78-8.13-.71-3.06-1.55-6.1-2.35-9.14-.76-2.9-1.95-5.63-3.32-8.29-.53-1.03-.96-2.11-1.49-3.14-.76-1.47-1.53-2.94-2.39-4.35-1.78-2.92-3.6-5.83-5.46-8.7-1.11-1.71-2.31-3.37-3.51-5.03-1.06-1.48-2.07-2.99-3.03-4.93z"/><path d="M349.17 375.13c-1.63.41-2.94.01-4.21-.56-.97-.43-1.8-1.08-2.53-1.85-1.56-1.64-3.12-3.28-4.67-4.93-.23-.24-.43-.51-.59-.79-1.44-2.58-3.48-4.7-5.27-7.01-.54-.7-1.16-1.33-1.74-2a31.715 31.715 0 0 0-8.14-6.72c-.53-.3-1.08-.55-1.62-.83-2.03-1.04-4.16-1.09-6.28-.41-2.05.66-4.05 1.45-6.07 2.19-1.66.6-3.32 1.19-4.99 1.79-.31.11-.63.22-.95.29-1.72.36-3.46.6-5.14 1.17-.96.33-1.97.25-2.95.07-.71-.13-1.41-.17-2.13.01-.35.09-.76.02-1.12-.07-2.58-.67-5-1.74-7.41-2.84-2-.91-4.2-3.7-3.77-6.8.07-.49.06-.99.11-1.49.16-1.51.96-2.61 2.34-3.16 1.12-.44 2.32-.73 3.5-1 .98-.22 1.73.22 2.22 1.06.73 1.26 1.77 2.25 2.8 3.26.16.15.31.32.48.46.26.22.53.4.89.21.38-.2.58-.56.55-.95-.04-.56-.31-1.05-.74-1.44-.83-.74-1.53-1.6-2.09-2.56-.17-.29-.32-.58-.47-.87-.22-.44-.17-.9.16-1.23.38-.38.81-.76 1.29-1 1.7-.82 3.51-1.33 5.38-1.6.87-.13 1.76-.11 2.63.16.95.29 1.91.55 2.87.79.9.22 1.43.77 1.64 1.66.06.27.16.53.24.79.32.96.89 1.65 2.08 1.72 0-.25.08-.54-.01-.74-.85-1.73-.45-3.59-.52-5.39-.01-.3.16-.66.36-.9 1.39-1.63 3.05-2.73 5.31-2.5.54.06 1.09.2 1.59.4.71.29 1.38.68 2.08 1.03.61.31 1.04.76 1.39 1.37 1.01 1.79 2.21 3.44 3.67 4.89.16.16.31.32.44.5 1.11 1.6 2.37 3.05 3.78 4.38.6.56 1.06 1.27 1.58 1.91 2.85 3.55 6.07 6.73 9.7 9.47 1.42 1.07 2.65 2.29 3.65 3.79 3.11 4.63 6.3 9.21 9.45 13.82.34.5.66 1.02.95 1.55.13.23.16.5.28.9zm-41.95-37.9c-.03 2.72.92 4.06 3.49 4.95 1.11.38 2.24.58 3.41.59.93.01 1.73-.28 2.48-.79.8-.55.98-.94.56-1.8-.66-1.33-1.4-2.63-2.15-3.92-.22-.37-.55-.7-.88-.98-1.32-1.12-2.84-1.68-4.59-1.44-1.37.19-2.18 1.04-2.31 2.41-.03.31-.01.65-.01.98zm-20.73 6.9c-2.08-.18-3.15 1.1-3.6 2.31-.16.44-.18.85.01 1.29.7 1.61 1.56 3.06 3.37 3.64.21.07.4.18.6.28 2.17 1.05 2.28 1.05 4.29-.05.05-.03.1-.05.15-.08.92-.56 1.28-1.37.96-2.4-.2-.63-.52-1.22-.8-1.82-1.02-2.2-2.76-3.22-4.98-3.17zm13.63 3.42c.46-.14.98-.19 1.38-.43 1.52-.9 1.94-3 .93-4.46-.92-1.34-2.17-2.31-3.56-3.13-1.23-.71-2.31-.47-3.35.36-1.43 1.14-1.64 2.6-.51 4.03.64.82 1.36 1.59 2.11 2.32.82.79 1.8 1.28 3 1.31z" class="st6"/><path fill="#e99419" d="M332.07 273.68c.1-.13.19-.27.31-.38 2.38-2.37 4.19-5.11 5.47-8.2.25-.61.53-1.21.79-1.82.13-.3.25-.61.42-.9.62-1.03 1.27-1.16 2.13-.36.48.45.87.99 1.31 1.49.22.25.42.51.67.71.09.07.3.03.44-.02.07-.03.14-.19.13-.28-.04-.27-.07-.55-.18-.79-.25-.55-.55-1.07-.84-1.63.06-.15.08-.34.18-.44.91-.88.39-1.62-.53-2.05-.34-.16-.7-.3-1.16-.49.1-.33.13-.67.3-.9.56-.75 1.11-1.52 1.77-2.17 1.87-1.85 4.03-3.24 6.55-4.06.58-.19 1.15-.35 1.87-.19-.08.32-.12.57-.21.81-.97 2.34-1.98 4.67-2.91 7.03-.76 1.94-1.99 3.55-3.39 5.05a36.454 36.454 0 0 1-4.65 4.22c-1.98 1.5-3.97 2.98-5.97 4.45-.66.49-1.37.91-2.06 1.36l-.44-.44z"/><path fill="#f2f1f1" d="M415.11 405.65c1.76-.9 3.37-1.48 5.34-1.17-.48.95-.89 1.76-1.32 2.6-1.49-.01-2.72-.5-4.02-1.43z"/><path d="M332.07 273.68c.14.14.28.28.43.42-.21.12-.42.25-.64.37-.07-.09-.14-.16-.23-.24.15-.18.29-.37.44-.55z" class="st9"/><path d="M331.86 274.47c-.09.06-.16.16-.26.18-.09.02-.19-.05-.28-.08.06-.08.11-.17.18-.25.03-.04.09-.06.13-.08.08.07.16.14.23.23z" class="st9"/><path d="M441.37 312.8c.06.09.18.21.16.25-.12.22-.26.1-.38-.02.07-.08.14-.16.22-.23z" class="st3"/><path d="M441.06 312.44c.1.12.21.24.31.36-.08.07-.15.15-.22.23-.13-.08-.25-.16-.38-.23.09-.12.19-.24.29-.36z" class="st3"/><path d="M289.42 269.15c-.71-.29-1.33-.51-1.92-.8-1.58-.76-3.17-.83-4.82-.26-1.18.41-2.38.75-3.54 1.12.01.56.4.62.67.75 1.27.64 2.02 1.69 2.42 3.01.32 1.06.55 2.14.48 3.26-.13 2.1-.6 4.13-1.2 6.21-.39-.04-.71-.03-1.01-.1-.54-.13-1.07-.28-1.59-.45-1.54-.5-3.11-.76-4.73-.56-.27.03-.55.03-.83 0-.51-.05-.97-.21-1.25-.79 1.15-1.5 2.75-2.63 3.88-4.13-.18-.43-.49-.33-.74-.33-1.22-.01-2.43 0-3.65-.01-.37 0-.75-.07-1.24-.13.19-1.05.37-2.01.56-3.07-.4-.06-.7-.15-1-.16-.72-.01-1.44.07-2.15.02-.65-.04-1.31-.16-1.95-.31-1.01-.23-1.4-1-1.53-1.94-.04-.31.26-.68.58-.68.38.01.78.03 1.15.12 1.62.4 3.16.26 4.67-.5.89-.45 1.85-.74 2.73-1.2 3.07-1.61 6.46-2.2 9.75-3.13.6-.17 1.19-.18 1.8-.03.96.25 1.93.47 2.89.73.68.18 1.15.65 1.48 1.25.32.61.52 1.23.09 2.11z" class="st10"/><path fill="#855e38" d="M301.61 261.98c-.08.15-.13.24-.18.33-.11-.08-.24-.14-.33-.24-.02-.02.1-.23.14-.23.12.01.24.09.37.14z"/><path fill="#ec90b1" d="M242.85 328.81c.28-.18.57-.33.83-.53.88-.69 1.8-1.27 2.98-1.45.32-1.09 1.02-1.92 1.68-2.8.72-.97 1.3-2.05 1.87-3.12.6-1.12 1.09-2.3 1.67-3.42 1.35-2.61 3.31-4.5 6.14-5.49 1.25-.43 2.42-1.07 3.64-1.59.71-.3 1.43-.57 2.16-.81 2.16-.71 4.39-1.06 6.64-1.31.32-.04.68-.08.95-.24.2-.12.39-.43.38-.65-.01-.22-.24-.56-.44-.6a5.62 5.62 0 0 0-1.63-.17c-2.21.13-4.39.46-6.49 1.21-.76.27-1.5.67-2.34.68-.18-.51.19-.74.43-1 1.64-1.76 3.57-3.13 5.75-4.14 1-.46 2.05-.82 3.08-1.21.94-.35 1.91-.51 2.92-.54 2.32-.06 4.63-.21 6.95-.24 1.49-.02 2.98.07 4.46.23.87.09 1.75.31 2.56.63 2.23.87 4.55 1.33 6.91 1.63 1.2.15 2.41.3 3.61.46 3.05.39 6.06.23 9-.71 1.1-.35 2.22-.67 3.3-1.08 1.77-.67 3.56-.63 5.39-.39.76.1 1.18.52 1.38 1.23.37 1.25.4 2.51.06 3.76-.68 2.46-2.11 4.36-4.43 5.5-1.19.58-2.41 1.1-3.64 1.6-3.27 1.34-6.55 2.64-9.82 3.98-2.01.83-4.1 1.31-6.22 1.65-.22.04-.44.03-.66.08-3.84.94-7.56.22-11.25-.86-1.21-.36-2.4-.84-3.56-1.33-2.72-1.16-5.54-1.91-8.49-2.03-1.32-.05-2.66.01-3.96.22-2.46.4-4.83 1.17-7.03 2.37-1.62.89-3.01 2.04-4.04 3.6-.4.6-.85 1.17-1.18 1.8a7.775 7.775 0 0 1-2.9 3.09c-1.98.8-3.97 1.6-5.95 2.4l-.77.21c.01-.22.03-.42.06-.62z"/><path d="M287.52 240.22c1.31.51 2.6.98 3.85 1.54.38.17.65.57.96.88.19.18.35.38.54.58.66-.26.88-.78 1.02-1.3.06-.22-.06-.56-.21-.75-.24-.29-.57-.51-.89-.73-1.04-.74-2.08-1.46-3.12-2.2-.26-.19-.48-.43-.73-.65.03-.7.41-1.18.77-1.66.59-.8 1.28-1.54 1.78-2.39.71-1.2 1.5-2.28 2.82-2.86.07-.03.09-.18.13-.28-.12-.33-.4-.43-.66-.29-1.11.61-2.26 1.18-3.29 1.91a10.824 10.824 0 0 0-3.42 3.99c-.89 1.78-1.81 3.54-2.75 5.29-1.13 2.12-1.71 4.42-2.23 6.74-.16.74-.11 1.52-.15 2.25-.15.07-.25.15-.34.15-.27-.01-.55-.02-.81-.1-1.64-.48-3.27-.98-5.04-1.52.24-.37.39-.63.56-.88.16-.22.34-.44.53-.64 3.49-3.61 5.41-8.01 6.5-12.84.21-.92.42-1.83.66-2.74a9.285 9.285 0 0 1 2.78-4.62c2.08-1.9 4.23-3.71 6.69-5.14 2-1.17 3.95-2.43 6.17-3.19.26-.09.52-.14.76-.21.61.41.73 1.02.83 1.61.34 2.18.68 4.36.95 6.56.19 1.6-.07 3.2-.39 4.77-.71 3.53-1.87 6.93-3.33 10.22-.36.8-.85 1.55-1.36 2.26-.64.9-1.4 1.72-2.03 2.62-.79 1.13-1.49 2.32-2.23 3.49-.18.28-.34.57-.48.87-.55 1.2-1.42 1.75-2.77 1.58-.76-.1-1.54 0-2.32-.01-1.63-.02-2.58-.9-2.64-2.5-.04-1.04-.34-2.08-.01-3.13.12-.37.17-.76.31-1.11.71-1.68 1.44-3.35 2.17-5.02.09-.15.25-.31.42-.55z" class="st6"/><path fill="#d88a28" d="M250.23 327.18c.7-.12 1.16-.63 1.66-1.05.98-.82 2-1.54 3.21-2.01.7-.27 1.3-.82 1.92-1.27 1.6-1.18 3.15-2.43 4.79-3.54 1.59-1.07 3.44-1.5 5.32-1.71 2.05-.22 4.08.08 6.08.51.48.1.93.32 1.39.49-.08.65-.62.65-.99.8-2.05.82-4.12 1.6-6.18 2.39-1.56.59-2.99 1.4-4.43 2.24-3.7 2.14-6.98 4.86-10.49 7.27-1.46 1-2.95 1.95-4.43 2.92-.83.54-1.74.87-2.86 1.25.16-.33.18-.51.28-.58 1.07-.68 2.15-1.34 3.22-2.02.18-.12.41-.22.53-.38.51-.7 1.06-1.39 1.31-2.4-.39-.07-.7-.22-.97-.17-.37.07-.73.25-1.06.44-3.39 2.01-7.06 3.41-10.66 4.97-1.92.84-3.9 1.55-5.87 2.27-.83.3-1.7.48-2.56.68-1.75.4-3.27-.19-4.67-1.16-.25-.17-.48-.5-.53-.8-.17-.94-.07-1.87.34-2.74.31-.66.91-.95 1.59-1.06.43-.07.88-.05 1.32-.04 1.88.05 3.76.2 5.6-.31 3.63-.16 6.99-1.51 10.46-2.37 2.39-.45 4.6-1.38 6.68-2.62z"/><path fill="#f4f3f3" d="M233.72 329.7c-2.58.96-5.03.69-7.55.45-.38-.86-.27-1.68.25-2.45.72-1.06 2.11-1.21 2.88-.48.4.38.89.68 1.24 1.1.68.83 1.47 1.31 2.58 1.16.13-.03.27.08.6.22z"/><path fill="#f4f4f4" d="M244.14 326.19c-.35.81-.93 1.3-1.62 1.64-1.03.49-2.08.94-3.2 1.44-.56-1.48-.35-2.75.57-3.92.28-.36.67-.61 1.14-.53 1.13.19 2.22.5 3.11 1.37z"/><path fill="#f1f0f1" d="M219.5 319.92c-.43.88-.99 1.54-1.52 2.21-1.68-.62-2.85-1.64-3.65-3.22 1.78.18 3.44.58 5.17 1.01z"/><path fill="#ebe9ea" d="M234.55 318.95c1.65-.76 3.22-.98 4.77-1.4-.27 1.03-.52 1.51-1.21 2.01-.34.25-.78.49-1.18.5-.84 0-1.56-.42-2.38-1.11z"/><path d="M250.23 327.18c-2.08 1.24-4.29 2.16-6.68 2.62v-.61c1.98-.8 3.97-1.6 5.95-2.4.15.32.44.36.73.39zM242.85 328.81l-.06.61c-.22.1-.43.05-.44-.2-.03-.32.23-.4.5-.41z" class="st18"/><path d="M423.81 330.71c-1.2-.12-2.3-.41-3.27-1.12-1.51-1.12-2.57-2.58-3.25-4.3-.36-.92-.64-1.88-.81-2.85-.34-1.91.6-3.81 2.24-4.8.96-.58 1.93-.71 3-.29 2.74 1.08 4.75 2.97 6.08 5.57.4.78.71 1.62.96 2.46.65 2.21-.61 4.42-2.85 5-.69.19-1.42.23-2.1.33zM415.14 329.55c.01.79-.12 1.54-.54 2.23-.6.99-1.7 1.51-2.83 1.28-.48-.1-.96-.28-1.41-.48-2.25-.99-4.23-2.38-6.02-4.06-.97-.9-1.5-2.03-1.78-3.3-.12-.56-.06-1.09.22-1.61.61-1.14 1.42-2.1 2.45-2.88.76-.57 1.63-.77 2.5-.39 3.76 1.63 6.37 4.3 7.35 8.38.04.16.05.33.06.49v.34z" class="st19"/><path d="M437.52 317.92c1.36-.17 2.28.31 3.17 1.08 1.42 1.24 2.85 2.47 3.74 4.16.51.97 1 1.98 1.33 3.02.71 2.22-.87 4.28-3.23 4.25-1.25-.02-2.37-.42-3.34-1.25-1.34-1.15-2.73-2.24-4.05-3.41-1.16-1.02-1.69-2.3-1.38-3.86.13-.65.32-1.28.46-1.93.29-1.34 1.22-1.9 2.48-2.06.32-.04.65 0 .82 0zM307.22 337.23c0-.33-.03-.67 0-.99.13-1.37.94-2.22 2.31-2.41 1.75-.24 3.27.32 4.59 1.44.33.28.67.61.88.98.75 1.29 1.49 2.59 2.15 3.92.43.86.25 1.26-.56 1.8-.75.51-1.55.8-2.48.79-1.17-.01-2.31-.21-3.41-.59-2.56-.89-3.51-2.22-3.48-4.94z" class="st20"/><path d="M286.49 344.13c2.22-.05 3.97.97 4.98 3.17.28.6.6 1.19.8 1.82.32 1.03-.04 1.84-.96 2.4-.05.03-.1.05-.15.08-2.01 1.1-2.12 1.1-4.29.05-.2-.1-.39-.21-.6-.28-1.81-.58-2.67-2.03-3.37-3.64-.19-.43-.17-.85-.01-1.29.45-1.21 1.52-2.49 3.6-2.31z" class="st10"/><path d="M300.12 347.55c-1.2-.04-2.18-.52-2.99-1.32-.74-.73-1.46-1.5-2.11-2.32-1.13-1.44-.92-2.89.51-4.03 1.04-.83 2.12-1.07 3.35-.36 1.4.81 2.64 1.78 3.56 3.13 1 1.47.58 3.56-.93 4.46-.41.25-.92.31-1.39.44z" class="st20"/></svg>