<svg xmlns="http://www.w3.org/2000/svg" xml:space="preserve" id="Layer_1" x="0" y="0" version="1.1" viewBox="184.82 81.99 402.79 431.26"><style>.st1{fill:#9b9391}.st2{fill:#77716f}.st4{fill:#efedf7}.st6{fill:#fdee67}.st7{fill:#eeecf7}.st9{fill:#7c183b}.st10{fill:#eceaf4}.st12{fill:#fcfcfc}.st13{fill:#e1161c}.st14{fill:#e9e7f2}.st15{fill:#eae9f3}.st16{fill:#2b255a}.st18{fill:#eeeeef}.st19{fill:#3b342c}.st20{fill:#e2e0e0}.st21{fill:#bab7b7}.st23{fill:#2d2724}.st24{fill:#302a26}.st25{fill:#84263f}</style><path fill="#181511" d="M185.35 425.17c.53-9.09 2.28-17.94 5.44-26.49 5.16-13.96 13.32-25.92 24.38-35.87 7.99-7.18 17.12-12.49 27.23-16.14.44-.16.88-.34 1.31-.52.09-.04.14-.15.22-.23-.32-.74-.84-1.3-1.52-1.73-1.6-1-3.17-2.04-4.79-3-.85-.5-1.79-.84-2.77-1.29-.21-.79-.81-1.34-1.55-1.79-.94-.57-1.71-1.35-2.45-2.18.28-.37.6-.28.85-.17.38.17.7.44 1.06.66.3.18.61.34 1.01.55.15-.96-.26-1.64-.57-2.34-.96-2.21-1.76-4.48-2.28-6.83-.31-1.38-.51-2.78-.74-4.17-.32-1.91-.79-3.79-.8-5.74 0-.77-.28-1.54-.44-2.31-.11-.52-.21-1.02.02-1.54.29-.65.2-1.34.13-2.01-.23-2.24-.47-4.47-.45-6.73.01-.67-.13-1.36-.33-2-.38-1.22-.19-2.22.7-3.17 1-1.07 1.92-2.22 2.86-3.34 1.12-1.34 2.42-2.45 3.89-3.4 2.83-1.82 5.82-3.29 9.12-4.05.91-.21 1.85-.35 2.77-.51.57-.1 1.14-.15 1.7-.27.74-.16 1.45-.22 2.11.3.24-.24.41-.51.66-.62.21-.09.52-.03.77.02 1.75.35 3.43.91 5.08 1.58 4.38 1.8 8.46 4.12 12.06 7.22 2.94 2.53 5.9 5.03 8.76 7.65 2 1.84 3.83 3.87 5.76 5.79.58.58.94 1.25 1.16 2.01.72 2.43 1.08 4.9 1 7.43-.02.52 0 1.04.06 1.56.01.09.27.16.41.24.08-.13.12-.18.12-.23.12-1.93.4-3.86.33-5.78-.12-3.06.22-6.06.74-9.06.51-2.94.99-5.88 1.47-8.82.27-1.65.48-3.32.83-4.95.33-1.55-.16-2.63-1.48-3.45-3.95-2.47-7.87-4.98-11.81-7.46-7.17-4.52-14.34-9.03-21.53-13.53-1.39-.87-2.41-1.96-2.87-3.58-.33-1.18-.14-2.28.24-3.38.08-.24.24-.47.43-.64.71-.62 1.42-1.24 2.16-1.82.67-.53 1.44-.84 2.27-1.01 3.48-.73 6.96-1.45 10.43-2.2 1.39-.3 2.77-.47 4.19-.41 1.37.06 2.71-.24 4.01-.67 1.29-.43 2.55-.93 3.79-1.48 1.52-.67 2.78-1.72 3.6-3.16 1.03-1.8 2.53-3.03 4.31-4.01 1.05-.58 2.11-1.16 3.15-1.76.49-.29.97-.63 1.41-.99.64-.51.99-1.16 1.04-2.02.11-1.75 1.14-2.92 2.81-3.3 1.05-.24 1.98.07 2.77.75.83.71.94 1.8.29 2.68-.27.37-.63.72-1.03.93-2.34 1.2-4.41 2.81-6.54 4.33-.34.24-.66.52-1.02.73-2.75 1.61-4.83 3.99-7.12 6.13-.1.1-.15.25-.22.37.22.38.57.25.84.23 1.25-.08 2.5-.19 3.76-.29.21-.02.42-.04.62-.08.62-.11 1.06-.46 1.24-1.07.84-2.95 2.88-4.92 5.3-6.59.21-.15.43-.31.67-.41 2.69-1.18 5.44-2.14 8.38-2.49.88-.11 1.77-.19 2.64-.34.66-.11 1.31-.3 1.99-.46.1-.21.21-.38.28-.58.46-1.25 1.42-1.72 2.68-1.78 1.04-.05 2.08-.18 3.12-.27.71-.06 1.28-.41 1.8-.87 5.19-4.73 11.32-7.61 18.1-9.24 1.83-.44 3.65-.88 5.57-1.33.11-.38.28-.77.34-1.17.62-4.26 1.84-8.37 3.02-12.49 1.35-4.72 2.69-9.45 4-14.19 1.63-5.9 3.66-11.67 5.86-17.38 1.86-4.83 3.52-9.72 5.03-14.68 1.94-6.4 3.99-12.77 5.98-19.16.64-2.05 1.27-4.09 1.9-6.14.12-.4.22-.8.36-1.29-.45-.18-.86-.36-1.29-.51-1.98-.69-3.91-1.48-5.75-2.49-4.24-2.32-7.63-5.49-9.93-9.77-1.41-2.62-2.17-5.42-2.44-8.38-.23-2.56-.35-5.12-.29-7.69.09-3.89 1.08-7.53 2.91-10.96 1.87-3.49 4.27-6.58 6.96-9.46.54-.58 1.13-1.11 1.86-1.41 1.22-.51 2.3-1.24 3.31-2.08.47-.38.93-.62 1.57-.55.96.11 1.88-.14 2.75-.5 3.99-1.66 8.21-2.39 12.41-3.25 1.59-.32 3.18-.61 4.77-.92 2.01-.39 4.05-.45 6.09-.59 2.77-.19 5.54-.39 8.3-.59 1.98-.14 3.97-.27 5.95-.42.34-.03.76.11.97-.32h19.49c.59.35 1.23.44 1.89.3.37.03.73.04 1.1.08 2.39.3 4.77.6 7.16.92 1.76.23 3.53.45 5.29.73 2.22.34 4.44.71 6.65 1.11 3.7.67 7.4 1.35 11.09 2.08 5.84 1.16 11.68 2.35 17.51 3.57 4.6.97 9.21 1.91 13.77 3.03 5.48 1.34 10.91 2.85 16.36 4.31 4.39 1.18 8.69 2.64 12.91 4.34 3 1.21 6.02 2.37 9.02 3.59 1.16.47 2.3 1 3.4 1.58 1.43.76 2.88 1.48 4.41 2.03 2.02.73 3.97 1.62 5.8 2.74.84.51 1.64 1.13 2.35 1.82 3.38 3.25 4.91 7.45 6.04 11.86.01.05.02.1.02.16.6 4.09 1.29 8.17 1.51 12.3.11 2.14.05 4.29 0 6.43-.02 1.04-.16 2.09-.26 3.13-.16 1.72-.24 3.45-.52 5.15-.8 4.9-2.12 9.7-2.78 14.63-.31 2.29-1.11 4.46-1.7 6.68-1.12 4.19-2.31 8.36-3.86 12.42-1.17 3.08-2.33 6.16-3.57 9.21-.73 1.79-1.61 3.51-2.38 5.29-.92 2.11-1.99 4.15-3.22 6.1-1.6 2.52-3.07 5.1-4.27 7.85-.75 1.73-1.7 3.37-2.91 4.83-1.14 1.37-2.11 2.86-3.05 4.37-3.05 4.95-6.19 9.83-9.87 14.35-2.58 3.17-5.05 6.44-7.8 9.44-3.68 4.01-7.57 7.83-11.43 11.68-3.52 3.51-7.22 6.84-11.05 10.03-3.14 2.61-6.22 5.31-9.12 8.18-7.6 7.51-15.09 15.14-22.61 22.73-.55.55-1 1.21-1.47 1.83-.13.17-.17.41-.28.69.34-.02.55-.02.76-.04 1.82-.16 3.64-.41 5.47-.46 3.93-.1 7.86-.1 11.79-.15.31 0 .63 0 .94.01.46.01.79.2.97.65.22.53.45 1.06.69 1.58.23.5.32 1.04.13 1.53-.61 1.59-1.42 3.04-3.16 3.69-.59.22-1.17.46-1.73.73-.19.09-.33.3-.54.51 5.54 1.32 8.97 3.32 10.52 6.11-1.1 1.58-2.63 2.48-4.54 2.75-1.19.16-2.39.27-3.59.4-2.19.23-4.37.46-6.56.7-.34.04-.67.18-1.11.31.31.55.54 1.01.81 1.45 2.07 3.21 4.09 6.45 6.23 9.62 3.01 4.47 6.1 8.89 9.15 13.34.79 1.16 1.54 2.36 2.28 3.49.13.01.19.04.23.02.33-.14.67-.27 1-.43 8.89-4.51 18.23-7.54 28.2-8.46 4.87-.45 9.74-.41 14.58.16 4.68.55 9.26 1.6 13.75 3.05 8.54 2.77 16.36 6.88 23.35 12.55 7.58 6.15 13.61 13.59 18.45 22.03 4.28 7.45 7.25 15.41 8.99 23.81.5 2.4 1.02 4.81 1.05 7.29-.09.76-.1 1.52.3 2.21v16.97c-.3.71-.43 1.45-.29 2.22-.09.99-.15 1.98-.29 2.96-.97 7.03-2.81 13.83-5.47 20.4-6.53 16.18-16.72 29.54-31.04 39.6-12.23 8.6-25.79 13.46-40.79 14.06-5.09.2-10.15-.06-15.17-.94-5.95-1.04-11.69-2.77-17.18-5.29-13.82-6.35-24.58-16.17-32.57-29.04-8.08-13.02-11.99-27.3-12.47-42.56-.1-3.3.11-6.59.3-9.89.02-.35 0-.71 0-.99-1.02-.69-2-1.19-3.08-1.42-2.09-.44-4.16-1-6.32-1.11-1.46-.07-2.77-.56-3.63-1.87-.08-.12-.24-.17-.38-.26-.3.33-.57.64-.86.95-1.28 1.34-2.72 2.45-4.4 3.24-3.89 1.82-7.6 1.56-11.09-1.01-.37-.27-.75-.55-1.19-.87-.43.52-.83 1-1.22 1.47-3.16 3.84-6.01 7.92-8.92 11.96-.7.97-.97 1.92-.73 3.07.25 1.24.24 2.49.06 3.75-.17 1.24-.34 2.49-.41 3.74-.1 1.66-.87 2.86-2.23 3.75-1.5.98-3.1 1.73-4.81 2.27-3.37 1.05-6.84 1.51-10.36 1.56-3.25.05-6.49-.07-9.74-.26-2.82-.16-5.45-.85-7.93-2.2-1.02-.56-1.8-1.2-2.07-2.38-.1-.45-.36-.87-.52-1.31-.79-2.16-.75-4.3.16-6.42 2.66-6.19 7.3-10.08 13.8-11.75 1.88-.48 3.82-.65 5.71.14.27.11.58.14.98.23 0-.5.09-.94-.02-1.32-.28-1.04-.06-1.96.56-2.73-.15-.65-.29-1.21-.39-1.77-.31-1.61-.47-3.22.17-4.79.39-.97.82-1.92 1.22-2.88.48-1.16 1.37-1.8 2.57-2.08.5-.12.98-.27 1.55-.43.26-2.52.51-4.96.75-7.4.4-4.12.8-8.23 1.18-12.35.17-1.78.41-3.53 1.19-5.17.33-.7.55-1.45.81-2.19-.81-1.23-1.85-2.06-3.02-2.79-9.86-6.13-19.72-12.28-29.58-18.41-14.93-9.28-29.87-18.54-44.8-27.82-3.2-1.99-6.39-3.99-9.59-5.98-.47-.29-.91-.67-1.54-.74l-4.42 15.12c.88.55 1.72 1.08 2.57 1.59 1.01.61 1.83 1.41 2.36 2.47.39.8.9 1.37 1.8 1.59.38.09.8.34 1.06.64.98 1.17 2.29 1.79 3.61 2.44 7.34 3.59 13.99 8.18 19.89 13.84 5.33 5.11 9.79 10.89 13.54 17.24 7.28 12.32 11.16 25.64 11.78 39.91.18 4.24.15 8.48-.21 12.71-.42 4.91-1.22 9.76-2.45 14.53-2.72 10.55-7.34 20.22-13.59 29.12-5.55 7.9-12.11 14.84-19.92 20.55-8.77 6.4-18.48 10.77-29.02 13.33-2.85.69-5.71 1.29-8.63 1.6-1.5-.01-2.97.22-4.42.6h-8.17c-1-.47-2.07-.38-3.13-.33h-.01c-.69-.44-1.46-.36-2.22-.29-1.45-.2-2.9-.37-4.35-.6-5.28-.85-10.4-2.31-15.34-4.34-9.82-4.02-18.43-9.83-25.83-17.43-3.07-3.15-6.08-6.36-8.69-9.92-4.43-6.04-7.75-12.66-10.16-19.73-2.69-7.89-4.74-15.94-5.22-24.31-.05-.87-.1-1.75-.18-2.62-.01-.1-.23-.19-.35-.28v-5.03c.14-.21.38-.41.4-.63.09-.8.1-1.67.13-2.53zm100.99-95.49c.38-1.87.75-3.74.73-5.66.08-.61.17-1.22.22-1.83.01-.07-.2-.23-.31-.23-.11 0-.32.15-.32.23 0 .62.05 1.23.08 1.85-.08.5-.13 1.02-.26 1.51-.36 1.36-.46 2.74-.32 4.13v1.2h.18v-1.2zm172.33 1.6c-.41-.7-.82-1.41-1.23-2.11-.03-.06-.15-.07-.23-.1-.03.1-.1.22-.07.28.39.77.8 1.52 1.2 2.29 1.51 3.32 3.2 6.54 4.82 9.83.59-.24 1.03-.48 1.26-1.03-1.93-3.05-3.84-6.1-5.75-9.16zm-227.93-24.21-.12-.06c.04.02.09.03.13.05.06.68-.48.95-.96 1.26.11 1.92.22 3.79.33 5.66.04.61.33 1.09.79 1.47 1.22.99 2.52 1.84 3.98 2.45.24.1.48.22.75-.09-.28-2.06-.54-4.16-.88-6.26-.12-.76-.29-1.56-.95-2.09-1.01-.81-2.04-1.59-3.07-2.39zM398.03 417.4c-.13-.15-.26-.3-.39-.44.36-.61.72-1.22 1.1-1.87-.94-.68-1.71-1.37-2.23-2.3-1.09-1.96-1.64-4.06-1.54-6.3.17-3.82 1.18-7.4 3.15-10.69.21-.36.43-.72.63-1.08.37-.67.3-1.31-.2-1.88-.75-.87-1.52-1.72-2.27-2.59-.2-.23-.34-.5-.51-.76.11-.13.23-.25.34-.38.29.3.54.67.88.88 1.29.8 2.06 2.05 2.94 3.21.32.42.64.83.95 1.25 1.7 2.28 3.84 4.14 5.93 6.04 1.25 1.14 2.53 1.16 4.21.27.54-.29.88-.75.88-1.38 0-.57 0-1.15-.07-1.72-.12-.93-.31-1.86-.44-2.79-.46-3.26-.99-6.51-1.36-9.78-.49-4.36-.84-8.74-1.25-13.11-.08-.89-.13-1.78.41-2.57.25-.36.29-.76.03-1.25-.21.19-.41.34-.58.52-1.21 1.24-2.44 2.45-3.6 3.72-2.08 2.28-4.13 4.58-6.18 6.89-.45.51-.78 1.14-1.28 1.59-.95.85-1.66 1.87-2.33 2.92-2.17 2.28-4.04 4.78-5.56 7.54-1.61 2.95-2.85 6.02-3.45 9.35-.54 3-.54 6.02-.48 9.06.01.67.33 1.19.7 1.7.54.77 1.1 1.53 1.57 2.33a8.537 8.537 0 0 1 1.22 4.47c-.01 1.28-.35 2.47-.79 3.65-.7 1.83-.46 3.56.54 5.35.42-.44.78-.81 1.13-1.19.63-.69 1.26-1.39 1.88-2.08.11.2.22.39.33.59-.8 1.39-1.9 2.59-2.55 3.99.24.5.56.58.99.54.3-.46.61-.92.89-1.35.35.02.6.03.92.05 4.09-5.92 8.36-11.73 12.74-17.43.44.16.58.4.38.76-.55.95-1.12 1.89-1.66 2.85-.18.31-.31.64-.48 1.01.9.65 1.73 1.29 2.6 1.86.38.25.85.49 1.29.5 1.2.03 2.43.09 3.6-.13 2.94-.57 4.94-2.4 6.14-5.1.47-1.05.81-2.15 1.14-3.25.44-1.49.63-3.02.35-4.72-.48.28-.81.53-1.18.68-.53.21-1.1.5-1.63.46-1.3-.12-2.59-.35-3.86-.65-1.11-.27-2.19-.69-3.27-1.08-.38-.14-.74-.38-1.05-.64-1.1-.96-2.2-1.94-3.26-2.95-.87-.83-1.67-1.73-2.5-2.6-.28-.3-.56-.6-.95-1-.48.76-.96 1.38-1.29 2.08-.97 2.04-1.6 4.2-1.94 6.44-.31 2.07.02 4.07.8 6 .42 1.04 1.14 1.72 2.4 1.81.41-.53.82-1.07 1.24-1.59.44-.55.81-1.22 1.68-1.28.18.73-.06 1.25-.62 1.67-.98.73-1.82 1.57-2.3 2.73-.12.28-.35.52-.56.75-.77.78-1.57 1.59-2.37 2.42zm52.43-141.71c.05.61.1 1.23.15 1.88-.24.13-.46.27-.69.38-.86.43-1.81.43-2.74.58-2.07.34-4.17.4-6.24.49-3.49.15-7.01.32-10.5-.22-1.6-.25-3.21-.4-4.81-.59-1.09-.13-2.18-.25-3.27-.36-1.35-.13-2.71-.2-4.05-.39-1.76-.24-3.51-.53-5.29-.59-.26-.01-.52-.07-.78-.1-1.56-.17-3.11-.4-4.67-.48-1.98-.1-3.97-.1-5.94.28-2.06.4-4.1.81-5.89 2.01-.35.23-.73.4-1.11.59-2.71 1.36-5.43 2.72-8.14 4.09-.34.17-.82.25-.89.78l1.79 2.18c.3.36.68.48 1.13.36.2-.05.39-.14.59-.21 2.89-.92 5.77-1.86 8.66-2.76.94-.29 1.91-.62 2.88-.71 1.77-.15 3.54-.15 5.32-.29 1.98-.16 3.98-.09 5.97-.09.89 0 1.77 0 2.65.24.8.22 1.65.27 2.47.4 1.65.27 3.29.55 4.93.82l4.63.75c1.7.28 3.39.57 5.09.82 2.48.36 4.94.84 7.47.76 1.05-.03 2.11.04 3.14-.1 2.07-.27 4.14-.58 6.23-.54 1.15.02 2.29-.1 3.43-.29 1.74-.3 3.3-.99 4.7-2.03.84-.63 1.54-1.4 2.02-2.37.56-1.13 1.1-2.26 1.3-3.52.17-1.08.42-2.15.52-3.24.14-1.6-.32-3.01-1.69-3.98-.82-.58-1.71-1.14-2.76-.82-1.14.34-2.23.82-3.35 1.24-.96-.62-1.22-1.05-.97-2.03.3-1.16.75-2.28 1.61-3.18.91-.94 1.79-1.91 2.69-2.86 2.47-2.57 4.94-5.15 7.76-7.33 4.11-3.17 7.93-6.68 11.81-10.11.71-.62 1.39-1.27 2.07-1.92 2.84-2.71 5.62-5.49 8.53-8.13 2.75-2.51 5.4-5.11 7.89-7.88 5.12-5.7 9.88-11.67 13.76-18.3 3.52-6.01 6.74-12.17 9.95-18.35.55-1.07 1.1-2.15 1.76-3.14.93-1.4 1.77-2.84 2.48-4.36.6-1.28 1.14-2.59 1.8-3.83 1.53-2.9 2.25-6.07 3.02-9.22.56-2.28.73-4.65 1.5-6.89.05-.15.07-.31.09-.46.29-2.39.79-4.75.82-7.16.01-1.73.1-3.45.13-5.18.02-1.07-.28-2.04-.97-2.94-1.39 1.3-2.08 2.92-2.88 4.56.42.15.71.32.58.81-.52 1.97-1.02 3.95-1.53 5.92-.16.63-.49 1.15-1.05 1.5-1.11.69-2.18 1.45-3.34 2.05a42.525 42.525 0 0 1-6.81 2.79c-3.37 1.05-6.82 1.59-10.36 1.54-2.47-.04-4.91-.38-7.3-.96-5.92-1.45-10.93-4.39-14.8-9.18-.56-.69-1.16-1.35-1.79-1.98-.51-.51-1.1-.94-1.54-1.3-.25-.01-.3-.03-.35-.02-.4.14-.79.28-1.18.42-3.79 1.33-7.68 2.03-11.7 1.93-2.31-.06-4.59-.35-6.84-.89-4.55-1.08-8.7-3-12.2-6.15-1.01-.91-1.94-1.91-2.85-2.92-.62-.68-1.26-1.06-2.21-.72-.39.14-.82.17-1.23.26-2.51.55-5.03 1.01-7.61 1.02-1.06.01-2.07.19-3.08.5-3.12.95-6.32 1.43-9.59 1.44-2.05.01-4.07-.23-6.08-.61-4.11-.77-7.95-2.21-11.41-4.6-1.78-1.23-3.37-2.66-4.83-4.24-.52-.57-1.01-1.19-1.69-1.58-1.1.63-2.12 1.26-3.18 1.83-4.49 2.43-9.29 3.76-14.4 3.89-1.41.04-2.83 0-4.24 0h-1.02c-.16.22-.27.33-.33.47-1.15 2.41-2.32 4.8-3.23 7.32-.59 1.62-1.21 3.23-1.9 4.82-1 2.31-1.84 4.67-2.51 7.09-.98 3.58-2.07 7.13-3.38 10.61-.37.98-.64 1.99-.94 2.99-.3 1-.53 2.02-.89 3-2.44 6.68-5.02 13.29-6.91 20.17-2.2 8.02-4.58 15.98-6.54 24.07-.94 3.88-1.75 7.76-1.48 11.79.02.25 0 .54-.11.76-.69 1.45-.58 2.97-.42 4.48.2 1.82.51 3.63.76 5.44.38 2.75.76 5.49 1.11 8.24.25 1.97.41 3.96.71 5.92.55 3.67 1.17 7.34 1.78 11 .31 1.86.59 3.73 1.05 5.55.58 2.28 1.02 4.59 1.47 6.9.46 2.41.97 4.82 1.52 7.21.21.92.51 1.8.12 2.76-.13.32-.06.72-.03 1.09.01.16.15.31.32.62 2-3.2 4.34-5.85 7.55-7.59 3.28-1.78 6.81-2.27 10.54-2.04.72-1.16 1.35-2.37 2.52-3.17 1.14-.77 2.31-1.44 3.64-1.8 1.39-.38 2.77-.37 4.19-.09 1.37.27 2.48 1.07 3.67 1.64 3.93-1.97 7.81-3.9 11.68-5.87 1.88-.96 3.81-1.61 5.95-1.78 2.93-.22 5.84-.34 8.77.04 3.79.49 7.59.85 11.39 1.28 3.43.39 6.86.82 10.29 1.17 2.66.27 5.34.22 8.01.06 1.3-.08 2.61-.18 3.91-.27.89-.06 1.78-.07 2.66-.2 1.24-.19 2.41-.46 3.58-.69zM251.6 424.83c-.52-.77-.55-1.49-.1-2.25.15-.25.13-.61.14-.92.04-.94.09-1.88.09-2.83.01-1.73.13-3.44.41-5.16.37-2.27.59-4.57.87-6.85.78-6.18 1.99-12.29 3.53-18.32 1.77-6.95 3.98-13.76 6.9-20.32 1.79-4.02 3.84-7.9 6.14-11.65.25-.41.63-.81.61-1.38-2.89-.28-5.7-.04-8.52.26-3.97.42-7.86 1.16-11.68 2.29-8.42 2.5-16.09 6.45-22.99 11.88-.46.36-.92.72-1.51.77-.56.05-.96.38-1.37.7a32.503 32.503 0 0 0-5.28 5.14c-2.87 3.48-5.62 7.04-8.12 10.79-7.7 11.5-12.22 24.13-13.21 37.95-.45 6.23-.24 12.45.79 18.63 1.58 9.5 4.84 18.38 9.78 26.64 5.74 9.57 13.43 17.21 22.94 23.04.62.38 1.28.71 1.95 1 5.52 2.39 11.19 4.37 16.96 6.04 1.45.42 2.9.89 4.42 1.03 3.34.31 6.67.62 10.01.88 1.09.09 2.21.09 3.29-.02.95-.09 1.86-.13 2.81 0 .77.1 1.57.06 2.34-.05 3.16-.47 6.31-.97 9.45-1.49 1.65-.28 3.31-.5 4.89-1.1 1.22-.47 2.44-.92 3.67-1.37.64-.24 1.23-.48 1.69-1.05.28-.34.76-.53 1.19-.73 7.08-3.3 13.49-7.6 19.14-13 8.82-8.43 15.21-18.46 19.46-29.86 2.61-7.01 4.06-14.27 4.5-21.74.2-3.41.18-6.8-.02-10.2-.27-4.67-.9-9.28-2.07-13.8-3.85-14.93-11.53-27.52-23.31-37.52-2.03-1.72-4.27-3.21-6.41-4.8-.34-.25-.69-.49-1.18-.16-.14 1.16-.28 2.36-.44 3.55-.27 1.92-.43 3.86-.88 5.73-.72 3-1.71 5.92-2.46 8.91-.92 3.68-2.45 7.1-4.21 10.45-1.96 3.75-4.04 7.45-5.74 11.33-.25.57-.59 1.11-.91 1.65-3.45 5.92-6.9 11.85-10.34 17.77-.23.4-.44.82-.67 1.24.31.42.61.78.86 1.17.63.96 1.31 1.9 1.84 2.91 1.51 2.88-.08 6.37-3.24 7.19-.5.13-1.04.25-1.54.18-2.18-.29-4.16-1.04-5.66-2.75-.2-.23-.41-.45-.56-.61-.42.03-.72.05-.97.07-.52-1.15.13-2.12.3-3.2-1.56-.74-2.99-1.61-4.76-1.53-.45.02-.92-.15-1.35-.32-.83-.31-1.64-.68-2.46-1.02-1.2-.49-2.36-1.06-3.59-1.42-.46.6-.83 1.17-1.29 1.67-.7.77-1.56 1.21-2.65 1.1-.72-.07-1.28-.43-1.81-.86-.87-.71-.98-1.18-.49-2.17.22-.46.48-.91.82-1.51zm192.74-4.47c-.07.3-.14.5-.16.7-.19 1.93-.45 3.85-.53 5.78-.27 6.25.19 12.45 1.5 18.58 1.99 9.32 5.59 17.95 11.09 25.76 6.12 8.68 13.89 15.48 23.43 20.18 6.93 3.41 14.25 5.34 21.95 5.95 4.47.35 8.9.11 13.32-.46 4.68-.61 9.24-1.74 13.66-3.4 5.75-2.17 11.24-4.86 16.08-8.69 2.62-2.08 5.13-4.31 7.66-6.51 1.34-1.17 2.63-2.4 3.91-3.64 1.93-1.87 3.44-4.08 5.03-6.23a77.634 77.634 0 0 0 9.42-16.61c3.42-8.25 5.26-16.86 5.8-25.75.35-5.82.07-11.62-.92-17.38-1.06-6.16-2.92-12.09-5.49-17.79-2.45-5.41-5.45-10.49-9.17-15.13-6.31-7.87-14.15-13.75-23.29-17.96-5.85-2.69-11.97-4.36-18.36-5.08-3.28-.37-6.58-.46-9.89-.35-2.31.08-4.59.35-6.86.79-4.58.88-9.02 2.26-13.47 3.61-1.62.49-3.02 1.42-4.45 2.28-.48.29-.6.71-.44 1.22.06.2.16.38.25.57.97 2.09 2.01 4.14 3.27 6.08 1.77 2.72 3.56 5.42 5.34 8.14 7.35 11.2 14.24 22.69 21.11 34.19.38.64.7 1.29.78 2.03.08.71.44 1.28.89 1.8.27.32.57.61.87.9.84.82 1.49 1.76 1.75 2.92.11.49.34.88.72 1.18 1.24.96 2.44 1.99 3.76 2.83 1.22.77 2.27 1.69 3.1 2.85.67.93 1.28 1.91 1.85 2.91.81 1.42 1.06 2.95.61 4.54-.36 1.25-.8 2.49-1.21 3.73-.33.99-.99 1.7-1.82 2.3-.45.33-.88.48-1.46.34-1.32-.31-2.66-.56-3.99-.84-4.65-.98-9.29-2.07-13.97-2.91-5.82-1.05-11.57-2.38-17.34-3.65-5.41-1.19-10.81-2.44-16.21-3.66-8.1-1.83-16.21-3.67-24.32-5.49-1.19-.28-2.4-.65-3.8-.63zm76.89-311.09c-.67-.27-1.04-.44-1.43-.57-3.77-1.26-7.53-2.56-11.32-3.75-3.89-1.22-7.81-2.35-11.73-3.49-2.91-.85-5.82-1.71-8.75-2.47-3.59-.94-7.21-1.76-10.81-2.68-5.63-1.43-11.26-2.85-16.96-3.95-5.75-1.12-11.5-2.24-17.26-3.3-2.42-.44-4.86-.77-7.3-1.09-2.08-.27-4.16-.43-6.24-.69-3.54-.43-7.1-.71-10.65-.74-6.13-.06-12.26.05-18.39.17-1.72.03-3.44.28-5.16.48-2.7.32-5.39.75-8.13.7-.78-.01-1.57.07-2.35.18-1.81.27-3.61.58-5.42.89-1.86.32-3.74.54-5.52 1.18-1.54.55-3.12.83-4.73 1.04-1.35.17-2.73.35-3.87 1.17-1.53 1.1-3.04 2.23-4.47 3.45-1.11.95-2.14 2.01-3.13 3.08-.75.8-1.47 1.65-2.06 2.57-.9 1.41-1.76 2.86-2.49 4.36-2.17 4.47-3.01 9.11-1.66 14.01.15.55.25 1.12.41 1.68.54 1.92 1.16 3.8 2.22 5.51.88 1.4 1.99 2.56 3.44 3.37 1.65.92 3.31 1.79 4.97 2.69 1.44.79 2.98 1.27 4.61 1.44.47.05.93.14 1.4.21 2.33.37 4.66.72 7.02.66 2.62-.07 5.24-.14 7.85-.29 2.09-.12 4.14-.52 6.16-1.13 1.66-.5 3.26-1.11 4.84-1.83.69-.32 1.38-.74 2.13-.69.12.09.18.11.2.15.13.23.25.46.38.69.9 1.69 2.16 3.08 3.71 4.2 1.36.99 2.81 1.82 4.36 2.47 4.48 1.91 9.18 2.82 14.03 3.08 2.89.15 5.76-.09 8.63-.35 3.26-.29 6.4-1.04 9.38-2.39 1.05-.48 2.11-.92 3.17-1.37.28-.12.57-.19.89-.3.25.35.47.64.66.95 1.3 2.1 3.09 3.67 5.21 4.9 1.68.98 3.46 1.74 5.29 2.36 3.85 1.3 7.82 1.88 11.87 2.02 2.52.09 5.03.02 7.53-.26 2.5-.29 4.95-.81 7.34-1.62.49-.17 1-.32 1.5-.1.08.11.16.19.18.29.09.3.18.6.24.91.39 1.84 1.28 3.42 2.59 4.77 1.21 1.25 2.56 2.32 4.06 3.19 2.32 1.35 4.81 2.31 7.37 3.07 5.69 1.69 11.52 2.02 17.41 1.83.56-.02 1.12-.08 1.6-.4-.39-1.57-.45-1.65-1.19-2.58-.52-.65-1.05-1.31-1.48-2.03-2.84-4.76-4.47-9.91-4.83-15.43-.25-3.88.02-7.74.88-11.55.99-4.34 2.71-8.35 5.48-11.87.29-.37.58-.75.79-1.17.58-1.18 1.51-1.98 2.63-2.62 1.32-.75 2.63-1.52 3.93-2.3.25-.16.48-.35.97-.71zM382.87 297.91c.55 0 1.01.05 1.45-.01 1.61-.22 2.73.45 3.48 1.84.32.6.68 1.17 1.01 1.77 1.27 2.33.7 4.09-.97 5.64-.36.33-.73.59-1.21.67-.41.08-.83.14-1.24.2-.45.07-.73.29-.92.74-.28.67-.58 1.35-.98 1.96-.99 1.5-2.4 2.3-4.22 2.31-.73.01-1.49.06-2.19-.1-1.1-.24-2.07 0-3.02.5-.32.17-.66.31-.99.48-1.62.79-3.22.86-4.75-.21-.57-.4-1.16-.41-1.8-.27-.61.13-1.23.25-1.85.32-2.3.25-4.24-.46-5.73-2.25-.64-.76-1.16-1.61-1.74-2.42-.27-.37-.54-.74-.79-1.09-2.19.06-4.31-.61-6.45.16.11.18.17.33.27.43 1.39 1.42 2.76 2.87 4.19 4.26 1.92 1.87 4.01 3.52 6.43 4.73 1.81.9 3.7 1.43 5.73 1.42 1.68 0 3.35.09 5.03.06 1.46-.02 2.92-.16 4.38-.24 1.01-.06 1.79-.47 2.32-1.37.21-.35.53-.66.85-.91 1.11-.87 2.81-.33 3.4.47.71.96.39 2.88-.58 3.56-1.28.89-2.43.85-3.72-.12-.08-.06-.18-.1-.29-.15-.45.08-.9.23-1.36.24-.46.01-.93-.12-1.4-.15-.68-.06-1.36-.12-2.04-.12-1.89-.02-3.77-.06-5.66 0-2.96.11-5.7-.57-8.3-1.95-.54-.29-1.09-.54-1.8-.88.15 1.17.45 2.11 1.14 2.84.44.47.75 1 1.02 1.57 1.37 3 2.73 6 4.1 8.99.28.62.57 1.24.89 1.83 1.35 2.48 2.75 4.94 4.09 7.42 3.17 5.9 6.67 11.61 9.63 17.62.9 1.83 1.98 3.57 3.29 5.15.17.2.32.41.46.63 1.36 2.11 2.68 4.25 4.08 6.33.78 1.16 1.39 2.33 1.33 3.77 0 .08.1.16.21.33.19-.16.4-.3.54-.48.96-1.24 1.89-2.51 2.87-3.74 1.21-1.51 2.38-3.07 3.74-4.44 4.53-4.58 9.3-8.91 14.12-13.19.31-.27.61-.55.88-.8-.08-.76-.03-1.47-.26-2.08-.24-.64-.19-1.23-.1-1.84.08-.62.25-1.23.4-1.84.95-3.97 1.88-7.93 2.86-11.89.42-1.72.89-3.44 1.41-5.14.48-1.55 1.05-3.07 1.59-4.59.74-2.07 1.39-4.17 2.29-6.17 1.81-4.06 3.71-8.08 5.66-12.07 1.63-3.35 3.81-6.37 5.87-9.46 1.16-1.74 2.35-3.47 3.52-5.2.46-.68.9-1.37 1.12-2.13-.18-.14-.25-.24-.34-.26-3.01-.67-6-1.41-9.03-1.99-3.03-.58-6.09-1.02-9.14-1.47-2.54-.38-5.09-.58-7.67-.37-1.72.15-3.45.22-5.17.25-1.53.02-3.03.25-4.48.7-2.89.9-5.77 1.84-8.66 2.78-.43.14-.84.36-1.2.52-.3 2.55-.44 2.99-1.62 5.14-.86 1.6-.93 1.66-3.98 3.76zm-32.42-3.56c-1.38-.71-1.51-.89-1.75-2.35-.08-.46-.13-.93-.21-1.4l-1.71-9.57c-.89-4.89-1.77-9.78-2.68-14.66-.65-3.5-1.3-6.99-1.68-10.53-.51-4.73-1.25-9.43-2.03-14.13-.12-.71-.27-1.41-.42-2.15-1.02-.15-1.95-.14-2.87.07-1.58.36-3.16.73-4.71 1.18-1.51.43-2.97 1.02-4.26 1.93-1.28.9-2.55 1.83-3.83 2.74-.58.42-1 .97-1.06 1.67-.15 1.78-.71 3.45-1.23 5.14.43.41.99.36 1.49.48.95.24 1.62.79 1.72 1.8.09.93.17 1.88.1 2.81-.07.84-.45 1.61-1.04 2.24-.55.6-1.21.99-2.07.92-.16-.01-.32 0-.47-.02-.89-.12-1.5.25-1.94 1.01-.42.73-.9 1.41-1.32 2.13-1.5 2.58-4.01 3.72-6.66 4.65-.24.08-.52.07-.78.09-1.54.15-2.9-.33-4.1-1.26-.82-.64-1.63-.86-2.6-.31-.67.38-1.39.38-2.12.09-.53-.21-1.1-.32-1.65-.51-.77-.26-1.54-.26-2.31-.03-.35.1-.72.14-1.07.25-.92.29-1.87.25-2.8.15-1.46-.16-2.72-.79-3.57-2.03-.71-1.03-1.37-2.1-2.02-3.17-.18-.3-.27-.67-.38-1.02-.08-.28-.13-.57-.21-.92-.5 0-.92-.02-1.33 0-2.45.16-4.91.34-7.36.51-.47.03-.94.06-1.41.06-1.31 0-2.31-.57-2.99-1.69-.18-.3-.35-.62-.54-.95-.64.1-1.21.19-1.77.29-2.57.47-5.14.95-7.71 1.43-1.64.31-3.29.61-4.93.92-.97.18-1.54.78-1.85 1.71-.59 1.76-.03 3.66 1.48 4.75.29.21.63.37.95.55 5.23 2.85 10.44 5.73 15.69 8.55 1.65.89 3.4 1.59 5.09 2.41.62.3 1.2.29 1.8-.02.19-.1.38-.18.56-.28 4.12-2.28 8.66-3.26 13.14-4.38 1.24.98 1.63 1.51 1.65 2.89.03 1.62-.07 3.24-.16 4.86-.08 1.36-.22 2.71-.34 4.07-.08.81.23 1.35.93 1.82 1.26.86 2.56 1.61 3.95 2.22 1.05.46 2.11.92 3.11 1.47 4.02 2.23 8.02 4.49 12.02 6.76 1.68.95 3.33 1.96 5 2.94.07.04.19.01.38.01.22-.25.47-.56.72-.85.45.16.6.5.62.87.05.85.47 1.46 1.08 2 .35.31.62.71.93 1.06.83.94 1.86 1.49 3.12 1.62 1.32.13 2.61.09 3.88-.3.95-.29 1.88-.64 2.84-.88 1.1-.27 1.88-.73 2.13-1.95.2-.94.95-1.47 1.9-1.65.56-.11 1.13-.19 1.7-.28 2.17-.32 4.35-.63 6.52-.94.69-.1 1.13-.51 1.44-1.09.41-.77.48-1.6.32-2.44-.07-.47-.21-.92-.32-1.36zm-93.54 129.51c.19.15.3.29.44.34 4.04 1.4 8.09 2.81 12.14 4.18 1.2.41 1.43.27 1.92-.85.04-.1.09-.19.13-.29 1.26-3.45 2.94-6.7 4.71-9.9 1.03-1.88 2.04-3.77 3-5.69 3.13-6.27 6.16-12.58 9.37-18.81 2.31-4.48 3.6-9.24 4.36-14.17.59-3.78.74-7.6.7-11.43-.02-1.46-.35-2.8-1.11-4.03-.89-1.42-1.81-2.81-2.75-4.2-.61-.91-1.5-1.43-2.57-1.65-2.76-.58-5.52-1.18-8.28-1.76-1.29-.27-2.12.06-2.82 1.16-2.37 3.76-4.57 7.62-6.44 11.66-3.36 7.29-5.89 14.86-7.82 22.64-1.36 5.48-2.43 11.03-3.2 16.63-.33 2.38-.62 4.77-1.04 7.14-.54 3.02-.44 6.05-.74 9.03zm38.15-105.82c1.96.57 3.43 1.67 4.88 2.78.33.25.7.46 1.06.68 1.84 1.11 3.67 2.21 5.51 3.31 20.93 12.55 41.86 25.11 62.79 37.66 3.9 2.34 7.8 4.68 11.7 7.01.28.17.54.49.95.36.01-.14.06-.25.02-.33-1.03-2.12-2.12-4.19-3.61-6.04-.58-.72-1.09-1.55-1.47-2.4-.83-1.87-1.81-3.65-2.88-5.39-4.78-7.74-9.32-15.62-13.51-23.7-1.39-2.68-3.05-5.25-3.83-8.22-.16-.62-.6-.94-1.25-1-1.87-.2-3.74-.42-5.61-.62-2.18-.24-4.37-.47-6.55-.73-2.29-.27-4.57-.56-6.85-.83-2.23-.26-4.47-.48-6.71-.75-3.12-.37-6.23-.76-9.35-1.12-3.17-.36-6.34-.69-9.51-1.05-3.53-.4-7.07-.81-10.6-1.22-1.25-.14-2.49-.32-3.73-.46-.3-.03-.6-.01-.93-.01-.18.67-.32 1.27-.52 2.07zm150.22.62c-.08.25-.16.44-.2.64-5.62 29.21-11.23 58.43-16.84 87.64-.02.09.03.19.06.32.98.37 2.03.36 3.06.43 1.08.07 2.15.47 3.24.16.61-2.15 1.16-4.27 1.81-6.36 3.15-10.25 7.97-19.64 14.48-28.16 3.64-4.76 7.72-9.1 12.18-13.1.77-.69 1.58-1.36 2.36-2.15-1.04-2.1-2.06-4.17-3.09-6.22-1.43-2.85-2.93-5.66-4.29-8.55-3.75-7.94-7.69-15.79-11.69-23.6-.22-.39-.37-.88-1.08-1.05zm44.93 94.57c-.12-.49-.16-.74-.25-.97-.46-1.17-.93-2.33-1.39-3.49-1.99-5-3.97-10-6.36-14.83-1.23-2.48-2.42-4.98-3.61-7.48s-2.37-5-3.55-7.51c-.27-.58-.56-1.08-1.28-1.26-.68-.17-.97-.75-1.03-1.43-.07-.73-.13-1.46-.18-2.19-.05-.79-.2-1.57-.6-2.26-.64-1.11-1.35-2.19-2.08-3.37-2.37 2.32-4.72 4.55-6.58 7.23-2.86 4.13-5.66 8.29-8.46 12.46-1.49 2.22-2.67 4.61-3.63 7.11-.84 2.2-1.55 4.44-1.99 6.75-.18.93-.4 1.85-1.28 2.42-.16.1-.31.3-.37.49-.4 1.38-.83 2.76-.93 4.27 14.51 1.36 28.92 2.7 43.57 4.06zm-104.22 12.24c-.6.05-1.02.11-1.44.1-.24 0-.56-.05-.71-.2-.41-.43-.92-.41-1.44-.49-1.18-.17-2.4-.2-3.46-.89s-2.22-.79-3.58-.62c.27.59.48 1.12.76 1.61.29.5.65.95.97 1.42.47.69.97 1.36 1.41 2.08.11.18.08.5.01.72-.05.15-.28.25-.48.41-.54-.43-1.03-.81-1.52-1.2-1.11-.9-2.33-1.58-3.7-1.99-3.06-.91-6.11-.82-9.09.26-3.76 1.36-6.59 3.8-8.01 7.64-.76 2.08-.95 4.28-1.11 6.47-.08 1.15.42 2.03 1.37 2.64 1.05.68 2.16 1.26 3.38 1.61 3.7 1.05 7.47 1.51 11.31 1.46 3.46-.04 6.89-.47 10.26-1.22 2.04-.46 4-1.17 5.85-2.17 1.01-.54 1.56-1.3 1.52-2.51-.03-.88.12-1.77.2-2.65.17-1.93.28-3.88-.24-5.77-.36-1.31-.84-2.57-1.28-3.86-.29-.91-.62-1.84-.98-2.85zm52.42-106.69c-1.42-.58-1.6-.54-2.25.43-.06.09-.1.18-.16.27-2.02 3.3-3.89 6.68-5.59 10.16-1.82 3.71-3.2 7.6-4.55 11.5-.75 2.17-1.38 4.38-1.79 6.65-.61 3.39-1.26 6.78-1.85 10.18-.34 1.96-.76 3.91-.89 5.89-.22 3.44-.29 6.9-.34 10.35-.1 6.02-.06 12.04.22 18.05.11 2.41-.17 4.81-.24 7.21-.03.99-.04 2 .1 2.97.18 1.19.42 2.37.42 3.58 0 .16-.03.42.38.42.07-.21.16-.45.21-.69 5.44-28.96 10.88-57.92 16.33-86.97zm76.12 102.52c-.25-.47-.48-.94-.75-1.38-.77-1.3-1.55-2.61-2.35-3.9-8.57-13.77-17.13-27.53-25.72-41.29-2.16-3.46-4.39-6.88-6.59-10.31-.36-.56-.66-1.16-1.23-1.61-.88.46-1.72.89-2.54 1.34-.26.14-.47.35-.75.55.38.83.71 1.6 1.09 2.34 1.79 3.6 3.6 7.2 5.4 10.8 5.9 11.78 11.8 23.55 17.7 35.33.66 1.31 1.31 2.62 2 3.91s1.68 2.24 3.05 2.81c2.12.88 4.22 1.81 6.33 2.72.58.25 1.15.5 1.75.68.82.24 1.42.02 1.91-.69.27-.4.45-.84.7-1.3zM355.5 317.21c-1.9-2.5-3.23-5-5.19-7.04-.25-.26-.51-.52-.79-.77-.95-.84-2.05-1.24-3.32-1.08-.31.04-.62.09-.93.15-2.71.59-5.42 1.12-8.2 1.25-1.15.05-2.3.17-3.44.3-2.4.27-4.8.28-7.2-.01-1.35-.16-2.7-.4-4.05-.41-2.07-.02-3.85-.66-5.57-1.79-6.07-4-12.18-7.93-18.28-11.88-.42-.27-.79-.7-1.41-.64-.04.32-.09.62-.12.93-.13 1.72-.25 3.44-.37 5.17-.18 2.71-.37 5.43-.54 8.14-.02.36-.03.73-.02 1.1.04.86.19 1.04 1.09 1.25.46.1.93.17 1.39.21 2.66.24 5.31.47 7.97.72 3.91.37 7.81.76 11.71 1.13 1.41.13 2.81.25 4.22.37 1.62.14 3.23.26 4.85.41 2.81.26 5.62.56 8.43.82 2.81.26 5.63.48 8.44.73 2.97.27 5.94.56 8.9.83.71.06 1.39.06 2.43.11zm.89-19.12c.35-.52.36-1.05.41-1.57.06-.6.28-1.11.68-1.55.27-.29.69-.28.96.01.51.55.62 1.19.49 1.9-.36 1.87-.27 3.75-.12 5.63.05.68.12 1.36.12 2.04.01 1.67.53 3.19 1.35 4.61 1.35 2.33 2.86 2.52 4.86 2.33.68-.07 1.02-.61.73-1.24-.24-.52-.58-.99-.9-1.46-.51-.73-1.01-1.46-1.25-2.34-.45-1.68-.53-3.4-.54-5.13-.01-.61.41-1.07.87-1.14.48-.07.96.27 1.16.87.08.24.11.51.14.77.03.26.01.52.02.78.07 2.27.83 4.3 2.15 6.12 1.34 1.85 3.11 2.76 5.42 2.41.23-.03.44-.2.65-.3-.05-.24-.05-.41-.12-.54-1.2-2.05-1.83-4.33-2.63-6.53-.11-.29-.2-.6-.23-.91-.06-.53.21-.95.67-1.12.47-.17.96-.04 1.19.46.39.85.78 1.72 1.01 2.62.47 1.81 1.37 3.38 2.4 4.91.41.62.98.97 1.7.97.99 0 1.98-.07 2.97-.18.65-.08 1-.58 1.08-1.19.08-.56.02-1.14.02-1.72-.81-.45-1.62-.82-2.35-1.31-1.59-1.05-2.31-2.56-1.95-4.45.13-.7.48-1.38.82-2.02.34-.64.81-1.22 1.19-1.85.19-.31.41-.64.45-.99.15-1.22.04-2.42-.68-3.46-.72-1.03-1.47-2.04-2.23-3.03-.21-.28-.52-.57-.84-.66-.95-.28-1.91-.54-2.89-.67-.86-.11-1.64-.29-2.29-.88-.62-.56-1.36-.74-2.18-.65-1.09.11-2.19.17-3.28.32-3.16.42-5.9 1.71-8.15 4-1.48 1.5-2.71 3.18-3.72 5.03-.14.26-.2.56-.32.91 1.06.06 2.05.13 3.16.2zm57.33 52.68c-.89.68-1.74 1.35-2.53 2.1-1.45 1.35-2.92 2.7-4.37 4.06-2.25 2.11-4.49 4.23-6.74 6.35-.23.22-.45.44-.68.65-1.49 1.39-2.99 2.77-4.46 4.18-.41.39-.75.87-1.09 1.33-1.51 2.13-3.01 4.27-4.51 6.41-1.57 2.22-3.04 4.5-4.23 6.96-1.04 2.14-1.7 4.37-1.9 6.74-.09 1.04-.23 2.07-.39 3.1-.37 2.42-.8 4.83-.86 7.29-.01.26-.03.52-.06.78-.17 1.61-.41 3.21-.51 4.82-.16 2.55-.32 5.1-.62 7.64-.16 1.35.45 1.91 2 1.86.14-.59.31-1.19.41-1.8.07-.41.04-.83.06-1.25.07-2.24-.03-4.48.26-6.73.29-2.22.53-4.44.98-6.65.82-4.1 2.37-7.89 4.64-11.4 1.4-2.16 3.13-4.05 4.76-6.02.86-1.05 1.78-2.05 2.67-3.08 2.03-2.32 4.02-4.68 6.12-6.93 3.07-3.28 6.26-6.46 9.35-9.74.93-.98 1.77-2.07 2.49-3.22.77-1.24 1.31-2.61 1.16-4.15-.16-1.38-.7-2.49-1.95-3.3zm-107.88-94.71c-.76-.51-.97-.74-.99-1.05-.03-.46.23-.79.54-1.09 1.26-1.22 2.67-2.21 4.44-2.5 1.56-.26 2.71-1.03 3.4-2.47.13-.28.31-.55.52-.78.25-.27.56-.49.97-.31.42.19.69.52.66.98-.02.36-.1.73-.23 1.06-.39 1-1.06 1.79-1.89 2.46-.36.29-.72.57-1.12.89l.51.93c.2-.16.38-.27.5-.42.69-.83 1.6-1.15 2.64-1.16.89-.01 1.78-.01 2.67-.03.4-.01.8-.08 1.18-.11.3-.94.59-1.78.84-2.63.1-.35.26-.77.15-1.07-.41-1.17-.46-2.46-1.08-3.54-.95-1.64-2.33-2.63-4.28-2.8-1.12-.1-2.1.01-2.8.98-.36.5-.86.73-1.41.93-1.49.52-3.02.85-4.56 1.14-2.11.4-4.22.77-6.3 1.27-3.34.82-5.81 2.79-7.32 5.91-.13.26-.17.57-.28.95.63 0 1.15-.02 1.67 0 1.59.08 3.12-.16 4.62-.7.69-.24 1.4-.43 2.11-.59 1.21-.27 2.15.12 2.85 1.12.59.84.61 1.78.42 2.72-.46 2.31-1.01 4.6-2.2 6.68-.18.31-.29.66-.48 1.11 1.96.43 3.71.22 5.31-.88 1.81-1.25 2.94-2.98 3.32-5.14.14-.81.12-1.68.01-2.5-.15-1.09-1.01-1.47-1.97-.96-.36.2-.67.5-1.02.73-.47.32-.96.61-1.4.87zm146.03 159.15c.34.42.77.46 1.15.54 2.5.56 5 1.09 7.5 1.64 4.64 1.01 9.29 2.04 13.93 3.04 4.59.99 9.19 1.97 13.79 2.96 3.57.77 7.14 1.57 10.6 2.79.58.2 1.22.31 1.84.31 1.37.01 2.71.21 4.03.53.67.16 1.36.27 2.05.4-.15-.31-.35-.48-.57-.6-1.74-.96-3.45-1.96-5.23-2.84-2.34-1.16-4.73-2.22-7.1-3.32-.43-.2-.89-.36-1.1-.83-.38-.86-1.15-1.02-1.94-1.1-2.39-.25-4.79-.48-7.19-.7-2.76-.26-5.53-.48-8.29-.74-2.76-.26-5.52-.55-8.28-.81-3.33-.31-6.67-.61-10.01-.91-1.3-.12-2.61-.24-3.91-.34-.39-.04-.79-.02-1.27-.02zM340.49 236.88c0-1.12.03-2.06-.01-3-.04-.92.21-1.86-.15-2.74-.17-.04-.28-.09-.37-.07-1.94.42-3.9.76-5.8 1.29-1.81.5-3.63 1-5.29 1.94-1.68.95-3.37 1.91-5.05 2.87-1.09.62-2.17 1.27-3.25 1.89-.59.34-1.15.72-1.47 1.49.45.6 1.04 1.11 1.61 1.63.57.51.98 1.23 1.87 1.43 2.6-1.85 5.22-3.65 8.26-4.74 3.05-1.09 6.18-1.83 9.65-1.99zm-76.56 82.05c-1.85-.28-3.59-.6-5.35-.79-1.8-.19-3.57-.63-5.45-.65.42 2.32.83 4.52 1.22 6.73.13.73.48 1.23 1.21 1.5 2.42.88 4.9 1.45 7.49 1.47.29 0 .58-.13.91-.2.29-2.68.45-5.27-.03-8.06zm108.93-32.63c.41.15.7.27.99.36.99.32 1.99.63 2.98.95.94.3 1.64.83 2.01 1.82.17.47.55.87.89 1.27.58.67 1.26 1.27 1.78 1.98.51.7.89 1.5 1.32 2.26 2.13-.96 3.16-2.79 2.85-5.02-.06-.4-.32-.79-.09-1.22.37-.68.07-1.19-.37-1.69-.97-1.1-1.91-2.21-2.89-3.31-.69-.78-1.56-1.18-2.62-1.23-1.65-.07-3.22.32-4.75.87-1.26.46-1.99 1.43-2.1 2.96zm-98.94 40.18c.43-3.24.31-8.01-.24-9.66-.15.02-.31.03-.45.08-1.27.46-2.53.95-3.8 1.4-1.03.37-2.05.79-3.19.59-.28-.05-.57-.26-.91.05-.03 2.7-.46 5.44-.13 8.3 2.68-.13 5.29.03 7.87-.43.3-.06.58-.23.85-.33zm104.51 84.98c-1.61.5-2.28 1.65-2.43 3.17-.06.62-.06 1.25-.07 1.88-.02 1.43.54 2.64 1.47 3.7.73.83 1.64 1.44 2.59 2.01.61.36 1.22.53 1.93.49 1.1-.07 2.2-.11 3.29-.1.98.01 1.54-.48 1.9-1.33 1.24-2.99.95-5.81-.95-8.44-.1-.14-.29-.21-.58-.41-.07.63-.11 1.09-.16 1.54-.05.41-.09.83-.17 1.24-.2 1.08-.88 1.76-1.9 2.08-.6.19-1.2.36-1.81.49-1.31.28-2.66-.34-3.35-1.49-.23-.38-.31-.76-.16-1.19.15-.44.31-.89.41-1.35.16-.77.36-1.53-.01-2.29zm-105.78-75.2c.67-1.68 1.13-4.67 1.15-6.77.02-1.73-.26-1.74-1.83-1.64-.78.05-1.55.18-2.33.26-1.04.11-2.08.17-3.11.3-1.09.14-1.17.27-1.23 1.4-.06 1.09-.15 2.19-.22 3.28-.05.74 0 1.46.25 2.17.19.54.48.77 1.06.72.51-.05 1.01-.19 1.39-.27.55.19 1.02.52 1.42.45.6-.11 1.12 0 1.68.09.56.08 1.14.01 1.77.01zm-36.73-25.48c-.03.46-.1.72-.07.97.27 2.02.55 4.03.83 6.05.09.69.49 1.17 1.09 1.43 2.15.94 4.3 1.86 6.46 2.77.26.11.58.08.96.13 0-.31.03-.51 0-.7-.38-2-.81-3.99-1.15-5.99-.17-1-.71-1.57-1.61-1.92-1.12-.43-2.23-.88-3.33-1.35-1-.42-1.99-.87-3.18-1.39zm54.97-51.16c.12 1.47.65 2.53 1.43 3.47 1.16 1.4 2.78 1.85 4.49 1.25 1.76-.62 3.04-1.8 3.88-3.44.89-1.74 1.24-3.61 1.19-5.58-2.05-.78-3.72-.13-5.26 1.12-.72.58-1.15 1.34-1.25 2.27-.04.36-.05.74-.15 1.08-.23.75-1.04.98-1.61.44-.33-.31-.58-.72-.91-1.14-.57.17-1.15.34-1.81.53zm-43.52 71.59c-.45-1.94-.79-3.68-1.26-5.39-.67-2.47-.42-2.12-2.64-3.1-1.77-.78-3.57-1.48-5.36-2.21-.13-.05-.29-.03-.47-.05-.05.17-.14.33-.11.46.52 2.24 1.07 4.46 1.58 6.7.16.68.56 1.08 1.16 1.38 1.97.98 4.04 1.7 6.19 2.2.23.06.49.01.91.01zm60.71-65.94c1.38.87 2.73.98 4.12.54 1-.31 1.92-.81 2.72-1.51 1.23-1.08 2.22-2.37 3-3.79.72-1.31.71-2.69.25-4.1-.47-1.41-2.75-2.19-3.81-.7-.26.37-.64.71-1.03.93-.56.31-.81.77-.96 1.35-.22.86-.45 1.71-.73 2.56-.55 1.68-1.45 3.12-2.97 4.11-.19.12-.33.34-.59.61zm-43.86 69.89c.04-.32.11-.67.11-1.03.02-1.3.01-2.61.01-3.91 0-.21.01-.42-.01-.62-.05-.53-.2-.69-.75-.84-.05-.01-.1-.01-.15-.02-2.27-.53-4.61-.78-6.77-1.75-.41-.18-.91-.26-1.36.17 0 .27-.04.59.01.89.22 1.33.48 2.66.71 3.99.17.97.69 1.54 1.68 1.8 1.66.42 3.3.94 4.95 1.42.49.12 1 .19 1.57-.1zm-22.45 2.78c.18.57.28 1.01.45 1.43.51 1.2 1.08 2.37 1.57 3.58.38.93 1.05 1.52 1.94 1.92 2.28 1.03 4.55 2.09 6.82 3.13.22.1.45.29.79 0-.07-.29-.09-.65-.23-.96-.94-2.09-1.9-4.17-2.85-6.25-.26-.58-.77-.84-1.33-1.01-2.04-.62-4.09-1.23-6.14-1.82-.26-.09-.58-.02-1.02-.02zm37.89-12.09c.44-.42.41-.85.41-1.27-.01-3.36.27-6.74-.43-10.2-1.1.45-2.1.88-3.12 1.27-.94.36-1.42 1.03-1.42 2.03-.01 2.61-.03 5.22-.02 7.84 0 .28.18.55.29.88 1.53-.2 2.97-.38 4.29-.55zm-41.84 2.18c.04-.13.12-.23.1-.31-.55-2.33-1.12-4.66-1.66-7-.17-.72-.56-1.21-1.19-1.55-1.42-.76-2.84-1.54-4.27-2.29-.12-.06-.29-.03-.55-.04.13 1.55.19 3.05.4 4.54.15 1.08.45 2.14.73 3.19.2.75.72 1.26 1.42 1.57 1.24.55 2.47 1.12 3.73 1.6.39.15.8.49 1.29.29zm7.83-12.87c-.05.12-.12.21-.13.3-.19 2.21.46 4.33.74 6.49.06.49.42.82.87 1.03 1.94.89 3.92 1.64 6.04 1.88.36-.42.2-.84.12-1.23-.19-.92-.4-1.83-.6-2.74-.2-.91-.4-1.83-.61-2.74-.18-.76-.51-1.27-1.41-1.42-1.59-.28-3.14-.74-4.58-1.51-.12-.07-.3-.04-.44-.06zm3.78 24.01c-.07-.42-.08-.67-.15-.91-.38-1.46-.83-2.91-1.15-4.39-.19-.87-.65-1.38-1.46-1.66-2.02-.7-4.04-1.42-6.06-2.11-.26-.09-.57-.01-.93-.01.52 1.99 1 3.86 1.49 5.73.17.66.57 1.04 1.27 1.22 1.31.34 2.59.79 3.89 1.19.97.3 1.95.59 3.1.94zm35.73-15.58c.23-2.12.39-4.14.33-6.19-.04-1.33-.39-2.58-.82-3.81-.26-.74-.57-.87-1.32-.64-.5.16-.98.36-1.47.54-.62.22-.89.64-.87 1.31.1 3.19.16 6.38.26 9.57.01.29.16.57.23.82 1.54.12 2.54-.75 3.66-1.6zm-28.3 11.06c.36 2.11.68 3.96.98 5.81.14.86.53 1.36 1.45 1.58 1.62.38 3.21.92 4.81 1.4.24.07.49.18.78-.14-.24-2.15-.34-4.38-.7-6.57-2.43-.7-4.75-1.45-7.32-2.08zm8.46 2.51c.04.72.06 1.29.11 1.85.05.57.15 1.14.19 1.71.16 2.28.16 2.28 1.51 3.93.06.08.17.12.22.15.66.08 1.27.15 1.89.22.36.04.73.09 1.09.1.67.02.93-.18 1.15-.82.05-.15.09-.3.11-.45.31-1.7.63-3.39.93-5.09.06-.35.06-.71.09-1.12-1.36-.12-2.65-.25-3.95-.33-1.04-.07-2.09-.09-3.34-.15zm-10.13-4.46c-.37-1.69-.8-3.36-1.07-5.06-.16-1-.71-1.43-1.57-1.7-1.59-.5-3.17-1.04-4.75-1.55-.28-.09-.58-.11-.95-.17-.02.29-.09.5-.05.69.47 1.92.97 3.84 1.45 5.76.19.74.65 1.13 1.4 1.28 1.22.25 2.43.59 3.65.85.61.12 1.24.18 1.89-.1zm10.26 19.59c.11-.26.18-.35.19-.44.17-2.04-.05-4.05-.37-6.06-.11-.7-.52-1.23-1.25-1.47-.89-.29-1.76-.62-2.65-.9-.64-.2-1.3-.37-1.97-.47-.65-.1-.98.29-.81.94.32 1.26.68 2.51 1.04 3.76.26.9.52 1.8.8 2.69.18.58.56.95 1.18 1.13 1.25.36 2.51.59 3.84.82zm-8.7-10.96c.03-.52.11-.89.05-1.23-.29-1.58-.59-3.16-.94-4.73-.14-.63-.49-1.14-1.2-1.31-1.67-.39-3.33-.79-5-1.16-.17-.04-.38.09-.62.15.24 1.55.67 2.98 1.11 4.42.39 1.29 1 2.26 2.42 2.54.2.04.38.16.58.22 1.13.34 2.21.86 3.6 1.1zm21.77 3.13c1.3.19 3.08.03 4.04-.41.18-.08.41-.52.35-.6-.35-.5-.02-.72.23-1.09.31-.46.35-1.09.62-1.59.96-1.75.81-3.61.71-5.58-.71.07-1.33.09-1.94.21-.61.12-1.2.36-1.81.51-.58.14-.9.51-1.08 1.03-.09.24-.15.5-.21.75-.48 2.04-.77 4.11-.95 6.19-.01.2.03.4.04.58zm-3.47-16.89c-.42 1.83-.98 7.45-.86 8.55 1.12-.18 2.24-.34 3.36-.55.8-.15 1.23-.63 1.35-1.48.24-1.75.58-3.49.83-5.24.09-.65.2-1.32-.01-2.09-1.57.27-3.1.54-4.67.81zm-35.22 8.64c.02-.44.06-.64.04-.84a7.04 7.04 0 0 0-.14-.92c-.3-1.21-.63-2.42-.9-3.64-.22-1-.69-1.73-1.77-1.93-.2-.04-.38-.16-.58-.23-1.42-.48-2.81-1.08-4.39-1.43-.01.43-.09.8-.02 1.13.31 1.54.86 3 1.5 4.43.2.45.51.78.96.99 1.69.79 3.39 1.57 5.3 2.44zm37.14 8.54c.1-.16.23-.28.25-.41.33-1.95.67-3.9.95-5.85.08-.59.25-1.24-.23-1.88-1.11.15-2.24.28-3.36.48-.63.11-.94.61-1.06 1.22-.22 1.18-.43 2.36-.65 3.53-.19 1.02-.39 2.03-.6 3.1 1.65.46 3.16-.22 4.7-.19zm-17.89 5.77c.02-.2.03-.26.02-.31-.47-2.19-1.28-4.29-1.66-6.52-.16-.93-.84-1.53-1.79-1.78-1.11-.29-2.21-.62-3.31-.92-.18-.05-.38-.04-.61-.05 0 .24-.05.4.01.53.97 2.31 1.94 4.62 2.94 6.91.14.32.39.64.68.82 1.11.69 2.26 1.3 3.72 1.32zm22.09-23.82c-.36 2.41-.7 4.67-1.01 6.93-.05.33.06.68.09 1.09 1.69.02 3.15-.36 4.47-1.13.24-2.19.18-6.82-.11-7.89-.85.21-1.7.42-2.54.65-.29.09-.57.23-.9.35zm191.06 26.59c-.14-.31-.21-.51-.31-.68-1.75-2.84-3.51-5.68-5.28-8.52-.14-.22-.29-.43-.47-.63-.33-.36-.81-.33-1.06.06-.35.56-.46 1.11-.13 1.76 1.41 2.79 2.78 5.61 4.18 8.41.18.37.44.7.68 1.08.88-.35 1.55-.93 2.39-1.48zm-195.4-7.18c-1.3-.16-2.54-.05-3.78-.03-1.05.01-1.33.26-1.62 1.33-.38 1.4-.72 2.81-1.09 4.26.87.28 1.71.18 2.47-.1 1.12-.42 2.19-.96 3.26-1.48.21-.1.43-.35.48-.57.23-1.07.65-2.12.28-3.41zm16.79-42.28c-1.04.55-1.83 1.14-1.97 2.33-.13 1.08-.38 2.16-.45 3.24-.06.82.06 1.66.12 2.49.03.45.3.75.71.95 1.04.49 1.89.18 2.19-.95.42-1.61.74-3.26.64-4.94-.08-1.07-.28-2.17-1.24-3.12zm-51.37 39.26c.06-.3.13-.42.09-.49a18.79 18.79 0 0 1-1.42-3.79c-.27-1.08-1-1.84-2.04-2.21-1.3-.46-2.63-.83-4.12-1.3.12 1.8.54 3.21 2.12 4.06.55.29 1.06.67 1.57 1.02 1.23.87 2.45 1.75 3.8 2.71zm24.13 2.36c-.26 1.82.07 3.39.37 4.96.11.54.2 1.14.8 1.52.56.03 1.18.16 1.76-.17.04-.18.12-.34.1-.48-.13-.91.13-1.73.48-2.56.3-.7.64-1.41.67-2.17-.41-.38-.84-.53-1.33-.49-.75.07-1.44-.14-2.12-.41-.17-.06-.37-.1-.73-.2zm10.84 85.54c.06.34.19.7.16 1.05-.06.83-.96 1.75-1.66 1.54-.92-.28-1.84-.08-2.96-.28 1.4 1.37 2.9 1.92 4.62 1.63.92-.15 1.55-.77 1.85-1.71.26-.81.11-1.56-.24-2.27-.37-.74-.82-1.44-1.24-2.15-.84.53-.84.53-1.84.52-.1 1.01-.1 1.01.56 1.31.25.1.47.22.75.36zm5.01-85.67c-.76.04-1.44 0-2.08.13-1.64.33-1.97.19-2.27 2.18-.04.26-.12.5-.16.76-.12.76.15 1.14.87 1.1.61-.03 1.23-.16 1.83-.28.74-.14 1.22-.64 1.4-1.32.22-.79.6-1.56.41-2.57zm9.6-66.65c-1.57.79-2.2 1.33-3.1 2.59.77.6 1.54 1.18 2.64 1.24.15-1.27.29-2.45.46-3.83zm-1.39 27.44c-.7.33-.86.89-1.06 1.4-.32.8-.3 1.64-.1 2.45.11.46.14 1.03.8 1.37.12-1.78.23-3.44.36-5.22zm126.62 97.51c-.92-.55-1.65-.98-2.56-1.13-.2.29-.38.53-.54.79-.07.13-.1.28-.14.43 1.97.63 1.97.63 3.24-.09zm-128.3-91.2c.12 1.96.98 2.65 2.42 1.98-.82-.62-1.46-1.46-2.42-1.98zm121.08 89.92c.28.74.86.62 1.34.66.29.02.46-.19.5-.47.03-.22-.25-.5-.49-.47-.44.07-.87.18-1.35.28zm-42.42-256.51c.52-.81 1.08-1.64.99-2.82-.75 1.14-.78 1.24-.99 2.82zM506 99.32c-.98-.63-.98-.63-1.67-.45.51.4 1.04.58 1.67.45zM380.63 318.64c-.17.17-.31.3-.44.42.11.08.2.21.32.23.2.03.44-.01.43-.29 0-.1-.16-.2-.31-.36zm32.34 82.27c.19.21.37.42.58.65.19-.49.19-.49-.58-.65zm-46.54-252.54c-.1.21-.18.33-.2.47-.01.07.07.17.11.25.09-.08.23-.16.24-.25.01-.12-.08-.26-.15-.47z"/><path d="M185.35 425.17c-.03.86-.04 1.73-.12 2.58-.02.22-.26.42-.4.63v-3.14c.18-.02.35-.04.52-.07zM185.36 436.31c-.17-.02-.35-.05-.52-.07v-2.83c.12.09.34.18.35.28.08.88.12 1.75.17 2.62zM272.89 512.65c-.37.11-.74.21-1.11.32-.27.08-.53.19-.79.28h-2.52c1.45-.38 2.92-.62 4.42-.6z" class="st1"/><path d="M257.15 513.25c.02-.07.05-.14.06-.22 0-.03-.03-.07-.05-.11 1.06-.05 2.12-.14 3.13.33h-3.14z" class="st2"/><path d="M587.31 409.83c.1 0 .2.01.3.01v2.2c-.4-.7-.39-1.45-.3-2.21zM587.6 431.22l-.15-.04-.14.06c-.14-.77-.01-1.51.29-2.22v2.2zM426.94 82.03c-.02.07-.05.14-.06.2 0 .03.04.07.07.1-.67.13-1.3.04-1.89-.3h1.88z" class="st1"/><path fill="#feee67" d="M450.46 275.69c-1.18.23-2.34.49-3.53.67-.88.13-1.77.14-2.66.2-1.3.09-2.61.19-3.91.27-2.67.16-5.34.22-8.01-.06-3.44-.35-6.86-.78-10.29-1.17-3.8-.43-7.6-.79-11.39-1.28-2.93-.38-5.84-.27-8.77-.04-2.15.16-4.07.82-5.95 1.78-3.87 1.97-7.75 3.9-11.68 5.87-1.2-.57-2.3-1.37-3.67-1.64-1.43-.28-2.81-.29-4.19.09-1.32.36-2.5 1.03-3.64 1.8-1.17.8-1.8 2.01-2.52 3.17-3.73-.23-7.26.27-10.54 2.04-3.22 1.74-5.55 4.39-7.55 7.59-.16-.31-.3-.46-.32-.62-.03-.36-.09-.77.03-1.09.38-.96.09-1.83-.12-2.76-.55-2.39-1.06-4.8-1.52-7.21-.44-2.31-.89-4.62-1.47-6.9-.46-1.82-.74-3.69-1.05-5.55-.62-3.66-1.23-7.33-1.78-11-.3-1.97-.45-3.95-.71-5.92-.35-2.75-.73-5.5-1.11-8.24-.25-1.81-.56-3.62-.76-5.44-.17-1.51-.27-3.03.42-4.48.11-.22.12-.51.11-.76-.28-4.03.54-7.91 1.48-11.79 1.96-8.08 4.34-16.05 6.54-24.07 1.89-6.88 4.47-13.49 6.91-20.17.36-.98.59-2 .89-3 .3-1 .57-2.02.94-2.99 1.31-3.48 2.39-7.03 3.38-10.61.67-2.43 1.51-4.78 2.51-7.09.68-1.58 1.31-3.19 1.9-4.82.91-2.51 2.08-4.91 3.23-7.32.07-.14.18-.25.33-.47h1.02c1.41 0 2.83.04 4.24 0 5.11-.13 9.91-1.46 14.4-3.89 1.06-.57 2.08-1.19 3.18-1.83.69.38 1.17 1.01 1.69 1.58 1.46 1.59 3.05 3.02 4.83 4.24 3.46 2.39 7.3 3.83 11.41 4.6 2.01.38 4.03.62 6.08.61 3.27-.01 6.47-.49 9.59-1.44 1.01-.31 2.02-.49 3.08-.5 2.58-.01 5.1-.48 7.61-1.02.41-.09.84-.12 1.23-.26.94-.35 1.59.04 2.21.72.92 1 1.84 2.01 2.85 2.92 3.5 3.15 7.65 5.07 12.2 6.15 2.25.53 4.53.83 6.84.89 4.02.1 7.91-.59 11.7-1.93.39-.14.79-.28 1.18-.42.05-.02.1 0 .35.02.43.36 1.02.79 1.54 1.3.63.62 1.24 1.29 1.79 1.98 3.86 4.79 8.87 7.73 14.8 9.18 2.39.59 4.82.93 7.3.96 3.54.05 6.98-.49 10.36-1.54 2.35-.73 4.63-1.66 6.81-2.79 1.16-.6 2.23-1.35 3.34-2.05.56-.35.89-.87 1.05-1.5.51-1.98 1.01-3.95 1.53-5.92.13-.48-.16-.66-.58-.81.79-1.64 1.49-3.26 2.88-4.56.69.9.99 1.87.97 2.94-.03 1.73-.12 3.45-.13 5.18-.02 2.42-.53 4.78-.82 7.16-.02.16-.04.32-.09.46-.77 2.24-.94 4.61-1.5 6.89-.77 3.14-1.49 6.31-3.02 9.22-.66 1.25-1.2 2.55-1.8 3.83-.71 1.52-1.55 2.96-2.48 4.36-.66 1-1.21 2.08-1.76 3.14-3.21 6.17-6.43 12.34-9.95 18.35-3.88 6.63-8.64 12.6-13.76 18.3-2.49 2.77-5.13 5.37-7.89 7.88-2.9 2.64-5.69 5.42-8.53 8.13-.68.65-1.37 1.3-2.07 1.92-3.89 3.43-7.7 6.94-11.81 10.11-2.83 2.18-5.3 4.76-7.76 7.33-.91.94-1.78 1.92-2.69 2.86-.87.9-1.31 2.02-1.61 3.18-.25.97.01 1.41.97 2.03-.09.23-.14.49-.28.7-.93 1.38-1.65 2.79-2.03 4.35zm-21.1-65.46c-.28.53-.4.81-.56 1.06-1.12 1.75-2.56 3.17-4.39 4.18-.89.49-1.21 1.16-1.07 2.2.31 2.33.51 4.68.78 7.02.08.67.18 1.35.36 2 .39 1.41 1.23 2.52 2.46 3.34.97.64 2.02.83 3.15.58 3.69-.82 6.48-2.83 8.2-6.23 1.14-2.25 2.06-4.57 2.52-7.06.22-1.18.53-2.35.82-3.51.93-3.72 1.6-7.46 1.44-11.32-.08-2.05-.22-4.08-.87-6.03-.65-1.93-1.41-3.83-2.04-5.76-.52-1.58-1.29-2.95-2.59-4.02-.44-.36-.79-.84-1.2-1.24-1.02-1-2.15-1.83-3.52-2.3-3.01-1.03-5.95.06-7.54 2.79-1.17 2.01-1.9 4.18-2.47 6.42-.87 3.41-1.3 6.89-1.51 10.39-.1 1.62-.05 3.24-.05 4.87 0 .31.02.63.07.94.16.84.62 1.29 1.47 1.39.47.05.94.03 1.41.05 1.63.05 3.25.14 5.13.24zm-36.91-8.63c.07 1.81.16 3.43.2 5.06.02.78.36 1.28 1.05 1.59.63.28 1.25.36 1.97.25 1.44-.22 2.91-.29 4.37-.41.31-.02.63.01.93.07.36.07.59.51.47.85-.07.2-.15.4-.27.56-1.33 1.72-2.3 3.73-4.28 4.91-.91.54-1.01 1.41-.4 2.29 1.03 1.47 1.78 3.07 2.46 4.72.42 1.01.81 2.04 1.24 3.05.41.97 1.19 1.45 2.22 1.44.46 0 .94-.09 1.37-.26a12.05 12.05 0 0 0 3.37-1.98c.9-.75 1.63-1.66 2.02-2.76.93-2.61 1.81-5.24 2.68-7.87.66-2 .81-4.1 1.07-6.17.33-2.61.34-5.23.07-7.83-.26-2.54-.62-5.08-1.31-7.56-.23-.81-.47-1.6-.96-2.3-.43-.6-.8-1.23-1.22-1.83-1.09-1.56-2.39-2.91-4.03-3.9-2.05-1.23-4.18-1.51-6.47-.74-1.96.66-3.3 1.86-4.09 3.81-2 4.89-2.77 9.96-2.46 15.01zm30.72 57.41v.05h2.36c1.1 0 2.2-.07 3.26-.41 2.12-.69 4.09-1.69 5.71-3.2 3.06-2.84 4.08-6.37 3.02-10.43-.47-1.81-1.61-3.02-3.55-3.33-.35-.06-.73-.17-1.01-.37-.78-.55-1.63-.64-2.54-.62-2.63.05-5.05.85-7.28 2.17-1.3.77-2.52 1.69-3.81 2.49-2.17 1.36-4.34 2.72-6.56 4.01-1.38.8-2.91 1.16-4.51 1.18-1.62.02-3.25.02-4.85-.28-.93-.17-1.11.56-.88 1.17.11.28.31.55.53.76.62.62 1.39.94 2.27.89 1.38-.07 2.56.42 3.66 1.19.85.61 1.7 1.23 2.55 1.83 1.03.73 2.1 1.38 3.31 1.77 2.3.75 4.61 1.41 7.07 1.12.41-.03.83.01 1.25.01zm-55.05-20.53c-.69-.19-1-.68-1.29-1.18-.89-1.54-1.81-3.06-2.65-4.63-.57-1.06-1.17-2.1-1.94-3.04-1.48-1.82-3.35-3.14-5.4-4.22-.51-.27-1.04-.5-1.53-.8-.74-.45-1.25-1.06-1.45-1.95-.66-2.97-1.28-5.94-.8-9.01.04-.24-.04-.49-.06-.73-.77-.19-1.18.21-1.46.73-.45.84-.71 1.74-.74 2.7-.07 2.21.21 4.4.74 6.53.44 1.74 1.42 3.21 3.18 3.85 2.14.77 3.71 2.32 5.42 3.67.48.37.82.95 1.14 1.48.35.58.61 1.21.91 1.82.84 1.75 1.77 3.44 2.96 4.98.29.37.58.75.93 1.06 1.08.97 2.33 1.13 3.62.44.96-.51 1.65-1.29 2.15-2.23.87-1.65 1.35-3.43 1.21-5.29-.14-1.87-.34-3.76-.7-5.6-.5-2.51-1.15-4.99-1.78-7.47-.22-.86-.36-1.72-.45-2.59.26-.2.46-.37.66-.53 2.75-2.13 4.31-4.94 4.78-8.36.23-1.64.07-3.24-.71-4.73-.13-.25-.38-.43-.57-.63-.58.35-.78.81-.78 1.37.01.68.05 1.36.01 2.04-.05.94-.05 1.89-.25 2.8-.53 2.48-1.69 4.61-3.89 6.03-.62.4-.79.9-.69 1.6.14.98.3 1.98.3 2.96 0 1.85.36 3.62.9 5.39.81 2.66 1.2 5.41 1.09 8.21-.05 1.39-.41 2.69-1.18 3.85-.4.63-.83 1.23-1.68 1.48zm115.8-69.16c-.02 0-.04-.01-.07-.01 0-.63-.03-1.26.01-1.88.09-1.67-.84-2.75-2.09-3.62-.21-.15-.68-.17-.86-.03-.18.14-.18.55-.21.84-.01.14.08.3.16.43 1.02 1.71 1.12 3.56.89 5.47-.18 1.51-.3 3.02-.46 4.53-.19 1.75.46 3.17 1.7 4.37.53.51 1.06 1.01 1.57 1.54 1.67 1.77 2.97 3.78 3.77 6.09.75 2.18.62 4.32-.21 6.45-.31.8-.8 1.47-1.65 1.79-.83.31-1.67.6-2.5.9-1.46.52-2.79.23-4-.67-.75-.56-1.45-1.2-2.18-1.8-.89-.73-1.78-1.47-2.68-2.18-2.07-1.65-4.49-1.85-7-1.67-.41.03-.66.29-.81.64-.16.39-.03.72.22 1.02.24.3.57.47.96.46.47-.01.94-.06 1.41-.07.79-.03 1.59-.04 2.29.38 1.43.87 2.87 1.74 3.98 3.03 1.08 1.26 2.47 2.09 3.96 2.75 1.09.48 2.21.64 3.36.25 1.39-.47 2.77-.94 4.15-1.43 1.03-.37 1.75-1.11 2.28-2.05 1.2-2.15 1.51-4.43 1-6.83-.34-1.61-1.13-3.04-1.88-4.47-1.01-1.92-2.24-3.66-4.01-4.97-.99-.74-1.46-1.77-1.48-2.98-.02-.78.02-1.57.08-2.35.07-1.33.19-2.63.3-3.93zm-22.86 41.72c-1.41-.46-2.49-.15-3.41.8-2.01 2.04-3.66 4.3-4.37 7.13-.09.35-.22.7-.32 1.05-.83 2.83.12 6.23 2.38 8.13 1.2 1.01 2.48 1.94 3.81 2.75 2.16 1.31 4.5 1.93 7.05 1.39.4-.08.83-.08 1.25-.07 1 .03 1.83-.35 2.56-1 1.02-.92 1.79-2.04 2.58-3.15.52-.73.22-1.66.65-2.37.43-.72.96-1.37 1.12-2.22.72-3.76.06-7.28-1.83-10.58-.78-1.36-2.07-2.03-3.53-2.4-.2-.05-.46.11-.82.22.36.43.6.77.9 1.04 1.13 1 1.84 2.27 2.37 3.65 1.21 3.13 1.29 6.33.42 9.55-.37 1.38-1.09 2.6-1.99 3.71-.73.9-1.66 1.42-2.79 1.61-.46.08-.94.12-1.38.25-1.11.33-2.2.28-3.22-.2-1.42-.66-2.79-1.42-4.16-2.19-.45-.25-.84-.62-1.22-.98-2.23-2.09-2.78-4.74-1.58-7.56.12-.29.23-.59.32-.88.6-2 1.62-3.72 3.18-5.14.65-.6 1.2-1.31 1.78-1.99.09-.11.13-.27.25-.55zm-10.24-32.67c.78 1.01 1.78 1.51 3 1.51 1.5 0 2.49-1.01 2.34-2.51-.22-2.2-.68-4.34-1.9-6.24-.93-1.45-1.88-2.9-2.75-4.39-.78-1.33-1.86-2.24-3.29-2.77-.54-.2-1.08-.41-1.63-.54-.93-.21-1.6-.74-2.11-1.52-.23-.35-.4-.74-.62-1.09-.26-.39-.49-.82-.83-1.13-.77-.7-1.57-1.39-2.43-1.98-.59-.4-1.3-.65-1.97-.93-.84-.34-1.64-.18-2.39.29-.93.58-1.9 1.11-2.8 1.74-.68.48-1.32 1.03-1.9 1.63-.87.9-1.66 1.88-2.49 2.83-.17.2-.35.39-.48.62-.33.56-.02 1.19.64 1.29.25.04.55.04.76-.06.46-.23.93-.49 1.29-.84.52-.51.96-1.1 1.43-1.67.97-1.19 2.1-2.18 3.38-3.02 1.15-.74 2.22-.72 3.35.06 1.25.85 2.19 1.95 2.82 3.3.66 1.39 1.67 2.2 3.23 2.4 1.77.23 3.07 1.23 4 2.73.55.89 1.12 1.77 1.75 2.6 1.5 1.94 2.11 4.18 2.24 6.58.01.18-.11.37-.19.63-.51-.18-.94-.32-1.39-.48-.24.17-.46.31-.65.48-.15.13-.26.3-.41.48zm-59.99-9.5c-.2-.12-.42-.26-.64-.39-1.16-.71-2.29-1.47-3.48-2.12-1.75-.97-3.43-2.02-4.88-3.4-.15-.14-.31-.29-.48-.4-1.24-.81-2.27-.89-3.65.03-.39.26-.68.65-1.05.95-.4.33-.79.69-1.25.94-.68.36-1.47.48-2.06-.09-1.42-1.38-2.53-2.94-2.43-5.07.01-.31.05-.63.03-.94-.03-.61-.37-.95-.98-1.02-.57-.06-1.02.21-1.22.76-.41 1.1-.22 2.19.16 3.23.4 1.08.9 2.12 1.4 3.15.4.83 1.07 1.43 1.92 1.78 1.79.75 3.48.54 5.02-.67.49-.39.93-.85 1.44-1.2.74-.51 1.18-.48 1.79.19.86.96 1.93 1.59 3.06 2.16.98.49 1.93 1.05 2.88 1.6.86.5 1.71 1.02 2.55 1.54 1.03.64 2.07.66 3.13.11.51-.26.99-.59 1.51-.84 1.99-.98 2.9-2.63 3.07-4.77.03-.42.04-.85.15-1.24.3-1.09.35-2.16.04-3.25-.27-.96.06-1.76.74-2.42.33-.32.73-.59 1.14-.83 1.12-.66 1.53-1.64 1.41-2.92-.6-.41-1.14-.91-1.92-.87-.38 1.74-.43 1.89-1.9 2.96-1.14.82-1.62 1.86-1.52 3.23.06.83.07 1.68.05 2.51-.04 1.68-.35 3.33-.8 4.95-.29 1.04-.91 1.74-2.01 1.97-.4.04-.78.22-1.22.38zm-21.72 97.71c-.17.03-.22.03-.27.04-.69.22-.92.76-1.08 1.41-.43 1.81-1.48 3.21-2.98 4.29-.62.44-1.29.71-2.05.66-.83-.05-1.68-.11-2.49-.28-1.09-.23-2.12-.67-2.89-1.49-1.18-1.26-2.36-2.52-3.24-4.02-.94-1.59-1.35-3.31-1.07-5.12.34-2.14 1.14-4.13 2.46-5.87.72-.94 1.69-1.55 2.81-1.91.4-.13.8-.25 1.17-.44.15-.08.34-.35.31-.48-.05-.22-.27-.41-.42-.6-.03-.03-.1-.04-.15-.05-1-.21-1.99-.2-2.89.35-.53.32-1.04.71-1.5 1.13-2.44 2.22-3.65 5.04-4.01 8.28-.16 1.45-.01 2.82.63 4.12 1.34 2.72 3.15 5.06 5.58 6.89 1.96 1.48 4.18 1.86 6.55 1.33 3.41-.76 5.17-3.16 6.06-6.33.19-.66.13-1.37-.53-1.91z"/><path d="M251.6 424.83c-.33.6-.6 1.05-.83 1.52-.49.99-.38 1.46.49 2.17.53.43 1.1.79 1.81.86 1.09.11 1.95-.34 2.65-1.1.46-.5.83-1.07 1.29-1.67 1.23.36 2.39.93 3.59 1.42.82.34 1.63.71 2.46 1.02.43.16.91.34 1.35.32 1.78-.08 3.2.79 4.76 1.53-.16 1.08-.81 2.05-.3 3.2.26-.02.55-.04.97-.07.15.16.36.38.56.61 1.5 1.71 3.48 2.46 5.66 2.75.5.07 1.04-.05 1.54-.18 3.16-.82 4.75-4.31 3.24-7.19-.53-1.02-1.21-1.95-1.84-2.91-.26-.39-.55-.75-.86-1.17.23-.43.44-.84.67-1.24 3.45-5.92 6.9-11.85 10.34-17.77.32-.54.66-1.08.91-1.65 1.7-3.89 3.78-7.58 5.74-11.33 1.75-3.35 3.28-6.76 4.21-10.45.75-2.99 1.74-5.92 2.46-8.91.45-1.87.61-3.82.88-5.73.17-1.19.3-2.38.44-3.55.48-.33.84-.09 1.18.16 2.14 1.59 4.38 3.07 6.41 4.8 11.78 10 19.46 22.59 23.31 37.52 1.16 4.52 1.8 9.13 2.07 13.8.2 3.4.22 6.8.02 10.2-.44 7.47-1.89 14.73-4.5 21.74-4.25 11.4-10.65 21.43-19.46 29.86-5.65 5.4-12.05 9.7-19.14 13-.42.2-.91.39-1.19.73-.46.57-1.05.82-1.69 1.05-1.22.45-2.45.91-3.67 1.37-1.58.6-3.24.82-4.89 1.1-3.15.53-6.3 1.03-9.45 1.49-.77.11-1.58.15-2.34.05-.95-.12-1.86-.09-2.81 0-1.09.1-2.2.1-3.29.02-3.34-.26-6.67-.58-10.01-.88-1.52-.14-2.97-.61-4.42-1.03-5.78-1.67-11.44-3.64-16.96-6.04-.67-.29-1.33-.62-1.95-1-9.51-5.82-17.2-13.46-22.94-23.04-4.95-8.26-8.2-17.13-9.78-26.64-1.03-6.19-1.23-12.41-.79-18.63.99-13.82 5.5-26.45 13.21-37.95 2.51-3.75 5.26-7.31 8.12-10.79 1.57-1.91 3.33-3.62 5.28-5.14.42-.32.82-.65 1.37-.7.6-.06 1.06-.41 1.51-.77 6.9-5.43 14.58-9.39 22.99-11.88 3.82-1.13 7.71-1.87 11.68-2.29 2.82-.3 5.63-.53 8.52-.26.02.57-.35.96-.61 1.38-2.3 3.75-4.35 7.63-6.14 11.65-2.92 6.56-5.13 13.37-6.9 20.32-1.54 6.04-2.75 12.14-3.53 18.32-.29 2.28-.5 4.58-.87 6.85-.28 1.72-.4 3.43-.41 5.16-.01.94-.05 1.88-.09 2.83-.01.31 0 .67-.14.92-.45.75-.42 1.47.11 2.24zM444.34 420.36c1.4-.02 2.61.35 3.83.62 8.11 1.82 16.21 3.66 24.32 5.49 5.4 1.22 10.8 2.47 16.21 3.66 5.77 1.27 11.52 2.6 17.34 3.65 4.68.84 9.31 1.94 13.97 2.91 1.33.28 2.67.52 3.99.84.57.14 1.01-.01 1.46-.34.83-.6 1.49-1.32 1.82-2.3.41-1.24.85-2.47 1.21-3.73.45-1.59.2-3.12-.61-4.54-.57-1-1.18-1.98-1.85-2.91-.83-1.15-1.87-2.07-3.1-2.85-1.32-.83-2.52-1.87-3.76-2.83-.38-.3-.62-.69-.72-1.18-.25-1.16-.9-2.1-1.75-2.92-.3-.29-.6-.59-.87-.9-.45-.52-.81-1.1-.89-1.8-.08-.75-.4-1.39-.78-2.03-6.87-11.5-13.76-22.98-21.11-34.19-1.78-2.71-3.57-5.42-5.34-8.14-1.26-1.93-2.3-3.98-3.27-6.08-.09-.19-.19-.37-.25-.57-.16-.51-.04-.93.44-1.22 1.43-.86 2.84-1.79 4.45-2.28 4.45-1.35 8.89-2.73 13.47-3.61 2.27-.43 4.55-.71 6.86-.79 3.3-.11 6.6-.02 9.89.35 6.39.72 12.51 2.39 18.36 5.08 9.14 4.2 16.98 10.08 23.29 17.96 3.72 4.64 6.72 9.71 9.17 15.13 2.58 5.7 4.43 11.62 5.49 17.79.99 5.75 1.28 11.56.92 17.38-.54 8.89-2.38 17.5-5.8 25.75a77.154 77.154 0 0 1-9.42 16.61c-1.59 2.14-3.1 4.36-5.03 6.23-1.28 1.24-2.57 2.47-3.91 3.64-2.53 2.2-5.03 4.43-7.66 6.51-4.84 3.84-10.33 6.53-16.08 8.69a61.265 61.265 0 0 1-13.66 3.4c-4.42.57-8.84.81-13.32.46-7.71-.61-15.03-2.54-21.95-5.95-9.55-4.7-17.31-11.5-23.43-20.18-5.5-7.8-9.1-16.43-11.09-25.76-1.31-6.13-1.77-12.33-1.5-18.58.08-1.93.34-3.86.53-5.78-.01-.19.06-.39.13-.69z" class="st4"/><path fill="#d49293" d="M521.23 109.27c-.49.36-.72.56-.97.71-1.31.77-2.61 1.55-3.93 2.3-1.12.64-2.05 1.44-2.63 2.62-.21.42-.5.8-.79 1.17-2.77 3.53-4.49 7.53-5.48 11.87-.87 3.81-1.14 7.67-.88 11.55.36 5.52 1.99 10.68 4.83 15.43.43.71.96 1.37 1.48 2.03.74.93.8 1.01 1.19 2.58-.47.32-1.04.39-1.6.4-5.89.19-11.72-.14-17.41-1.83-2.56-.76-5.05-1.72-7.37-3.07a19.06 19.06 0 0 1-4.06-3.19c-1.31-1.35-2.19-2.92-2.59-4.77-.07-.31-.15-.61-.24-.91-.03-.09-.11-.17-.18-.29-.5-.22-1.01-.07-1.5.1-2.39.81-4.84 1.34-7.34 1.62-2.5.29-5.01.35-7.53.26-4.05-.15-8.02-.72-11.87-2.02-1.84-.62-3.61-1.38-5.29-2.36-2.11-1.24-3.91-2.81-5.21-4.9-.19-.31-.41-.59-.66-.95-.33.11-.62.18-.89.3-1.06.45-2.12.9-3.17 1.37-2.99 1.36-6.12 2.1-9.38 2.39-2.87.26-5.74.5-8.63.35-4.84-.26-9.54-1.17-14.03-3.08-1.55-.66-3-1.49-4.36-2.47-1.55-1.13-2.81-2.51-3.71-4.2-.12-.23-.25-.46-.38-.69-.02-.04-.08-.06-.2-.15-.75-.06-1.43.37-2.13.69-1.57.72-3.18 1.33-4.84 1.83-2.02.61-4.07 1.01-6.16 1.13-2.61.15-5.23.22-7.85.29-2.37.06-4.7-.29-7.02-.66-.46-.07-.93-.16-1.4-.21-1.64-.17-3.17-.65-4.61-1.44-1.65-.9-3.32-1.78-4.97-2.69-1.45-.81-2.57-1.97-3.44-3.37-1.07-1.71-1.69-3.59-2.22-5.51-.15-.55-.25-1.12-.41-1.68-1.35-4.9-.51-9.54 1.66-14.01.73-1.5 1.59-2.95 2.49-4.36.59-.92 1.31-1.76 2.06-2.57 1-1.07 2.02-2.14 3.13-3.08 1.43-1.22 2.94-2.35 4.47-3.45 1.14-.82 2.53-.99 3.87-1.17 1.61-.21 3.19-.48 4.73-1.04 1.78-.64 3.66-.87 5.52-1.18 1.8-.31 3.61-.62 5.42-.89.77-.12 1.56-.2 2.35-.18 2.74.04 5.43-.38 8.13-.7 1.71-.2 3.43-.45 5.16-.48 6.13-.11 12.26-.22 18.39-.17 3.55.03 7.11.31 10.65.74 2.08.25 4.17.42 6.24.69 2.44.32 4.88.65 7.3 1.09 5.76 1.06 11.51 2.18 17.26 3.3 5.7 1.11 11.33 2.52 16.96 3.95 3.6.92 7.22 1.74 10.81 2.68 2.93.77 5.84 1.62 8.75 2.47 3.92 1.14 7.84 2.27 11.73 3.49 3.79 1.19 7.55 2.49 11.32 3.75.38.12.76.3 1.43.57zm-101.3 27.43c0 .04.01.08.01.11 1.09-.14 2.17-.27 3.26-.41 3.63-.47 7.24-1.01 10.79-1.91 3.66-.93 7.2-2.16 10.61-3.78.61-.29 1.23-.6 1.77-1 1.19-.89 1.45-2.57.64-3.78-.6-.89-1.56-1.23-2.59-.9-.4.13-.79.28-1.16.47-5.82 2.91-12.07 4.33-18.45 5.26-2.06.3-4.15.44-6.24.59-1.34.1-2.35 1.24-2.35 2.65 0 1.47.88 2.54 2.3 2.69.46.05.94.01 1.41.01zm-62.89-28.51c-.64-.18-1.11.09-1.46.59-.18.25-.31.55-.43.83-.84 1.96-1.18 4.02-1 6.13.14 1.71.48 3.41.78 5.11.1.56.3 1.11.53 1.63 1.45 3.14 3.65 5.6 6.74 7.18a37.6 37.6 0 0 0 9.9 3.42c1.27.25 2.15-.2 2.7-1.32.6-1.23.28-1.84-1.11-2-2.3-.27-4.51-.84-6.64-1.77-.91-.4-1.86-.7-2.79-1.04-.89-.33-1.71-.77-2.45-1.38-2.21-1.83-3.72-4.1-4.36-6.9-.32-1.42-.54-2.87-.78-4.32-.26-1.57-.3-3.12.35-4.62.21-.49.28-1 .02-1.54z"/><path d="M382.87 297.91c3.05-2.11 3.12-2.17 3.98-3.73 1.18-2.16 1.32-2.59 1.62-5.14.36-.16.77-.38 1.2-.52 2.88-.94 5.76-1.88 8.66-2.78 1.45-.45 2.95-.67 4.48-.7 1.73-.03 3.45-.1 5.17-.25 2.58-.22 5.13-.01 7.67.37 3.05.45 6.11.89 9.14 1.47 3.03.58 6.02 1.32 9.03 1.99.09.02.16.12.34.26-.22.76-.66 1.45-1.12 2.13-1.17 1.74-2.36 3.46-3.52 5.2-2.06 3.09-4.24 6.11-5.87 9.46-1.94 4-3.85 8.01-5.66 12.07-.89 2-1.54 4.11-2.29 6.17-.55 1.52-1.12 3.04-1.59 4.59-.52 1.7-.99 3.41-1.41 5.14-.97 3.96-1.91 7.93-2.86 11.89-.15.61-.32 1.22-.4 1.84-.08.61-.14 1.2.1 1.84.23.61.18 1.32.26 2.08-.27.24-.57.52-.88.8-4.82 4.28-9.59 8.6-14.12 13.19-1.36 1.37-2.52 2.94-3.74 4.44-.99 1.22-1.91 2.49-2.87 3.74-.14.18-.35.31-.54.48-.12-.18-.22-.26-.21-.33.06-1.44-.55-2.61-1.33-3.77-1.4-2.08-2.72-4.22-4.08-6.33-.14-.22-.3-.43-.46-.63-1.3-1.59-2.38-3.33-3.29-5.15-2.96-6.01-6.46-11.73-9.63-17.62-1.34-2.49-2.73-4.95-4.09-7.42-.33-.6-.61-1.21-.89-1.83-1.37-3-2.73-6-4.1-8.99-.26-.57-.57-1.09-1.02-1.57-.69-.73-.99-1.67-1.14-2.84.71.35 1.26.59 1.8.88 2.59 1.39 5.34 2.06 8.3 1.95 1.88-.07 3.77-.02 5.66 0 .68.01 1.36.07 2.04.12.47.04.94.17 1.4.15.46-.01.92-.16 1.36-.24.1.05.2.09.29.15 1.28.97 2.44 1.01 3.72.12.97-.67 1.29-2.59.58-3.56-.59-.8-2.29-1.33-3.4-.47-.33.25-.64.56-.85.91-.54.89-1.32 1.31-2.32 1.37-1.46.08-2.92.22-4.38.24-1.68.03-3.35-.06-5.03-.06-2.03 0-3.92-.53-5.73-1.42-2.42-1.2-4.51-2.86-6.43-4.73-1.43-1.39-2.8-2.83-4.19-4.26-.1-.1-.16-.25-.27-.43 2.14-.78 4.26-.1 6.45-.16.25.35.53.72.79 1.09.58.81 1.11 1.66 1.74 2.42 1.49 1.78 3.43 2.5 5.73 2.25.62-.07 1.24-.19 1.85-.32.64-.13 1.23-.13 1.8.27 1.53 1.07 3.13 1 4.75.21.33-.16.67-.3.99-.48.95-.5 1.92-.73 3.02-.5.71.15 1.46.1 2.19.1 1.81-.01 3.23-.81 4.22-2.31.4-.61.7-1.28.98-1.96.18-.45.47-.67.92-.74.41-.06.83-.12 1.24-.2.48-.09.85-.34 1.21-.67 1.67-1.55 2.24-3.32.97-5.64-.33-.6-.69-1.17-1.01-1.77-.75-1.4-1.87-2.06-3.48-1.84-.44.03-.9-.02-1.45-.02zm20.39 36.23c-.57.17-.84.65-1.08 1.09-.35.64-.63 1.32-.9 2-.43 1.05-.54 2.12-.04 3.2.37.8.33 1.63.01 2.44-.25.63-.49 1.27-.82 1.86-.98 1.75-2.31 2.08-4.07 1.12-1.88-1.03-3.8-1.99-5.67-3.03-1.46-.8-2.75-.81-3.98.45-.69.71-1.58.74-2.48.4a6.52 6.52 0 0 1-.84-.41c-1.72-.97-3.1-2.31-4.23-3.91-.65-.92-1-1.96-1.01-3.09-.02-1.05 0-2.09.01-3.14.03-1.44.41-2.79 1.11-4.04.13-.23.25-.46.37-.69.18-.37.11-.73-.17-1.01-.31-.32-.71-.52-1.13-.29-.3.17-.63.42-.78.71-.95 1.88-1.7 3.81-1.63 5.99.04 1.36.13 2.71.39 4.05.36 1.81 1.19 3.34 2.62 4.52.89.73 1.79 1.45 2.71 2.14 1.89 1.44 3.9 1.72 6 .49 1.17-.69 2.27-.67 3.39.04.31.2.63.37.96.54 1.39.73 2.78 1.45 4.16 2.2 1.05.57 2.11.55 3.17.08.43-.19.86-.41 1.22-.7 2.31-1.88 3.33-4.28 2.65-7.23-.28-1.24-.28-2.37.29-3.5.14-.28.25-.58.36-.87.24-.65.02-1.11-.59-1.41zm-.56-32.06c0-.8.03-1.48-.01-2.16-.03-.46-.37-.73-.85-.75-.59-.03-1.05.2-1.24.75-.17.49-.28 1.01-.31 1.52-.13 1.86.22 3.65.99 5.34a10.43 10.43 0 0 0 2.57 3.53c1.37 1.23 3.66 1.46 4.95.53.34-.24.56-.68.44-.92-.18-.34-.52-.34-.82-.29-1.65.27-2.8-.53-3.78-1.74-1.42-1.72-2.17-3.67-1.94-5.81z" class="st6"/><path d="M256.91 423.86c.3-2.98.2-6.01.72-9.02.41-2.37.71-4.76 1.04-7.14.77-5.6 1.84-11.14 3.2-16.63 1.93-7.78 4.47-15.35 7.82-22.64 1.86-4.05 4.06-7.9 6.44-11.66.7-1.1 1.52-1.43 2.82-1.16 2.76.58 5.52 1.18 8.28 1.76 1.07.23 1.96.75 2.57 1.65.94 1.39 1.86 2.78 2.75 4.2.77 1.22 1.1 2.57 1.11 4.03.04 3.83-.12 7.64-.7 11.43-.76 4.93-2.05 9.69-4.36 14.17-3.21 6.22-6.24 12.54-9.37 18.81-.96 1.92-1.96 3.81-3 5.69-1.77 3.21-3.45 6.45-4.71 9.9-.04.1-.09.19-.13.29-.49 1.12-.72 1.26-1.92.85-4.05-1.37-8.1-2.78-12.14-4.18-.12-.06-.22-.2-.42-.35zM490.21 413.23c-14.65-1.36-29.06-2.71-43.57-4.06.1-1.51.53-2.89.93-4.27.05-.19.21-.39.37-.49.89-.57 1.11-1.49 1.28-2.42.44-2.32 1.15-4.56 1.99-6.75.96-2.49 2.14-4.88 3.63-7.11 2.79-4.17 5.6-8.33 8.46-12.46 1.85-2.68 4.21-4.91 6.58-7.23.73 1.18 1.43 2.26 2.08 3.37.4.69.55 1.46.6 2.26.05.73.12 1.46.18 2.19.06.68.35 1.26 1.03 1.43.72.18 1 .69 1.28 1.26 1.18 2.5 2.36 5.01 3.55 7.51s2.38 5 3.61 7.48c2.39 4.83 4.37 9.83 6.36 14.83.46 1.16.93 2.33 1.39 3.49.09.23.13.49.25.97z" class="st7"/><path fill="#fefefe" d="M385.99 425.47c.35 1.01.69 1.93 1.01 2.86.44 1.28.93 2.55 1.28 3.86.52 1.89.41 3.84.24 5.77-.08.88-.23 1.77-.2 2.65.04 1.21-.52 1.97-1.52 2.51-1.85 1-3.81 1.71-5.85 2.17-3.38.75-6.8 1.18-10.26 1.22-3.84.04-7.61-.41-11.31-1.46-1.22-.35-2.33-.92-3.38-1.61-.95-.62-1.46-1.5-1.37-2.64.16-2.19.34-4.39 1.11-6.47 1.41-3.84 4.24-6.28 8.01-7.64 2.97-1.07 6.03-1.17 9.09-.26 1.38.41 2.59 1.09 3.7 1.99.48.39.98.77 1.52 1.2.2-.16.43-.26.48-.41.07-.22.1-.54-.01-.72-.43-.71-.93-1.39-1.41-2.08-.33-.47-.69-.93-.97-1.42-.28-.49-.48-1.02-.76-1.61 1.36-.17 2.52-.07 3.58.62 1.05.69 2.27.72 3.46.89.52.07 1.03.06 1.44.49.15.15.47.2.71.2.39 0 .81-.06 1.41-.11z"/><path d="M450.46 275.69c.38-1.57 1.1-2.98 1.99-4.31.14-.2.19-.46.28-.7 1.11-.42 2.21-.9 3.35-1.24 1.05-.31 1.94.24 2.76.82 1.37.97 1.83 2.38 1.69 3.98-.09 1.09-.34 2.16-.52 3.24-.2 1.26-.74 2.39-1.3 3.52-.48.97-1.18 1.74-2.02 2.37-1.4 1.05-2.96 1.74-4.7 2.03-1.14.19-2.27.31-3.43.29-2.1-.04-4.16.27-6.23.54-1.03.14-2.09.06-3.14.1-2.52.08-4.99-.4-7.47-.76-1.7-.25-3.4-.55-5.09-.82L422 284c-1.65-.27-3.29-.55-4.93-.82-.82-.14-1.67-.18-2.47-.4-.88-.25-1.76-.24-2.65-.24-1.99 0-3.99-.08-5.97.09-1.77.15-3.55.14-5.32.29-.97.08-1.94.41-2.88.71-2.89.9-5.78 1.84-8.66 2.76-.2.06-.39.15-.59.21-.45.12-.83 0-1.13-.36-.6-.72-1.19-1.45-1.79-2.18.07-.53.55-.61.89-.78 2.71-1.38 5.42-2.73 8.14-4.09.37-.19.76-.36 1.11-.59 1.78-1.2 3.82-1.62 5.89-2.01 1.97-.38 3.96-.38 5.94-.28 1.56.08 3.11.31 4.67.48.26.03.52.09.78.1 1.78.06 3.53.35 5.29.59 1.34.18 2.7.25 4.05.39 1.09.11 2.18.23 3.27.36 1.6.19 3.21.34 4.81.59 3.49.55 7 .37 10.5.22 2.07-.09 4.17-.14 6.24-.49.93-.15 1.87-.15 2.74-.58.23-.11.45-.25.69-.38-.06-.67-.11-1.28-.16-1.9z" class="st9"/><path d="M514.53 421.3c-.25.46-.43.9-.7 1.28-.49.71-1.09.93-1.91.69-.6-.18-1.17-.44-1.75-.68-2.11-.9-4.21-1.83-6.33-2.72-1.37-.57-2.37-1.52-3.05-2.81-.69-1.29-1.35-2.6-2-3.91-5.9-11.78-11.8-23.55-17.7-35.33-1.8-3.6-3.61-7.2-5.4-10.8-.37-.75-.7-1.51-1.09-2.34.27-.21.49-.41.75-.55.82-.45 1.66-.87 2.54-1.34.57.45.88 1.06 1.23 1.61 2.2 3.43 4.43 6.85 6.59 10.31 8.59 13.75 17.15 27.52 25.72 41.29.8 1.29 1.57 2.59 2.35 3.9.27.46.5.92.75 1.4z" class="st10"/><path fill="#e2151b" d="M356.39 298.09c-1.11-.07-2.1-.14-3.2-.21.12-.35.18-.66.32-.91 1.01-1.85 2.24-3.53 3.72-5.03 2.25-2.29 4.99-3.59 8.15-4 1.09-.14 2.19-.21 3.28-.32.82-.08 1.57.09 2.18.65.65.6 1.43.77 2.29.88.98.13 1.94.39 2.89.67.32.09.62.38.84.66.77.99 1.52 2 2.23 3.03.73 1.04.83 2.25.68 3.46-.04.34-.26.68-.45.99-.38.62-.85 1.2-1.19 1.85-.34.64-.69 1.32-.82 2.02-.36 1.89.36 3.4 1.95 4.45.73.49 1.54.86 2.35 1.31 0 .59.06 1.16-.02 1.72-.08.61-.44 1.11-1.08 1.19-.98.11-1.98.18-2.97.18-.71 0-1.28-.35-1.7-.97-1.03-1.53-1.93-3.1-2.4-4.91-.23-.9-.62-1.77-1.01-2.62-.23-.5-.72-.63-1.19-.46-.46.17-.73.59-.67 1.12.04.31.13.61.23.91.8 2.21 1.43 4.49 2.63 6.53.07.13.07.3.12.54-.21.1-.42.26-.65.3-2.31.35-4.08-.56-5.42-2.41-1.32-1.82-2.08-3.86-2.15-6.12-.01-.26 0-.52-.02-.78-.03-.26-.06-.52-.14-.77-.2-.59-.68-.94-1.16-.87-.47.07-.88.53-.87 1.14.01 1.73.09 3.45.54 5.13.24.88.74 1.61 1.25 2.34.33.47.67.95.9 1.46.29.63-.05 1.18-.73 1.24-2.01.19-3.52 0-4.86-2.33-.82-1.43-1.34-2.94-1.35-4.61-.01-.68-.07-1.36-.12-2.04-.15-1.88-.24-3.76.12-5.63.14-.71.02-1.35-.49-1.9-.28-.3-.69-.31-.96-.01-.4.44-.62.95-.68 1.55-.01.53-.02 1.06-.37 1.58z"/><path d="M413.72 350.77c1.25.81 1.79 1.92 1.93 3.3.15 1.54-.39 2.91-1.16 4.15-.71 1.15-1.56 2.23-2.49 3.22-3.09 3.27-6.27 6.45-9.35 9.74-2.1 2.25-4.09 4.61-6.12 6.93-.9 1.02-1.81 2.03-2.67 3.08-1.63 1.97-3.36 3.87-4.76 6.02-2.27 3.5-3.82 7.3-4.64 11.4-.44 2.2-.69 4.42-.98 6.65-.29 2.25-.19 4.49-.26 6.73-.01.42.01.84-.06 1.25-.1.61-.27 1.21-.41 1.8-1.55.05-2.16-.51-2-1.86.3-2.54.46-5.09.62-7.64.1-1.61.34-3.21.51-4.82.03-.26.05-.52.06-.78.06-2.46.49-4.87.86-7.29.16-1.03.31-2.06.39-3.1.2-2.37.86-4.6 1.9-6.74 1.19-2.45 2.66-4.73 4.23-6.96 1.51-2.13 3-4.28 4.51-6.41.33-.47.68-.94 1.09-1.33 1.47-1.41 2.97-2.79 4.46-4.18.23-.21.45-.44.68-.65 2.25-2.12 4.49-4.24 6.74-6.35 1.45-1.36 2.91-2.7 4.37-4.06.81-.75 1.66-1.43 2.55-2.1z" class="st9"/><path d="M392.01 423.97c-.63.69-1.25 1.39-1.88 2.08-.35.38-.71.75-1.13 1.19-1-1.78-1.24-3.51-.54-5.35.45-1.17.79-2.36.79-3.65.01-1.61-.41-3.1-1.22-4.47-.47-.81-1.03-1.57-1.57-2.33-.37-.52-.68-1.04-.7-1.7-.06-3.03-.06-6.05.48-9.06.6-3.33 1.83-6.4 3.45-9.35 1.51-2.76 3.39-5.26 5.56-7.54-.06.71-.11 1.43-.16 2.14-.39.06-.56.33-.45.67.31.98.52 2.01 1.13 2.88.17.25.31.53.51.76.75.87 1.52 1.72 2.27 2.59.5.57.58 1.21.2 1.88-.2.36-.42.72-.63 1.08-1.96 3.29-2.98 6.87-3.15 10.69-.1 2.24.44 4.34 1.54 6.3.52.94 1.29 1.62 2.23 2.3-.38.64-.74 1.25-1.1 1.87-1.54 1.89-3.08 3.77-4.61 5.66-.36.44-.68.91-1.02 1.36z" class="st10"/><path d="M395.08 385.94c.05-.71.11-1.43.16-2.14.67-1.06 1.38-2.08 2.33-2.93.5-.45.83-1.08 1.28-1.59 2.05-2.31 4.1-4.61 6.18-6.89 1.17-1.27 2.4-2.48 3.6-3.72.17-.18.37-.33.58-.52.26.49.22.89-.03 1.25-.54.8-.5 1.68-.41 2.57.41 4.37.77 8.75 1.25 13.11.36 3.27.89 6.52 1.36 9.78.13.93.32 1.85.44 2.79.07.57.07 1.15.07 1.72 0 .63-.34 1.1-.88 1.38-1.67.89-2.96.86-4.21-.27-2.09-1.9-4.23-3.76-5.93-6.04-.31-.42-.63-.83-.95-1.25-.88-1.16-1.65-2.41-2.94-3.21-.34-.21-.59-.59-.88-.88-.49-1-.93-2.03-1.02-3.16z" class="st6"/><path d="M398.03 417.4c.8-.82 1.6-1.64 2.38-2.47.21-.23.44-.47.56-.75.48-1.16 1.32-2 2.3-2.73.55-.42.8-.93.62-1.67-.87.06-1.24.73-1.68 1.28-.42.53-.83 1.06-1.24 1.59-1.27-.08-1.98-.77-2.4-1.81-.79-1.93-1.11-3.93-.8-6 .34-2.23.97-4.39 1.94-6.44.33-.69.81-1.32 1.29-2.08.38.4.66.7.95 1 .83.87 1.63 1.77 2.5 2.6 1.06 1.02 2.16 1.99 3.26 2.95.31.27.67.5 1.05.64 1.08.4 2.16.81 3.27 1.08 1.27.31 2.56.54 3.86.65.53.05 1.1-.25 1.63-.46.37-.15.7-.4 1.18-.68.28 1.7.1 3.22-.35 4.72-.33 1.1-.67 2.21-1.14 3.25-1.2 2.69-3.2 4.53-6.14 5.1-1.17.23-2.4.16-3.6.13-.44-.01-.91-.25-1.29-.5-.87-.57-1.7-1.21-2.6-1.86.18-.37.31-.7.48-1.01.55-.95 1.11-1.89 1.66-2.85.21-.35.07-.59-.38-.76-4.38 5.7-8.66 11.51-12.74 17.43-.32-.02-.57-.03-.92-.05-.28.43-.59.89-.89 1.35-.42.03-.75-.04-.99-.54.66-1.39 1.76-2.6 2.55-3.99 1.6-1.97 3.2-3.94 4.79-5.91.31-.36.59-.8.89-1.21z" class="st12"/><path d="M305.84 256.06c.44-.27.93-.55 1.4-.86.35-.23.65-.53 1.02-.73.96-.52 1.82-.13 1.97.96.11.82.13 1.69-.01 2.5-.39 2.15-1.51 3.89-3.32 5.14-1.59 1.1-3.35 1.31-5.31.88.19-.45.3-.8.48-1.11 1.19-2.08 1.74-4.36 2.2-6.68.19-.94.17-1.88-.42-2.72-.7-1-1.64-1.39-2.85-1.12-.71.16-1.43.34-2.11.59-1.5.53-3.03.78-4.62.7-.52-.03-1.04 0-1.67 0 .11-.38.15-.69.28-.95 1.51-3.12 3.98-5.09 7.32-5.91 2.08-.51 4.2-.88 6.3-1.27 1.54-.29 3.07-.62 4.56-1.14.56-.2 1.05-.43 1.41-.93.7-.96 1.68-1.08 2.8-.98 1.96.17 3.33 1.16 4.28 2.8.63 1.08.67 2.37 1.08 3.54.11.3-.05.72-.15 1.07-.25.85-.54 1.69-.84 2.63-.38.04-.78.1-1.18.11-.89.02-1.78.02-2.67.03-1.04.02-1.95.33-2.64 1.16-.12.15-.3.25-.5.42l-.51-.93c.4-.32.76-.61 1.12-.89.83-.67 1.5-1.46 1.89-2.46.13-.33.22-.7.23-1.06.02-.46-.24-.79-.66-.98-.41-.18-.72.04-.97.31-.21.23-.39.5-.52.78-.69 1.44-1.84 2.21-3.4 2.47-1.77.3-3.18 1.28-4.44 2.5-.31.3-.57.62-.54 1.09.02.3.23.53.99 1.04z" class="st13"/><path d="M451.87 415.21c.47 0 .88-.03 1.27 0 1.3.1 2.61.23 3.91.34 3.34.3 6.67.6 10.01.91 2.76.26 5.52.55 8.28.81s5.53.49 8.29.74c2.4.22 4.79.45 7.19.7.79.08 1.56.24 1.94 1.1.2.47.67.63 1.1.83 2.37 1.1 4.76 2.16 7.1 3.32 1.78.88 3.49 1.89 5.23 2.84.22.12.42.29.57.6-.68-.13-1.37-.23-2.05-.4-1.33-.32-2.66-.53-4.03-.53-.61 0-1.26-.11-1.84-.31-3.46-1.22-7.02-2.02-10.6-2.79-4.6-.99-9.19-1.96-13.79-2.96-4.65-1.01-9.29-2.03-13.93-3.04-2.5-.54-5-1.07-7.5-1.64-.37-.06-.81-.09-1.15-.52z" class="st14"/><path d="M340.49 236.88c-3.46.16-6.59.9-9.65 2-3.04 1.09-5.67 2.89-8.26 4.74-.89-.2-1.3-.92-1.87-1.43-.57-.52-1.17-1.03-1.61-1.63.33-.77.88-1.15 1.47-1.49 1.09-.63 2.16-1.27 3.25-1.89 1.68-.96 3.36-1.91 5.05-2.87 1.66-.94 3.48-1.44 5.29-1.94 1.91-.53 3.87-.87 5.8-1.29.09-.02.2.04.37.07.36.87.11 1.82.15 2.74.04.92.01 1.86.01 2.99z" class="st9"/><path d="M263.93 318.93c.48 2.79.32 5.38.03 8.05-.33.08-.62.2-.91.2-2.59-.01-5.07-.59-7.49-1.47-.72-.26-1.08-.77-1.21-1.5-.39-2.2-.8-4.41-1.22-6.73 1.88.02 3.66.46 5.45.65 1.76.2 3.5.52 5.35.8z" class="st10"/><path d="M372.86 286.3c.12-1.53.84-2.51 2.12-2.96 1.52-.54 3.09-.94 4.75-.87 1.06.05 1.93.45 2.62 1.23.97 1.09 1.92 2.21 2.89 3.31.44.5.74 1.02.37 1.69-.23.42.03.81.09 1.22.31 2.23-.73 4.06-2.85 5.02-.43-.76-.81-1.56-1.32-2.26-.52-.71-1.2-1.31-1.78-1.98-.34-.39-.72-.8-.89-1.27-.36-.98-1.07-1.51-2.01-1.82-.99-.32-1.99-.63-2.98-.95-.31-.09-.6-.21-1.01-.36z" class="st13"/><path d="M273.92 326.48c-.27.11-.55.27-.85.33-2.58.46-5.18.3-7.87.43-.34-2.86.1-5.6.13-8.3.34-.31.63-.1.91-.05 1.14.2 2.16-.22 3.19-.59 1.27-.45 2.53-.94 3.8-1.4.14-.05.3-.05.45-.08.55 1.64.66 6.42.24 9.66z" class="st15"/><path d="M378.43 411.46c.37.76.17 1.52 0 2.28-.1.46-.25.91-.41 1.35-.15.43-.07.81.16 1.19.69 1.14 2.05 1.76 3.35 1.49.61-.13 1.22-.3 1.81-.49 1.02-.33 1.7-1 1.9-2.08.08-.41.12-.82.17-1.24.05-.45.09-.91.16-1.54.29.2.48.27.58.41 1.9 2.63 2.19 5.45.95 8.44-.36.86-.92 1.34-1.9 1.33-1.1-.01-2.2.04-3.29.1-.71.04-1.32-.13-1.93-.49-.95-.56-1.86-1.17-2.59-2.01-.93-1.06-1.49-2.27-1.47-3.7.01-.63.01-1.26.07-1.88.16-1.52.84-2.66 2.44-3.16z" class="st12"/><path d="M272.65 336.26c-.63 0-1.21.07-1.76-.02-.57-.09-1.09-.19-1.68-.09-.4.07-.87-.26-1.42-.45-.38.08-.88.22-1.39.27-.58.05-.87-.18-1.06-.72-.25-.7-.3-1.43-.25-2.17.07-1.09.16-2.19.22-3.28.06-1.13.13-1.26 1.23-1.4 1.03-.13 2.08-.2 3.11-.3.78-.08 1.55-.21 2.33-.26 1.57-.1 1.85-.09 1.83 1.64-.03 2.11-.49 5.1-1.16 6.78z" class="st16"/><path d="M235.92 310.78c1.19.52 2.18.97 3.18 1.39 1.1.46 2.22.91 3.33 1.35.9.35 1.44.92 1.61 1.92.34 2.01.77 4 1.15 5.99.04.19 0 .4 0 .7-.38-.05-.7-.02-.96-.13-2.16-.91-4.32-1.82-6.46-2.77-.6-.26-1-.74-1.09-1.43-.28-2.02-.56-4.03-.83-6.05-.03-.24.04-.51.07-.97z" class="st15"/><path d="M290.89 259.62c.65-.19 1.24-.36 1.81-.53.33.43.58.83.91 1.14.57.54 1.38.31 1.61-.44.1-.34.11-.72.15-1.08.1-.93.53-1.69 1.25-2.27 1.54-1.25 3.21-1.91 5.26-1.12.04 1.97-.3 3.83-1.19 5.58-.84 1.64-2.12 2.83-3.88 3.44-1.71.6-3.34.15-4.49-1.25-.78-.94-1.3-2-1.43-3.47z" class="st13"/><path d="M247.37 331.21c-.42 0-.68.05-.91-.01-2.14-.51-4.21-1.22-6.19-2.2-.6-.3-1-.7-1.16-1.38-.51-2.24-1.06-4.47-1.58-6.7-.03-.13.07-.29.11-.46.17.02.33 0 .47.05 1.79.73 3.59 1.43 5.36 2.21 2.22.98 1.97.63 2.64 3.1.47 1.71.81 3.45 1.26 5.39z" class="st16"/><path d="M308.08 265.27c.26-.27.4-.49.59-.61 1.52-.99 2.42-2.43 2.97-4.11.27-.84.51-1.7.73-2.56.15-.58.4-1.04.96-1.35.4-.22.77-.56 1.03-.93 1.06-1.48 3.34-.71 3.81.7.47 1.4.47 2.79-.25 4.1-.78 1.43-1.77 2.71-3 3.79-.8.7-1.72 1.2-2.72 1.51-1.38.44-2.74.33-4.12-.54z" class="st13"/><path d="M264.22 335.16c-.57.29-1.08.22-1.59.07-1.65-.48-3.28-1-4.95-1.42-.99-.25-1.51-.82-1.68-1.8-.23-1.33-.49-2.66-.71-3.99-.05-.3-.01-.61-.01-.89.45-.43.95-.35 1.36-.17 2.16.97 4.5 1.23 6.77 1.75.05.01.1.01.15.02.55.15.7.32.75.84.02.21.01.42.01.62 0 1.3 0 2.61-.01 3.91.01.39-.06.74-.09 1.06zM241.77 337.94c.44 0 .76-.07 1.03.01 2.05.59 4.09 1.2 6.14 1.82.56.17 1.06.43 1.33 1.01.95 2.09 1.92 4.16 2.85 6.25.14.31.16.67.23.96-.35.3-.57.11-.79 0-2.27-1.04-4.54-2.09-6.82-3.13-.89-.4-1.56-.99-1.94-1.92-.49-1.21-1.06-2.38-1.57-3.58-.18-.41-.28-.86-.46-1.42zM279.66 325.85c-1.32.17-2.76.36-4.28.55-.11-.33-.29-.61-.29-.88-.01-2.61 0-5.22.02-7.84 0-1 .48-1.67 1.42-2.03 1.01-.39 2.01-.82 3.12-1.27.7 3.46.41 6.84.43 10.2-.01.41.03.84-.42 1.27z" class="st16"/><path d="M237.82 328.03c-.48.2-.9-.14-1.3-.29-1.26-.48-2.49-1.05-3.73-1.6-.7-.31-1.22-.83-1.42-1.57-.28-1.05-.58-2.11-.73-3.19-.2-1.49-.27-3-.4-4.54.26.02.44-.02.55.04 1.43.76 2.85 1.53 4.27 2.29.64.34 1.03.83 1.19 1.55.54 2.34 1.11 4.66 1.66 7 .03.08-.05.18-.09.31z" class="st15"/><path d="M245.65 315.16c.14.02.31-.01.44.06 1.44.77 2.99 1.23 4.58 1.51.9.16 1.23.66 1.41 1.42.21.91.4 1.83.61 2.74.2.91.42 1.82.6 2.74.08.4.23.81-.12 1.23-2.12-.23-4.1-.99-6.04-1.88-.45-.21-.81-.54-.87-1.03-.27-2.16-.93-4.28-.74-6.49.01-.09.08-.18.13-.3z" class="st16"/><path d="M249.43 339.17c-1.15-.34-2.13-.63-3.11-.93-1.3-.4-2.58-.85-3.89-1.19-.7-.18-1.09-.56-1.27-1.22-.49-1.87-.97-3.74-1.49-5.73.37 0 .68-.07.93.01 2.03.69 4.04 1.41 6.06 2.11.81.28 1.27.79 1.46 1.66.32 1.48.77 2.93 1.15 4.39.07.23.09.48.16.9z" class="st15"/><path d="M285.16 323.59c-1.11.85-2.12 1.72-3.65 1.6-.08-.26-.23-.54-.23-.82-.1-3.19-.16-6.38-.26-9.57-.02-.68.25-1.09.87-1.31.49-.18.97-.38 1.47-.54.74-.23 1.06-.1 1.32.64.43 1.23.78 2.49.82 3.81.05 2.05-.11 4.08-.34 6.19z" class="st14"/><path d="M256.86 334.65c2.57.63 4.89 1.38 7.32 2.08.36 2.2.46 4.42.7 6.57-.29.32-.54.21-.78.14-1.6-.47-3.19-1.01-4.81-1.4-.93-.22-1.31-.72-1.45-1.58-.29-1.85-.62-3.7-.98-5.81zM265.32 337.16c1.26.05 2.3.08 3.34.15 1.3.09 2.59.22 3.95.33-.03.41-.03.77-.09 1.12-.3 1.7-.62 3.39-.93 5.09-.03.15-.07.31-.11.45-.21.65-.47.84-1.15.82-.37-.01-.73-.06-1.09-.1-.62-.07-1.24-.14-1.89-.22-.05-.03-.16-.08-.22-.15-1.35-1.65-1.34-1.65-1.51-3.93-.04-.57-.14-1.14-.19-1.71-.06-.56-.07-1.12-.11-1.85zM255.19 332.7c-.65.28-1.28.22-1.89.1-1.22-.25-2.43-.6-3.65-.85-.75-.15-1.21-.54-1.4-1.28-.48-1.92-.97-3.84-1.45-5.76-.05-.19.03-.4.05-.69.36.06.66.08.95.17 1.59.51 3.16 1.04 4.75 1.55.86.27 1.41.7 1.57 1.7.27 1.7.71 3.37 1.07 5.06z" class="st15"/><path d="M265.45 352.29c-1.33-.23-2.59-.46-3.84-.82-.62-.18-1-.55-1.18-1.13-.28-.89-.54-1.79-.8-2.69-.35-1.25-.71-2.5-1.04-3.76-.17-.65.16-1.04.81-.94.66.1 1.32.27 1.97.47.89.27 1.77.61 2.65.9.73.24 1.14.76 1.25 1.47.32 2.01.53 4.02.37 6.06 0 .09-.07.18-.19.44zM256.75 341.33c-1.39-.24-2.47-.75-3.6-1.1-.2-.06-.38-.19-.58-.22-1.42-.27-2.02-1.24-2.42-2.54-.44-1.44-.87-2.87-1.11-4.42.24-.06.45-.19.62-.15 1.67.37 3.33.78 5 1.16.71.16 1.06.68 1.2 1.31.35 1.57.66 3.15.94 4.73.06.34-.03.71-.05 1.23z" class="st16"/><path d="M278.52 344.46c-.01-.19-.05-.39-.03-.58.18-2.09.47-4.15.95-6.19.06-.25.12-.51.21-.75.19-.52.5-.89 1.08-1.03.61-.14 1.19-.39 1.81-.51.61-.12 1.23-.14 1.94-.21.11 1.97.25 3.83-.71 5.58-.27.5-.31 1.13-.62 1.59-.25.37-.59.6-.23 1.09.06.08-.17.52-.35.6-.97.44-2.75.6-4.05.41zM275.05 327.57c1.57-.27 3.1-.54 4.68-.82.2.77.1 1.44.01 2.09-.25 1.75-.59 3.49-.83 5.24-.12.85-.55 1.33-1.35 1.48-1.11.21-2.24.37-3.36.55-.12-1.09.43-6.71.85-8.54z" class="st15"/><path d="M230.74 307.07c1.03.79 2.06 1.58 3.08 2.39.66.53.83 1.33.95 2.09.33 2.09.59 4.2.88 6.26-.27.31-.51.19-.75.09-1.46-.61-2.76-1.46-3.98-2.45-.47-.38-.75-.86-.79-1.47-.12-1.87-.22-3.73-.33-5.66.48-.31 1.02-.58.96-1.26-.01 0-.02.01-.02.01zM239.83 336.21c-1.91-.87-3.61-1.65-5.31-2.43-.45-.21-.76-.54-.96-.99-.64-1.43-1.2-2.89-1.5-4.43-.07-.34.01-.7.02-1.13 1.58.35 2.97.95 4.39 1.43.2.07.38.19.58.23 1.08.2 1.55.92 1.77 1.93.27 1.22.61 2.42.9 3.64.07.3.12.61.14.92.03.19-.01.4-.03.83zM276.97 344.75c-1.54-.03-3.05.64-4.7.17.21-1.07.41-2.08.6-3.1.22-1.18.43-2.35.65-3.53.11-.61.43-1.11 1.06-1.22 1.12-.2 2.25-.32 3.36-.48.48.65.31 1.3.23 1.88-.28 1.96-.62 3.9-.95 5.85-.02.15-.15.27-.25.43z" class="st16"/><path d="M259.08 350.52c-1.46-.02-2.61-.63-3.71-1.32-.29-.18-.55-.51-.68-.82-1-2.29-1.97-4.6-2.94-6.91-.05-.13-.01-.29-.01-.53.22.02.42 0 .61.05 1.11.3 2.2.63 3.31.92.95.25 1.63.85 1.79 1.78.37 2.22 1.19 4.32 1.66 6.52.01.05-.01.1-.03.31z" class="st14"/><path d="M281.17 326.7c.33-.13.61-.27.9-.35.85-.23 1.7-.43 2.54-.65.29 1.06.35 5.69.11 7.89-1.32.77-2.78 1.15-4.47 1.13-.04-.41-.14-.76-.09-1.09.31-2.26.65-4.51 1.01-6.93z" class="st16"/><path d="M276.83 346.11c.37 1.29-.05 2.34-.28 3.39-.05.22-.27.47-.48.57-1.07.53-2.15 1.07-3.26 1.48-.77.28-1.6.38-2.47.1.37-1.45.71-2.86 1.09-4.26.29-1.07.57-1.32 1.62-1.33 1.24 0 2.48-.11 3.78.05z" class="st14"/><path fill="#f6f6f6" d="M293.62 303.83c.96.96 1.16 2.05 1.23 3.13.11 1.67-.21 3.33-.64 4.94-.3 1.13-1.15 1.43-2.19.95-.42-.19-.68-.49-.71-.95-.06-.83-.18-1.67-.12-2.49.08-1.09.32-2.16.45-3.24.14-1.2.93-1.79 1.98-2.34z"/><path d="M242.25 343.09c-1.35-.95-2.57-1.83-3.81-2.7-.51-.36-1.02-.73-1.57-1.02-1.58-.85-1.99-2.26-2.12-4.06 1.49.46 2.82.84 4.12 1.3 1.04.37 1.77 1.12 2.04 2.21.33 1.32.82 2.57 1.42 3.79.04.06-.02.18-.08.48z" class="st14"/><path d="M266.38 345.45c.36.1.55.13.74.2.68.26 1.37.47 2.12.41.48-.04.92.11 1.33.49-.03.76-.37 1.47-.67 2.17-.36.83-.62 1.64-.48 2.56.02.14-.06.3-.1.48-.58.33-1.19.2-1.76.17-.6-.38-.7-.98-.8-1.52-.31-1.56-.63-3.14-.38-4.96z" class="st16"/><path d="M277.22 430.99c-.28-.14-.51-.26-.74-.37-.66-.3-.66-.3-.56-1.31 1 .01 1 .01 1.84-.52.42.72.88 1.41 1.24 2.15.35.71.49 1.46.24 2.27-.3.94-.93 1.56-1.85 1.71-1.73.29-3.22-.25-4.62-1.63 1.12.2 2.04 0 2.96.28.7.21 1.59-.71 1.66-1.54.03-.34-.11-.7-.17-1.04z" class="st18"/><path d="M282.23 345.32c.19 1.01-.2 1.78-.41 2.57-.18.68-.67 1.18-1.4 1.32-.61.12-1.22.25-1.83.28-.72.03-.99-.34-.87-1.1.04-.26.12-.5.16-.76.3-1.99.63-1.85 2.27-2.18.65-.13 1.33-.09 2.08-.13z" class="st16"/><path d="M291.83 278.67c-.17 1.39-.31 2.57-.46 3.82-1.1-.05-1.87-.64-2.64-1.24.89-1.25 1.53-1.8 3.1-2.58z" class="st18"/><path d="M398.03 417.4c-.3.42-.58.85-.9 1.25-1.59 1.97-3.2 3.94-4.79 5.91-.11-.2-.22-.39-.33-.59.34-.45.67-.91 1.02-1.35 1.53-1.89 3.07-3.77 4.61-5.66.13.14.26.29.39.44z" class="st19"/><path d="M290.44 306.11c-.13 1.78-.24 3.44-.37 5.21-.66-.34-.69-.92-.8-1.37-.2-.81-.22-1.65.1-2.45.21-.5.37-1.06 1.07-1.39zM417.06 403.62c-1.27.72-1.27.72-3.24.08.05-.14.07-.3.14-.43.16-.26.34-.5.54-.79.91.16 1.64.59 2.56 1.14zM288.76 312.42c.95.52 1.59 1.35 2.42 1.98-1.44.68-2.3-.02-2.42-1.98zM287.06 324.02c.03 1.92-.35 3.79-.73 5.66a.191.191 0 0 0-.18 0c-.14-1.4-.04-2.77.32-4.13.13-.49.17-1.01.26-1.51.11-.01.22-.02.33-.02z" class="st20"/><path d="M395.08 385.94c.09 1.14.53 2.16 1.03 3.17-.11.13-.23.25-.34.38-.61-.87-.82-1.9-1.13-2.88-.12-.34.05-.61.44-.67z" class="st19"/><path d="M409.84 402.34c.47-.1.91-.21 1.36-.28.24-.04.52.25.49.47-.04.29-.21.5-.5.47-.49-.04-1.07.08-1.35-.66z" class="st20"/><path d="M367.42 145.83c.2-1.58.24-1.68.99-2.82.09 1.18-.47 2.01-.99 2.82zM458.67 331.28c-.11.12-.23.24-.34.36-.4-.76-.81-1.52-1.2-2.29-.03-.06.04-.18.07-.28.08.03.2.04.23.1.42.71.83 1.41 1.24 2.11z" class="st21"/><path fill="#fff" d="M287.06 324.02c-.11 0-.22.01-.33.01-.03-.62-.08-1.23-.08-1.85 0-.08.21-.23.32-.23.11 0 .31.16.31.23-.05.62-.14 1.23-.22 1.84z"/><path d="M506 99.32c-.63.13-1.16-.05-1.67-.45.69-.18.69-.18 1.67.45z" class="st1"/><path d="M257.16 512.92c-.77.13-1.5-.03-2.22-.29.77-.07 1.53-.15 2.22.29zM380.63 318.64c.15.16.31.26.31.36.01.28-.23.31-.43.29-.11-.01-.21-.15-.32-.23.13-.12.27-.25.44-.42z" class="st2"/><path d="M286.15 329.68c.06-.03.12-.02.18 0v1.2h-.18v-1.2z" class="st21"/><path d="M412.97 400.91c.76.16.76.16.58.65-.21-.23-.39-.44-.58-.65z" class="st1"/><path d="M366.43 148.37c.07.21.16.35.15.47-.01.09-.16.17-.24.25-.04-.08-.12-.18-.11-.25.02-.13.1-.26.2-.47z" class="st2"/><path d="M230.75 307.06c-.04-.02-.09-.03-.13-.05l.12.06.01-.01z" class="st16"/><path d="M429.36 210.23c-1.89-.1-3.5-.18-5.12-.27-.47-.02-.95 0-1.41-.05-.84-.1-1.31-.55-1.47-1.39-.06-.31-.08-.62-.07-.94.01-1.62-.04-3.25.05-4.87.21-3.5.64-6.98 1.51-10.39.57-2.24 1.3-4.41 2.47-6.42 1.59-2.73 4.53-3.83 7.54-2.79 1.37.47 2.5 1.29 3.52 2.3.41.4.76.88 1.2 1.24 1.29 1.07 2.07 2.44 2.59 4.02.63 1.94 1.39 3.83 2.04 5.76.65 1.95.79 3.99.87 6.03.16 3.86-.51 7.61-1.44 11.32-.29 1.17-.6 2.33-.82 3.51-.46 2.49-1.38 4.82-2.52 7.06-1.72 3.4-4.51 5.41-8.2 6.23-1.13.25-2.18.06-3.15-.58-1.23-.82-2.06-1.93-2.46-3.34-.18-.65-.29-1.33-.36-2-.27-2.34-.47-4.69-.78-7.02-.14-1.04.17-1.71 1.07-2.2 1.83-1 3.27-2.42 4.39-4.18.15-.23.28-.5.55-1.03zM392.45 201.6c-.31-5.06.46-10.12 2.45-15.01.79-1.95 2.13-3.15 4.09-3.81 2.29-.77 4.42-.49 6.47.74 1.65.99 2.94 2.34 4.03 3.9.42.6.8 1.23 1.22 1.83.5.7.74 1.48.96 2.3.69 2.48 1.05 5.01 1.31 7.56.27 2.61.26 5.22-.07 7.83-.26 2.07-.41 4.17-1.07 6.17-.87 2.63-1.75 5.26-2.68 7.87-.39 1.1-1.11 2.01-2.02 2.76-1.02.84-2.14 1.5-3.37 1.98-.43.16-.91.26-1.37.26-1.03.01-1.81-.47-2.22-1.44-.43-1.01-.82-2.04-1.24-3.05-.68-1.65-1.44-3.25-2.46-4.72-.61-.88-.51-1.74.4-2.29 1.98-1.18 2.95-3.19 4.28-4.91.12-.16.2-.37.27-.56.12-.35-.11-.79-.47-.85-.31-.06-.63-.09-.93-.07-1.46.11-2.93.19-4.37.41-.72.11-1.34.03-1.97-.25-.69-.31-1.03-.8-1.05-1.59-.03-1.62-.12-3.24-.19-5.06z" class="st23"/><path d="M423.17 259.01c-.42 0-.84-.04-1.25.01-2.46.28-4.78-.38-7.07-1.12-1.21-.39-2.28-1.04-3.31-1.77-.85-.61-1.7-1.23-2.55-1.83-1.09-.78-2.28-1.26-3.66-1.19-.88.04-1.65-.27-2.27-.89-.22-.22-.42-.48-.53-.76-.23-.61-.05-1.34.88-1.17 1.61.3 3.23.3 4.85.28 1.6-.02 3.13-.38 4.51-1.18 2.22-1.29 4.39-2.65 6.56-4.01 1.29-.81 2.5-1.72 3.81-2.49 2.24-1.32 4.65-2.12 7.28-2.17.91-.02 1.76.07 2.54.62.29.2.66.32 1.01.37 1.94.31 3.08 1.52 3.55 3.33 1.06 4.06.04 7.59-3.02 10.43-1.62 1.51-3.6 2.51-5.71 3.2-1.06.35-2.15.41-3.26.41h-2.36v-.07zm-7.01-3.35c.88.77 1.94.99 2.94.94 1.37-.07 2.7.19 4.06.19.73 0 1.47.04 2.19-.02 2.5-.2 4.79-.98 6.81-2.51 1.29-.98 2.2-2.21 2.75-3.72.1-.28.13-.58.2-.95-.65-.26-1.22-.51-1.81-.7-.71-.24-1.43-.34-2.15-.03-1.1.47-2.21.94-3.28 1.46-.65.32-1 .91-1.09 1.62-.04.31-.01.63-.05.94-.07.62-.48.92-1.09.8-.25-.05-.5-.15-.73-.27-.37-.19-.74-.39-1.09-.61-.86-.52-1.75-.55-2.71-.25-1.36.43-2.63 1.02-3.79 1.83-.42.31-.88.59-1.16 1.28z" class="st24"/><path d="M368.12 238.48c.85-.24 1.28-.85 1.68-1.46.77-1.16 1.13-2.46 1.18-3.85.11-2.8-.28-5.54-1.09-8.21-.54-1.77-.9-3.53-.9-5.39 0-.99-.16-1.98-.3-2.96-.1-.7.07-1.2.69-1.6 2.2-1.42 3.36-3.55 3.89-6.03.2-.91.2-1.86.25-2.8.03-.68-.01-1.36-.01-2.04 0-.56.2-1.02.78-1.37.19.2.44.38.57.63.77 1.49.93 3.09.71 4.73-.47 3.42-2.03 6.23-4.78 8.36-.2.16-.41.32-.66.53.09.87.23 1.73.45 2.59.63 2.48 1.29 4.96 1.78 7.47.36 1.84.56 3.73.7 5.6.14 1.86-.33 3.64-1.21 5.29-.5.94-1.19 1.72-2.15 2.23-1.29.69-2.54.53-3.62-.44-.35-.31-.64-.69-.93-1.06-1.2-1.54-2.13-3.23-2.96-4.98-.29-.61-.56-1.25-.91-1.82-.32-.53-.66-1.11-1.14-1.48-1.71-1.35-3.29-2.9-5.42-3.67-1.75-.64-2.74-2.1-3.18-3.85-.54-2.13-.81-4.32-.74-6.53.03-.96.29-1.86.74-2.7.28-.53.69-.93 1.46-.73.02.24.09.49.06.73-.48 3.07.14 6.04.8 9.01.2.89.71 1.5 1.45 1.95.49.3 1.02.53 1.53.8 2.05 1.09 3.92 2.4 5.4 4.22.76.94 1.37 1.97 1.94 3.04.84 1.57 1.76 3.09 2.65 4.63.3.48.6.97 1.29 1.16zM483.92 169.32c-.11 1.3-.23 2.6-.32 3.9-.05.78-.09 1.57-.08 2.35.02 1.22.49 2.24 1.48 2.98 1.77 1.31 3 3.05 4.01 4.97.75 1.44 1.54 2.86 1.88 4.47.51 2.4.21 4.68-1 6.83-.53.95-1.25 1.68-2.28 2.05-1.38.49-2.76.96-4.15 1.43-1.15.39-2.27.24-3.36-.25-1.5-.66-2.88-1.5-3.96-2.75-1.11-1.29-2.55-2.16-3.98-3.03-.7-.42-1.5-.41-2.29-.38-.47.02-.94.06-1.41.07-.39.01-.71-.16-.96-.46-.24-.3-.38-.63-.22-1.02.15-.36.4-.61.81-.64 2.51-.18 4.93.02 7 1.67.9.72 1.79 1.45 2.68 2.18.73.6 1.42 1.24 2.18 1.8 1.21.9 2.54 1.19 4 .67.84-.3 1.67-.59 2.5-.9.85-.31 1.34-.98 1.65-1.79.83-2.12.96-4.27.21-6.45-.8-2.32-2.1-4.32-3.77-6.09-.5-.53-1.04-1.03-1.57-1.54-1.23-1.2-1.88-2.62-1.7-4.37.16-1.51.28-3.02.46-4.53.23-1.91.12-3.76-.89-5.47-.08-.13-.17-.29-.16-.43.03-.29.03-.7.21-.84.19-.14.65-.12.86.03 1.25.87 2.18 1.95 2.09 3.62-.03.63-.01 1.26-.01 1.88.05.04.07.04.09.04zM461.06 211.04c-.12.28-.16.44-.25.55-.58.67-1.12 1.39-1.78 1.99-1.56 1.42-2.58 3.14-3.18 5.14-.09.3-.19.6-.32.88-1.2 2.83-.66 5.47 1.58 7.56.38.36.77.73 1.22.98 1.37.76 2.74 1.52 4.16 2.19 1.02.47 2.12.53 3.22.2.45-.13.92-.17 1.38-.25 1.13-.19 2.06-.71 2.79-1.61.9-1.11 1.61-2.33 1.99-3.71.87-3.22.79-6.42-.42-9.55-.53-1.38-1.24-2.65-2.37-3.65-.3-.27-.54-.62-.9-1.04.36-.1.62-.27.82-.22 1.46.36 2.75 1.03 3.53 2.4 1.89 3.3 2.55 6.83 1.83 10.58-.16.85-.7 1.5-1.12 2.22-.42.71-.12 1.64-.65 2.37-.79 1.11-1.56 2.23-2.58 3.15-.73.66-1.56 1.03-2.56 1-.42-.01-.85-.01-1.25.07-2.55.53-4.89-.08-7.05-1.39-1.34-.81-2.61-1.75-3.81-2.75-2.26-1.9-3.2-5.29-2.38-8.13.1-.35.23-.7.32-1.05.71-2.84 2.36-5.09 4.37-7.13.93-.95 2-1.26 3.41-.8zM450.82 178.37c.15-.17.27-.34.42-.48.19-.17.41-.31.65-.48.45.16.88.3 1.39.48.08-.26.2-.45.19-.63-.13-2.4-.74-4.63-2.24-6.58-.64-.83-1.2-1.71-1.75-2.6-.94-1.51-2.23-2.5-4-2.73-1.56-.2-2.57-1.02-3.23-2.4-.64-1.35-1.58-2.44-2.82-3.3-1.14-.78-2.2-.8-3.35-.06-1.29.83-2.41 1.83-3.38 3.02-.46.57-.9 1.16-1.43 1.67-.36.35-.84.61-1.29.84-.21.11-.51.1-.76.06-.66-.1-.97-.72-.64-1.29.13-.22.31-.42.48-.62.82-.95 1.62-1.92 2.49-2.83.58-.6 1.22-1.15 1.9-1.63.9-.63 1.86-1.16 2.8-1.74.76-.47 1.56-.63 2.39-.29.67.27 1.38.52 1.97.93.86.59 1.65 1.28 2.43 1.98.34.31.58.73.83 1.13.23.35.4.74.62 1.09.5.78 1.18 1.3 2.11 1.52.56.13 1.1.33 1.63.54 1.42.53 2.51 1.44 3.29 2.77.87 1.49 1.82 2.93 2.75 4.39 1.22 1.91 1.68 4.05 1.9 6.24.15 1.5-.83 2.51-2.34 2.51-1.23 0-2.23-.5-3.01-1.51zM390.83 168.87c.44-.15.82-.33 1.22-.41 1.1-.23 1.72-.93 2.01-1.97.45-1.62.76-3.26.8-4.95.02-.84.01-1.68-.05-2.51-.1-1.37.38-2.41 1.52-3.23 1.48-1.06 1.52-1.22 1.9-2.96.78-.04 1.32.46 1.92.87.12 1.28-.29 2.26-1.41 2.92-.4.24-.81.5-1.14.83-.68.66-1.01 1.46-.74 2.42.31 1.09.26 2.17-.04 3.25-.11.4-.12.83-.15 1.24-.17 2.14-1.09 3.79-3.07 4.77-.52.25-1 .58-1.51.84-1.06.55-2.11.52-3.13-.11-.84-.52-1.69-1.04-2.55-1.54-.95-.55-1.9-1.11-2.88-1.6-1.13-.57-2.2-1.19-3.06-2.16-.6-.68-1.05-.71-1.79-.19-.51.35-.95.82-1.44 1.2-1.54 1.21-3.22 1.42-5.02.67-.85-.35-1.52-.95-1.92-1.78-.5-1.04-1-2.08-1.4-3.15-.38-1.04-.57-2.13-.16-3.23.21-.55.66-.82 1.22-.76.61.07.95.41.98 1.02.01.31-.02.63-.03.94-.1 2.13 1.02 3.69 2.43 5.07.59.57 1.38.45 2.06.09.45-.24.85-.6 1.25-.94.36-.3.66-.69 1.05-.95 1.38-.92 2.41-.84 3.65-.03.17.11.33.25.48.4 1.45 1.38 3.13 2.44 4.88 3.4 1.19.66 2.32 1.41 3.48 2.12.23.16.45.29.64.42zM369.11 266.58c.65.55.71 1.26.53 1.91-.89 3.17-2.64 5.57-6.06 6.33-2.37.53-4.58.15-6.55-1.33-2.43-1.83-4.24-4.18-5.58-6.89-.65-1.31-.79-2.67-.63-4.12.36-3.24 1.57-6.06 4.01-8.28.46-.42.96-.81 1.5-1.13.9-.54 1.89-.56 2.89-.35.05.01.12.02.15.05.16.19.37.38.42.6.03.13-.15.4-.31.48-.37.19-.77.31-1.17.44-1.12.37-2.1.97-2.81 1.91-1.32 1.74-2.12 3.73-2.46 5.87-.29 1.82.13 3.53 1.07 5.12.88 1.5 2.07 2.76 3.24 4.02.77.82 1.81 1.26 2.89 1.49.82.17 1.66.23 2.49.28.75.04 1.43-.22 2.05-.66 1.5-1.08 2.55-2.48 2.98-4.29.16-.65.39-1.19 1.08-1.41.05-.02.11-.02.27-.04z" class="st25"/><path d="M419.93 136.7c-.47 0-.95.04-1.41-.01-1.42-.15-2.29-1.22-2.3-2.69 0-1.41 1-2.55 2.35-2.65 2.08-.15 4.17-.29 6.24-.59 6.38-.93 12.63-2.35 18.45-5.26.37-.19.76-.34 1.16-.47 1.03-.33 1.99.01 2.59.9.81 1.21.56 2.9-.64 3.78-.54.4-1.16.71-1.77 1-3.41 1.62-6.95 2.86-10.61 3.78-3.55.9-7.17 1.43-10.79 1.91-1.09.14-2.17.28-3.26.41-.01-.04-.01-.07-.01-.11zM357.04 108.19c.26.54.19 1.05-.02 1.54-.64 1.51-.61 3.06-.35 4.62.24 1.44.45 2.89.78 4.32.64 2.8 2.16 5.07 4.36 6.9.74.61 1.56 1.05 2.45 1.38.93.34 1.88.65 2.79 1.04 2.13.93 4.34 1.5 6.64 1.77 1.39.16 1.71.78 1.11 2-.55 1.13-1.43 1.58-2.7 1.32a38.22 38.22 0 0 1-9.9-3.42c-3.09-1.58-5.3-4.04-6.74-7.18-.24-.52-.43-1.07-.53-1.63-.3-1.7-.64-3.4-.78-5.11-.18-2.11.16-4.17 1-6.13.12-.29.25-.58.43-.83.35-.5.82-.77 1.46-.59z" class="st24"/><path d="M403.26 334.14c.61.3.83.75.59 1.41-.11.29-.22.59-.36.87-.56 1.13-.57 2.26-.29 3.5.68 2.94-.34 5.35-2.65 7.23-.36.29-.79.51-1.22.7-1.06.47-2.12.49-3.17-.08-1.38-.75-2.77-1.46-4.16-2.2-.32-.17-.65-.34-.96-.54-1.13-.71-2.22-.73-3.39-.04-2.09 1.23-4.11.95-6-.49-.91-.7-1.82-1.41-2.71-2.14-1.43-1.18-2.26-2.72-2.62-4.52-.27-1.34-.35-2.69-.39-4.05-.07-2.17.68-4.11 1.63-5.99.15-.3.47-.55.78-.71.42-.23.82-.03 1.13.29.28.29.35.64.17 1.01-.11.24-.24.46-.37.69-.7 1.26-1.09 2.6-1.11 4.04-.02 1.05-.03 2.09-.01 3.14.02 1.13.37 2.17 1.01 3.09 1.13 1.6 2.51 2.94 4.23 3.91.27.15.55.3.84.41.9.35 1.79.31 2.48-.4 1.23-1.26 2.52-1.25 3.98-.45 1.88 1.04 3.79 2 5.67 3.03 1.75.96 3.09.62 4.07-1.12.33-.59.57-1.23.82-1.86.32-.81.36-1.64-.01-2.44-.5-1.08-.39-2.14.04-3.2.28-.68.56-1.36.9-2 .24-.44.51-.92 1.08-1.09z" class="st25"/><path d="M402.7 302.08c-.23 2.14.52 4.09 1.93 5.82.98 1.2 2.13 2 3.78 1.74.3-.05.64-.06.82.29.12.24-.1.67-.44.92-1.3.93-3.59.7-4.95-.53-1.1-.99-1.96-2.18-2.57-3.53-.76-1.69-1.12-3.48-.99-5.34.04-.51.14-1.04.31-1.52.19-.56.65-.78 1.24-.75.48.02.83.29.85.75.05.67.02 1.35.02 2.15z" class="st19"/><path fill="#d09091" d="M416.16 255.66c.28-.7.74-.97 1.16-1.26 1.17-.81 2.44-1.4 3.79-1.83.96-.3 1.84-.27 2.71.25.36.22.72.42 1.09.61.23.11.48.22.73.27.61.12 1.02-.19 1.09-.8.04-.31.01-.63.05-.94.09-.72.44-1.31 1.09-1.62 1.08-.52 2.18-.99 3.28-1.46.71-.31 1.44-.21 2.15.03.59.2 1.15.45 1.81.7-.08.37-.1.67-.2.95a7.828 7.828 0 0 1-2.75 3.72c-2.02 1.53-4.31 2.3-6.81 2.51-.73.06-1.46.02-2.19.02-1.35 0-2.69-.27-4.06-.19-1 .04-2.06-.19-2.94-.96z"/></svg>